%FSLAX23Y23*%
%MOIN*%
G04 EasyPC Gerber Version 16.0.6 Build 3249 *
%ADD10C,0.00500*%
%ADD110C,0.10000*%
X0Y0D02*
D02*
D10*
X153Y257D02*
X156Y250D01*
X163Y247*
X175*
X181Y250*
X184Y257*
X181Y263*
X175Y266*
X163*
X156Y269*
X153Y275*
X156Y282*
X163Y285*
X175*
X181Y282*
X184Y275*
X153Y355D02*
X156Y349D01*
X163Y346*
X175*
X181Y349*
X184Y355*
X181Y361*
X175Y364*
X163*
X156Y368*
X153Y374*
X156Y380*
X163Y383*
X175*
X181Y380*
X184Y374*
X153Y453D02*
X156Y447D01*
X163Y444*
X175*
X181Y447*
X184Y453*
X181Y460*
X175Y463*
X163*
X156Y466*
X153Y472*
X156Y478*
X163Y482*
X175*
X181Y478*
X184Y472*
X153Y552D02*
X156Y546D01*
X163Y542*
X175*
X181Y546*
X184Y552*
X181Y558*
X175Y561*
X163*
X156Y564*
X153Y571*
X156Y577*
X163Y580*
X175*
X181Y577*
X184Y571*
X153Y650D02*
X156Y644D01*
X163Y641*
X175*
X181Y644*
X184Y650*
X181Y657*
X175Y660*
X163*
X156Y663*
X153Y669*
X156Y675*
X163Y678*
X175*
X181Y675*
X184Y669*
X153Y749D02*
X156Y742D01*
X163Y739*
X175*
X181Y742*
X184Y749*
X181Y755*
X175Y758*
X163*
X156Y761*
X153Y767*
X156Y774*
X163Y777*
X175*
X181Y774*
X184Y767*
X203Y1074D02*
X218Y1112D01*
X234Y1074*
X209Y1090D02*
X228D01*
X284Y1081D02*
X281Y1077D01*
X274Y1074*
X265*
X259Y1077*
X256Y1081*
X253Y1087*
Y1099*
X256Y1106*
X259Y1109*
X265Y1112*
X274*
X281Y1109*
X284Y1106*
X303Y992D02*
Y954D01*
X334*
X373Y1072D02*
Y1034D01*
X404*
X393Y572D02*
Y534D01*
X424*
X453Y274D02*
X468Y312D01*
X484Y274*
X459Y290D02*
X477D01*
X534Y281D02*
X531Y278D01*
X524Y274*
X515*
X509Y278*
X506Y281*
X502Y287*
Y299*
X506Y306*
X509Y309*
X515Y312*
X524*
X531Y309*
X534Y306*
X473Y592D02*
Y554D01*
X504*
X653Y912D02*
Y874D01*
X684*
X663Y662D02*
Y624D01*
X694*
X752Y331D02*
Y368D01*
X767Y349*
X783Y368*
Y331*
X753Y922D02*
Y884D01*
X784*
X1002Y331D02*
Y368D01*
X1017Y349*
X1033Y368*
Y331*
X1103Y812D02*
Y774D01*
X1134*
X1103Y882D02*
Y844D01*
X1134*
X1103Y952D02*
Y914D01*
X1134*
X1133Y722D02*
Y684D01*
X1164*
X1393Y554D02*
X1408Y592D01*
X1424Y554*
X1399Y570D02*
X1418D01*
X1464Y573D02*
X1471Y570D01*
X1474Y564*
X1471Y558*
X1464Y554*
X1443*
Y592*
X1464*
X1471Y589*
X1474Y583*
X1471Y576*
X1464Y573*
X1443*
X1393Y854D02*
X1408Y892D01*
X1424Y854*
X1399Y870D02*
X1418D01*
X1464Y873D02*
X1471Y870D01*
X1474Y864*
X1471Y858*
X1464Y854*
X1443*
Y892*
X1464*
X1471Y889*
X1474Y883*
X1471Y876*
X1464Y873*
X1443*
X1432Y331D02*
Y368D01*
X1447Y349*
X1463Y368*
Y331*
X1433Y944D02*
X1448Y982D01*
X1464Y944*
X1439Y960D02*
X1458D01*
X1504Y963D02*
X1511Y960D01*
X1514Y954*
X1511Y948*
X1504Y944*
X1483*
Y982*
X1504*
X1511Y979*
X1514Y973*
X1511Y966*
X1504Y963*
X1483*
X1433Y1094D02*
X1448Y1132D01*
X1464Y1094*
X1439Y1110D02*
X1458D01*
X1504Y1113D02*
X1511Y1110D01*
X1514Y1104*
X1511Y1098*
X1504Y1094*
X1483*
Y1132*
X1504*
X1511Y1129*
X1514Y1123*
X1511Y1116*
X1504Y1113*
X1483*
X1682Y331D02*
Y368D01*
X1697Y349*
X1713Y368*
Y331*
X1803Y624D02*
X1818Y662D01*
X1834Y624*
X1809Y640D02*
X1828D01*
X1884Y631D02*
X1881Y627D01*
X1874Y624*
X1865*
X1859Y627*
X1856Y631*
X1853Y637*
Y649*
X1856Y656*
X1859Y659*
X1865Y662*
X1874*
X1881Y659*
X1884Y656*
X1803Y1074D02*
X1818Y1112D01*
X1834Y1074*
X1809Y1090D02*
X1828D01*
X1884Y1081D02*
X1881Y1077D01*
X1874Y1074*
X1865*
X1859Y1077*
X1856Y1081*
X1853Y1087*
Y1099*
X1856Y1106*
X1859Y1109*
X1865Y1112*
X1874*
X1881Y1109*
X1884Y1106*
D02*
D110*
X53Y188D03*
Y286D03*
Y385D03*
Y483D03*
Y582D03*
Y680D03*
X103Y1015D03*
X203Y895D03*
X273Y975D03*
X293Y475D03*
X353Y215D03*
X373Y495D03*
X553Y815D03*
X563Y565D03*
X652Y271D03*
X653Y825D03*
X902Y271D03*
X1002Y715D03*
Y785D03*
Y855D03*
X1033Y625D03*
X1293Y495D03*
Y795D03*
X1332Y271D03*
X1333Y885D03*
Y1035D03*
X1582Y271D03*
X1703Y565D03*
Y1015D03*
X0Y0D02*
M02*
