%FSLAX23Y23*%
%MOIN*%
G04 EasyPC Gerber Version 16.0.6 Build 3249 *
%ADD10C,0.00500*%
X0Y0D02*
D02*
D10*
X14Y719D02*
Y129D01*
X93*
Y719*
X14*
X118Y295D02*
X115Y292D01*
X112Y286*
X115Y279*
X118Y276*
X149*
Y270*
Y276D02*
Y289D01*
X112Y229D02*
X149D01*
X124Y245*
Y220*
X93Y725D02*
X56D01*
Y747*
X59Y753*
X65Y756*
X71Y753*
X74Y747*
Y725*
Y747D02*
X93Y756D01*
X90Y775D02*
X93Y781D01*
Y791*
X90Y797*
X84Y800*
X81*
X74Y797*
X71Y791*
Y775*
X56*
Y800*
X134Y871D02*
X131Y868D01*
X124Y864*
X115*
X109Y868*
X106Y871*
X103Y877*
Y889*
X106Y896*
X109Y899*
X115Y902*
X124*
X131Y899*
X134Y896*
X153Y874D02*
X156Y880D01*
X162Y883*
X168*
X174Y880*
X178Y874*
X174Y868*
X168Y864*
X162*
X156Y868*
X153Y874*
Y883*
X156Y892*
X162Y899*
X168Y902*
X104Y333D02*
G75*
G03Y294J-20D01*
G01*
G75*
G03Y333J20*
G01*
X113Y735D02*
Y657D01*
X231*
Y735*
X113*
X124Y333D02*
X320D01*
Y648*
X124*
Y333*
X183Y855D02*
X104D01*
Y737*
X183*
Y855*
X213Y754D02*
Y792D01*
X234*
X241Y789*
X244Y783*
X241Y776*
X234Y773*
X213*
X234D02*
X244Y754D01*
X263Y764D02*
X266Y770D01*
X272Y773*
X278*
X284Y770*
X288Y764*
X284Y758*
X278Y754*
X272*
X266Y758*
X263Y764*
Y773*
X266Y783*
X272Y789*
X278Y792*
X252Y885D02*
X289D01*
Y866*
X286Y860*
X283Y857*
X277Y854*
X264*
X258Y857*
X255Y860*
X252Y866*
Y885*
Y829D02*
Y816D01*
Y823D02*
X289D01*
X283Y829*
X263Y735D02*
Y657D01*
X381*
Y735*
X263*
X334Y1031D02*
X331Y1028D01*
X324Y1024*
X315*
X309Y1028*
X306Y1031*
X303Y1037*
Y1049*
X306Y1056*
X309Y1059*
X315Y1062*
X324*
X331Y1059*
X334Y1056*
X356Y1028D02*
X362Y1024D01*
X368*
X374Y1028*
X378Y1034*
X374Y1040*
X368Y1043*
X362*
X368D02*
X374Y1046D01*
X378Y1053*
X374Y1059*
X368Y1062*
X362*
X356Y1059*
X332Y535D02*
X411D01*
Y653*
X332*
Y535*
X374Y663D02*
G75*
G03Y624J-20D01*
G01*
G75*
G03Y663J20*
G01*
X336Y355D02*
X364D01*
X370Y358*
X373Y364*
Y377*
X370Y383*
X364Y386*
X336*
X370Y408D02*
X373Y414D01*
Y421*
X370Y427*
X364Y430*
X358Y427*
X354Y421*
Y414*
Y421D02*
X351Y427D01*
X345Y430*
X339Y427*
X336Y421*
Y414*
X339Y408*
X383Y865D02*
X304D01*
Y747*
X383*
Y865*
Y1005D02*
X304D01*
Y887*
X383*
Y1005*
X394Y663D02*
X590D01*
Y978*
X394*
Y663*
X381Y519D02*
X384Y523D01*
X391Y526*
X400*
X406Y523*
X409Y519*
X413Y513*
Y501*
X409Y494*
X406Y491*
X400Y488*
X391*
X384Y491*
X381Y494*
X363Y523D02*
X356Y526D01*
X347*
X341Y523*
X338Y516*
Y513*
X341Y507*
X347Y504*
X363*
Y488*
X338*
X422Y635D02*
X459D01*
Y613*
X456Y607*
X450Y604*
X444Y607*
X441Y613*
Y635*
Y613D02*
X422Y604D01*
X425Y582D02*
X422Y576D01*
Y569*
X425Y563*
X431Y560*
X438Y563*
X441Y569*
Y576*
Y569D02*
X444Y563D01*
X450Y560*
X456Y563*
X459Y569*
Y576*
X456Y582*
X423Y525D02*
Y447D01*
X541*
Y525*
X423*
X455Y429D02*
X494D01*
X1124*
Y114*
X455*
Y429*
X562Y515D02*
X599D01*
Y493*
X596Y487*
X590Y484*
X584Y487*
X581Y493*
Y515*
Y493D02*
X562Y484D01*
Y449D02*
X599D01*
X574Y465*
Y440*
X553Y655D02*
X474D01*
Y537*
X553*
Y655*
X602Y875D02*
X681D01*
Y993*
X602*
Y875*
X644Y1021D02*
X641Y1018D01*
X634Y1014*
X625*
X619Y1018*
X616Y1021*
X613Y1027*
Y1039*
X616Y1046*
X619Y1049*
X625Y1052*
X634*
X641Y1049*
X644Y1046*
X678Y1014D02*
Y1052D01*
X663Y1027*
X688*
X632Y645D02*
X669D01*
Y623*
X666Y617*
X660Y614*
X654Y617*
X651Y623*
Y645*
Y623D02*
X632Y614D01*
Y595D02*
X669Y570D01*
Y595*
X683Y785D02*
X604D01*
Y667*
X683*
Y785*
X897Y432D02*
X1173D01*
Y573*
X897*
Y432*
X1003Y1044D02*
X688D01*
Y611*
X1003*
Y1044*
X1039Y772D02*
Y615D01*
X1196*
Y772*
X1039*
X1124Y827D02*
Y996D01*
X1014*
Y827*
X1124*
X1135Y429D02*
X1174D01*
X1804*
Y114*
X1135*
Y429*
X1177Y886D02*
X1180Y883D01*
X1183Y877*
Y868*
X1180Y861*
X1177Y858*
X1171Y855*
X1158*
X1152Y858*
X1149Y861*
X1146Y868*
Y877*
X1149Y883*
X1152Y886*
X1183Y911D02*
Y924D01*
Y918D02*
X1146D01*
X1152Y911*
X1449Y830D02*
Y555D01*
X1591*
Y830*
X1449*
X0Y0D02*
M02*
