%FSLAX23Y23*%
%MOIN*%
G04 EasyPC Gerber Version 16.0.6 Build 3249 *
%ADD129R,0.02962X0.06506*%
%ADD19R,0.04340X0.04931*%
%ADD128R,0.06112X0.10443*%
%ADD130R,0.06506X0.11624*%
%ADD71R,0.06600X0.06600*%
%ADD123R,0.12411X0.12411*%
%ADD70C,0.06600*%
%ADD122C,0.06600*%
%ADD126R,0.04537X0.03356*%
%ADD18R,0.04931X0.04340*%
%ADD132R,0.05718X0.04734*%
%ADD127R,0.10443X0.06112*%
%ADD125C,0.13600*%
%ADD131R,0.25403X0.24616*%
X0Y0D02*
D02*
D18*
X143Y768D03*
Y825D03*
X343Y778D03*
Y835D03*
Y918D03*
Y975D03*
X372Y565D03*
Y622D03*
X513Y568D03*
Y625D03*
X642Y905D03*
Y962D03*
X643Y698D03*
Y755D03*
D02*
D19*
X142Y696D03*
X199D03*
X292D03*
X349D03*
X452Y486D03*
X509D03*
D02*
D70*
X53Y286D03*
Y385D03*
Y483D03*
Y582D03*
Y680D03*
D02*
D71*
Y188D03*
D02*
D122*
X1293Y495D03*
Y795D03*
X1333Y885D03*
Y1035D03*
D02*
D123*
X652Y271D03*
X902D03*
X1332D03*
X1582D03*
D02*
D125*
X103Y1015D03*
X353Y215D03*
X1703Y565D03*
Y1015D03*
D02*
D126*
X1078Y658D03*
Y695D03*
Y733D03*
X1173Y658D03*
Y733D03*
D02*
D127*
X1520Y598D03*
Y791D03*
D02*
D128*
X937Y503D03*
X1130D03*
D02*
D129*
X142Y372D03*
Y585D03*
X193Y372D03*
Y585D03*
X243Y372D03*
Y585D03*
X293Y372D03*
Y585D03*
X413Y702D03*
Y915D03*
X463Y702D03*
Y915D03*
X513Y702D03*
Y915D03*
X563Y702D03*
Y915D03*
D02*
D130*
X753Y985D03*
X933D03*
D02*
D131*
X843Y739D03*
D02*
D132*
X1069Y865D03*
Y957D03*
X0Y0D02*
M02*
