%FSLAX23Y23*%
%MOIN*%
G04 EasyPC Gerber Version 16.0.6 Build 3249 *
%ADD115R,0.02362X0.05906*%
%ADD74R,0.03740X0.04331*%
%ADD114R,0.05512X0.09843*%
%ADD116R,0.05906X0.11024*%
%ADD80R,0.06000X0.06000*%
%ADD119R,0.11811X0.11811*%
%ADD89C,0.01500*%
%ADD88C,0.02000*%
%ADD90C,0.02500*%
%ADD150C,0.04000*%
%ADD120C,0.04800*%
%ADD121C,0.05000*%
%ADD79C,0.06000*%
%ADD112C,0.06000*%
%ADD110C,0.10000*%
%ADD124C,0.13000*%
%ADD111R,0.03937X0.02756*%
%ADD75R,0.04331X0.03740*%
%ADD118R,0.05118X0.04134*%
%ADD113R,0.09843X0.05512*%
%ADD117R,0.24803X0.24016*%
X0Y0D02*
D02*
D74*
X142Y696D03*
X199D03*
X292D03*
X349D03*
X452Y486D03*
X509D03*
D02*
D75*
X143Y768D03*
Y825D03*
X343Y778D03*
Y835D03*
Y918D03*
Y975D03*
X372Y565D03*
Y622D03*
X513Y568D03*
Y625D03*
X642Y905D03*
Y962D03*
X643Y698D03*
Y755D03*
D02*
D79*
X53Y286D03*
Y385D03*
Y483D03*
Y582D03*
Y680D03*
D02*
D80*
Y188D03*
D02*
D88*
X513Y702D02*
Y626D01*
X513Y625*
Y568D02*
X559D01*
X563Y565*
X513Y568D02*
Y490D01*
X509Y486*
X1033Y625D02*
X1045D01*
X1078Y658*
X1173D02*
Y635D01*
Y733D02*
Y745D01*
D02*
D89*
X142Y372D02*
X65D01*
X53Y385*
X193Y372D02*
Y435D01*
X163Y465*
X71*
X53Y483*
X193Y585D02*
Y689D01*
X199Y696*
X243Y372D02*
Y445D01*
X183Y505*
X130*
X53Y582*
X243Y585D02*
Y745D01*
X333Y835*
X343*
X343Y835*
X293Y585D02*
Y696D01*
X292Y696*
X343Y835D02*
Y835D01*
X413*
X463Y885*
Y915*
X349Y696D02*
Y698D01*
X343Y705*
Y777*
X343Y778*
X349Y696D02*
Y644D01*
X372Y622*
Y625*
X423*
X463Y665*
Y702*
X513Y915D02*
Y885D01*
X403Y775*
X360*
X357Y778*
X343*
X563Y915D02*
Y955D01*
X573Y965*
X638*
X642Y962*
X643Y698D02*
X619D01*
X613Y705*
X565*
X563Y702*
X643Y698D02*
X632Y687D01*
Y495*
X553Y415*
X433*
X323Y305*
X213*
X93Y185*
X53*
Y188*
D02*
D90*
X142Y696D02*
Y767D01*
X143Y768*
X142Y585D02*
Y595D01*
X133Y605*
Y686*
X142Y696*
X143Y768D02*
X186D01*
X282Y865*
Y875*
X323Y915*
X340*
X343Y918*
X143Y825D02*
Y836D01*
X203Y895*
X293Y372D02*
Y475D01*
X343Y918D02*
X409D01*
X413Y915*
X343Y975D02*
X273D01*
X273Y975*
X372Y565D02*
Y496D01*
X373Y495*
X413Y702D02*
Y735D01*
X493Y815*
X553*
X413Y915D02*
Y995D01*
X443Y1025*
X733*
X743Y1015*
Y995*
X753Y985*
X452Y486D02*
X382D01*
X373Y495*
X642Y905D02*
Y904D01*
X553Y815*
X643Y755D02*
X642D01*
X632Y765*
X603*
X553Y815*
X653Y825D02*
X756D01*
X843Y739*
X1069Y865D02*
X1012D01*
X1002Y855*
X1078Y695D02*
X1022D01*
X1002Y715*
D02*
D110*
X1332Y271D02*
Y456D01*
X1293Y495*
D02*
D111*
X1078Y658D03*
Y695D03*
Y733D03*
X1173Y658D03*
Y733D03*
D02*
D112*
X1293Y495D03*
Y795D03*
X1333Y885D03*
Y1035D03*
D02*
D113*
X1520Y598D03*
Y791D03*
D02*
D114*
X937Y503D03*
X1130D03*
D02*
D115*
X142Y372D03*
Y585D03*
X193Y372D03*
Y585D03*
X243Y372D03*
Y585D03*
X293Y372D03*
Y585D03*
X413Y702D03*
Y915D03*
X463Y702D03*
Y915D03*
X513Y702D03*
Y915D03*
X563Y702D03*
Y915D03*
D02*
D116*
X753Y985D03*
X933D03*
D02*
D117*
X843Y739D03*
D02*
D118*
X1069Y865D03*
Y957D03*
D02*
D119*
X652Y271D03*
X902D03*
X1332D03*
X1582D03*
D02*
D120*
X203Y895D03*
X273Y975D03*
X293Y475D03*
X373Y495D03*
X553Y815D03*
X563Y565D03*
X653Y825D03*
X1002Y715D03*
Y785D03*
Y855D03*
X1033Y625D03*
D02*
D121*
X937Y503D02*
Y419D01*
X903Y385*
Y272*
X902Y271*
X1069Y957D02*
X1010D01*
X983Y985*
X933*
X1173Y635D02*
Y585D01*
X1130Y542*
Y503*
X1173Y745D02*
Y805D01*
X1283*
X1293Y795*
X1173Y805D02*
Y915D01*
X1133Y955*
X1071*
X1069Y957*
X1293Y795D02*
Y805D01*
X1333Y845*
Y885*
Y905*
X1453*
X1513Y845*
Y798*
X1520Y791*
Y598D02*
Y405D01*
X1523*
X1575Y352*
Y339*
X1582Y332*
Y271*
D02*
D124*
X103Y1015D03*
X353Y215D03*
X1703Y565D03*
Y1015D03*
D02*
D150*
X843Y739D02*
X846D01*
X963Y855*
X1002*
X843Y739D02*
X876D01*
X923Y785*
X1002*
X843Y739D02*
Y715D01*
X1002*
Y785*
Y855*
X0Y0D02*
M02*
