%FSLAX23Y23*%
%MOIN*%
G04 EasyPC Gerber Version 16.0.6 Build 3249 *
%ADD80R,0.06000X0.06000*%
%ADD119R,0.11811X0.11811*%
%ADD10C,0.00500*%
%ADD23C,0.01000*%
%ADD88C,0.02000*%
%ADD120C,0.04800*%
%ADD121C,0.05000*%
%ADD79C,0.06000*%
%ADD112C,0.06000*%
%ADD110C,0.10000*%
%ADD124C,0.13000*%
X0Y0D02*
D02*
D10*
X43Y327D02*
G75*
G02X82Y255I11J-41D01*
G01*
X243*
X473Y485*
Y625*
X653*
X753Y725*
Y1045*
X273*
X43Y815*
Y723*
G75*
G02X53Y724I11J-43*
G01*
G75*
G02Y635J-44*
G01*
G75*
G02X43Y637I0J44*
G01*
Y625*
G75*
G02X53Y626I11J-43*
G01*
G75*
G02Y537J-44*
G01*
G75*
G02X43Y538I0J44*
G01*
Y526*
G75*
G02X53Y528I11J-43*
G01*
G75*
G02Y439J-44*
G01*
G75*
G02X43Y440I0J44*
G01*
Y428*
G75*
G02X53Y429I11J-43*
G01*
G75*
G02Y340J-44*
G01*
G75*
G02X43Y341I0J44*
G01*
Y327*
X166Y895D02*
G75*
G02X239I37D01*
G01*
G75*
G02X166I-37*
G01*
X236Y975D02*
G75*
G02X309I37D01*
G01*
G75*
G02X236I-37*
G01*
X256Y475D02*
G75*
G02X329I37D01*
G01*
G75*
G02X256I-37*
G01*
X336Y495D02*
G75*
G02X409I37D01*
G01*
G75*
G02X336I-37*
G01*
X516Y815D02*
G75*
G02X589I37D01*
G01*
G75*
G02X516I-37*
G01*
X616Y825D02*
G75*
G02X689I37D01*
G01*
G75*
G02X616I-37*
G01*
X123Y895D02*
G36*
X43Y815D01*
X516*
G75*
G02X589I37*
G01*
X617*
G75*
G02X616Y825I35J10*
G01*
G75*
G02X689I37*
G01*
G75*
G02X688Y815I-37J0*
G01*
X753*
Y895*
X239*
G75*
G02X166I-37*
G01*
X123*
G37*
X166D02*
G36*
G75*
G02X239I37D01*
G01*
X753*
Y975*
X309*
G75*
G02X236I-37*
G01*
X203*
X123Y895*
X166*
G37*
X236Y975D02*
G36*
G75*
G02X309I37D01*
G01*
X753*
Y1045*
X273*
X203Y975*
X236*
G37*
X97Y475D02*
G36*
G75*
G02X53Y439I-44J8D01*
G01*
G75*
G02X43Y440I0J44*
G01*
Y428*
G75*
G02X53Y429I11J-43*
G01*
G75*
G02Y340J-44*
G01*
G75*
G02X43Y341I0J44*
G01*
Y327*
G75*
G02X82Y255I11J-41*
G01*
X243*
X463Y475*
X403*
G75*
G02X342I-31J20*
G01*
X329*
G75*
G02X256I-37*
G01*
X97*
G37*
X256D02*
G36*
G75*
G02X329I37D01*
G01*
X342*
G75*
G02X336Y495I31J20*
G01*
G75*
G02X409I37*
G01*
G75*
G02X403Y475I-37*
G01*
X463*
X473Y485*
Y625*
X653*
X753Y725*
Y815*
X688*
G75*
G02X617I-35J10*
G01*
X589*
G75*
G02X516I-37*
G01*
X43*
Y723*
G75*
G02X53Y724I11J-43*
G01*
G75*
G02Y635J-44*
G01*
G75*
G02X43Y637I0J44*
G01*
Y625*
G75*
G02X53Y626I11J-43*
G01*
G75*
G02Y537J-44*
G01*
G75*
G02X43Y538I0J44*
G01*
Y526*
G75*
G02X53Y528I11J-43*
G01*
G75*
G02X97Y475J-44*
G01*
X256*
G37*
D02*
D23*
X53Y311D02*
Y331D01*
X78Y286D02*
X98D01*
X184Y895D02*
X164D01*
X203Y876D02*
Y856D01*
Y914D02*
Y934D01*
X222Y895D02*
X242D01*
X254Y975D02*
X234D01*
X273Y956D02*
Y936D01*
Y994D02*
Y1014D01*
X274Y475D02*
X254D01*
X292Y975D02*
X312D01*
X293Y456D02*
Y436D01*
Y494D02*
Y514D01*
X312Y475D02*
X332D01*
X353Y495D02*
X334D01*
X373Y476D02*
Y456D01*
Y514D02*
Y534D01*
X392Y495D02*
X412D01*
X534Y815D02*
X514D01*
X553Y796D02*
Y776D01*
Y834D02*
Y854D01*
X572Y815D02*
X592D01*
X634Y825D02*
X614D01*
X653Y806D02*
Y786D01*
Y844D02*
Y864D01*
X672Y825D02*
X692D01*
D02*
D79*
X53Y286D03*
Y385D03*
Y483D03*
Y582D03*
Y680D03*
D02*
D80*
Y188D03*
D02*
D88*
X1033Y625D02*
X773D01*
X713Y565*
X563*
D02*
D110*
X1333Y1035D02*
X1453D01*
X1543Y945*
Y605*
X1433Y495*
X1293*
D02*
D112*
D03*
Y795D03*
X1333Y885D03*
Y1035D03*
D02*
D119*
X652Y271D03*
X902D03*
X1332D03*
X1582D03*
D02*
D120*
X203Y895D03*
X273Y975D03*
X293Y475D03*
X373Y495D03*
X553Y815D03*
X563Y565D03*
X653Y825D03*
X1002Y715D03*
Y785D03*
Y855D03*
X1033Y625D03*
D02*
D121*
X1002Y715D02*
Y955D01*
X1083Y1035*
X1333*
X1332Y271D02*
X1236D01*
X1033Y475*
X813*
X653Y315*
Y272*
X652Y271*
D02*
D124*
X103Y1015D03*
X353Y215D03*
X1703Y565D03*
Y1015D03*
X0Y0D02*
M02*
