G04 #@! TF.FileFunction,Legend,Top*
%FSLAX46Y46*%
G04 Gerber Fmt 4.6, Leading zero omitted, Abs format (unit mm)*
G04 Created by KiCad (PCBNEW 4.0.3-stable) date 08/30/16 01:28:47*
%MOMM*%
%LPD*%
G01*
G04 APERTURE LIST*
%ADD10C,0.100000*%
%ADD11C,0.150000*%
G04 APERTURE END LIST*
D10*
D11*
X182730000Y-64155000D02*
X181730000Y-65155000D01*
X181730000Y-65155000D02*
X181730000Y-69215000D01*
X181730000Y-69215000D02*
X186030000Y-69215000D01*
X186030000Y-69215000D02*
X186030000Y-64155000D01*
X186030000Y-64155000D02*
X182730000Y-64155000D01*
X125815000Y-64470000D02*
X124815000Y-65470000D01*
X124815000Y-65470000D02*
X124815000Y-77410000D01*
X124815000Y-77410000D02*
X142705000Y-77410000D01*
X142705000Y-77410000D02*
X142705000Y-64470000D01*
X142705000Y-64470000D02*
X125815000Y-64470000D01*
X150955000Y-63550000D02*
X149955000Y-64550000D01*
X149955000Y-64550000D02*
X149955000Y-77170000D01*
X149955000Y-77170000D02*
X167845000Y-77170000D01*
X167845000Y-77170000D02*
X167845000Y-63550000D01*
X167845000Y-63550000D02*
X150955000Y-63550000D01*
X193350000Y-63895000D02*
X192350000Y-64895000D01*
X192350000Y-64895000D02*
X192350000Y-69725000D01*
X192350000Y-69725000D02*
X196650000Y-69725000D01*
X196650000Y-69725000D02*
X196650000Y-63895000D01*
X196650000Y-63895000D02*
X193350000Y-63895000D01*
X182515000Y-75050000D02*
X183015000Y-74550000D01*
X186015000Y-74550000D02*
X186515000Y-74550000D01*
X186515000Y-74550000D02*
X186515000Y-75050000D01*
X183015000Y-78550000D02*
X182515000Y-78550000D01*
X182515000Y-78550000D02*
X182515000Y-78050000D01*
X186015000Y-78550000D02*
X186515000Y-78550000D01*
X186515000Y-78550000D02*
X186515000Y-78050000D01*
X125770000Y-109335000D02*
X126770000Y-110335000D01*
X126770000Y-110335000D02*
X142570000Y-110335000D01*
X142570000Y-110335000D02*
X142570000Y-86335000D01*
X142570000Y-86335000D02*
X125770000Y-86335000D01*
X125770000Y-86335000D02*
X125770000Y-109335000D01*
X194720000Y-76300000D02*
X195230000Y-75790000D01*
X197210000Y-75790000D02*
X197720000Y-75790000D01*
X197720000Y-75790000D02*
X197720000Y-76300000D01*
X195230000Y-78790000D02*
X194720000Y-78790000D01*
X194720000Y-78790000D02*
X194720000Y-78280000D01*
X197210000Y-78790000D02*
X197720000Y-78790000D01*
X197720000Y-78790000D02*
X197720000Y-78280000D01*
X204060000Y-63840000D02*
X203060000Y-64840000D01*
X203060000Y-64840000D02*
X203060000Y-68900000D01*
X203060000Y-68900000D02*
X207360000Y-68900000D01*
X207360000Y-68900000D02*
X207360000Y-63840000D01*
X207360000Y-63840000D02*
X204060000Y-63840000D01*
X179265000Y-99580000D02*
X178265000Y-100580000D01*
X178265000Y-100580000D02*
X178265000Y-111580000D01*
X178265000Y-111580000D02*
X218265000Y-111580000D01*
X218265000Y-111580000D02*
X218265000Y-99580000D01*
X218265000Y-99580000D02*
X179265000Y-99580000D01*
X147805000Y-86610000D02*
X146790000Y-87625000D01*
X171930000Y-87625000D02*
X170915000Y-87625000D01*
X170915000Y-87625000D02*
X170915000Y-86610000D01*
X146790000Y-110735000D02*
X147805000Y-110735000D01*
X147805000Y-110735000D02*
X147805000Y-111750000D01*
X171930000Y-110735000D02*
X170915000Y-110735000D01*
X170915000Y-110735000D02*
X170915000Y-111750000D01*
X207530000Y-74945000D02*
X206530000Y-75945000D01*
X206530000Y-75945000D02*
X206530000Y-79095000D01*
X206530000Y-79095000D02*
X209330000Y-79095000D01*
X209330000Y-79095000D02*
X209330000Y-74945000D01*
X209330000Y-74945000D02*
X207530000Y-74945000D01*
X206555000Y-82250000D02*
X205555000Y-83250000D01*
X205555000Y-83250000D02*
X205555000Y-90110000D01*
X205555000Y-90110000D02*
X212905000Y-90110000D01*
X212905000Y-90110000D02*
X212905000Y-82250000D01*
X212905000Y-82250000D02*
X206555000Y-82250000D01*
X181740000Y-83540000D02*
X180740000Y-84540000D01*
X180740000Y-84540000D02*
X180740000Y-96470000D01*
X180740000Y-96470000D02*
X199520000Y-96470000D01*
X199520000Y-96470000D02*
X199520000Y-83540000D01*
X199520000Y-83540000D02*
X181740000Y-83540000D01*
X181072857Y-68284999D02*
X180501429Y-68684999D01*
X181072857Y-68970714D02*
X179872857Y-68970714D01*
X179872857Y-68513571D01*
X179930000Y-68399285D01*
X179987143Y-68342142D01*
X180101429Y-68284999D01*
X180272857Y-68284999D01*
X180387143Y-68342142D01*
X180444286Y-68399285D01*
X180501429Y-68513571D01*
X180501429Y-68970714D01*
X180444286Y-67770714D02*
X180444286Y-67370714D01*
X181072857Y-67199285D02*
X181072857Y-67770714D01*
X179872857Y-67770714D01*
X179872857Y-67199285D01*
X180444286Y-66285000D02*
X180444286Y-66685000D01*
X181072857Y-66685000D02*
X179872857Y-66685000D01*
X179872857Y-66113571D01*
X179872857Y-65485000D02*
X180158571Y-65485000D01*
X180044286Y-65770714D02*
X180158571Y-65485000D01*
X180044286Y-65199286D01*
X180387143Y-65656429D02*
X180158571Y-65485000D01*
X180387143Y-65313572D01*
X179872857Y-64570714D02*
X180158571Y-64570714D01*
X180044286Y-64856428D02*
X180158571Y-64570714D01*
X180044286Y-64285000D01*
X180387143Y-64742143D02*
X180158571Y-64570714D01*
X180387143Y-64399286D01*
X124157857Y-72539999D02*
X123586429Y-72939999D01*
X124157857Y-73225714D02*
X122957857Y-73225714D01*
X122957857Y-72768571D01*
X123015000Y-72654285D01*
X123072143Y-72597142D01*
X123186429Y-72539999D01*
X123357857Y-72539999D01*
X123472143Y-72597142D01*
X123529286Y-72654285D01*
X123586429Y-72768571D01*
X123586429Y-73225714D01*
X123529286Y-72025714D02*
X123529286Y-71625714D01*
X124157857Y-71454285D02*
X124157857Y-72025714D01*
X122957857Y-72025714D01*
X122957857Y-71454285D01*
X123529286Y-70540000D02*
X123529286Y-70940000D01*
X124157857Y-70940000D02*
X122957857Y-70940000D01*
X122957857Y-70368571D01*
X122957857Y-69740000D02*
X123243571Y-69740000D01*
X123129286Y-70025714D02*
X123243571Y-69740000D01*
X123129286Y-69454286D01*
X123472143Y-69911429D02*
X123243571Y-69740000D01*
X123472143Y-69568572D01*
X122957857Y-68825714D02*
X123243571Y-68825714D01*
X123129286Y-69111428D02*
X123243571Y-68825714D01*
X123129286Y-68540000D01*
X123472143Y-68997143D02*
X123243571Y-68825714D01*
X123472143Y-68654286D01*
X149297857Y-71959999D02*
X148726429Y-72359999D01*
X149297857Y-72645714D02*
X148097857Y-72645714D01*
X148097857Y-72188571D01*
X148155000Y-72074285D01*
X148212143Y-72017142D01*
X148326429Y-71959999D01*
X148497857Y-71959999D01*
X148612143Y-72017142D01*
X148669286Y-72074285D01*
X148726429Y-72188571D01*
X148726429Y-72645714D01*
X148669286Y-71445714D02*
X148669286Y-71045714D01*
X149297857Y-70874285D02*
X149297857Y-71445714D01*
X148097857Y-71445714D01*
X148097857Y-70874285D01*
X148669286Y-69960000D02*
X148669286Y-70360000D01*
X149297857Y-70360000D02*
X148097857Y-70360000D01*
X148097857Y-69788571D01*
X148097857Y-69160000D02*
X148383571Y-69160000D01*
X148269286Y-69445714D02*
X148383571Y-69160000D01*
X148269286Y-68874286D01*
X148612143Y-69331429D02*
X148383571Y-69160000D01*
X148612143Y-68988572D01*
X148097857Y-68245714D02*
X148383571Y-68245714D01*
X148269286Y-68531428D02*
X148383571Y-68245714D01*
X148269286Y-67960000D01*
X148612143Y-68417143D02*
X148383571Y-68245714D01*
X148612143Y-68074286D01*
X191692857Y-68409999D02*
X191121429Y-68809999D01*
X191692857Y-69095714D02*
X190492857Y-69095714D01*
X190492857Y-68638571D01*
X190550000Y-68524285D01*
X190607143Y-68467142D01*
X190721429Y-68409999D01*
X190892857Y-68409999D01*
X191007143Y-68467142D01*
X191064286Y-68524285D01*
X191121429Y-68638571D01*
X191121429Y-69095714D01*
X191064286Y-67895714D02*
X191064286Y-67495714D01*
X191692857Y-67324285D02*
X191692857Y-67895714D01*
X190492857Y-67895714D01*
X190492857Y-67324285D01*
X191064286Y-66410000D02*
X191064286Y-66810000D01*
X191692857Y-66810000D02*
X190492857Y-66810000D01*
X190492857Y-66238571D01*
X190492857Y-65610000D02*
X190778571Y-65610000D01*
X190664286Y-65895714D02*
X190778571Y-65610000D01*
X190664286Y-65324286D01*
X191007143Y-65781429D02*
X190778571Y-65610000D01*
X191007143Y-65438572D01*
X190492857Y-64695714D02*
X190778571Y-64695714D01*
X190664286Y-64981428D02*
X190778571Y-64695714D01*
X190664286Y-64410000D01*
X191007143Y-64867143D02*
X190778571Y-64695714D01*
X191007143Y-64524286D01*
X182915001Y-73642857D02*
X182515001Y-73071429D01*
X182229286Y-73642857D02*
X182229286Y-72442857D01*
X182686429Y-72442857D01*
X182800715Y-72500000D01*
X182857858Y-72557143D01*
X182915001Y-72671429D01*
X182915001Y-72842857D01*
X182857858Y-72957143D01*
X182800715Y-73014286D01*
X182686429Y-73071429D01*
X182229286Y-73071429D01*
X183429286Y-73014286D02*
X183829286Y-73014286D01*
X184000715Y-73642857D02*
X183429286Y-73642857D01*
X183429286Y-72442857D01*
X184000715Y-72442857D01*
X184915000Y-73014286D02*
X184515000Y-73014286D01*
X184515000Y-73642857D02*
X184515000Y-72442857D01*
X185086429Y-72442857D01*
X185715000Y-72442857D02*
X185715000Y-72728571D01*
X185429286Y-72614286D02*
X185715000Y-72728571D01*
X186000714Y-72614286D01*
X185543571Y-72957143D02*
X185715000Y-72728571D01*
X185886428Y-72957143D01*
X186629286Y-72442857D02*
X186629286Y-72728571D01*
X186343572Y-72614286D02*
X186629286Y-72728571D01*
X186915000Y-72614286D01*
X186457857Y-72957143D02*
X186629286Y-72728571D01*
X186800714Y-72957143D01*
X132570001Y-106362857D02*
X132170001Y-105791429D01*
X131884286Y-106362857D02*
X131884286Y-105162857D01*
X132341429Y-105162857D01*
X132455715Y-105220000D01*
X132512858Y-105277143D01*
X132570001Y-105391429D01*
X132570001Y-105562857D01*
X132512858Y-105677143D01*
X132455715Y-105734286D01*
X132341429Y-105791429D01*
X131884286Y-105791429D01*
X133084286Y-105734286D02*
X133484286Y-105734286D01*
X133655715Y-106362857D02*
X133084286Y-106362857D01*
X133084286Y-105162857D01*
X133655715Y-105162857D01*
X134570000Y-105734286D02*
X134170000Y-105734286D01*
X134170000Y-106362857D02*
X134170000Y-105162857D01*
X134741429Y-105162857D01*
X135370000Y-105162857D02*
X135370000Y-105448571D01*
X135084286Y-105334286D02*
X135370000Y-105448571D01*
X135655714Y-105334286D01*
X135198571Y-105677143D02*
X135370000Y-105448571D01*
X135541428Y-105677143D01*
X136284286Y-105162857D02*
X136284286Y-105448571D01*
X135998572Y-105334286D02*
X136284286Y-105448571D01*
X136570000Y-105334286D01*
X136112857Y-105677143D02*
X136284286Y-105448571D01*
X136455714Y-105677143D01*
X194620001Y-74797857D02*
X194220001Y-74226429D01*
X193934286Y-74797857D02*
X193934286Y-73597857D01*
X194391429Y-73597857D01*
X194505715Y-73655000D01*
X194562858Y-73712143D01*
X194620001Y-73826429D01*
X194620001Y-73997857D01*
X194562858Y-74112143D01*
X194505715Y-74169286D01*
X194391429Y-74226429D01*
X193934286Y-74226429D01*
X195134286Y-74169286D02*
X195534286Y-74169286D01*
X195705715Y-74797857D02*
X195134286Y-74797857D01*
X195134286Y-73597857D01*
X195705715Y-73597857D01*
X196620000Y-74169286D02*
X196220000Y-74169286D01*
X196220000Y-74797857D02*
X196220000Y-73597857D01*
X196791429Y-73597857D01*
X197420000Y-73597857D02*
X197420000Y-73883571D01*
X197134286Y-73769286D02*
X197420000Y-73883571D01*
X197705714Y-73769286D01*
X197248571Y-74112143D02*
X197420000Y-73883571D01*
X197591428Y-74112143D01*
X198334286Y-73597857D02*
X198334286Y-73883571D01*
X198048572Y-73769286D02*
X198334286Y-73883571D01*
X198620000Y-73769286D01*
X198162857Y-74112143D02*
X198334286Y-73883571D01*
X198505714Y-74112143D01*
X202402857Y-67969999D02*
X201831429Y-68369999D01*
X202402857Y-68655714D02*
X201202857Y-68655714D01*
X201202857Y-68198571D01*
X201260000Y-68084285D01*
X201317143Y-68027142D01*
X201431429Y-67969999D01*
X201602857Y-67969999D01*
X201717143Y-68027142D01*
X201774286Y-68084285D01*
X201831429Y-68198571D01*
X201831429Y-68655714D01*
X201774286Y-67455714D02*
X201774286Y-67055714D01*
X202402857Y-66884285D02*
X202402857Y-67455714D01*
X201202857Y-67455714D01*
X201202857Y-66884285D01*
X201774286Y-65970000D02*
X201774286Y-66370000D01*
X202402857Y-66370000D02*
X201202857Y-66370000D01*
X201202857Y-65798571D01*
X201202857Y-65170000D02*
X201488571Y-65170000D01*
X201374286Y-65455714D02*
X201488571Y-65170000D01*
X201374286Y-64884286D01*
X201717143Y-65341429D02*
X201488571Y-65170000D01*
X201717143Y-64998572D01*
X201202857Y-64255714D02*
X201488571Y-64255714D01*
X201374286Y-64541428D02*
X201488571Y-64255714D01*
X201374286Y-63970000D01*
X201717143Y-64427143D02*
X201488571Y-64255714D01*
X201717143Y-64084286D01*
X184170001Y-99122857D02*
X183770001Y-98551429D01*
X183484286Y-99122857D02*
X183484286Y-97922857D01*
X183941429Y-97922857D01*
X184055715Y-97980000D01*
X184112858Y-98037143D01*
X184170001Y-98151429D01*
X184170001Y-98322857D01*
X184112858Y-98437143D01*
X184055715Y-98494286D01*
X183941429Y-98551429D01*
X183484286Y-98551429D01*
X184684286Y-98494286D02*
X185084286Y-98494286D01*
X185255715Y-99122857D02*
X184684286Y-99122857D01*
X184684286Y-97922857D01*
X185255715Y-97922857D01*
X186170000Y-98494286D02*
X185770000Y-98494286D01*
X185770000Y-99122857D02*
X185770000Y-97922857D01*
X186341429Y-97922857D01*
X186970000Y-97922857D02*
X186970000Y-98208571D01*
X186684286Y-98094286D02*
X186970000Y-98208571D01*
X187255714Y-98094286D01*
X186798571Y-98437143D02*
X186970000Y-98208571D01*
X187141428Y-98437143D01*
X187884286Y-97922857D02*
X187884286Y-98208571D01*
X187598572Y-98094286D02*
X187884286Y-98208571D01*
X188170000Y-98094286D01*
X187712857Y-98437143D02*
X187884286Y-98208571D01*
X188055714Y-98437143D01*
X157760001Y-86457857D02*
X157360001Y-85886429D01*
X157074286Y-86457857D02*
X157074286Y-85257857D01*
X157531429Y-85257857D01*
X157645715Y-85315000D01*
X157702858Y-85372143D01*
X157760001Y-85486429D01*
X157760001Y-85657857D01*
X157702858Y-85772143D01*
X157645715Y-85829286D01*
X157531429Y-85886429D01*
X157074286Y-85886429D01*
X158274286Y-85829286D02*
X158674286Y-85829286D01*
X158845715Y-86457857D02*
X158274286Y-86457857D01*
X158274286Y-85257857D01*
X158845715Y-85257857D01*
X159760000Y-85829286D02*
X159360000Y-85829286D01*
X159360000Y-86457857D02*
X159360000Y-85257857D01*
X159931429Y-85257857D01*
X160560000Y-85257857D02*
X160560000Y-85543571D01*
X160274286Y-85429286D02*
X160560000Y-85543571D01*
X160845714Y-85429286D01*
X160388571Y-85772143D02*
X160560000Y-85543571D01*
X160731428Y-85772143D01*
X161474286Y-85257857D02*
X161474286Y-85543571D01*
X161188572Y-85429286D02*
X161474286Y-85543571D01*
X161760000Y-85429286D01*
X161302857Y-85772143D02*
X161474286Y-85543571D01*
X161645714Y-85772143D01*
X205872857Y-78619999D02*
X205301429Y-79019999D01*
X205872857Y-79305714D02*
X204672857Y-79305714D01*
X204672857Y-78848571D01*
X204730000Y-78734285D01*
X204787143Y-78677142D01*
X204901429Y-78619999D01*
X205072857Y-78619999D01*
X205187143Y-78677142D01*
X205244286Y-78734285D01*
X205301429Y-78848571D01*
X205301429Y-79305714D01*
X205244286Y-78105714D02*
X205244286Y-77705714D01*
X205872857Y-77534285D02*
X205872857Y-78105714D01*
X204672857Y-78105714D01*
X204672857Y-77534285D01*
X205244286Y-76620000D02*
X205244286Y-77020000D01*
X205872857Y-77020000D02*
X204672857Y-77020000D01*
X204672857Y-76448571D01*
X204672857Y-75820000D02*
X204958571Y-75820000D01*
X204844286Y-76105714D02*
X204958571Y-75820000D01*
X204844286Y-75534286D01*
X205187143Y-75991429D02*
X204958571Y-75820000D01*
X205187143Y-75648572D01*
X204672857Y-74905714D02*
X204958571Y-74905714D01*
X204844286Y-75191428D02*
X204958571Y-74905714D01*
X204844286Y-74620000D01*
X205187143Y-75077143D02*
X204958571Y-74905714D01*
X205187143Y-74734286D01*
X204897857Y-87779999D02*
X204326429Y-88179999D01*
X204897857Y-88465714D02*
X203697857Y-88465714D01*
X203697857Y-88008571D01*
X203755000Y-87894285D01*
X203812143Y-87837142D01*
X203926429Y-87779999D01*
X204097857Y-87779999D01*
X204212143Y-87837142D01*
X204269286Y-87894285D01*
X204326429Y-88008571D01*
X204326429Y-88465714D01*
X204269286Y-87265714D02*
X204269286Y-86865714D01*
X204897857Y-86694285D02*
X204897857Y-87265714D01*
X203697857Y-87265714D01*
X203697857Y-86694285D01*
X204269286Y-85780000D02*
X204269286Y-86180000D01*
X204897857Y-86180000D02*
X203697857Y-86180000D01*
X203697857Y-85608571D01*
X203697857Y-84980000D02*
X203983571Y-84980000D01*
X203869286Y-85265714D02*
X203983571Y-84980000D01*
X203869286Y-84694286D01*
X204212143Y-85151429D02*
X203983571Y-84980000D01*
X204212143Y-84808572D01*
X203697857Y-84065714D02*
X203983571Y-84065714D01*
X203869286Y-84351428D02*
X203983571Y-84065714D01*
X203869286Y-83780000D01*
X204212143Y-84237143D02*
X203983571Y-84065714D01*
X204212143Y-83894286D01*
X180082857Y-91604999D02*
X179511429Y-92004999D01*
X180082857Y-92290714D02*
X178882857Y-92290714D01*
X178882857Y-91833571D01*
X178940000Y-91719285D01*
X178997143Y-91662142D01*
X179111429Y-91604999D01*
X179282857Y-91604999D01*
X179397143Y-91662142D01*
X179454286Y-91719285D01*
X179511429Y-91833571D01*
X179511429Y-92290714D01*
X179454286Y-91090714D02*
X179454286Y-90690714D01*
X180082857Y-90519285D02*
X180082857Y-91090714D01*
X178882857Y-91090714D01*
X178882857Y-90519285D01*
X179454286Y-89605000D02*
X179454286Y-90005000D01*
X180082857Y-90005000D02*
X178882857Y-90005000D01*
X178882857Y-89433571D01*
X178882857Y-88805000D02*
X179168571Y-88805000D01*
X179054286Y-89090714D02*
X179168571Y-88805000D01*
X179054286Y-88519286D01*
X179397143Y-88976429D02*
X179168571Y-88805000D01*
X179397143Y-88633572D01*
X178882857Y-87890714D02*
X179168571Y-87890714D01*
X179054286Y-88176428D02*
X179168571Y-87890714D01*
X179054286Y-87605000D01*
X179397143Y-88062143D02*
X179168571Y-87890714D01*
X179397143Y-87719286D01*
M02*
