G04 #@! TF.FileFunction,Copper,L1,Top,Signal*
%FSLAX46Y46*%
G04 Gerber Fmt 4.6, Leading zero omitted, Abs format (unit mm)*
G04 Created by KiCad (PCBNEW 4.0.3-stable) date 08/30/16 01:28:47*
%MOMM*%
%LPD*%
G01*
G04 APERTURE LIST*
%ADD10C,0.100000*%
%ADD11R,0.760000X1.270000*%
%ADD12R,1.650000X2.540000*%
%ADD13R,0.760000X1.650000*%
%ADD14R,0.810000X0.250000*%
%ADD15R,0.250000X0.810000*%
%ADD16R,2.060000X2.060000*%
%ADD17R,1.650000X1.520000*%
%ADD18R,7.390000X1.520000*%
%ADD19R,0.790000X0.300000*%
%ADD20R,0.300000X0.790000*%
%ADD21R,1.700000X1.700000*%
%ADD22R,2.540000X3.050000*%
%ADD23R,3.050000X2.540000*%
%ADD24R,1.980000X1.520000*%
%ADD25R,1.520000X1.980000*%
%ADD26R,0.500000X0.950000*%
%ADD27R,0.800000X0.950000*%
%ADD28R,1.270000X1.780000*%
%ADD29R,2.540000X3.800000*%
G04 APERTURE END LIST*
D10*
D11*
X182610000Y-65290000D03*
X182610000Y-68080000D03*
X183880000Y-68080000D03*
X185150000Y-65290000D03*
X185150000Y-68080000D03*
D12*
X126140000Y-66240000D03*
X126140000Y-75640000D03*
X128680000Y-66240000D03*
X128680000Y-75640000D03*
X131220000Y-66240000D03*
X131220000Y-75640000D03*
X133760000Y-66240000D03*
X133760000Y-75640000D03*
X136300000Y-66240000D03*
X136300000Y-75640000D03*
X138840000Y-66240000D03*
X138840000Y-75640000D03*
X141380000Y-66240000D03*
X141380000Y-75640000D03*
X151280000Y-65320000D03*
X151280000Y-75400000D03*
X153820000Y-65320000D03*
X153820000Y-75400000D03*
X156360000Y-65320000D03*
X156360000Y-75400000D03*
X158900000Y-65320000D03*
X158900000Y-75400000D03*
X161440000Y-65320000D03*
X161440000Y-75400000D03*
X163980000Y-65320000D03*
X163980000Y-75400000D03*
X166520000Y-65320000D03*
X166520000Y-75400000D03*
D13*
X193230000Y-65220000D03*
X193230000Y-68400000D03*
X194500000Y-65220000D03*
X194500000Y-68400000D03*
X195770000Y-65220000D03*
X195770000Y-68400000D03*
D14*
X182670000Y-75550000D03*
X182670000Y-76050000D03*
X182670000Y-76550000D03*
X182670000Y-77050000D03*
X182670000Y-77550000D03*
D15*
X183515000Y-78395000D03*
X184015000Y-78395000D03*
X184515000Y-78395000D03*
X185015000Y-78395000D03*
X185515000Y-78395000D03*
D14*
X186360000Y-77550000D03*
X186360000Y-77050000D03*
X186360000Y-76550000D03*
X186360000Y-76050000D03*
X186360000Y-75550000D03*
D15*
X185515000Y-74705000D03*
X185015000Y-74705000D03*
X184515000Y-74705000D03*
X184015000Y-74705000D03*
X183515000Y-74705000D03*
D16*
X184515000Y-76550000D03*
D17*
X127070000Y-103360000D03*
X141270000Y-103360000D03*
X127070000Y-101350000D03*
X141270000Y-101350000D03*
X127070000Y-99340000D03*
X141270000Y-99340000D03*
X127070000Y-97330000D03*
X141270000Y-97330000D03*
X127070000Y-95320000D03*
X141270000Y-95320000D03*
X127070000Y-93310000D03*
X141270000Y-93310000D03*
D18*
X134170000Y-109005000D03*
X134170000Y-87665000D03*
D19*
X194780000Y-76960000D03*
X194780000Y-77620000D03*
D20*
X195890000Y-78730000D03*
X196550000Y-78730000D03*
D19*
X197660000Y-77620000D03*
X197660000Y-76960000D03*
D20*
X196550000Y-75850000D03*
X195890000Y-75850000D03*
D21*
X196220000Y-77290000D03*
D11*
X203940000Y-64975000D03*
X203940000Y-67765000D03*
X206480000Y-64975000D03*
X206480000Y-67765000D03*
D22*
X188740000Y-101960000D03*
X188740000Y-109200000D03*
X192550000Y-101960000D03*
X192550000Y-109200000D03*
X196360000Y-101960000D03*
X196360000Y-109200000D03*
X200170000Y-101960000D03*
X200170000Y-109200000D03*
X203980000Y-101960000D03*
X203980000Y-109200000D03*
X207790000Y-101960000D03*
X207790000Y-109200000D03*
D23*
X180470000Y-105580000D03*
X216060000Y-105580000D03*
D24*
X148285000Y-90800000D03*
X148285000Y-94990000D03*
X148285000Y-99180000D03*
X148285000Y-103370000D03*
X148285000Y-107560000D03*
D25*
X150980000Y-110255000D03*
X155170000Y-110255000D03*
X159360000Y-110255000D03*
X163550000Y-110255000D03*
X167740000Y-110255000D03*
D24*
X170435000Y-107560000D03*
X170435000Y-103370000D03*
X170435000Y-99180000D03*
X170435000Y-94990000D03*
X170435000Y-90800000D03*
D25*
X167740000Y-88105000D03*
X163550000Y-88105000D03*
X159360000Y-88105000D03*
X155170000Y-88105000D03*
X150980000Y-88105000D03*
D26*
X207280000Y-75920000D03*
X207280000Y-78120000D03*
X208580000Y-75920000D03*
D27*
X208430000Y-78120000D03*
D28*
X206690000Y-83640000D03*
X206690000Y-88720000D03*
X209230000Y-83640000D03*
X209230000Y-88720000D03*
X211770000Y-83640000D03*
X211770000Y-88720000D03*
D29*
X182510000Y-85940000D03*
X182510000Y-94070000D03*
X187590000Y-85940000D03*
X187590000Y-94070000D03*
X192670000Y-85940000D03*
X192670000Y-94070000D03*
X197750000Y-85940000D03*
X197750000Y-94070000D03*
M02*
