%FSLAX23Y23*%
%MOIN*%
G04 EasyPC Gerber Version 16.0.6 Build 3249 *
%ADD74R,0.03740X0.04331*%
%ADD150C,0.04000*%
%ADD108C,0.09000*%
%ADD75R,0.04331X0.03740*%
X0Y0D02*
D02*
D74*
X141Y471D03*
Y631D03*
X142Y204D03*
Y314D03*
Y794D03*
Y944D03*
Y1094D03*
X198Y471D03*
Y631D03*
X199Y204D03*
Y314D03*
Y794D03*
Y944D03*
Y1094D03*
X286Y471D03*
Y631D03*
Y1201D03*
X287Y314D03*
Y794D03*
Y944D03*
Y1094D03*
X343Y471D03*
Y631D03*
Y1201D03*
X344Y314D03*
Y794D03*
Y944D03*
Y1094D03*
D02*
D75*
X243Y205D03*
Y263D03*
Y365D03*
Y423D03*
Y525D03*
Y583D03*
Y685D03*
Y743D03*
Y845D03*
Y903D03*
Y995D03*
Y1053D03*
Y1145D03*
Y1202D03*
D02*
D108*
X83Y343D03*
Y493D03*
Y643D03*
Y793D03*
Y943D03*
Y1093D03*
X243Y83D03*
Y1323D03*
X393Y343D03*
Y493D03*
Y643D03*
Y793D03*
Y943D03*
Y1093D03*
D02*
D150*
X83Y343D02*
X108D01*
X142Y378*
X83Y343D02*
X113D01*
X142Y314*
X83Y493D02*
X108D01*
X142Y527*
X83Y643D02*
X103D01*
X142Y603*
X83Y643D02*
X108D01*
X142Y678*
X83Y793D02*
X103D01*
X142Y753*
X83Y793D02*
X108D01*
X142Y828*
X83Y943D02*
X108D01*
X142Y908*
X83Y943D02*
X108D01*
X142Y978*
X83Y1093D02*
X103D01*
X142Y1053*
X141Y471D02*
Y498D01*
X142*
Y527*
X141Y471D02*
Y455D01*
X142Y453*
X141Y631D02*
Y653D01*
X142*
Y678*
X142Y204D02*
Y314D01*
Y348*
X142*
Y378*
X142Y794D02*
Y813D01*
X142*
Y828*
X142Y944D02*
Y963D01*
X142*
Y978*
Y378D02*
Y453D01*
X103Y493*
X83*
X142Y527D02*
Y603D01*
Y618*
X141*
Y631*
X142Y678D02*
Y753D01*
Y793*
X142Y794*
X142Y828D02*
Y908D01*
Y928*
X142*
Y944*
X142Y978D02*
Y1053D01*
Y1073*
X142*
Y1094*
X198Y471D02*
X286D01*
X198Y631D02*
X286D01*
X199Y204D02*
X241D01*
X243Y205*
X199Y314D02*
X287D01*
X199Y794D02*
X287D01*
X199Y944D02*
X287D01*
X243Y205D02*
Y83D01*
Y365D02*
Y263D01*
Y525D02*
Y423D01*
Y685D02*
Y583D01*
Y743D02*
Y845D01*
Y995D02*
Y903D01*
Y1145D02*
Y1053D01*
Y1202D02*
Y1323D01*
Y1202D02*
Y1202D01*
X286*
X288Y1200*
X286*
Y1201*
X287Y1094D02*
X199D01*
X343Y683D02*
Y635D01*
X343Y635*
Y631*
X343Y758D02*
Y683D01*
X343Y383D02*
Y315D01*
X344Y314*
X343Y433D02*
Y383D01*
Y471D02*
Y433D01*
Y527D02*
Y471D01*
Y603D02*
Y527D01*
Y631D02*
Y603D01*
Y1138D02*
Y1095D01*
X344Y1094*
X343Y1201D02*
Y1138D01*
X344Y314D02*
X364D01*
X390Y340*
X393Y343*
X344Y794D02*
X343D01*
Y758*
X344Y833D02*
Y794D01*
Y908D02*
Y833D01*
Y944D02*
Y908D01*
Y978D02*
Y944D01*
Y1048D02*
Y978D01*
Y1094D02*
Y1048D01*
X393Y343D02*
X383D01*
X343Y383*
X393Y493D02*
X378D01*
X343Y527*
X393Y493D02*
Y482D01*
X343Y433*
X393Y493D02*
X364D01*
X343Y471*
X393Y643D02*
X383D01*
X343Y603*
X393Y643D02*
X383D01*
X343Y683*
X393Y793D02*
X378D01*
X343Y758*
X393Y793D02*
X384D01*
X344Y833*
X393Y943D02*
X379D01*
X344Y908*
X393Y943D02*
X379D01*
X344Y978*
X393Y1093D02*
X389D01*
X344Y1048*
X393Y1093D02*
X388D01*
X343Y1138*
X0Y0D02*
M02*
