%FSLAX23Y23*%
%MOIN*%
G04 EasyPC Gerber Version 16.0.6 Build 3249 *
%ADD74R,0.03740X0.04331*%
%ADD150C,0.04000*%
%ADD108C,0.09000*%
%ADD75R,0.04331X0.03740*%
X0Y0D02*
D02*
D74*
X130Y109D03*
X131Y716D03*
Y1146D03*
Y1291D03*
X132Y270D03*
X187Y109D03*
X188Y716D03*
Y1146D03*
Y1291D03*
X189Y270D03*
X287Y109D03*
Y719D03*
Y1147D03*
Y1292D03*
X288Y271D03*
X344Y109D03*
Y719D03*
Y1147D03*
Y1292D03*
X345Y271D03*
D02*
D75*
X238Y114D03*
Y171D03*
X239Y198D03*
Y255D03*
Y371D03*
Y428D03*
Y461D03*
Y518D03*
Y551D03*
Y608D03*
Y641D03*
Y698D03*
Y821D03*
Y878D03*
Y911D03*
Y968D03*
Y991D03*
Y1048D03*
Y1081D03*
Y1138D03*
X239Y287D03*
Y344D03*
Y737D03*
Y794D03*
Y1158D03*
Y1215D03*
X240Y1233D03*
Y1290D03*
D02*
D108*
X83Y343D03*
Y493D03*
Y643D03*
Y793D03*
Y943D03*
Y1093D03*
X243Y73D03*
Y1333D03*
X393Y343D03*
Y493D03*
Y643D03*
Y793D03*
Y943D03*
Y1093D03*
D02*
D150*
X83Y343D02*
X91D01*
X131Y303*
X83Y493D02*
X91D01*
X131Y453*
X83Y643D02*
X96D01*
X131Y608*
X83Y793D02*
X96D01*
X131Y758*
X83Y943D02*
X86D01*
X131Y898*
X83Y1093D02*
X91D01*
X131Y1053*
Y303D02*
Y271D01*
X132Y270*
X131Y403D02*
Y303D01*
Y403D02*
Y391D01*
X83Y343*
X131Y453D02*
Y403D01*
Y541D02*
Y453D01*
Y541D02*
X83Y493D01*
X131Y608D02*
Y541D01*
Y716D02*
Y608D01*
Y716D02*
Y691D01*
X83Y643*
X131Y758D02*
Y716D01*
Y848D02*
Y758D01*
Y848D02*
Y841D01*
X83Y793*
X131Y898D02*
Y848D01*
Y1002D02*
Y898D01*
Y1002D02*
Y991D01*
X83Y943*
X131Y1053D02*
Y1002D01*
Y1146D02*
Y1053D01*
Y1146D02*
Y1141D01*
X83Y1093*
X131Y1291D02*
Y1146D01*
X132Y270D02*
Y111D01*
X130Y109*
X187D02*
X287D01*
X188Y716D02*
X285D01*
X287Y719*
X188Y1146D02*
X287D01*
X287Y1147*
X188Y1291D02*
X287D01*
X287Y1292*
X189Y270D02*
X288D01*
X288Y271*
X344Y109D02*
Y270D01*
X345Y271*
X344Y719D02*
Y892D01*
Y719D02*
Y744D01*
X393Y793*
X344Y892D02*
Y983D01*
Y892D02*
Y894D01*
X393Y943*
X344Y983D02*
Y1038D01*
Y1147*
Y1038D02*
Y1044D01*
X393Y1093*
X344Y1147D02*
Y1292D01*
X345Y271D02*
Y383D01*
Y271D02*
Y293D01*
Y295*
X393Y343*
X345Y383D02*
Y438D01*
Y538*
Y438D02*
Y445D01*
X393Y493*
X345Y538D02*
Y595D01*
Y683*
Y595D02*
X393Y643D01*
X345Y683D02*
Y718D01*
X344Y719*
X393Y343D02*
X385D01*
X345Y383*
X393Y493D02*
X390D01*
X345Y538*
X393Y643D02*
X385D01*
X345Y683*
X393Y943D02*
X384D01*
X344Y983*
X393Y1093D02*
Y1098D01*
X344Y1147*
X0Y0D02*
M02*
