%FSLAX23Y23*%
%MOIN*%
G04 EasyPC Gerber Version 16.0.6 Build 3249 *
%ADD126R,0.01781X0.04340*%
%ADD108R,0.04340X0.04931*%
%ADD125R,0.09065X0.13395*%
%ADD122C,0.03600*%
%ADD73C,0.06600*%
%ADD123R,0.03848X0.01781*%
%ADD127R,0.04340X0.01781*%
%ADD109R,0.04931X0.04340*%
%ADD124R,0.09065X0.04340*%
X0Y0D02*
D02*
D73*
X472Y133D03*
X551D03*
X630D03*
X709D03*
D02*
D108*
X463Y531D03*
X520D03*
X629Y314D03*
X686D03*
X709Y749D03*
X766D03*
X799Y414D03*
X856D03*
D02*
D109*
X299Y632D03*
Y689D03*
X576Y721D03*
Y778D03*
X891Y556D03*
Y613D03*
D02*
D122*
X145Y147D03*
X160Y438D03*
X240Y147D03*
X255Y808D03*
X295Y433D03*
X335Y147D03*
X350Y532D03*
X385D03*
X390Y588D03*
Y808D03*
X505Y288D03*
Y328D03*
Y808D03*
X550Y613D03*
X625Y593D03*
X640Y502D03*
X655Y673D03*
X670Y833D03*
X705Y243D03*
X710Y198D03*
X760Y188D03*
Y248D03*
Y323D03*
X770Y668D03*
X810Y833D03*
X815Y493D03*
Y632D03*
X945Y458D03*
X960Y688D03*
D02*
D123*
X386Y651D03*
Y671D03*
Y690D03*
Y710D03*
Y730D03*
X484Y651D03*
Y671D03*
Y690D03*
Y710D03*
Y730D03*
D02*
D124*
X430Y222D03*
Y313D03*
Y403D03*
D02*
D125*
X202Y313D03*
D02*
D126*
X711Y505D03*
Y623D03*
X730Y505D03*
Y623D03*
X750Y505D03*
Y623D03*
X770Y505D03*
Y623D03*
D02*
D127*
X681Y535D03*
Y554D03*
Y574D03*
Y594D03*
X799Y535D03*
Y554D03*
Y574D03*
Y594D03*
X0Y0D02*
M02*
