M48
;DRILL file {KiCad 4.0.3-stable} date 09/30/16 03:10:36
;FORMAT={-:-/ absolute / metric / decimal}
FMAT,2
METRIC,TZ
T1C0.330
T2C0.400
T3C0.500
T4C0.599
T5C0.762
T6C0.800
T7C0.900
T8C1.000
T9C1.001
T10C1.016
T11C1.097
T12C1.300
T13C1.400
T14C1.600
T15C1.650
T16C3.200
%
G90
G05
M71
T1
X185.76Y-138.775
X185.76Y-140.775
X186.76Y-139.775
X186.76Y-141.775
X187.76Y-138.775
X187.76Y-140.775
X188.96Y-97.025
X188.96Y-99.025
X189.96Y-96.025
X189.96Y-98.025
X190.96Y-97.025
X190.96Y-99.025
T2
X150.86Y-48.5
X151.36Y-100.6
X151.96Y-88.8
X151.96Y-90.4
X152.06Y-149.8
X152.091Y-60.548
X152.11Y-63.75
X152.16Y-153.6
X152.46Y-144.9
X152.601Y-66.189
X152.679Y-64.562
X153.26Y-132.9
X153.36Y-66.5
X154.244Y-64.806
X154.86Y-45.5
X155.16Y-155.3
X155.36Y-64.877
X156.16Y-89.2
X156.36Y-60.5
X157.285Y-118.068
X157.61Y-127.25
X157.67Y-45.
X157.857Y-117.509
X158.044Y-127.934
X158.11Y-116.75
X158.26Y-73.2
X158.36Y-132.9
X158.61Y-61.5
X158.61Y-128.5
X158.86Y-68.
X158.86Y-72.75
X159.162Y-47.461
X159.36Y-98.
X159.491Y-114.003
X159.96Y-155.3
X159.985Y-81.
X160.11Y-87.75
X160.11Y-108.25
X160.36Y-99.75
X160.36Y-128.75
X161.037Y-87.75
X161.055Y-59.5
X161.36Y-66.25
X161.496Y-76.25
X161.61Y-93.75
X161.624Y-74.435
X161.86Y-77.
X162.61Y-128.75
X162.86Y-77.
X163.326Y-94.75
X163.36Y-98.5
X163.36Y-113.75
X163.461Y-102.081
X164.11Y-79.75
X164.61Y-94.5
X164.858Y-61.042
X164.86Y-79.25
X164.86Y-124.25
X164.881Y-69.511
X164.933Y-71.75
X164.933Y-73.25
X165.11Y-108.45
X165.36Y-47.
X165.61Y-123.5
X165.86Y-113.148
X166.36Y-122.75
X167.11Y-136.5
X167.36Y-70.5
X167.36Y-90.75
X167.61Y-79.
X167.61Y-93.75
X167.86Y-67.75
X168.11Y-96.25
X168.287Y-102.34
X168.61Y-62.
X169.11Y-136.5
X169.36Y-67.75
X169.36Y-154.5
X169.86Y-70.5
X169.86Y-73.
X169.86Y-79.
X170.11Y-75.5
X170.11Y-76.3
X170.86Y-49.5
X171.61Y-135.75
X171.683Y-134.718
X172.127Y-90.349
X172.76Y-68.7
X172.96Y-74.5
X173.11Y-110.25
X173.61Y-71.5
X173.61Y-73.
X173.86Y-109.5
X174.06Y-148.2
X174.341Y-62.
X174.36Y-77.75
X174.61Y-108.75
X175.86Y-49.5
X176.56Y-148.3
X176.819Y-76.5
X176.911Y-73.875
X177.86Y-94.9
X177.96Y-132.5
X178.004Y-70.82
X178.36Y-92.5
X178.36Y-135.
X179.309Y-82.58
X180.06Y-82.25
X180.36Y-146.3
X180.76Y-133.
X180.86Y-82.25
X181.11Y-139.246
X181.26Y-92.9
X181.326Y-73.002
X181.329Y-71.175
X181.36Y-90.8
X181.36Y-114.5
X181.36Y-153.
X181.86Y-111.
X181.96Y-101.
X182.125Y-72.965
X182.129Y-71.175
X182.551Y-79.302
X182.933Y-72.793
X182.96Y-146.2
X183.11Y-77.5
X183.26Y-144.
X183.61Y-111.75
X183.86Y-74.75
X184.06Y-132.9
X184.36Y-84.5
X184.62Y-66.99
X184.76Y-90.8
X185.36Y-108.952
X185.36Y-135.
X185.56Y-75.6
X185.76Y-146.1
X185.86Y-46.5
X185.86Y-94.1
X185.924Y-113.702
X186.11Y-71.
X186.16Y-67.5
X186.36Y-77.
X186.735Y-71.625
X186.86Y-90.75
X186.86Y-144.
X187.11Y-60.799
X187.36Y-72.25
X187.56Y-94.2
X187.56Y-134.9
X187.86Y-113.75
X187.96Y-132.8
X188.46Y-90.7
X188.61Y-67.75
X189.36Y-103.5
X189.36Y-113.75
X189.46Y-94.1
X189.46Y-101.4
X189.86Y-111.
X190.36Y-136.373
X190.485Y-109.75
X190.61Y-63.875
X190.86Y-134.8
X191.11Y-108.5
X191.36Y-101.5
X191.36Y-112.5
X191.46Y-103.3
X191.61Y-69.5
X191.61Y-76.25
X191.86Y-107.75
X191.86Y-139.5
X191.973Y-74.637
X193.36Y-104.
X193.527Y-67.733
X193.907Y-136.89
X194.46Y-134.9
X195.36Y-76.25
X195.36Y-98.
X195.618Y-98.871
X196.36Y-44.8
X197.36Y-68.3
X199.16Y-138.4
X199.16Y-143.2
X199.36Y-134.6
X199.36Y-147.4
X199.66Y-44.8
X200.06Y-69.9
X200.16Y-74.7
X200.16Y-78.4
X200.16Y-81.7
X200.16Y-84.5
X200.16Y-87.
X200.16Y-89.1
X200.16Y-91.8
T3
X151.46Y-95.5
X152.163Y-93.803
X152.163Y-97.197
X153.86Y-93.1
X153.86Y-97.9
X155.46Y-149.1
X155.557Y-93.803
X155.557Y-97.197
X156.163Y-147.403
X156.163Y-150.797
X156.26Y-95.5
X157.86Y-146.7
X157.86Y-151.5
X159.557Y-147.403
X159.557Y-150.797
X160.26Y-149.1
X194.86Y-111.5
X195.563Y-109.803
X195.563Y-113.197
X195.96Y-63.1
X196.663Y-61.403
X196.663Y-64.797
X197.26Y-109.1
X197.26Y-113.9
X198.36Y-60.7
X198.36Y-65.5
X198.957Y-109.803
X198.957Y-113.197
X199.66Y-111.5
X200.057Y-61.403
X200.057Y-64.797
X200.76Y-63.1
T4
X183.361Y-62.299
X184.859Y-62.299
T5
X185.76Y-139.775
X185.76Y-141.775
X186.76Y-138.775
X186.76Y-140.775
X187.76Y-139.775
X187.76Y-141.775
X188.96Y-96.025
X188.96Y-98.025
X189.96Y-97.025
X189.96Y-99.025
X190.96Y-96.025
X190.96Y-98.025
T6
X192.11Y-131.
X193.91Y-126.
T7
X180.86Y-47.27
X180.86Y-49.81
X180.86Y-52.35
X180.86Y-54.89
X180.86Y-57.43
X183.4Y-46.
X183.4Y-48.54
X183.4Y-51.08
X183.4Y-53.62
X183.4Y-56.16
T8
X179.36Y-126.5
X186.86Y-129.4
X190.61Y-68.25
T9
X176.361Y-108.5
X176.86Y-113.34
X176.86Y-123.5
X179.2Y-117.
X181.36Y-106.
X181.362Y-108.5
X189.36Y-117.
X191.52Y-106.
T10
X153.07Y-104.84
X153.07Y-107.38
X153.07Y-109.92
X153.07Y-112.46
X153.07Y-115.
X153.82Y-68.
X153.82Y-70.54
X153.82Y-73.08
X153.82Y-75.62
X153.82Y-78.16
X153.82Y-80.7
X153.82Y-83.24
X153.82Y-85.78
X155.61Y-104.84
X155.61Y-107.38
X155.61Y-109.92
X155.61Y-112.46
X155.61Y-115.
X156.36Y-68.
X156.36Y-70.54
X156.36Y-73.08
X156.36Y-75.62
X156.36Y-78.16
X156.36Y-80.7
X156.36Y-83.24
X156.36Y-85.78
X179.685Y-66.011
X179.685Y-68.551
X179.685Y-71.091
X179.685Y-73.631
X179.685Y-76.171
X179.685Y-78.711
T11
X153.11Y-122.5
X153.11Y-125.04
X153.11Y-127.58
X198.36Y-126.46
X198.36Y-129.
X198.36Y-131.54
T12
X190.61Y-75.75
T13
X153.36Y-137.05
X153.36Y-141.25
X158.86Y-137.05
X158.86Y-141.25
T14
X192.8Y-43.94
X192.8Y-59.49
T15
X187.465Y-121.5
X191.125Y-121.5
X195.595Y-121.5
X199.255Y-121.5
T16
X153.86Y-95.5
X157.86Y-149.1
X189.75Y-46.
X189.75Y-57.43
X197.26Y-111.5
X198.36Y-63.1
T0
M30
