G04 #@! TF.FileFunction,Soldermask,Bot*
%FSLAX46Y46*%
G04 Gerber Fmt 4.6, Leading zero omitted, Abs format (unit mm)*
G04 Created by KiCad (PCBNEW 4.0.3-stable) date 09/30/16 03:10:32*
%MOMM*%
%LPD*%
G01*
G04 APERTURE LIST*
%ADD10C,0.100000*%
%ADD11C,1.900000*%
%ADD12C,2.398980*%
%ADD13R,1.543000X0.908000*%
%ADD14R,1.150000X1.200000*%
%ADD15R,1.200000X1.150000*%
%ADD16R,1.100000X1.700000*%
%ADD17R,0.900000X1.300000*%
%ADD18R,1.300000X0.900000*%
%ADD19C,6.800000*%
%ADD20C,1.000000*%
%ADD21R,2.180000X1.920000*%
%ADD22R,1.920000X2.180000*%
%ADD23C,2.100000*%
%ADD24C,3.600000*%
%ADD25C,2.900000*%
%ADD26R,2.432000X2.127200*%
%ADD27O,2.432000X2.127200*%
%ADD28O,2.398980X2.398980*%
%ADD29R,2.398980X2.398980*%
%ADD30R,1.650000X1.400000*%
%ADD31R,0.850000X0.990000*%
%ADD32R,1.400000X1.650000*%
%ADD33R,0.700000X1.800000*%
%ADD34C,1.400760*%
%ADD35R,2.127200X2.127200*%
%ADD36O,2.127200X2.127200*%
%ADD37R,3.200000X3.200000*%
%ADD38C,3.200000*%
%ADD39C,3.400000*%
%ADD40C,2.200000*%
%ADD41R,0.908000X1.543000*%
%ADD42R,0.908000X0.704800*%
%ADD43C,2.000000*%
%ADD44R,2.000200X3.000960*%
%ADD45R,2.900000X1.400000*%
%ADD46R,5.800040X3.300680*%
%ADD47C,1.416000*%
%ADD48C,1.162000*%
%ADD49R,2.400000X0.800000*%
%ADD50R,3.400000X4.400000*%
G04 APERTURE END LIST*
D10*
D11*
X196860000Y-105000000D03*
X168610000Y-71500000D03*
X185860000Y-115250000D03*
X164610000Y-133000000D03*
X158110000Y-130250000D03*
X153610000Y-130250000D03*
X151360000Y-130250000D03*
X155860000Y-130250000D03*
X198110000Y-72250000D03*
X183860000Y-74750000D03*
X184860000Y-77750000D03*
X190860000Y-79250000D03*
X160360000Y-70500000D03*
X186360000Y-82500000D03*
D12*
X181360000Y-106000000D03*
X191520000Y-106000000D03*
D13*
X192535000Y-112405000D03*
X192535000Y-111135000D03*
X192535000Y-109865000D03*
X192535000Y-108595000D03*
X186185000Y-108595000D03*
X186185000Y-109865000D03*
X186185000Y-111135000D03*
X186185000Y-112405000D03*
D14*
X176860000Y-67940000D03*
X176860000Y-69440000D03*
X164860000Y-73250000D03*
X164860000Y-71750000D03*
D15*
X167610000Y-76044000D03*
X169110000Y-76044000D03*
D14*
X173610000Y-71500000D03*
X173610000Y-73000000D03*
D15*
X167860000Y-67750000D03*
X169360000Y-67750000D03*
D16*
X156658000Y-45429000D03*
X158558000Y-45429000D03*
D15*
X152105000Y-61431000D03*
X153605000Y-61431000D03*
X161834000Y-61931000D03*
X163334000Y-61931000D03*
D16*
X152716000Y-47334000D03*
X154616000Y-47334000D03*
X162196000Y-48215000D03*
X164096000Y-48215000D03*
X156658000Y-47461000D03*
X158558000Y-47461000D03*
X165498000Y-48215000D03*
X167398000Y-48215000D03*
D17*
X165644000Y-61931000D03*
X167144000Y-61931000D03*
X156272000Y-61431000D03*
X157772000Y-61431000D03*
D18*
X161862000Y-125457000D03*
X161862000Y-126957000D03*
X160211000Y-125433000D03*
X160211000Y-126933000D03*
X167184728Y-138496944D03*
X167184728Y-136996944D03*
X168835728Y-138520944D03*
X168835728Y-137020944D03*
D14*
X168033000Y-106341246D03*
X168033000Y-104841246D03*
X168287000Y-101173000D03*
X168287000Y-99673000D03*
X163461000Y-101173000D03*
X163461000Y-99673000D03*
D18*
X162110000Y-78250000D03*
X162110000Y-79750000D03*
X160610000Y-78750000D03*
X160610000Y-80250000D03*
X159610000Y-103500000D03*
X159610000Y-102000000D03*
D17*
X162860000Y-117500000D03*
X161360000Y-117500000D03*
D19*
X197260000Y-111500000D03*
D20*
X197260000Y-109100000D03*
X198957056Y-109802944D03*
X199660000Y-111500000D03*
X198957056Y-113197056D03*
X197260000Y-113900000D03*
X195562944Y-113197056D03*
X194860000Y-111500000D03*
X195562944Y-109802944D03*
D19*
X198360000Y-63100000D03*
D20*
X198360000Y-60700000D03*
X200057056Y-61402944D03*
X200760000Y-63100000D03*
X200057056Y-64797056D03*
X198360000Y-65500000D03*
X196662944Y-64797056D03*
X195960000Y-63100000D03*
X196662944Y-61402944D03*
D19*
X157860000Y-149100000D03*
D20*
X157860000Y-146700000D03*
X159557056Y-147402944D03*
X160260000Y-149100000D03*
X159557056Y-150797056D03*
X157860000Y-151500000D03*
X156162944Y-150797056D03*
X155460000Y-149100000D03*
X156162944Y-147402944D03*
D19*
X153860000Y-95500000D03*
D20*
X153860000Y-93100000D03*
X155557056Y-93802944D03*
X156260000Y-95500000D03*
X155557056Y-97197056D03*
X153860000Y-97900000D03*
X152162944Y-97197056D03*
X151460000Y-95500000D03*
X152162944Y-93802944D03*
D21*
X152716000Y-59145000D03*
X152716000Y-50125000D03*
X155256000Y-59145000D03*
X155256000Y-50125000D03*
X157796000Y-59145000D03*
X157796000Y-50125000D03*
X162318000Y-59775000D03*
X162318000Y-50755000D03*
X164858000Y-59775000D03*
X164858000Y-50755000D03*
X167398000Y-59775000D03*
X167398000Y-50755000D03*
X166150000Y-106240000D03*
X166150000Y-115260000D03*
X163610000Y-106240000D03*
X163610000Y-115260000D03*
X161070000Y-106240000D03*
X161070000Y-115260000D03*
D22*
X169445000Y-96244000D03*
X160425000Y-96244000D03*
X169445000Y-93704000D03*
X160425000Y-93704000D03*
X169445000Y-91164000D03*
X160425000Y-91164000D03*
D23*
X180860000Y-57430000D03*
X183400000Y-56160000D03*
X180860000Y-54890000D03*
X183400000Y-53620000D03*
X180860000Y-52350000D03*
X183400000Y-51080000D03*
X180860000Y-49810000D03*
X183400000Y-48540000D03*
X180860000Y-47270000D03*
X183400000Y-46000000D03*
D24*
X189750000Y-57430000D03*
X189750000Y-46000000D03*
D25*
X192800000Y-59490000D03*
X192800000Y-43940000D03*
D26*
X179685000Y-66011000D03*
D27*
X179685000Y-68551000D03*
X179685000Y-71091000D03*
X179685000Y-73631000D03*
X179685000Y-76171000D03*
X179685000Y-78711000D03*
D28*
X198360000Y-126460000D03*
D29*
X198360000Y-131540000D03*
D28*
X198360000Y-129000000D03*
D30*
X193860000Y-138000000D03*
X193860000Y-140000000D03*
D14*
X182610000Y-69750000D03*
X182610000Y-68250000D03*
D15*
X187860000Y-66750000D03*
X189360000Y-66750000D03*
D31*
X192110000Y-64890000D03*
X192110000Y-67000000D03*
D17*
X192860000Y-137000000D03*
X191360000Y-137000000D03*
D18*
X188110000Y-61799252D03*
X188110000Y-63299252D03*
D32*
X190110000Y-65000000D03*
X188110000Y-65000000D03*
D33*
X184110000Y-69299252D03*
X184110000Y-64899252D03*
X184610000Y-69299252D03*
X184610000Y-64899252D03*
X185110000Y-69299252D03*
X185110000Y-64899252D03*
X185610000Y-69299252D03*
X185610000Y-64899252D03*
X186110000Y-69299252D03*
X186110000Y-64899252D03*
D34*
X183360700Y-62299252D03*
X184859300Y-62299252D03*
D35*
X153820000Y-68000000D03*
D36*
X156360000Y-68000000D03*
X153820000Y-70540000D03*
X156360000Y-70540000D03*
X153820000Y-73080000D03*
X156360000Y-73080000D03*
X153820000Y-75620000D03*
X156360000Y-75620000D03*
X153820000Y-78160000D03*
X156360000Y-78160000D03*
X153820000Y-80700000D03*
X156360000Y-80700000D03*
X153820000Y-83240000D03*
X156360000Y-83240000D03*
X153820000Y-85780000D03*
X156360000Y-85780000D03*
D35*
X155610000Y-115000000D03*
D36*
X153070000Y-115000000D03*
X155610000Y-112460000D03*
X153070000Y-112460000D03*
X155610000Y-109920000D03*
X153070000Y-109920000D03*
X155610000Y-107380000D03*
X153070000Y-107380000D03*
X155610000Y-104840000D03*
X153070000Y-104840000D03*
D37*
X158860000Y-137050000D03*
D38*
X158860000Y-141250000D03*
X153360000Y-137050000D03*
X153360000Y-141250000D03*
D12*
X176360640Y-108500000D03*
X181361900Y-108500000D03*
D15*
X195110000Y-69500000D03*
X193610000Y-69500000D03*
X189610000Y-60500000D03*
X188110000Y-60500000D03*
D39*
X195595000Y-121500000D03*
X191125000Y-121500000D03*
X199255000Y-121500000D03*
X187465000Y-121500000D03*
D12*
X176860000Y-123500000D03*
X176860000Y-113340000D03*
X179200000Y-117000000D03*
X189360000Y-117000000D03*
D40*
X179360000Y-126500000D03*
X186860000Y-129400000D03*
D41*
X195420000Y-77250000D03*
X194150000Y-77250000D03*
X192880000Y-77250000D03*
X191610000Y-77250000D03*
X190340000Y-77250000D03*
X189070000Y-77250000D03*
X187800000Y-77250000D03*
X187800000Y-70900000D03*
X189070000Y-70900000D03*
X191610000Y-70900000D03*
X192880000Y-70900000D03*
X194150000Y-70900000D03*
X195420000Y-70900000D03*
X190340000Y-70900000D03*
D42*
X191126000Y-62164252D03*
X191126000Y-63434252D03*
X189094000Y-62164252D03*
X191126000Y-62799252D03*
X189094000Y-63434252D03*
D43*
X193910000Y-126000000D03*
X192110000Y-131000000D03*
D44*
X175860000Y-98000000D03*
X175860000Y-94398280D03*
D30*
X183360000Y-95000000D03*
X183360000Y-97000000D03*
D45*
X180360000Y-94000000D03*
X180360000Y-97000000D03*
D32*
X198860000Y-97500000D03*
X196860000Y-97500000D03*
X198860000Y-95000000D03*
X196860000Y-95000000D03*
X183860000Y-102000000D03*
X181860000Y-102000000D03*
D45*
X186360000Y-85500000D03*
X186360000Y-88500000D03*
D14*
X183860000Y-87000000D03*
X183860000Y-88500000D03*
D46*
X194360000Y-92000000D03*
X194360000Y-81997480D03*
D16*
X198760000Y-99500000D03*
X196860000Y-99500000D03*
X181960000Y-100000000D03*
X183860000Y-100000000D03*
X185360000Y-102000000D03*
X187260000Y-102000000D03*
D28*
X153110000Y-127580000D03*
D29*
X153110000Y-122500000D03*
D28*
X153110000Y-125040000D03*
D47*
X185760000Y-141775000D03*
D48*
X186760000Y-141775000D03*
D47*
X187760000Y-141775000D03*
D48*
X187760000Y-138775000D03*
D47*
X186760000Y-138775000D03*
D48*
X185760000Y-138775000D03*
X187760000Y-140775000D03*
D47*
X186760000Y-140775000D03*
D48*
X185760000Y-140775000D03*
D47*
X187760000Y-139775000D03*
D48*
X186760000Y-139775000D03*
D47*
X185760000Y-139775000D03*
D49*
X186860000Y-95250000D03*
X193060000Y-95250000D03*
X186860000Y-95900000D03*
X193060000Y-95900000D03*
X186860000Y-96550000D03*
X193060000Y-96550000D03*
X186860000Y-97200000D03*
X193060000Y-97200000D03*
X186860000Y-97850000D03*
X193060000Y-97850000D03*
X186860000Y-98500000D03*
X193060000Y-98500000D03*
X186860000Y-99150000D03*
X193060000Y-99150000D03*
X186860000Y-99800000D03*
X193060000Y-99800000D03*
D50*
X189960000Y-97525000D03*
D47*
X188960000Y-96025000D03*
D48*
X189960000Y-96025000D03*
D47*
X190960000Y-96025000D03*
D48*
X190960000Y-99025000D03*
D47*
X189960000Y-99025000D03*
D48*
X188960000Y-99025000D03*
X190960000Y-97025000D03*
D47*
X189960000Y-97025000D03*
D48*
X188960000Y-97025000D03*
D47*
X190960000Y-98025000D03*
D48*
X189960000Y-98025000D03*
D47*
X188960000Y-98025000D03*
M02*
