G04 #@! TF.FileFunction,Legend,Bot*
%FSLAX46Y46*%
G04 Gerber Fmt 4.6, Leading zero omitted, Abs format (unit mm)*
G04 Created by KiCad (PCBNEW 4.0.3-stable) date 09/30/16 03:10:32*
%MOMM*%
%LPD*%
G01*
G04 APERTURE LIST*
%ADD10C,0.100000*%
%ADD11C,0.250000*%
%ADD12C,0.200000*%
%ADD13C,0.300000*%
%ADD14C,0.150000*%
G04 APERTURE END LIST*
D10*
D11*
X173871905Y-69821429D02*
X173110000Y-69821429D01*
X173490952Y-70202381D02*
X173490952Y-69440476D01*
X172729048Y-69202381D02*
X172110000Y-69202381D01*
X172443334Y-69583333D01*
X172300476Y-69583333D01*
X172205238Y-69630952D01*
X172157619Y-69678571D01*
X172110000Y-69773810D01*
X172110000Y-70011905D01*
X172157619Y-70107143D01*
X172205238Y-70154762D01*
X172300476Y-70202381D01*
X172586191Y-70202381D01*
X172681429Y-70154762D01*
X172729048Y-70107143D01*
X171824286Y-69202381D02*
X171490953Y-70202381D01*
X171157619Y-69202381D01*
X170919524Y-69202381D02*
X170300476Y-69202381D01*
X170633810Y-69583333D01*
X170490952Y-69583333D01*
X170395714Y-69630952D01*
X170348095Y-69678571D01*
X170300476Y-69773810D01*
X170300476Y-70011905D01*
X170348095Y-70107143D01*
X170395714Y-70154762D01*
X170490952Y-70202381D01*
X170776667Y-70202381D01*
X170871905Y-70154762D01*
X170919524Y-70107143D01*
X183538571Y-84511905D02*
X183538571Y-83750000D01*
X183157619Y-84130952D02*
X183919524Y-84130952D01*
X184157619Y-83369048D02*
X184157619Y-82750000D01*
X183776667Y-83083334D01*
X183776667Y-82940476D01*
X183729048Y-82845238D01*
X183681429Y-82797619D01*
X183586190Y-82750000D01*
X183348095Y-82750000D01*
X183252857Y-82797619D01*
X183205238Y-82845238D01*
X183157619Y-82940476D01*
X183157619Y-83226191D01*
X183205238Y-83321429D01*
X183252857Y-83369048D01*
X184157619Y-82464286D02*
X183157619Y-82130953D01*
X184157619Y-81797619D01*
X184157619Y-81559524D02*
X184157619Y-80940476D01*
X183776667Y-81273810D01*
X183776667Y-81130952D01*
X183729048Y-81035714D01*
X183681429Y-80988095D01*
X183586190Y-80940476D01*
X183348095Y-80940476D01*
X183252857Y-80988095D01*
X183205238Y-81035714D01*
X183157619Y-81130952D01*
X183157619Y-81416667D01*
X183205238Y-81511905D01*
X183252857Y-81559524D01*
X181705238Y-76523809D02*
X181657619Y-76380952D01*
X181657619Y-76142856D01*
X181705238Y-76047618D01*
X181752857Y-75999999D01*
X181848095Y-75952380D01*
X181943333Y-75952380D01*
X182038571Y-75999999D01*
X182086190Y-76047618D01*
X182133810Y-76142856D01*
X182181429Y-76333333D01*
X182229048Y-76428571D01*
X182276667Y-76476190D01*
X182371905Y-76523809D01*
X182467143Y-76523809D01*
X182562381Y-76476190D01*
X182610000Y-76428571D01*
X182657619Y-76333333D01*
X182657619Y-76095237D01*
X182610000Y-75952380D01*
X181657619Y-75523809D02*
X182657619Y-75523809D01*
X182657619Y-75285714D01*
X182610000Y-75142856D01*
X182514762Y-75047618D01*
X182419524Y-74999999D01*
X182229048Y-74952380D01*
X182086190Y-74952380D01*
X181895714Y-74999999D01*
X181800476Y-75047618D01*
X181705238Y-75142856D01*
X181657619Y-75285714D01*
X181657619Y-75523809D01*
X181657619Y-74523809D02*
X182657619Y-74523809D01*
X182919524Y-78845238D02*
X183062381Y-78797619D01*
X183300477Y-78797619D01*
X183395715Y-78845238D01*
X183443334Y-78892857D01*
X183490953Y-78988095D01*
X183490953Y-79083333D01*
X183443334Y-79178571D01*
X183395715Y-79226190D01*
X183300477Y-79273810D01*
X183110000Y-79321429D01*
X183014762Y-79369048D01*
X182967143Y-79416667D01*
X182919524Y-79511905D01*
X182919524Y-79607143D01*
X182967143Y-79702381D01*
X183014762Y-79750000D01*
X183110000Y-79797619D01*
X183348096Y-79797619D01*
X183490953Y-79750000D01*
X184490953Y-78892857D02*
X184443334Y-78845238D01*
X184300477Y-78797619D01*
X184205239Y-78797619D01*
X184062381Y-78845238D01*
X183967143Y-78940476D01*
X183919524Y-79035714D01*
X183871905Y-79226190D01*
X183871905Y-79369048D01*
X183919524Y-79559524D01*
X183967143Y-79654762D01*
X184062381Y-79750000D01*
X184205239Y-79797619D01*
X184300477Y-79797619D01*
X184443334Y-79750000D01*
X184490953Y-79702381D01*
X185395715Y-78797619D02*
X184919524Y-78797619D01*
X184919524Y-79797619D01*
X185729048Y-78797619D02*
X185729048Y-79797619D01*
X186300477Y-78797619D02*
X185871905Y-79369048D01*
X186300477Y-79797619D02*
X185729048Y-79226190D01*
X192300476Y-78845238D02*
X192443333Y-78797619D01*
X192681429Y-78797619D01*
X192776667Y-78845238D01*
X192824286Y-78892857D01*
X192871905Y-78988095D01*
X192871905Y-79083333D01*
X192824286Y-79178571D01*
X192776667Y-79226190D01*
X192681429Y-79273810D01*
X192490952Y-79321429D01*
X192395714Y-79369048D01*
X192348095Y-79416667D01*
X192300476Y-79511905D01*
X192300476Y-79607143D01*
X192348095Y-79702381D01*
X192395714Y-79750000D01*
X192490952Y-79797619D01*
X192729048Y-79797619D01*
X192871905Y-79750000D01*
X193300476Y-78797619D02*
X193300476Y-79797619D01*
X193538571Y-79797619D01*
X193681429Y-79750000D01*
X193776667Y-79654762D01*
X193824286Y-79559524D01*
X193871905Y-79369048D01*
X193871905Y-79226190D01*
X193824286Y-79035714D01*
X193776667Y-78940476D01*
X193681429Y-78845238D01*
X193538571Y-78797619D01*
X193300476Y-78797619D01*
X194490952Y-79797619D02*
X194681429Y-79797619D01*
X194776667Y-79750000D01*
X194871905Y-79654762D01*
X194919524Y-79464286D01*
X194919524Y-79130952D01*
X194871905Y-78940476D01*
X194776667Y-78845238D01*
X194681429Y-78797619D01*
X194490952Y-78797619D01*
X194395714Y-78845238D01*
X194300476Y-78940476D01*
X194252857Y-79130952D01*
X194252857Y-79464286D01*
X194300476Y-79654762D01*
X194395714Y-79750000D01*
X194490952Y-79797619D01*
X150907619Y-133952381D02*
X151907619Y-133952381D01*
X151907619Y-133571428D01*
X151860000Y-133476190D01*
X151812381Y-133428571D01*
X151717143Y-133380952D01*
X151574286Y-133380952D01*
X151479048Y-133428571D01*
X151431429Y-133476190D01*
X151383810Y-133571428D01*
X151383810Y-133952381D01*
X150907619Y-132952381D02*
X151574286Y-132952381D01*
X151907619Y-132952381D02*
X151860000Y-133000000D01*
X151812381Y-132952381D01*
X151860000Y-132904762D01*
X151907619Y-132952381D01*
X151812381Y-132952381D01*
X151431429Y-132476191D02*
X151431429Y-132142857D01*
X150907619Y-132000000D02*
X150907619Y-132476191D01*
X151907619Y-132476191D01*
X151907619Y-132000000D01*
X154157619Y-133642857D02*
X154157619Y-134119048D01*
X153681429Y-134166667D01*
X153729048Y-134119048D01*
X153776667Y-134023810D01*
X153776667Y-133785714D01*
X153729048Y-133690476D01*
X153681429Y-133642857D01*
X153586190Y-133595238D01*
X153348095Y-133595238D01*
X153252857Y-133642857D01*
X153205238Y-133690476D01*
X153157619Y-133785714D01*
X153157619Y-134023810D01*
X153205238Y-134119048D01*
X153252857Y-134166667D01*
X154157619Y-133309524D02*
X153157619Y-132976191D01*
X154157619Y-132642857D01*
X153681429Y-132309524D02*
X153681429Y-131976190D01*
X153157619Y-131833333D02*
X153157619Y-132309524D01*
X154157619Y-132309524D01*
X154157619Y-131833333D01*
X156407619Y-133690476D02*
X156407619Y-134166667D01*
X155931429Y-134214286D01*
X155979048Y-134166667D01*
X156026667Y-134071429D01*
X156026667Y-133833333D01*
X155979048Y-133738095D01*
X155931429Y-133690476D01*
X155836190Y-133642857D01*
X155598095Y-133642857D01*
X155502857Y-133690476D01*
X155455238Y-133738095D01*
X155407619Y-133833333D01*
X155407619Y-134071429D01*
X155455238Y-134166667D01*
X155502857Y-134214286D01*
X156407619Y-133357143D02*
X155407619Y-133023810D01*
X156407619Y-132690476D01*
X156360000Y-131833333D02*
X156407619Y-131928571D01*
X156407619Y-132071428D01*
X156360000Y-132214286D01*
X156264762Y-132309524D01*
X156169524Y-132357143D01*
X155979048Y-132404762D01*
X155836190Y-132404762D01*
X155645714Y-132357143D01*
X155550476Y-132309524D01*
X155455238Y-132214286D01*
X155407619Y-132071428D01*
X155407619Y-131976190D01*
X155455238Y-131833333D01*
X155502857Y-131785714D01*
X155836190Y-131785714D01*
X155836190Y-131976190D01*
X157657619Y-134238095D02*
X158657619Y-134238095D01*
X157943333Y-133904761D01*
X158657619Y-133571428D01*
X157657619Y-133571428D01*
X158181429Y-133095238D02*
X158181429Y-132761904D01*
X157657619Y-132619047D02*
X157657619Y-133095238D01*
X158657619Y-133095238D01*
X158657619Y-132619047D01*
X158324286Y-132190476D02*
X157657619Y-132190476D01*
X158229048Y-132190476D02*
X158276667Y-132142857D01*
X158324286Y-132047619D01*
X158324286Y-131904761D01*
X158276667Y-131809523D01*
X158181429Y-131761904D01*
X157657619Y-131761904D01*
X183264762Y-116833333D02*
X183740953Y-116833333D01*
X183169524Y-116547619D02*
X183502857Y-117547619D01*
X183836191Y-116547619D01*
X183931429Y-116452381D02*
X184693334Y-116452381D01*
X185502858Y-116642857D02*
X185455239Y-116595238D01*
X185312382Y-116547619D01*
X185217144Y-116547619D01*
X185074286Y-116595238D01*
X184979048Y-116690476D01*
X184931429Y-116785714D01*
X184883810Y-116976190D01*
X184883810Y-117119048D01*
X184931429Y-117309524D01*
X184979048Y-117404762D01*
X185074286Y-117500000D01*
X185217144Y-117547619D01*
X185312382Y-117547619D01*
X185455239Y-117500000D01*
X185502858Y-117452381D01*
X185883810Y-116595238D02*
X186026667Y-116547619D01*
X186264763Y-116547619D01*
X186360001Y-116595238D01*
X186407620Y-116642857D01*
X186455239Y-116738095D01*
X186455239Y-116833333D01*
X186407620Y-116928571D01*
X186360001Y-116976190D01*
X186264763Y-117023810D01*
X186074286Y-117071429D01*
X185979048Y-117119048D01*
X185931429Y-117166667D01*
X185883810Y-117261905D01*
X185883810Y-117357143D01*
X185931429Y-117452381D01*
X185979048Y-117500000D01*
X186074286Y-117547619D01*
X186312382Y-117547619D01*
X186455239Y-117500000D01*
X196348096Y-103500000D02*
X196252858Y-103547619D01*
X196110001Y-103547619D01*
X195967143Y-103500000D01*
X195871905Y-103404762D01*
X195824286Y-103309524D01*
X195776667Y-103119048D01*
X195776667Y-102976190D01*
X195824286Y-102785714D01*
X195871905Y-102690476D01*
X195967143Y-102595238D01*
X196110001Y-102547619D01*
X196205239Y-102547619D01*
X196348096Y-102595238D01*
X196395715Y-102642857D01*
X196395715Y-102976190D01*
X196205239Y-102976190D01*
X196824286Y-102547619D02*
X196824286Y-103547619D01*
X197395715Y-102547619D01*
X197395715Y-103547619D01*
X197871905Y-102547619D02*
X197871905Y-103547619D01*
X198110000Y-103547619D01*
X198252858Y-103500000D01*
X198348096Y-103404762D01*
X198395715Y-103309524D01*
X198443334Y-103119048D01*
X198443334Y-102976190D01*
X198395715Y-102785714D01*
X198348096Y-102690476D01*
X198252858Y-102595238D01*
X198110000Y-102547619D01*
X197871905Y-102547619D01*
X163848096Y-135500000D02*
X163752858Y-135547619D01*
X163610001Y-135547619D01*
X163467143Y-135500000D01*
X163371905Y-135404762D01*
X163324286Y-135309524D01*
X163276667Y-135119048D01*
X163276667Y-134976190D01*
X163324286Y-134785714D01*
X163371905Y-134690476D01*
X163467143Y-134595238D01*
X163610001Y-134547619D01*
X163705239Y-134547619D01*
X163848096Y-134595238D01*
X163895715Y-134642857D01*
X163895715Y-134976190D01*
X163705239Y-134976190D01*
X164324286Y-134547619D02*
X164324286Y-135547619D01*
X164895715Y-134547619D01*
X164895715Y-135547619D01*
X165371905Y-134547619D02*
X165371905Y-135547619D01*
X165610000Y-135547619D01*
X165752858Y-135500000D01*
X165848096Y-135404762D01*
X165895715Y-135309524D01*
X165943334Y-135119048D01*
X165943334Y-134976190D01*
X165895715Y-134785714D01*
X165848096Y-134690476D01*
X165752858Y-134595238D01*
X165610000Y-134547619D01*
X165371905Y-134547619D01*
X197348096Y-70500000D02*
X197252858Y-70547619D01*
X197110001Y-70547619D01*
X196967143Y-70500000D01*
X196871905Y-70404762D01*
X196824286Y-70309524D01*
X196776667Y-70119048D01*
X196776667Y-69976190D01*
X196824286Y-69785714D01*
X196871905Y-69690476D01*
X196967143Y-69595238D01*
X197110001Y-69547619D01*
X197205239Y-69547619D01*
X197348096Y-69595238D01*
X197395715Y-69642857D01*
X197395715Y-69976190D01*
X197205239Y-69976190D01*
X197824286Y-69547619D02*
X197824286Y-70547619D01*
X198395715Y-69547619D01*
X198395715Y-70547619D01*
X198871905Y-69547619D02*
X198871905Y-70547619D01*
X199110000Y-70547619D01*
X199252858Y-70500000D01*
X199348096Y-70404762D01*
X199395715Y-70309524D01*
X199443334Y-70119048D01*
X199443334Y-69976190D01*
X199395715Y-69785714D01*
X199348096Y-69690476D01*
X199252858Y-69595238D01*
X199110000Y-69547619D01*
X198871905Y-69547619D01*
X161860000Y-69738096D02*
X161812381Y-69642858D01*
X161812381Y-69500001D01*
X161860000Y-69357143D01*
X161955238Y-69261905D01*
X162050476Y-69214286D01*
X162240952Y-69166667D01*
X162383810Y-69166667D01*
X162574286Y-69214286D01*
X162669524Y-69261905D01*
X162764762Y-69357143D01*
X162812381Y-69500001D01*
X162812381Y-69595239D01*
X162764762Y-69738096D01*
X162717143Y-69785715D01*
X162383810Y-69785715D01*
X162383810Y-69595239D01*
X162812381Y-70214286D02*
X161812381Y-70214286D01*
X162812381Y-70785715D01*
X161812381Y-70785715D01*
X162812381Y-71261905D02*
X161812381Y-71261905D01*
X161812381Y-71500000D01*
X161860000Y-71642858D01*
X161955238Y-71738096D01*
X162050476Y-71785715D01*
X162240952Y-71833334D01*
X162383810Y-71833334D01*
X162574286Y-71785715D01*
X162669524Y-71738096D01*
X162764762Y-71642858D01*
X162812381Y-71500000D01*
X162812381Y-71261905D01*
D12*
X190860000Y-67500000D02*
X190360000Y-66250000D01*
D13*
X192752857Y-147450000D02*
X192038571Y-147450000D01*
X192895714Y-147878571D02*
X192395714Y-146378571D01*
X191895714Y-147878571D01*
X191395714Y-146878571D02*
X191395714Y-148378571D01*
X191395714Y-146950000D02*
X191252857Y-146878571D01*
X190967143Y-146878571D01*
X190824286Y-146950000D01*
X190752857Y-147021429D01*
X190681428Y-147164286D01*
X190681428Y-147592857D01*
X190752857Y-147735714D01*
X190824286Y-147807143D01*
X190967143Y-147878571D01*
X191252857Y-147878571D01*
X191395714Y-147807143D01*
X190038571Y-146878571D02*
X190038571Y-148378571D01*
X190038571Y-146950000D02*
X189895714Y-146878571D01*
X189610000Y-146878571D01*
X189467143Y-146950000D01*
X189395714Y-147021429D01*
X189324285Y-147164286D01*
X189324285Y-147592857D01*
X189395714Y-147735714D01*
X189467143Y-147807143D01*
X189610000Y-147878571D01*
X189895714Y-147878571D01*
X190038571Y-147807143D01*
X188467142Y-147878571D02*
X188610000Y-147807143D01*
X188681428Y-147664286D01*
X188681428Y-146378571D01*
X187895714Y-147878571D02*
X187895714Y-146878571D01*
X187895714Y-146378571D02*
X187967143Y-146450000D01*
X187895714Y-146521429D01*
X187824286Y-146450000D01*
X187895714Y-146378571D01*
X187895714Y-146521429D01*
X186610000Y-147807143D02*
X186752857Y-147878571D01*
X187038571Y-147878571D01*
X187181428Y-147807143D01*
X187252857Y-147664286D01*
X187252857Y-147092857D01*
X187181428Y-146950000D01*
X187038571Y-146878571D01*
X186752857Y-146878571D01*
X186610000Y-146950000D01*
X186538571Y-147092857D01*
X186538571Y-147235714D01*
X187252857Y-147378571D01*
X185252857Y-147878571D02*
X185252857Y-146378571D01*
X185252857Y-147807143D02*
X185395714Y-147878571D01*
X185681428Y-147878571D01*
X185824286Y-147807143D01*
X185895714Y-147735714D01*
X185967143Y-147592857D01*
X185967143Y-147164286D01*
X185895714Y-147021429D01*
X185824286Y-146950000D01*
X185681428Y-146878571D01*
X185395714Y-146878571D01*
X185252857Y-146950000D01*
X183395714Y-147878571D02*
X183395714Y-146378571D01*
X182824286Y-146378571D01*
X182681428Y-146450000D01*
X182610000Y-146521429D01*
X182538571Y-146664286D01*
X182538571Y-146878571D01*
X182610000Y-147021429D01*
X182681428Y-147092857D01*
X182824286Y-147164286D01*
X183395714Y-147164286D01*
X181895714Y-147878571D02*
X181895714Y-146378571D01*
X181252857Y-147878571D02*
X181252857Y-147092857D01*
X181324286Y-146950000D01*
X181467143Y-146878571D01*
X181681428Y-146878571D01*
X181824286Y-146950000D01*
X181895714Y-147021429D01*
X180681428Y-146878571D02*
X180324285Y-147878571D01*
X179967143Y-146878571D02*
X180324285Y-147878571D01*
X180467143Y-148235714D01*
X180538571Y-148307143D01*
X180681428Y-148378571D01*
X179467143Y-147807143D02*
X179324286Y-147878571D01*
X179038571Y-147878571D01*
X178895714Y-147807143D01*
X178824286Y-147664286D01*
X178824286Y-147592857D01*
X178895714Y-147450000D01*
X179038571Y-147378571D01*
X179252857Y-147378571D01*
X179395714Y-147307143D01*
X179467143Y-147164286D01*
X179467143Y-147092857D01*
X179395714Y-146950000D01*
X179252857Y-146878571D01*
X179038571Y-146878571D01*
X178895714Y-146950000D01*
X178181428Y-147878571D02*
X178181428Y-146878571D01*
X178181428Y-146378571D02*
X178252857Y-146450000D01*
X178181428Y-146521429D01*
X178110000Y-146450000D01*
X178181428Y-146378571D01*
X178181428Y-146521429D01*
X176824285Y-147807143D02*
X176967142Y-147878571D01*
X177252856Y-147878571D01*
X177395714Y-147807143D01*
X177467142Y-147735714D01*
X177538571Y-147592857D01*
X177538571Y-147164286D01*
X177467142Y-147021429D01*
X177395714Y-146950000D01*
X177252856Y-146878571D01*
X176967142Y-146878571D01*
X176824285Y-146950000D01*
X176252857Y-147807143D02*
X176110000Y-147878571D01*
X175824285Y-147878571D01*
X175681428Y-147807143D01*
X175610000Y-147664286D01*
X175610000Y-147592857D01*
X175681428Y-147450000D01*
X175824285Y-147378571D01*
X176038571Y-147378571D01*
X176181428Y-147307143D01*
X176252857Y-147164286D01*
X176252857Y-147092857D01*
X176181428Y-146950000D01*
X176038571Y-146878571D01*
X175824285Y-146878571D01*
X175681428Y-146950000D01*
X172967142Y-147735714D02*
X173038571Y-147807143D01*
X173252857Y-147878571D01*
X173395714Y-147878571D01*
X173609999Y-147807143D01*
X173752857Y-147664286D01*
X173824285Y-147521429D01*
X173895714Y-147235714D01*
X173895714Y-147021429D01*
X173824285Y-146735714D01*
X173752857Y-146592857D01*
X173609999Y-146450000D01*
X173395714Y-146378571D01*
X173252857Y-146378571D01*
X173038571Y-146450000D01*
X172967142Y-146521429D01*
X172109999Y-147878571D02*
X172252857Y-147807143D01*
X172324285Y-147664286D01*
X172324285Y-146378571D01*
X170895714Y-146878571D02*
X170895714Y-147878571D01*
X171538571Y-146878571D02*
X171538571Y-147664286D01*
X171467143Y-147807143D01*
X171324285Y-147878571D01*
X171110000Y-147878571D01*
X170967143Y-147807143D01*
X170895714Y-147735714D01*
X170181428Y-147878571D02*
X170181428Y-146378571D01*
X170181428Y-146950000D02*
X170038571Y-146878571D01*
X169752857Y-146878571D01*
X169610000Y-146950000D01*
X169538571Y-147021429D01*
X169467142Y-147164286D01*
X169467142Y-147592857D01*
X169538571Y-147735714D01*
X169610000Y-147807143D01*
X169752857Y-147878571D01*
X170038571Y-147878571D01*
X170181428Y-147807143D01*
X197609998Y-150428571D02*
X197609998Y-148928571D01*
X197038570Y-148928571D01*
X196895712Y-149000000D01*
X196824284Y-149071429D01*
X196752855Y-149214286D01*
X196752855Y-149428571D01*
X196824284Y-149571429D01*
X196895712Y-149642857D01*
X197038570Y-149714286D01*
X197609998Y-149714286D01*
X196181427Y-150357143D02*
X195967141Y-150428571D01*
X195609998Y-150428571D01*
X195467141Y-150357143D01*
X195395712Y-150285714D01*
X195324284Y-150142857D01*
X195324284Y-150000000D01*
X195395712Y-149857143D01*
X195467141Y-149785714D01*
X195609998Y-149714286D01*
X195895712Y-149642857D01*
X196038570Y-149571429D01*
X196109998Y-149500000D01*
X196181427Y-149357143D01*
X196181427Y-149214286D01*
X196109998Y-149071429D01*
X196038570Y-149000000D01*
X195895712Y-148928571D01*
X195538570Y-148928571D01*
X195324284Y-149000000D01*
X194681427Y-148928571D02*
X194681427Y-150142857D01*
X194609999Y-150285714D01*
X194538570Y-150357143D01*
X194395713Y-150428571D01*
X194109999Y-150428571D01*
X193967141Y-150357143D01*
X193895713Y-150285714D01*
X193824284Y-150142857D01*
X193824284Y-148928571D01*
X192038570Y-150000000D02*
X191324284Y-150000000D01*
X192181427Y-150428571D02*
X191681427Y-148928571D01*
X191181427Y-150428571D01*
X190681427Y-150428571D02*
X190681427Y-149428571D01*
X190681427Y-149714286D02*
X190609999Y-149571429D01*
X190538570Y-149500000D01*
X190395713Y-149428571D01*
X190252856Y-149428571D01*
X189752856Y-150428571D02*
X189752856Y-149428571D01*
X189752856Y-149714286D02*
X189681428Y-149571429D01*
X189609999Y-149500000D01*
X189467142Y-149428571D01*
X189324285Y-149428571D01*
X188181428Y-150428571D02*
X188181428Y-149642857D01*
X188252857Y-149500000D01*
X188395714Y-149428571D01*
X188681428Y-149428571D01*
X188824285Y-149500000D01*
X188181428Y-150357143D02*
X188324285Y-150428571D01*
X188681428Y-150428571D01*
X188824285Y-150357143D01*
X188895714Y-150214286D01*
X188895714Y-150071429D01*
X188824285Y-149928571D01*
X188681428Y-149857143D01*
X188324285Y-149857143D01*
X188181428Y-149785714D01*
X187609999Y-149428571D02*
X187252856Y-150428571D01*
X186895714Y-149428571D02*
X187252856Y-150428571D01*
X187395714Y-150785714D01*
X187467142Y-150857143D01*
X187609999Y-150928571D01*
X185252857Y-150357143D02*
X185038571Y-150428571D01*
X184681428Y-150428571D01*
X184538571Y-150357143D01*
X184467142Y-150285714D01*
X184395714Y-150142857D01*
X184395714Y-150000000D01*
X184467142Y-149857143D01*
X184538571Y-149785714D01*
X184681428Y-149714286D01*
X184967142Y-149642857D01*
X185110000Y-149571429D01*
X185181428Y-149500000D01*
X185252857Y-149357143D01*
X185252857Y-149214286D01*
X185181428Y-149071429D01*
X185110000Y-149000000D01*
X184967142Y-148928571D01*
X184610000Y-148928571D01*
X184395714Y-149000000D01*
X183752857Y-150428571D02*
X183752857Y-149428571D01*
X183752857Y-148928571D02*
X183824286Y-149000000D01*
X183752857Y-149071429D01*
X183681429Y-149000000D01*
X183752857Y-148928571D01*
X183752857Y-149071429D01*
X183252857Y-149428571D02*
X182681428Y-149428571D01*
X183038571Y-148928571D02*
X183038571Y-150214286D01*
X182967143Y-150357143D01*
X182824285Y-150428571D01*
X182681428Y-150428571D01*
X181610000Y-150357143D02*
X181752857Y-150428571D01*
X182038571Y-150428571D01*
X182181428Y-150357143D01*
X182252857Y-150214286D01*
X182252857Y-149642857D01*
X182181428Y-149500000D01*
X182038571Y-149428571D01*
X181752857Y-149428571D01*
X181610000Y-149500000D01*
X181538571Y-149642857D01*
X181538571Y-149785714D01*
X182252857Y-149928571D01*
X178895714Y-150285714D02*
X178967143Y-150357143D01*
X179181429Y-150428571D01*
X179324286Y-150428571D01*
X179538571Y-150357143D01*
X179681429Y-150214286D01*
X179752857Y-150071429D01*
X179824286Y-149785714D01*
X179824286Y-149571429D01*
X179752857Y-149285714D01*
X179681429Y-149142857D01*
X179538571Y-149000000D01*
X179324286Y-148928571D01*
X179181429Y-148928571D01*
X178967143Y-149000000D01*
X178895714Y-149071429D01*
X178038571Y-150428571D02*
X178181429Y-150357143D01*
X178252857Y-150285714D01*
X178324286Y-150142857D01*
X178324286Y-149714286D01*
X178252857Y-149571429D01*
X178181429Y-149500000D01*
X178038571Y-149428571D01*
X177824286Y-149428571D01*
X177681429Y-149500000D01*
X177610000Y-149571429D01*
X177538571Y-149714286D01*
X177538571Y-150142857D01*
X177610000Y-150285714D01*
X177681429Y-150357143D01*
X177824286Y-150428571D01*
X178038571Y-150428571D01*
X176895714Y-149428571D02*
X176895714Y-150428571D01*
X176895714Y-149571429D02*
X176824286Y-149500000D01*
X176681428Y-149428571D01*
X176467143Y-149428571D01*
X176324286Y-149500000D01*
X176252857Y-149642857D01*
X176252857Y-150428571D01*
X175752857Y-149428571D02*
X175181428Y-149428571D01*
X175538571Y-148928571D02*
X175538571Y-150214286D01*
X175467143Y-150357143D01*
X175324285Y-150428571D01*
X175181428Y-150428571D01*
X174681428Y-150428571D02*
X174681428Y-149428571D01*
X174681428Y-149714286D02*
X174610000Y-149571429D01*
X174538571Y-149500000D01*
X174395714Y-149428571D01*
X174252857Y-149428571D01*
X173538571Y-150428571D02*
X173681429Y-150357143D01*
X173752857Y-150285714D01*
X173824286Y-150142857D01*
X173824286Y-149714286D01*
X173752857Y-149571429D01*
X173681429Y-149500000D01*
X173538571Y-149428571D01*
X173324286Y-149428571D01*
X173181429Y-149500000D01*
X173110000Y-149571429D01*
X173038571Y-149714286D01*
X173038571Y-150142857D01*
X173110000Y-150285714D01*
X173181429Y-150357143D01*
X173324286Y-150428571D01*
X173538571Y-150428571D01*
X172181428Y-150428571D02*
X172324286Y-150357143D01*
X172395714Y-150214286D01*
X172395714Y-148928571D01*
X169610000Y-150428571D02*
X170110000Y-149714286D01*
X170467143Y-150428571D02*
X170467143Y-148928571D01*
X169895715Y-148928571D01*
X169752857Y-149000000D01*
X169681429Y-149071429D01*
X169610000Y-149214286D01*
X169610000Y-149428571D01*
X169681429Y-149571429D01*
X169752857Y-149642857D01*
X169895715Y-149714286D01*
X170467143Y-149714286D01*
X168395715Y-150357143D02*
X168538572Y-150428571D01*
X168824286Y-150428571D01*
X168967143Y-150357143D01*
X169038572Y-150214286D01*
X169038572Y-149642857D01*
X168967143Y-149500000D01*
X168824286Y-149428571D01*
X168538572Y-149428571D01*
X168395715Y-149500000D01*
X168324286Y-149642857D01*
X168324286Y-149785714D01*
X169038572Y-149928571D01*
X167824286Y-149428571D02*
X167467143Y-150428571D01*
X167110001Y-149428571D01*
X164895715Y-149642857D02*
X164681429Y-149714286D01*
X164610001Y-149785714D01*
X164538572Y-149928571D01*
X164538572Y-150142857D01*
X164610001Y-150285714D01*
X164681429Y-150357143D01*
X164824287Y-150428571D01*
X165395715Y-150428571D01*
X165395715Y-148928571D01*
X164895715Y-148928571D01*
X164752858Y-149000000D01*
X164681429Y-149071429D01*
X164610001Y-149214286D01*
X164610001Y-149357143D01*
X164681429Y-149500000D01*
X164752858Y-149571429D01*
X164895715Y-149642857D01*
X165395715Y-149642857D01*
X200217143Y-151478571D02*
X199360000Y-151478571D01*
X199788571Y-152978571D02*
X199788571Y-151478571D01*
X198860000Y-152978571D02*
X198860000Y-151478571D01*
X198217143Y-152978571D02*
X198217143Y-152192857D01*
X198288572Y-152050000D01*
X198431429Y-151978571D01*
X198645714Y-151978571D01*
X198788572Y-152050000D01*
X198860000Y-152121429D01*
X196931429Y-152907143D02*
X197074286Y-152978571D01*
X197360000Y-152978571D01*
X197502857Y-152907143D01*
X197574286Y-152764286D01*
X197574286Y-152192857D01*
X197502857Y-152050000D01*
X197360000Y-151978571D01*
X197074286Y-151978571D01*
X196931429Y-152050000D01*
X196860000Y-152192857D01*
X196860000Y-152335714D01*
X197574286Y-152478571D01*
X195074286Y-152978571D02*
X195074286Y-151478571D01*
X194502858Y-151478571D01*
X194360000Y-151550000D01*
X194288572Y-151621429D01*
X194217143Y-151764286D01*
X194217143Y-151978571D01*
X194288572Y-152121429D01*
X194360000Y-152192857D01*
X194502858Y-152264286D01*
X195074286Y-152264286D01*
X193002858Y-152907143D02*
X193145715Y-152978571D01*
X193431429Y-152978571D01*
X193574286Y-152907143D01*
X193645715Y-152764286D01*
X193645715Y-152192857D01*
X193574286Y-152050000D01*
X193431429Y-151978571D01*
X193145715Y-151978571D01*
X193002858Y-152050000D01*
X192931429Y-152192857D01*
X192931429Y-152335714D01*
X193645715Y-152478571D01*
X192288572Y-151978571D02*
X192288572Y-152978571D01*
X192288572Y-152121429D02*
X192217144Y-152050000D01*
X192074286Y-151978571D01*
X191860001Y-151978571D01*
X191717144Y-152050000D01*
X191645715Y-152192857D01*
X191645715Y-152978571D01*
X190931429Y-151978571D02*
X190931429Y-152978571D01*
X190931429Y-152121429D02*
X190860001Y-152050000D01*
X190717143Y-151978571D01*
X190502858Y-151978571D01*
X190360001Y-152050000D01*
X190288572Y-152192857D01*
X190288572Y-152978571D01*
X189645715Y-152907143D02*
X189502858Y-152978571D01*
X189217143Y-152978571D01*
X189074286Y-152907143D01*
X189002858Y-152764286D01*
X189002858Y-152692857D01*
X189074286Y-152550000D01*
X189217143Y-152478571D01*
X189431429Y-152478571D01*
X189574286Y-152407143D01*
X189645715Y-152264286D01*
X189645715Y-152192857D01*
X189574286Y-152050000D01*
X189431429Y-151978571D01*
X189217143Y-151978571D01*
X189074286Y-152050000D01*
X188502857Y-151978571D02*
X188145714Y-152978571D01*
X187788572Y-151978571D02*
X188145714Y-152978571D01*
X188288572Y-153335714D01*
X188360000Y-153407143D01*
X188502857Y-153478571D01*
X187002857Y-152978571D02*
X187145715Y-152907143D01*
X187217143Y-152764286D01*
X187217143Y-151478571D01*
X186574286Y-151978571D02*
X186217143Y-152978571D01*
X185860001Y-151978571D01*
X184645715Y-152978571D02*
X184645715Y-152192857D01*
X184717144Y-152050000D01*
X184860001Y-151978571D01*
X185145715Y-151978571D01*
X185288572Y-152050000D01*
X184645715Y-152907143D02*
X184788572Y-152978571D01*
X185145715Y-152978571D01*
X185288572Y-152907143D01*
X185360001Y-152764286D01*
X185360001Y-152621429D01*
X185288572Y-152478571D01*
X185145715Y-152407143D01*
X184788572Y-152407143D01*
X184645715Y-152335714D01*
X183931429Y-151978571D02*
X183931429Y-152978571D01*
X183931429Y-152121429D02*
X183860001Y-152050000D01*
X183717143Y-151978571D01*
X183502858Y-151978571D01*
X183360001Y-152050000D01*
X183288572Y-152192857D01*
X183288572Y-152978571D01*
X182574286Y-152978571D02*
X182574286Y-151978571D01*
X182574286Y-151478571D02*
X182645715Y-151550000D01*
X182574286Y-151621429D01*
X182502858Y-151550000D01*
X182574286Y-151478571D01*
X182574286Y-151621429D01*
X181217143Y-152978571D02*
X181217143Y-152192857D01*
X181288572Y-152050000D01*
X181431429Y-151978571D01*
X181717143Y-151978571D01*
X181860000Y-152050000D01*
X181217143Y-152907143D02*
X181360000Y-152978571D01*
X181717143Y-152978571D01*
X181860000Y-152907143D01*
X181931429Y-152764286D01*
X181931429Y-152621429D01*
X181860000Y-152478571D01*
X181717143Y-152407143D01*
X181360000Y-152407143D01*
X181217143Y-152335714D01*
X179431429Y-152907143D02*
X179217143Y-152978571D01*
X178860000Y-152978571D01*
X178717143Y-152907143D01*
X178645714Y-152835714D01*
X178574286Y-152692857D01*
X178574286Y-152550000D01*
X178645714Y-152407143D01*
X178717143Y-152335714D01*
X178860000Y-152264286D01*
X179145714Y-152192857D01*
X179288572Y-152121429D01*
X179360000Y-152050000D01*
X179431429Y-151907143D01*
X179431429Y-151764286D01*
X179360000Y-151621429D01*
X179288572Y-151550000D01*
X179145714Y-151478571D01*
X178788572Y-151478571D01*
X178574286Y-151550000D01*
X178145715Y-151978571D02*
X177574286Y-151978571D01*
X177931429Y-151478571D02*
X177931429Y-152764286D01*
X177860001Y-152907143D01*
X177717143Y-152978571D01*
X177574286Y-152978571D01*
X176431429Y-152978571D02*
X176431429Y-152192857D01*
X176502858Y-152050000D01*
X176645715Y-151978571D01*
X176931429Y-151978571D01*
X177074286Y-152050000D01*
X176431429Y-152907143D02*
X176574286Y-152978571D01*
X176931429Y-152978571D01*
X177074286Y-152907143D01*
X177145715Y-152764286D01*
X177145715Y-152621429D01*
X177074286Y-152478571D01*
X176931429Y-152407143D01*
X176574286Y-152407143D01*
X176431429Y-152335714D01*
X175931429Y-151978571D02*
X175360000Y-151978571D01*
X175717143Y-151478571D02*
X175717143Y-152764286D01*
X175645715Y-152907143D01*
X175502857Y-152978571D01*
X175360000Y-152978571D01*
X174288572Y-152907143D02*
X174431429Y-152978571D01*
X174717143Y-152978571D01*
X174860000Y-152907143D01*
X174931429Y-152764286D01*
X174931429Y-152192857D01*
X174860000Y-152050000D01*
X174717143Y-151978571D01*
X174431429Y-151978571D01*
X174288572Y-152050000D01*
X174217143Y-152192857D01*
X174217143Y-152335714D01*
X174931429Y-152478571D01*
X172431429Y-151478571D02*
X172431429Y-152692857D01*
X172360001Y-152835714D01*
X172288572Y-152907143D01*
X172145715Y-152978571D01*
X171860001Y-152978571D01*
X171717143Y-152907143D01*
X171645715Y-152835714D01*
X171574286Y-152692857D01*
X171574286Y-151478571D01*
X170860000Y-151978571D02*
X170860000Y-152978571D01*
X170860000Y-152121429D02*
X170788572Y-152050000D01*
X170645714Y-151978571D01*
X170431429Y-151978571D01*
X170288572Y-152050000D01*
X170217143Y-152192857D01*
X170217143Y-152978571D01*
X169502857Y-152978571D02*
X169502857Y-151978571D01*
X169502857Y-151478571D02*
X169574286Y-151550000D01*
X169502857Y-151621429D01*
X169431429Y-151550000D01*
X169502857Y-151478571D01*
X169502857Y-151621429D01*
X168931428Y-151978571D02*
X168574285Y-152978571D01*
X168217143Y-151978571D01*
X167074286Y-152907143D02*
X167217143Y-152978571D01*
X167502857Y-152978571D01*
X167645714Y-152907143D01*
X167717143Y-152764286D01*
X167717143Y-152192857D01*
X167645714Y-152050000D01*
X167502857Y-151978571D01*
X167217143Y-151978571D01*
X167074286Y-152050000D01*
X167002857Y-152192857D01*
X167002857Y-152335714D01*
X167717143Y-152478571D01*
X166360000Y-152978571D02*
X166360000Y-151978571D01*
X166360000Y-152264286D02*
X166288572Y-152121429D01*
X166217143Y-152050000D01*
X166074286Y-151978571D01*
X165931429Y-151978571D01*
X165502858Y-152907143D02*
X165360001Y-152978571D01*
X165074286Y-152978571D01*
X164931429Y-152907143D01*
X164860001Y-152764286D01*
X164860001Y-152692857D01*
X164931429Y-152550000D01*
X165074286Y-152478571D01*
X165288572Y-152478571D01*
X165431429Y-152407143D01*
X165502858Y-152264286D01*
X165502858Y-152192857D01*
X165431429Y-152050000D01*
X165288572Y-151978571D01*
X165074286Y-151978571D01*
X164931429Y-152050000D01*
X164217143Y-152978571D02*
X164217143Y-151978571D01*
X164217143Y-151478571D02*
X164288572Y-151550000D01*
X164217143Y-151621429D01*
X164145715Y-151550000D01*
X164217143Y-151478571D01*
X164217143Y-151621429D01*
X163717143Y-151978571D02*
X163145714Y-151978571D01*
X163502857Y-151478571D02*
X163502857Y-152764286D01*
X163431429Y-152907143D01*
X163288571Y-152978571D01*
X163145714Y-152978571D01*
X162788571Y-151978571D02*
X162431428Y-152978571D01*
X162074286Y-151978571D02*
X162431428Y-152978571D01*
X162574286Y-153335714D01*
X162645714Y-153407143D01*
X162788571Y-153478571D01*
D14*
X191646000Y-113040000D02*
X191646000Y-107960000D01*
X191646000Y-107960000D02*
X187074000Y-107960000D01*
X187074000Y-107960000D02*
X187074000Y-113040000D01*
X187074000Y-113040000D02*
X191646000Y-113040000D01*
X190122000Y-113040000D02*
X190122000Y-112532000D01*
X190122000Y-112532000D02*
X188852000Y-112532000D01*
X188852000Y-112532000D02*
X188852000Y-113040000D01*
X176260000Y-68340000D02*
X176260000Y-69040000D01*
X177460000Y-69040000D02*
X177460000Y-68340000D01*
X165460000Y-72850000D02*
X165460000Y-72150000D01*
X164260000Y-72150000D02*
X164260000Y-72850000D01*
X168010000Y-76644000D02*
X168710000Y-76644000D01*
X168710000Y-75444000D02*
X168010000Y-75444000D01*
X173010000Y-71900000D02*
X173010000Y-72600000D01*
X174210000Y-72600000D02*
X174210000Y-71900000D01*
X168260000Y-68350000D02*
X168960000Y-68350000D01*
X168960000Y-67150000D02*
X168260000Y-67150000D01*
X158208000Y-44554000D02*
X157008000Y-44554000D01*
X157008000Y-46304000D02*
X158208000Y-46304000D01*
X152505000Y-62031000D02*
X153205000Y-62031000D01*
X153205000Y-60831000D02*
X152505000Y-60831000D01*
X162234000Y-62531000D02*
X162934000Y-62531000D01*
X162934000Y-61331000D02*
X162234000Y-61331000D01*
X154266000Y-46459000D02*
X153066000Y-46459000D01*
X153066000Y-48209000D02*
X154266000Y-48209000D01*
X163746000Y-47340000D02*
X162546000Y-47340000D01*
X162546000Y-49090000D02*
X163746000Y-49090000D01*
X158208000Y-46586000D02*
X157008000Y-46586000D01*
X157008000Y-48336000D02*
X158208000Y-48336000D01*
X167048000Y-47340000D02*
X165848000Y-47340000D01*
X165848000Y-49090000D02*
X167048000Y-49090000D01*
X166894000Y-61256000D02*
X165894000Y-61256000D01*
X165894000Y-62606000D02*
X166894000Y-62606000D01*
X157522000Y-60756000D02*
X156522000Y-60756000D01*
X156522000Y-62106000D02*
X157522000Y-62106000D01*
X162537000Y-126707000D02*
X162537000Y-125707000D01*
X161187000Y-125707000D02*
X161187000Y-126707000D01*
X160886000Y-126683000D02*
X160886000Y-125683000D01*
X159536000Y-125683000D02*
X159536000Y-126683000D01*
X166509728Y-137246944D02*
X166509728Y-138246944D01*
X167859728Y-138246944D02*
X167859728Y-137246944D01*
X168160728Y-137270944D02*
X168160728Y-138270944D01*
X169510728Y-138270944D02*
X169510728Y-137270944D01*
X168633000Y-105941246D02*
X168633000Y-105241246D01*
X167433000Y-105241246D02*
X167433000Y-105941246D01*
X168887000Y-100773000D02*
X168887000Y-100073000D01*
X167687000Y-100073000D02*
X167687000Y-100773000D01*
X164061000Y-100773000D02*
X164061000Y-100073000D01*
X162861000Y-100073000D02*
X162861000Y-100773000D01*
X162785000Y-79500000D02*
X162785000Y-78500000D01*
X161435000Y-78500000D02*
X161435000Y-79500000D01*
X161285000Y-80000000D02*
X161285000Y-79000000D01*
X159935000Y-79000000D02*
X159935000Y-80000000D01*
X158935000Y-102250000D02*
X158935000Y-103250000D01*
X160285000Y-103250000D02*
X160285000Y-102250000D01*
X161610000Y-118175000D02*
X162610000Y-118175000D01*
X162610000Y-116825000D02*
X161610000Y-116825000D01*
X152326000Y-60405000D02*
X151326000Y-59405000D01*
X151326000Y-59405000D02*
X151326000Y-48865000D01*
X151326000Y-48865000D02*
X159186000Y-48865000D01*
X159186000Y-48865000D02*
X159186000Y-60405000D01*
X159186000Y-60405000D02*
X152326000Y-60405000D01*
X161928000Y-61035000D02*
X160928000Y-60035000D01*
X160928000Y-60035000D02*
X160928000Y-49495000D01*
X160928000Y-49495000D02*
X168788000Y-49495000D01*
X168788000Y-49495000D02*
X168788000Y-61035000D01*
X168788000Y-61035000D02*
X161928000Y-61035000D01*
X166540000Y-104980000D02*
X167540000Y-105980000D01*
X167540000Y-105980000D02*
X167540000Y-116520000D01*
X167540000Y-116520000D02*
X159680000Y-116520000D01*
X159680000Y-116520000D02*
X159680000Y-104980000D01*
X159680000Y-104980000D02*
X166540000Y-104980000D01*
X170705000Y-96634000D02*
X169705000Y-97634000D01*
X169705000Y-97634000D02*
X159165000Y-97634000D01*
X159165000Y-97634000D02*
X159165000Y-89774000D01*
X159165000Y-89774000D02*
X170705000Y-89774000D01*
X170705000Y-89774000D02*
X170705000Y-96634000D01*
X193010000Y-139500000D02*
X193010000Y-138500000D01*
X194710000Y-138500000D02*
X194710000Y-139500000D01*
X183210000Y-69350000D02*
X183210000Y-68650000D01*
X182010000Y-68650000D02*
X182010000Y-69350000D01*
X188260000Y-67350000D02*
X188960000Y-67350000D01*
X188960000Y-66150000D02*
X188260000Y-66150000D01*
X192110000Y-66195000D02*
X192110000Y-66445000D01*
X192110000Y-65695000D02*
X192110000Y-65445000D01*
X192110000Y-65695000D02*
X191760000Y-66195000D01*
X191760000Y-66195000D02*
X192460000Y-66195000D01*
X192460000Y-66195000D02*
X192110000Y-65695000D01*
X191760000Y-65695000D02*
X192460000Y-65695000D01*
X192910000Y-64645000D02*
X192910000Y-67045000D01*
X191310000Y-64645000D02*
X191310000Y-67045000D01*
X191610000Y-137675000D02*
X192610000Y-137675000D01*
X192610000Y-136325000D02*
X191610000Y-136325000D01*
X188785000Y-63049252D02*
X188785000Y-62049252D01*
X187435000Y-62049252D02*
X187435000Y-63049252D01*
X188610000Y-64150000D02*
X189610000Y-64150000D01*
X189610000Y-65850000D02*
X188610000Y-65850000D01*
X184460000Y-70499252D02*
X183460000Y-69499252D01*
X183460000Y-69499252D02*
X183460000Y-63699252D01*
X183460000Y-63699252D02*
X186760000Y-63699252D01*
X186760000Y-63699252D02*
X186760000Y-70499252D01*
X186760000Y-70499252D02*
X184460000Y-70499252D01*
X194710000Y-68900000D02*
X194010000Y-68900000D01*
X194010000Y-70100000D02*
X194710000Y-70100000D01*
X189210000Y-59900000D02*
X188510000Y-59900000D01*
X188510000Y-61100000D02*
X189210000Y-61100000D01*
X186530000Y-71662000D02*
X186530000Y-76488000D01*
X186530000Y-76488000D02*
X196690000Y-76488000D01*
X196690000Y-76488000D02*
X196690000Y-71662000D01*
X196690000Y-71662000D02*
X186530000Y-71662000D01*
X196690000Y-73440000D02*
X196055000Y-73440000D01*
X196055000Y-73440000D02*
X196055000Y-74710000D01*
X196055000Y-74710000D02*
X196690000Y-74710000D01*
X189475000Y-63815252D02*
X189475000Y-61783252D01*
X189475000Y-61783252D02*
X190745000Y-61783252D01*
X190745000Y-61783252D02*
X190745000Y-63815252D01*
X190745000Y-63815252D02*
X189475000Y-63815252D01*
X175860000Y-97850140D02*
X175860000Y-97088140D01*
X175479000Y-97469140D02*
X176241000Y-97469140D01*
X178146000Y-97723140D02*
X178146000Y-93913140D01*
X174336000Y-98485140D02*
X177384000Y-98485140D01*
X178146000Y-97723140D02*
X177384000Y-98485140D01*
X173574000Y-97723140D02*
X173574000Y-93913140D01*
X173574000Y-97723140D02*
X174336000Y-98485140D01*
X175987000Y-94167140D02*
X175733000Y-94167140D01*
X175225000Y-94294140D02*
X176495000Y-94294140D01*
X176749000Y-94421140D02*
X174971000Y-94421140D01*
X177003000Y-94548140D02*
X174717000Y-94548140D01*
X174590000Y-94675140D02*
X177130000Y-94675140D01*
X177257000Y-94802140D02*
X174463000Y-94802140D01*
X174336000Y-94929140D02*
X177384000Y-94929140D01*
X174209000Y-95056140D02*
X177511000Y-95056140D01*
X173574000Y-93913140D02*
X178146000Y-93913140D01*
X177892000Y-96199140D02*
G75*
G03X177892000Y-96199140I-2032000J0D01*
G01*
X182510000Y-96500000D02*
X182510000Y-95500000D01*
X184210000Y-95500000D02*
X184210000Y-96500000D01*
X178885000Y-96500000D02*
X178885000Y-94500000D01*
X181835000Y-94500000D02*
X181835000Y-96500000D01*
X197360000Y-96650000D02*
X198360000Y-96650000D01*
X198360000Y-98350000D02*
X197360000Y-98350000D01*
X197360000Y-94150000D02*
X198360000Y-94150000D01*
X198360000Y-95850000D02*
X197360000Y-95850000D01*
X182360000Y-101150000D02*
X183360000Y-101150000D01*
X183360000Y-102850000D02*
X182360000Y-102850000D01*
X184885000Y-88000000D02*
X184885000Y-86000000D01*
X187835000Y-86000000D02*
X187835000Y-88000000D01*
X183260000Y-87400000D02*
X183260000Y-88100000D01*
X184460000Y-88100000D02*
X184460000Y-87400000D01*
X199361260Y-86998740D02*
G75*
G03X199361260Y-86998740I-5001260J0D01*
G01*
X194360000Y-92998220D02*
X199361260Y-92998220D01*
X199361260Y-92998220D02*
X200359480Y-92000000D01*
X200359480Y-92000000D02*
X200359480Y-81997480D01*
X200359480Y-81997480D02*
X199361260Y-80999260D01*
X199361260Y-80999260D02*
X189358740Y-80999260D01*
X189358740Y-80999260D02*
X188360520Y-81997480D01*
X188360520Y-81997480D02*
X188360520Y-92000000D01*
X188360520Y-92000000D02*
X189358740Y-92998220D01*
X189358740Y-92998220D02*
X194360000Y-92998220D01*
X197210000Y-100375000D02*
X198410000Y-100375000D01*
X198410000Y-98625000D02*
X197210000Y-98625000D01*
X183510000Y-99125000D02*
X182310000Y-99125000D01*
X182310000Y-100875000D02*
X183510000Y-100875000D01*
X186910000Y-101125000D02*
X185710000Y-101125000D01*
X185710000Y-102875000D02*
X186910000Y-102875000D01*
X185360000Y-95550000D02*
X186360000Y-94550000D01*
X186360000Y-94550000D02*
X194560000Y-94550000D01*
X194560000Y-94550000D02*
X194560000Y-100500000D01*
X194560000Y-100500000D02*
X185360000Y-100500000D01*
X185360000Y-100500000D02*
X185360000Y-95550000D01*
X192430381Y-113143905D02*
X193239905Y-113143905D01*
X193335143Y-113191524D01*
X193382762Y-113239143D01*
X193430381Y-113334381D01*
X193430381Y-113524858D01*
X193382762Y-113620096D01*
X193335143Y-113667715D01*
X193239905Y-113715334D01*
X192430381Y-113715334D01*
X193430381Y-114715334D02*
X193430381Y-114143905D01*
X193430381Y-114429619D02*
X192430381Y-114429619D01*
X192573238Y-114334381D01*
X192668476Y-114239143D01*
X192716095Y-114143905D01*
X192430381Y-115620096D02*
X192430381Y-115143905D01*
X192906571Y-115096286D01*
X192858952Y-115143905D01*
X192811333Y-115239143D01*
X192811333Y-115477239D01*
X192858952Y-115572477D01*
X192906571Y-115620096D01*
X193001810Y-115667715D01*
X193239905Y-115667715D01*
X193335143Y-115620096D01*
X193382762Y-115572477D01*
X193430381Y-115477239D01*
X193430381Y-115239143D01*
X193382762Y-115143905D01*
X193335143Y-115096286D01*
X175612143Y-68483334D02*
X175659762Y-68435715D01*
X175707381Y-68292858D01*
X175707381Y-68197620D01*
X175659762Y-68054762D01*
X175564524Y-67959524D01*
X175469286Y-67911905D01*
X175278810Y-67864286D01*
X175135952Y-67864286D01*
X174945476Y-67911905D01*
X174850238Y-67959524D01*
X174755000Y-68054762D01*
X174707381Y-68197620D01*
X174707381Y-68292858D01*
X174755000Y-68435715D01*
X174802619Y-68483334D01*
X175707381Y-69435715D02*
X175707381Y-68864286D01*
X175707381Y-69150000D02*
X174707381Y-69150000D01*
X174850238Y-69054762D01*
X174945476Y-68959524D01*
X174993095Y-68864286D01*
X167117143Y-72333334D02*
X167164762Y-72285715D01*
X167212381Y-72142858D01*
X167212381Y-72047620D01*
X167164762Y-71904762D01*
X167069524Y-71809524D01*
X166974286Y-71761905D01*
X166783810Y-71714286D01*
X166640952Y-71714286D01*
X166450476Y-71761905D01*
X166355238Y-71809524D01*
X166260000Y-71904762D01*
X166212381Y-72047620D01*
X166212381Y-72142858D01*
X166260000Y-72285715D01*
X166307619Y-72333334D01*
X166307619Y-72714286D02*
X166260000Y-72761905D01*
X166212381Y-72857143D01*
X166212381Y-73095239D01*
X166260000Y-73190477D01*
X166307619Y-73238096D01*
X166402857Y-73285715D01*
X166498095Y-73285715D01*
X166640952Y-73238096D01*
X167212381Y-72666667D01*
X167212381Y-73285715D01*
X168526666Y-78301143D02*
X168574285Y-78348762D01*
X168717142Y-78396381D01*
X168812380Y-78396381D01*
X168955238Y-78348762D01*
X169050476Y-78253524D01*
X169098095Y-78158286D01*
X169145714Y-77967810D01*
X169145714Y-77824952D01*
X169098095Y-77634476D01*
X169050476Y-77539238D01*
X168955238Y-77444000D01*
X168812380Y-77396381D01*
X168717142Y-77396381D01*
X168574285Y-77444000D01*
X168526666Y-77491619D01*
X168193333Y-77396381D02*
X167574285Y-77396381D01*
X167907619Y-77777333D01*
X167764761Y-77777333D01*
X167669523Y-77824952D01*
X167621904Y-77872571D01*
X167574285Y-77967810D01*
X167574285Y-78205905D01*
X167621904Y-78301143D01*
X167669523Y-78348762D01*
X167764761Y-78396381D01*
X168050476Y-78396381D01*
X168145714Y-78348762D01*
X168193333Y-78301143D01*
X172307143Y-71975334D02*
X172354762Y-71927715D01*
X172402381Y-71784858D01*
X172402381Y-71689620D01*
X172354762Y-71546762D01*
X172259524Y-71451524D01*
X172164286Y-71403905D01*
X171973810Y-71356286D01*
X171830952Y-71356286D01*
X171640476Y-71403905D01*
X171545238Y-71451524D01*
X171450000Y-71546762D01*
X171402381Y-71689620D01*
X171402381Y-71784858D01*
X171450000Y-71927715D01*
X171497619Y-71975334D01*
X171735714Y-72832477D02*
X172402381Y-72832477D01*
X171354762Y-72594381D02*
X172069048Y-72356286D01*
X172069048Y-72975334D01*
X168896666Y-69603143D02*
X168944285Y-69650762D01*
X169087142Y-69698381D01*
X169182380Y-69698381D01*
X169325238Y-69650762D01*
X169420476Y-69555524D01*
X169468095Y-69460286D01*
X169515714Y-69269810D01*
X169515714Y-69126952D01*
X169468095Y-68936476D01*
X169420476Y-68841238D01*
X169325238Y-68746000D01*
X169182380Y-68698381D01*
X169087142Y-68698381D01*
X168944285Y-68746000D01*
X168896666Y-68793619D01*
X167991904Y-68698381D02*
X168468095Y-68698381D01*
X168515714Y-69174571D01*
X168468095Y-69126952D01*
X168372857Y-69079333D01*
X168134761Y-69079333D01*
X168039523Y-69126952D01*
X167991904Y-69174571D01*
X167944285Y-69269810D01*
X167944285Y-69507905D01*
X167991904Y-69603143D01*
X168039523Y-69650762D01*
X168134761Y-69698381D01*
X168372857Y-69698381D01*
X168468095Y-69650762D01*
X168515714Y-69603143D01*
X155176666Y-45932381D02*
X155510000Y-45456190D01*
X155748095Y-45932381D02*
X155748095Y-44932381D01*
X155367142Y-44932381D01*
X155271904Y-44980000D01*
X155224285Y-45027619D01*
X155176666Y-45122857D01*
X155176666Y-45265714D01*
X155224285Y-45360952D01*
X155271904Y-45408571D01*
X155367142Y-45456190D01*
X155748095Y-45456190D01*
X154224285Y-45932381D02*
X154795714Y-45932381D01*
X154510000Y-45932381D02*
X154510000Y-44932381D01*
X154605238Y-45075238D01*
X154700476Y-45170476D01*
X154795714Y-45218095D01*
X153232857Y-63567143D02*
X153280476Y-63614762D01*
X153423333Y-63662381D01*
X153518571Y-63662381D01*
X153661429Y-63614762D01*
X153756667Y-63519524D01*
X153804286Y-63424286D01*
X153851905Y-63233810D01*
X153851905Y-63090952D01*
X153804286Y-62900476D01*
X153756667Y-62805238D01*
X153661429Y-62710000D01*
X153518571Y-62662381D01*
X153423333Y-62662381D01*
X153280476Y-62710000D01*
X153232857Y-62757619D01*
X152280476Y-63662381D02*
X152851905Y-63662381D01*
X152566191Y-63662381D02*
X152566191Y-62662381D01*
X152661429Y-62805238D01*
X152756667Y-62900476D01*
X152851905Y-62948095D01*
X151661429Y-62662381D02*
X151566190Y-62662381D01*
X151470952Y-62710000D01*
X151423333Y-62757619D01*
X151375714Y-62852857D01*
X151328095Y-63043333D01*
X151328095Y-63281429D01*
X151375714Y-63471905D01*
X151423333Y-63567143D01*
X151470952Y-63614762D01*
X151566190Y-63662381D01*
X151661429Y-63662381D01*
X151756667Y-63614762D01*
X151804286Y-63567143D01*
X151851905Y-63471905D01*
X151899524Y-63281429D01*
X151899524Y-63043333D01*
X151851905Y-62852857D01*
X151804286Y-62757619D01*
X151756667Y-62710000D01*
X151661429Y-62662381D01*
X163226857Y-64188143D02*
X163274476Y-64235762D01*
X163417333Y-64283381D01*
X163512571Y-64283381D01*
X163655429Y-64235762D01*
X163750667Y-64140524D01*
X163798286Y-64045286D01*
X163845905Y-63854810D01*
X163845905Y-63711952D01*
X163798286Y-63521476D01*
X163750667Y-63426238D01*
X163655429Y-63331000D01*
X163512571Y-63283381D01*
X163417333Y-63283381D01*
X163274476Y-63331000D01*
X163226857Y-63378619D01*
X162274476Y-64283381D02*
X162845905Y-64283381D01*
X162560191Y-64283381D02*
X162560191Y-63283381D01*
X162655429Y-63426238D01*
X162750667Y-63521476D01*
X162845905Y-63569095D01*
X161322095Y-64283381D02*
X161893524Y-64283381D01*
X161607810Y-64283381D02*
X161607810Y-63283381D01*
X161703048Y-63426238D01*
X161798286Y-63521476D01*
X161893524Y-63569095D01*
X153636666Y-46182381D02*
X153970000Y-45706190D01*
X154208095Y-46182381D02*
X154208095Y-45182381D01*
X153827142Y-45182381D01*
X153731904Y-45230000D01*
X153684285Y-45277619D01*
X153636666Y-45372857D01*
X153636666Y-45515714D01*
X153684285Y-45610952D01*
X153731904Y-45658571D01*
X153827142Y-45706190D01*
X154208095Y-45706190D01*
X153065238Y-45610952D02*
X153160476Y-45563333D01*
X153208095Y-45515714D01*
X153255714Y-45420476D01*
X153255714Y-45372857D01*
X153208095Y-45277619D01*
X153160476Y-45230000D01*
X153065238Y-45182381D01*
X152874761Y-45182381D01*
X152779523Y-45230000D01*
X152731904Y-45277619D01*
X152684285Y-45372857D01*
X152684285Y-45420476D01*
X152731904Y-45515714D01*
X152779523Y-45563333D01*
X152874761Y-45610952D01*
X153065238Y-45610952D01*
X153160476Y-45658571D01*
X153208095Y-45706190D01*
X153255714Y-45801429D01*
X153255714Y-45991905D01*
X153208095Y-46087143D01*
X153160476Y-46134762D01*
X153065238Y-46182381D01*
X152874761Y-46182381D01*
X152779523Y-46134762D01*
X152731904Y-46087143D01*
X152684285Y-45991905D01*
X152684285Y-45801429D01*
X152731904Y-45706190D01*
X152779523Y-45658571D01*
X152874761Y-45610952D01*
X163702381Y-45953334D02*
X163226190Y-45620000D01*
X163702381Y-45381905D02*
X162702381Y-45381905D01*
X162702381Y-45762858D01*
X162750000Y-45858096D01*
X162797619Y-45905715D01*
X162892857Y-45953334D01*
X163035714Y-45953334D01*
X163130952Y-45905715D01*
X163178571Y-45858096D01*
X163226190Y-45762858D01*
X163226190Y-45381905D01*
X163702381Y-46429524D02*
X163702381Y-46620000D01*
X163654762Y-46715239D01*
X163607143Y-46762858D01*
X163464286Y-46858096D01*
X163273810Y-46905715D01*
X162892857Y-46905715D01*
X162797619Y-46858096D01*
X162750000Y-46810477D01*
X162702381Y-46715239D01*
X162702381Y-46524762D01*
X162750000Y-46429524D01*
X162797619Y-46381905D01*
X162892857Y-46334286D01*
X163130952Y-46334286D01*
X163226190Y-46381905D01*
X163273810Y-46429524D01*
X163321429Y-46524762D01*
X163321429Y-46715239D01*
X163273810Y-46810477D01*
X163226190Y-46858096D01*
X163130952Y-46905715D01*
X160342381Y-46807143D02*
X159866190Y-46473809D01*
X160342381Y-46235714D02*
X159342381Y-46235714D01*
X159342381Y-46616667D01*
X159390000Y-46711905D01*
X159437619Y-46759524D01*
X159532857Y-46807143D01*
X159675714Y-46807143D01*
X159770952Y-46759524D01*
X159818571Y-46711905D01*
X159866190Y-46616667D01*
X159866190Y-46235714D01*
X160342381Y-47759524D02*
X160342381Y-47188095D01*
X160342381Y-47473809D02*
X159342381Y-47473809D01*
X159485238Y-47378571D01*
X159580476Y-47283333D01*
X159628095Y-47188095D01*
X159437619Y-48140476D02*
X159390000Y-48188095D01*
X159342381Y-48283333D01*
X159342381Y-48521429D01*
X159390000Y-48616667D01*
X159437619Y-48664286D01*
X159532857Y-48711905D01*
X159628095Y-48711905D01*
X159770952Y-48664286D01*
X160342381Y-48092857D01*
X160342381Y-48711905D01*
X166942381Y-45087143D02*
X166466190Y-44753809D01*
X166942381Y-44515714D02*
X165942381Y-44515714D01*
X165942381Y-44896667D01*
X165990000Y-44991905D01*
X166037619Y-45039524D01*
X166132857Y-45087143D01*
X166275714Y-45087143D01*
X166370952Y-45039524D01*
X166418571Y-44991905D01*
X166466190Y-44896667D01*
X166466190Y-44515714D01*
X166942381Y-46039524D02*
X166942381Y-45468095D01*
X166942381Y-45753809D02*
X165942381Y-45753809D01*
X166085238Y-45658571D01*
X166180476Y-45563333D01*
X166228095Y-45468095D01*
X165942381Y-46372857D02*
X165942381Y-46991905D01*
X166323333Y-46658571D01*
X166323333Y-46801429D01*
X166370952Y-46896667D01*
X166418571Y-46944286D01*
X166513810Y-46991905D01*
X166751905Y-46991905D01*
X166847143Y-46944286D01*
X166894762Y-46896667D01*
X166942381Y-46801429D01*
X166942381Y-46515714D01*
X166894762Y-46420476D01*
X166847143Y-46372857D01*
X167036857Y-64283381D02*
X167370191Y-63807190D01*
X167608286Y-64283381D02*
X167608286Y-63283381D01*
X167227333Y-63283381D01*
X167132095Y-63331000D01*
X167084476Y-63378619D01*
X167036857Y-63473857D01*
X167036857Y-63616714D01*
X167084476Y-63711952D01*
X167132095Y-63759571D01*
X167227333Y-63807190D01*
X167608286Y-63807190D01*
X166084476Y-64283381D02*
X166655905Y-64283381D01*
X166370191Y-64283381D02*
X166370191Y-63283381D01*
X166465429Y-63426238D01*
X166560667Y-63521476D01*
X166655905Y-63569095D01*
X165227333Y-63283381D02*
X165417810Y-63283381D01*
X165513048Y-63331000D01*
X165560667Y-63378619D01*
X165655905Y-63521476D01*
X165703524Y-63711952D01*
X165703524Y-64092905D01*
X165655905Y-64188143D01*
X165608286Y-64235762D01*
X165513048Y-64283381D01*
X165322571Y-64283381D01*
X165227333Y-64235762D01*
X165179714Y-64188143D01*
X165132095Y-64092905D01*
X165132095Y-63854810D01*
X165179714Y-63759571D01*
X165227333Y-63711952D01*
X165322571Y-63664333D01*
X165513048Y-63664333D01*
X165608286Y-63711952D01*
X165655905Y-63759571D01*
X165703524Y-63854810D01*
X157942857Y-63692381D02*
X158276191Y-63216190D01*
X158514286Y-63692381D02*
X158514286Y-62692381D01*
X158133333Y-62692381D01*
X158038095Y-62740000D01*
X157990476Y-62787619D01*
X157942857Y-62882857D01*
X157942857Y-63025714D01*
X157990476Y-63120952D01*
X158038095Y-63168571D01*
X158133333Y-63216190D01*
X158514286Y-63216190D01*
X156990476Y-63692381D02*
X157561905Y-63692381D01*
X157276191Y-63692381D02*
X157276191Y-62692381D01*
X157371429Y-62835238D01*
X157466667Y-62930476D01*
X157561905Y-62978095D01*
X156657143Y-62692381D02*
X155990476Y-62692381D01*
X156419048Y-63692381D01*
X162312381Y-122797143D02*
X161836190Y-122463809D01*
X162312381Y-122225714D02*
X161312381Y-122225714D01*
X161312381Y-122606667D01*
X161360000Y-122701905D01*
X161407619Y-122749524D01*
X161502857Y-122797143D01*
X161645714Y-122797143D01*
X161740952Y-122749524D01*
X161788571Y-122701905D01*
X161836190Y-122606667D01*
X161836190Y-122225714D01*
X161407619Y-123178095D02*
X161360000Y-123225714D01*
X161312381Y-123320952D01*
X161312381Y-123559048D01*
X161360000Y-123654286D01*
X161407619Y-123701905D01*
X161502857Y-123749524D01*
X161598095Y-123749524D01*
X161740952Y-123701905D01*
X162312381Y-123130476D01*
X162312381Y-123749524D01*
X162312381Y-124701905D02*
X162312381Y-124130476D01*
X162312381Y-124416190D02*
X161312381Y-124416190D01*
X161455238Y-124320952D01*
X161550476Y-124225714D01*
X161598095Y-124130476D01*
X160562381Y-122607143D02*
X160086190Y-122273809D01*
X160562381Y-122035714D02*
X159562381Y-122035714D01*
X159562381Y-122416667D01*
X159610000Y-122511905D01*
X159657619Y-122559524D01*
X159752857Y-122607143D01*
X159895714Y-122607143D01*
X159990952Y-122559524D01*
X160038571Y-122511905D01*
X160086190Y-122416667D01*
X160086190Y-122035714D01*
X159657619Y-122988095D02*
X159610000Y-123035714D01*
X159562381Y-123130952D01*
X159562381Y-123369048D01*
X159610000Y-123464286D01*
X159657619Y-123511905D01*
X159752857Y-123559524D01*
X159848095Y-123559524D01*
X159990952Y-123511905D01*
X160562381Y-122940476D01*
X160562381Y-123559524D01*
X159657619Y-123940476D02*
X159610000Y-123988095D01*
X159562381Y-124083333D01*
X159562381Y-124321429D01*
X159610000Y-124416667D01*
X159657619Y-124464286D01*
X159752857Y-124511905D01*
X159848095Y-124511905D01*
X159990952Y-124464286D01*
X160562381Y-123892857D01*
X160562381Y-124511905D01*
X167558109Y-139932087D02*
X167081918Y-139598753D01*
X167558109Y-139360658D02*
X166558109Y-139360658D01*
X166558109Y-139741611D01*
X166605728Y-139836849D01*
X166653347Y-139884468D01*
X166748585Y-139932087D01*
X166891442Y-139932087D01*
X166986680Y-139884468D01*
X167034299Y-139836849D01*
X167081918Y-139741611D01*
X167081918Y-139360658D01*
X166653347Y-140313039D02*
X166605728Y-140360658D01*
X166558109Y-140455896D01*
X166558109Y-140693992D01*
X166605728Y-140789230D01*
X166653347Y-140836849D01*
X166748585Y-140884468D01*
X166843823Y-140884468D01*
X166986680Y-140836849D01*
X167558109Y-140265420D01*
X167558109Y-140884468D01*
X166558109Y-141217801D02*
X166558109Y-141836849D01*
X166939061Y-141503515D01*
X166939061Y-141646373D01*
X166986680Y-141741611D01*
X167034299Y-141789230D01*
X167129538Y-141836849D01*
X167367633Y-141836849D01*
X167462871Y-141789230D01*
X167510490Y-141741611D01*
X167558109Y-141646373D01*
X167558109Y-141360658D01*
X167510490Y-141265420D01*
X167462871Y-141217801D01*
X169408109Y-139862087D02*
X168931918Y-139528753D01*
X169408109Y-139290658D02*
X168408109Y-139290658D01*
X168408109Y-139671611D01*
X168455728Y-139766849D01*
X168503347Y-139814468D01*
X168598585Y-139862087D01*
X168741442Y-139862087D01*
X168836680Y-139814468D01*
X168884299Y-139766849D01*
X168931918Y-139671611D01*
X168931918Y-139290658D01*
X168503347Y-140243039D02*
X168455728Y-140290658D01*
X168408109Y-140385896D01*
X168408109Y-140623992D01*
X168455728Y-140719230D01*
X168503347Y-140766849D01*
X168598585Y-140814468D01*
X168693823Y-140814468D01*
X168836680Y-140766849D01*
X169408109Y-140195420D01*
X169408109Y-140814468D01*
X168741442Y-141671611D02*
X169408109Y-141671611D01*
X168360490Y-141433515D02*
X169074776Y-141195420D01*
X169074776Y-141814468D01*
X169967143Y-105107143D02*
X170014762Y-105059524D01*
X170062381Y-104916667D01*
X170062381Y-104821429D01*
X170014762Y-104678571D01*
X169919524Y-104583333D01*
X169824286Y-104535714D01*
X169633810Y-104488095D01*
X169490952Y-104488095D01*
X169300476Y-104535714D01*
X169205238Y-104583333D01*
X169110000Y-104678571D01*
X169062381Y-104821429D01*
X169062381Y-104916667D01*
X169110000Y-105059524D01*
X169157619Y-105107143D01*
X169157619Y-105488095D02*
X169110000Y-105535714D01*
X169062381Y-105630952D01*
X169062381Y-105869048D01*
X169110000Y-105964286D01*
X169157619Y-106011905D01*
X169252857Y-106059524D01*
X169348095Y-106059524D01*
X169490952Y-106011905D01*
X170062381Y-105440476D01*
X170062381Y-106059524D01*
X169490952Y-106630952D02*
X169443333Y-106535714D01*
X169395714Y-106488095D01*
X169300476Y-106440476D01*
X169252857Y-106440476D01*
X169157619Y-106488095D01*
X169110000Y-106535714D01*
X169062381Y-106630952D01*
X169062381Y-106821429D01*
X169110000Y-106916667D01*
X169157619Y-106964286D01*
X169252857Y-107011905D01*
X169300476Y-107011905D01*
X169395714Y-106964286D01*
X169443333Y-106916667D01*
X169490952Y-106821429D01*
X169490952Y-106630952D01*
X169538571Y-106535714D01*
X169586190Y-106488095D01*
X169681429Y-106440476D01*
X169871905Y-106440476D01*
X169967143Y-106488095D01*
X170014762Y-106535714D01*
X170062381Y-106630952D01*
X170062381Y-106821429D01*
X170014762Y-106916667D01*
X169967143Y-106964286D01*
X169871905Y-107011905D01*
X169681429Y-107011905D01*
X169586190Y-106964286D01*
X169538571Y-106916667D01*
X169490952Y-106821429D01*
X170337143Y-99707143D02*
X170384762Y-99659524D01*
X170432381Y-99516667D01*
X170432381Y-99421429D01*
X170384762Y-99278571D01*
X170289524Y-99183333D01*
X170194286Y-99135714D01*
X170003810Y-99088095D01*
X169860952Y-99088095D01*
X169670476Y-99135714D01*
X169575238Y-99183333D01*
X169480000Y-99278571D01*
X169432381Y-99421429D01*
X169432381Y-99516667D01*
X169480000Y-99659524D01*
X169527619Y-99707143D01*
X169527619Y-100088095D02*
X169480000Y-100135714D01*
X169432381Y-100230952D01*
X169432381Y-100469048D01*
X169480000Y-100564286D01*
X169527619Y-100611905D01*
X169622857Y-100659524D01*
X169718095Y-100659524D01*
X169860952Y-100611905D01*
X170432381Y-100040476D01*
X170432381Y-100659524D01*
X170432381Y-101135714D02*
X170432381Y-101326190D01*
X170384762Y-101421429D01*
X170337143Y-101469048D01*
X170194286Y-101564286D01*
X170003810Y-101611905D01*
X169622857Y-101611905D01*
X169527619Y-101564286D01*
X169480000Y-101516667D01*
X169432381Y-101421429D01*
X169432381Y-101230952D01*
X169480000Y-101135714D01*
X169527619Y-101088095D01*
X169622857Y-101040476D01*
X169860952Y-101040476D01*
X169956190Y-101088095D01*
X170003810Y-101135714D01*
X170051429Y-101230952D01*
X170051429Y-101421429D01*
X170003810Y-101516667D01*
X169956190Y-101564286D01*
X169860952Y-101611905D01*
X165407143Y-99767143D02*
X165454762Y-99719524D01*
X165502381Y-99576667D01*
X165502381Y-99481429D01*
X165454762Y-99338571D01*
X165359524Y-99243333D01*
X165264286Y-99195714D01*
X165073810Y-99148095D01*
X164930952Y-99148095D01*
X164740476Y-99195714D01*
X164645238Y-99243333D01*
X164550000Y-99338571D01*
X164502381Y-99481429D01*
X164502381Y-99576667D01*
X164550000Y-99719524D01*
X164597619Y-99767143D01*
X164502381Y-100100476D02*
X164502381Y-100719524D01*
X164883333Y-100386190D01*
X164883333Y-100529048D01*
X164930952Y-100624286D01*
X164978571Y-100671905D01*
X165073810Y-100719524D01*
X165311905Y-100719524D01*
X165407143Y-100671905D01*
X165454762Y-100624286D01*
X165502381Y-100529048D01*
X165502381Y-100243333D01*
X165454762Y-100148095D01*
X165407143Y-100100476D01*
X164502381Y-101052857D02*
X164502381Y-101671905D01*
X164883333Y-101338571D01*
X164883333Y-101481429D01*
X164930952Y-101576667D01*
X164978571Y-101624286D01*
X165073810Y-101671905D01*
X165311905Y-101671905D01*
X165407143Y-101624286D01*
X165454762Y-101576667D01*
X165502381Y-101481429D01*
X165502381Y-101195714D01*
X165454762Y-101100476D01*
X165407143Y-101052857D01*
X162812381Y-81107143D02*
X162336190Y-80773809D01*
X162812381Y-80535714D02*
X161812381Y-80535714D01*
X161812381Y-80916667D01*
X161860000Y-81011905D01*
X161907619Y-81059524D01*
X162002857Y-81107143D01*
X162145714Y-81107143D01*
X162240952Y-81059524D01*
X162288571Y-81011905D01*
X162336190Y-80916667D01*
X162336190Y-80535714D01*
X161812381Y-81440476D02*
X161812381Y-82059524D01*
X162193333Y-81726190D01*
X162193333Y-81869048D01*
X162240952Y-81964286D01*
X162288571Y-82011905D01*
X162383810Y-82059524D01*
X162621905Y-82059524D01*
X162717143Y-82011905D01*
X162764762Y-81964286D01*
X162812381Y-81869048D01*
X162812381Y-81583333D01*
X162764762Y-81488095D01*
X162717143Y-81440476D01*
X161812381Y-82392857D02*
X161812381Y-83059524D01*
X162812381Y-82630952D01*
X161062381Y-81607143D02*
X160586190Y-81273809D01*
X161062381Y-81035714D02*
X160062381Y-81035714D01*
X160062381Y-81416667D01*
X160110000Y-81511905D01*
X160157619Y-81559524D01*
X160252857Y-81607143D01*
X160395714Y-81607143D01*
X160490952Y-81559524D01*
X160538571Y-81511905D01*
X160586190Y-81416667D01*
X160586190Y-81035714D01*
X160062381Y-81940476D02*
X160062381Y-82559524D01*
X160443333Y-82226190D01*
X160443333Y-82369048D01*
X160490952Y-82464286D01*
X160538571Y-82511905D01*
X160633810Y-82559524D01*
X160871905Y-82559524D01*
X160967143Y-82511905D01*
X161014762Y-82464286D01*
X161062381Y-82369048D01*
X161062381Y-82083333D01*
X161014762Y-81988095D01*
X160967143Y-81940476D01*
X160490952Y-83130952D02*
X160443333Y-83035714D01*
X160395714Y-82988095D01*
X160300476Y-82940476D01*
X160252857Y-82940476D01*
X160157619Y-82988095D01*
X160110000Y-83035714D01*
X160062381Y-83130952D01*
X160062381Y-83321429D01*
X160110000Y-83416667D01*
X160157619Y-83464286D01*
X160252857Y-83511905D01*
X160300476Y-83511905D01*
X160395714Y-83464286D01*
X160443333Y-83416667D01*
X160490952Y-83321429D01*
X160490952Y-83130952D01*
X160538571Y-83035714D01*
X160586190Y-82988095D01*
X160681429Y-82940476D01*
X160871905Y-82940476D01*
X160967143Y-82988095D01*
X161014762Y-83035714D01*
X161062381Y-83130952D01*
X161062381Y-83321429D01*
X161014762Y-83416667D01*
X160967143Y-83464286D01*
X160871905Y-83511905D01*
X160681429Y-83511905D01*
X160586190Y-83464286D01*
X160538571Y-83416667D01*
X160490952Y-83321429D01*
X160252857Y-101202381D02*
X160586191Y-100726190D01*
X160824286Y-101202381D02*
X160824286Y-100202381D01*
X160443333Y-100202381D01*
X160348095Y-100250000D01*
X160300476Y-100297619D01*
X160252857Y-100392857D01*
X160252857Y-100535714D01*
X160300476Y-100630952D01*
X160348095Y-100678571D01*
X160443333Y-100726190D01*
X160824286Y-100726190D01*
X159919524Y-100202381D02*
X159300476Y-100202381D01*
X159633810Y-100583333D01*
X159490952Y-100583333D01*
X159395714Y-100630952D01*
X159348095Y-100678571D01*
X159300476Y-100773810D01*
X159300476Y-101011905D01*
X159348095Y-101107143D01*
X159395714Y-101154762D01*
X159490952Y-101202381D01*
X159776667Y-101202381D01*
X159871905Y-101154762D01*
X159919524Y-101107143D01*
X158824286Y-101202381D02*
X158633810Y-101202381D01*
X158538571Y-101154762D01*
X158490952Y-101107143D01*
X158395714Y-100964286D01*
X158348095Y-100773810D01*
X158348095Y-100392857D01*
X158395714Y-100297619D01*
X158443333Y-100250000D01*
X158538571Y-100202381D01*
X158729048Y-100202381D01*
X158824286Y-100250000D01*
X158871905Y-100297619D01*
X158919524Y-100392857D01*
X158919524Y-100630952D01*
X158871905Y-100726190D01*
X158824286Y-100773810D01*
X158729048Y-100821429D01*
X158538571Y-100821429D01*
X158443333Y-100773810D01*
X158395714Y-100726190D01*
X158348095Y-100630952D01*
X162778857Y-119587627D02*
X163112191Y-119111436D01*
X163350286Y-119587627D02*
X163350286Y-118587627D01*
X162969333Y-118587627D01*
X162874095Y-118635246D01*
X162826476Y-118682865D01*
X162778857Y-118778103D01*
X162778857Y-118920960D01*
X162826476Y-119016198D01*
X162874095Y-119063817D01*
X162969333Y-119111436D01*
X163350286Y-119111436D01*
X161921714Y-118920960D02*
X161921714Y-119587627D01*
X162159810Y-118540008D02*
X162397905Y-119254294D01*
X161778857Y-119254294D01*
X161493143Y-118587627D02*
X160874095Y-118587627D01*
X161207429Y-118968579D01*
X161064571Y-118968579D01*
X160969333Y-119016198D01*
X160921714Y-119063817D01*
X160874095Y-119159056D01*
X160874095Y-119397151D01*
X160921714Y-119492389D01*
X160969333Y-119540008D01*
X161064571Y-119587627D01*
X161350286Y-119587627D01*
X161445524Y-119540008D01*
X161493143Y-119492389D01*
X159442857Y-49335714D02*
X160414286Y-49335714D01*
X160528571Y-49392857D01*
X160585714Y-49450000D01*
X160642857Y-49564286D01*
X160642857Y-49792857D01*
X160585714Y-49907143D01*
X160528571Y-49964286D01*
X160414286Y-50021429D01*
X159442857Y-50021429D01*
X159557143Y-50535714D02*
X159500000Y-50592857D01*
X159442857Y-50707143D01*
X159442857Y-50992857D01*
X159500000Y-51107143D01*
X159557143Y-51164286D01*
X159671429Y-51221429D01*
X159785714Y-51221429D01*
X159957143Y-51164286D01*
X160642857Y-50478572D01*
X160642857Y-51221429D01*
X168332857Y-47405714D02*
X169304286Y-47405714D01*
X169418571Y-47462857D01*
X169475714Y-47520000D01*
X169532857Y-47634286D01*
X169532857Y-47862857D01*
X169475714Y-47977143D01*
X169418571Y-48034286D01*
X169304286Y-48091429D01*
X168332857Y-48091429D01*
X168332857Y-48548572D02*
X168332857Y-49291429D01*
X168790000Y-48891429D01*
X168790000Y-49062857D01*
X168847143Y-49177143D01*
X168904286Y-49234286D01*
X169018571Y-49291429D01*
X169304286Y-49291429D01*
X169418571Y-49234286D01*
X169475714Y-49177143D01*
X169532857Y-49062857D01*
X169532857Y-48720000D01*
X169475714Y-48605714D01*
X169418571Y-48548572D01*
X168082857Y-109264286D02*
X169054286Y-109264286D01*
X169168571Y-109321429D01*
X169225714Y-109378572D01*
X169282857Y-109492858D01*
X169282857Y-109721429D01*
X169225714Y-109835715D01*
X169168571Y-109892858D01*
X169054286Y-109950001D01*
X168082857Y-109950001D01*
X169282857Y-111150001D02*
X169282857Y-110464286D01*
X169282857Y-110807144D02*
X168082857Y-110807144D01*
X168254286Y-110692858D01*
X168368571Y-110578572D01*
X168425714Y-110464286D01*
X168082857Y-111550001D02*
X168082857Y-112292858D01*
X168540000Y-111892858D01*
X168540000Y-112064286D01*
X168597143Y-112178572D01*
X168654286Y-112235715D01*
X168768571Y-112292858D01*
X169054286Y-112292858D01*
X169168571Y-112235715D01*
X169225714Y-112178572D01*
X169282857Y-112064286D01*
X169282857Y-111721429D01*
X169225714Y-111607143D01*
X169168571Y-111550001D01*
X165915714Y-87812857D02*
X165915714Y-88784286D01*
X165858571Y-88898571D01*
X165801428Y-88955714D01*
X165687142Y-89012857D01*
X165458571Y-89012857D01*
X165344285Y-88955714D01*
X165287142Y-88898571D01*
X165229999Y-88784286D01*
X165229999Y-87812857D01*
X164029999Y-89012857D02*
X164715714Y-89012857D01*
X164372856Y-89012857D02*
X164372856Y-87812857D01*
X164487142Y-87984286D01*
X164601428Y-88098571D01*
X164715714Y-88155714D01*
X163001428Y-88212857D02*
X163001428Y-89012857D01*
X163287142Y-87755714D02*
X163572857Y-88612857D01*
X162829999Y-88612857D01*
X192467143Y-138607143D02*
X192514762Y-138559524D01*
X192562381Y-138416667D01*
X192562381Y-138321429D01*
X192514762Y-138178571D01*
X192419524Y-138083333D01*
X192324286Y-138035714D01*
X192133810Y-137988095D01*
X191990952Y-137988095D01*
X191800476Y-138035714D01*
X191705238Y-138083333D01*
X191610000Y-138178571D01*
X191562381Y-138321429D01*
X191562381Y-138416667D01*
X191610000Y-138559524D01*
X191657619Y-138607143D01*
X191562381Y-138940476D02*
X191562381Y-139559524D01*
X191943333Y-139226190D01*
X191943333Y-139369048D01*
X191990952Y-139464286D01*
X192038571Y-139511905D01*
X192133810Y-139559524D01*
X192371905Y-139559524D01*
X192467143Y-139511905D01*
X192514762Y-139464286D01*
X192562381Y-139369048D01*
X192562381Y-139083333D01*
X192514762Y-138988095D01*
X192467143Y-138940476D01*
X191990952Y-140130952D02*
X191943333Y-140035714D01*
X191895714Y-139988095D01*
X191800476Y-139940476D01*
X191752857Y-139940476D01*
X191657619Y-139988095D01*
X191610000Y-140035714D01*
X191562381Y-140130952D01*
X191562381Y-140321429D01*
X191610000Y-140416667D01*
X191657619Y-140464286D01*
X191752857Y-140511905D01*
X191800476Y-140511905D01*
X191895714Y-140464286D01*
X191943333Y-140416667D01*
X191990952Y-140321429D01*
X191990952Y-140130952D01*
X192038571Y-140035714D01*
X192086190Y-139988095D01*
X192181429Y-139940476D01*
X192371905Y-139940476D01*
X192467143Y-139988095D01*
X192514762Y-140035714D01*
X192562381Y-140130952D01*
X192562381Y-140321429D01*
X192514762Y-140416667D01*
X192467143Y-140464286D01*
X192371905Y-140511905D01*
X192181429Y-140511905D01*
X192086190Y-140464286D01*
X192038571Y-140416667D01*
X191990952Y-140321429D01*
X182967143Y-71357143D02*
X183014762Y-71309524D01*
X183062381Y-71166667D01*
X183062381Y-71071429D01*
X183014762Y-70928571D01*
X182919524Y-70833333D01*
X182824286Y-70785714D01*
X182633810Y-70738095D01*
X182490952Y-70738095D01*
X182300476Y-70785714D01*
X182205238Y-70833333D01*
X182110000Y-70928571D01*
X182062381Y-71071429D01*
X182062381Y-71166667D01*
X182110000Y-71309524D01*
X182157619Y-71357143D01*
X182395714Y-72214286D02*
X183062381Y-72214286D01*
X182014762Y-71976190D02*
X182729048Y-71738095D01*
X182729048Y-72357143D01*
X182062381Y-72642857D02*
X182062381Y-73261905D01*
X182443333Y-72928571D01*
X182443333Y-73071429D01*
X182490952Y-73166667D01*
X182538571Y-73214286D01*
X182633810Y-73261905D01*
X182871905Y-73261905D01*
X182967143Y-73214286D01*
X183014762Y-73166667D01*
X183062381Y-73071429D01*
X183062381Y-72785714D01*
X183014762Y-72690476D01*
X182967143Y-72642857D01*
X189252857Y-68857143D02*
X189300476Y-68904762D01*
X189443333Y-68952381D01*
X189538571Y-68952381D01*
X189681429Y-68904762D01*
X189776667Y-68809524D01*
X189824286Y-68714286D01*
X189871905Y-68523810D01*
X189871905Y-68380952D01*
X189824286Y-68190476D01*
X189776667Y-68095238D01*
X189681429Y-68000000D01*
X189538571Y-67952381D01*
X189443333Y-67952381D01*
X189300476Y-68000000D01*
X189252857Y-68047619D01*
X188395714Y-68285714D02*
X188395714Y-68952381D01*
X188633810Y-67904762D02*
X188871905Y-68619048D01*
X188252857Y-68619048D01*
X187443333Y-68285714D02*
X187443333Y-68952381D01*
X187681429Y-67904762D02*
X187919524Y-68619048D01*
X187300476Y-68619048D01*
X194312381Y-65206905D02*
X193312381Y-65206905D01*
X193312381Y-65445000D01*
X193360000Y-65587858D01*
X193455238Y-65683096D01*
X193550476Y-65730715D01*
X193740952Y-65778334D01*
X193883810Y-65778334D01*
X194074286Y-65730715D01*
X194169524Y-65683096D01*
X194264762Y-65587858D01*
X194312381Y-65445000D01*
X194312381Y-65206905D01*
X194312381Y-66730715D02*
X194312381Y-66159286D01*
X194312381Y-66445000D02*
X193312381Y-66445000D01*
X193455238Y-66349762D01*
X193550476Y-66254524D01*
X193598095Y-66159286D01*
X192752857Y-135552381D02*
X193086191Y-135076190D01*
X193324286Y-135552381D02*
X193324286Y-134552381D01*
X192943333Y-134552381D01*
X192848095Y-134600000D01*
X192800476Y-134647619D01*
X192752857Y-134742857D01*
X192752857Y-134885714D01*
X192800476Y-134980952D01*
X192848095Y-135028571D01*
X192943333Y-135076190D01*
X193324286Y-135076190D01*
X192371905Y-134647619D02*
X192324286Y-134600000D01*
X192229048Y-134552381D01*
X191990952Y-134552381D01*
X191895714Y-134600000D01*
X191848095Y-134647619D01*
X191800476Y-134742857D01*
X191800476Y-134838095D01*
X191848095Y-134980952D01*
X192419524Y-135552381D01*
X191800476Y-135552381D01*
X190895714Y-134552381D02*
X191371905Y-134552381D01*
X191419524Y-135028571D01*
X191371905Y-134980952D01*
X191276667Y-134933333D01*
X191038571Y-134933333D01*
X190943333Y-134980952D01*
X190895714Y-135028571D01*
X190848095Y-135123810D01*
X190848095Y-135361905D01*
X190895714Y-135457143D01*
X190943333Y-135504762D01*
X191038571Y-135552381D01*
X191276667Y-135552381D01*
X191371905Y-135504762D01*
X191419524Y-135457143D01*
X187062381Y-61607143D02*
X186586190Y-61273809D01*
X187062381Y-61035714D02*
X186062381Y-61035714D01*
X186062381Y-61416667D01*
X186110000Y-61511905D01*
X186157619Y-61559524D01*
X186252857Y-61607143D01*
X186395714Y-61607143D01*
X186490952Y-61559524D01*
X186538571Y-61511905D01*
X186586190Y-61416667D01*
X186586190Y-61035714D01*
X186395714Y-62464286D02*
X187062381Y-62464286D01*
X186014762Y-62226190D02*
X186729048Y-61988095D01*
X186729048Y-62607143D01*
X187062381Y-63035714D02*
X187062381Y-63226190D01*
X187014762Y-63321429D01*
X186967143Y-63369048D01*
X186824286Y-63464286D01*
X186633810Y-63511905D01*
X186252857Y-63511905D01*
X186157619Y-63464286D01*
X186110000Y-63416667D01*
X186062381Y-63321429D01*
X186062381Y-63130952D01*
X186110000Y-63035714D01*
X186157619Y-62988095D01*
X186252857Y-62940476D01*
X186490952Y-62940476D01*
X186586190Y-62988095D01*
X186633810Y-63035714D01*
X186681429Y-63130952D01*
X186681429Y-63321429D01*
X186633810Y-63416667D01*
X186586190Y-63464286D01*
X186490952Y-63511905D01*
X192312381Y-68357143D02*
X191836190Y-68023809D01*
X192312381Y-67785714D02*
X191312381Y-67785714D01*
X191312381Y-68166667D01*
X191360000Y-68261905D01*
X191407619Y-68309524D01*
X191502857Y-68357143D01*
X191645714Y-68357143D01*
X191740952Y-68309524D01*
X191788571Y-68261905D01*
X191836190Y-68166667D01*
X191836190Y-67785714D01*
X191312381Y-69261905D02*
X191312381Y-68785714D01*
X191788571Y-68738095D01*
X191740952Y-68785714D01*
X191693333Y-68880952D01*
X191693333Y-69119048D01*
X191740952Y-69214286D01*
X191788571Y-69261905D01*
X191883810Y-69309524D01*
X192121905Y-69309524D01*
X192217143Y-69261905D01*
X192264762Y-69214286D01*
X192312381Y-69119048D01*
X192312381Y-68880952D01*
X192264762Y-68785714D01*
X192217143Y-68738095D01*
X191312381Y-69928571D02*
X191312381Y-70023810D01*
X191360000Y-70119048D01*
X191407619Y-70166667D01*
X191502857Y-70214286D01*
X191693333Y-70261905D01*
X191931429Y-70261905D01*
X192121905Y-70214286D01*
X192217143Y-70166667D01*
X192264762Y-70119048D01*
X192312381Y-70023810D01*
X192312381Y-69928571D01*
X192264762Y-69833333D01*
X192217143Y-69785714D01*
X192121905Y-69738095D01*
X191931429Y-69690476D01*
X191693333Y-69690476D01*
X191502857Y-69738095D01*
X191407619Y-69785714D01*
X191360000Y-69833333D01*
X191312381Y-69928571D01*
X181702857Y-64014286D02*
X182674286Y-64014286D01*
X182788571Y-64071429D01*
X182845714Y-64128572D01*
X182902857Y-64242858D01*
X182902857Y-64471429D01*
X182845714Y-64585715D01*
X182788571Y-64642858D01*
X182674286Y-64700001D01*
X181702857Y-64700001D01*
X182902857Y-65900001D02*
X182902857Y-65214286D01*
X182902857Y-65557144D02*
X181702857Y-65557144D01*
X181874286Y-65442858D01*
X181988571Y-65328572D01*
X182045714Y-65214286D01*
X181702857Y-66928572D02*
X181702857Y-66700001D01*
X181760000Y-66585715D01*
X181817143Y-66528572D01*
X181988571Y-66414286D01*
X182217143Y-66357143D01*
X182674286Y-66357143D01*
X182788571Y-66414286D01*
X182845714Y-66471429D01*
X182902857Y-66585715D01*
X182902857Y-66814286D01*
X182845714Y-66928572D01*
X182788571Y-66985715D01*
X182674286Y-67042858D01*
X182388571Y-67042858D01*
X182274286Y-66985715D01*
X182217143Y-66928572D01*
X182160000Y-66814286D01*
X182160000Y-66585715D01*
X182217143Y-66471429D01*
X182274286Y-66414286D01*
X182388571Y-66357143D01*
X195002857Y-68357143D02*
X195050476Y-68404762D01*
X195193333Y-68452381D01*
X195288571Y-68452381D01*
X195431429Y-68404762D01*
X195526667Y-68309524D01*
X195574286Y-68214286D01*
X195621905Y-68023810D01*
X195621905Y-67880952D01*
X195574286Y-67690476D01*
X195526667Y-67595238D01*
X195431429Y-67500000D01*
X195288571Y-67452381D01*
X195193333Y-67452381D01*
X195050476Y-67500000D01*
X195002857Y-67547619D01*
X194145714Y-67785714D02*
X194145714Y-68452381D01*
X194383810Y-67404762D02*
X194621905Y-68119048D01*
X194002857Y-68119048D01*
X193145714Y-67452381D02*
X193621905Y-67452381D01*
X193669524Y-67928571D01*
X193621905Y-67880952D01*
X193526667Y-67833333D01*
X193288571Y-67833333D01*
X193193333Y-67880952D01*
X193145714Y-67928571D01*
X193098095Y-68023810D01*
X193098095Y-68261905D01*
X193145714Y-68357143D01*
X193193333Y-68404762D01*
X193288571Y-68452381D01*
X193526667Y-68452381D01*
X193621905Y-68404762D01*
X193669524Y-68357143D01*
X186752857Y-60607143D02*
X186800476Y-60654762D01*
X186943333Y-60702381D01*
X187038571Y-60702381D01*
X187181429Y-60654762D01*
X187276667Y-60559524D01*
X187324286Y-60464286D01*
X187371905Y-60273810D01*
X187371905Y-60130952D01*
X187324286Y-59940476D01*
X187276667Y-59845238D01*
X187181429Y-59750000D01*
X187038571Y-59702381D01*
X186943333Y-59702381D01*
X186800476Y-59750000D01*
X186752857Y-59797619D01*
X185895714Y-60035714D02*
X185895714Y-60702381D01*
X186133810Y-59654762D02*
X186371905Y-60369048D01*
X185752857Y-60369048D01*
X184943333Y-59702381D02*
X185133810Y-59702381D01*
X185229048Y-59750000D01*
X185276667Y-59797619D01*
X185371905Y-59940476D01*
X185419524Y-60130952D01*
X185419524Y-60511905D01*
X185371905Y-60607143D01*
X185324286Y-60654762D01*
X185229048Y-60702381D01*
X185038571Y-60702381D01*
X184943333Y-60654762D01*
X184895714Y-60607143D01*
X184848095Y-60511905D01*
X184848095Y-60273810D01*
X184895714Y-60178571D01*
X184943333Y-60130952D01*
X185038571Y-60083333D01*
X185229048Y-60083333D01*
X185324286Y-60130952D01*
X185371905Y-60178571D01*
X185419524Y-60273810D01*
X197062381Y-74011905D02*
X197871905Y-74011905D01*
X197967143Y-74059524D01*
X198014762Y-74107143D01*
X198062381Y-74202381D01*
X198062381Y-74392858D01*
X198014762Y-74488096D01*
X197967143Y-74535715D01*
X197871905Y-74583334D01*
X197062381Y-74583334D01*
X198062381Y-75583334D02*
X198062381Y-75011905D01*
X198062381Y-75297619D02*
X197062381Y-75297619D01*
X197205238Y-75202381D01*
X197300476Y-75107143D01*
X197348095Y-75011905D01*
X197062381Y-75916667D02*
X197062381Y-76583334D01*
X198062381Y-76154762D01*
X192062381Y-61261905D02*
X192871905Y-61261905D01*
X192967143Y-61309524D01*
X193014762Y-61357143D01*
X193062381Y-61452381D01*
X193062381Y-61642858D01*
X193014762Y-61738096D01*
X192967143Y-61785715D01*
X192871905Y-61833334D01*
X192062381Y-61833334D01*
X193062381Y-62833334D02*
X193062381Y-62261905D01*
X193062381Y-62547619D02*
X192062381Y-62547619D01*
X192205238Y-62452381D01*
X192300476Y-62357143D01*
X192348095Y-62261905D01*
X192490952Y-63404762D02*
X192443333Y-63309524D01*
X192395714Y-63261905D01*
X192300476Y-63214286D01*
X192252857Y-63214286D01*
X192157619Y-63261905D01*
X192110000Y-63309524D01*
X192062381Y-63404762D01*
X192062381Y-63595239D01*
X192110000Y-63690477D01*
X192157619Y-63738096D01*
X192252857Y-63785715D01*
X192300476Y-63785715D01*
X192395714Y-63738096D01*
X192443333Y-63690477D01*
X192490952Y-63595239D01*
X192490952Y-63404762D01*
X192538571Y-63309524D01*
X192586190Y-63261905D01*
X192681429Y-63214286D01*
X192871905Y-63214286D01*
X192967143Y-63261905D01*
X193014762Y-63309524D01*
X193062381Y-63404762D01*
X193062381Y-63595239D01*
X193014762Y-63690477D01*
X192967143Y-63738096D01*
X192871905Y-63785715D01*
X192681429Y-63785715D01*
X192586190Y-63738096D01*
X192538571Y-63690477D01*
X192490952Y-63595239D01*
X176502857Y-100607143D02*
X176550476Y-100654762D01*
X176693333Y-100702381D01*
X176788571Y-100702381D01*
X176931429Y-100654762D01*
X177026667Y-100559524D01*
X177074286Y-100464286D01*
X177121905Y-100273810D01*
X177121905Y-100130952D01*
X177074286Y-99940476D01*
X177026667Y-99845238D01*
X176931429Y-99750000D01*
X176788571Y-99702381D01*
X176693333Y-99702381D01*
X176550476Y-99750000D01*
X176502857Y-99797619D01*
X176121905Y-99797619D02*
X176074286Y-99750000D01*
X175979048Y-99702381D01*
X175740952Y-99702381D01*
X175645714Y-99750000D01*
X175598095Y-99797619D01*
X175550476Y-99892857D01*
X175550476Y-99988095D01*
X175598095Y-100130952D01*
X176169524Y-100702381D01*
X175550476Y-100702381D01*
X175169524Y-99797619D02*
X175121905Y-99750000D01*
X175026667Y-99702381D01*
X174788571Y-99702381D01*
X174693333Y-99750000D01*
X174645714Y-99797619D01*
X174598095Y-99892857D01*
X174598095Y-99988095D01*
X174645714Y-100130952D01*
X175217143Y-100702381D01*
X174598095Y-100702381D01*
X183967143Y-91857143D02*
X184014762Y-91809524D01*
X184062381Y-91666667D01*
X184062381Y-91571429D01*
X184014762Y-91428571D01*
X183919524Y-91333333D01*
X183824286Y-91285714D01*
X183633810Y-91238095D01*
X183490952Y-91238095D01*
X183300476Y-91285714D01*
X183205238Y-91333333D01*
X183110000Y-91428571D01*
X183062381Y-91571429D01*
X183062381Y-91666667D01*
X183110000Y-91809524D01*
X183157619Y-91857143D01*
X183157619Y-92238095D02*
X183110000Y-92285714D01*
X183062381Y-92380952D01*
X183062381Y-92619048D01*
X183110000Y-92714286D01*
X183157619Y-92761905D01*
X183252857Y-92809524D01*
X183348095Y-92809524D01*
X183490952Y-92761905D01*
X184062381Y-92190476D01*
X184062381Y-92809524D01*
X183062381Y-93142857D02*
X183062381Y-93761905D01*
X183443333Y-93428571D01*
X183443333Y-93571429D01*
X183490952Y-93666667D01*
X183538571Y-93714286D01*
X183633810Y-93761905D01*
X183871905Y-93761905D01*
X183967143Y-93714286D01*
X184014762Y-93666667D01*
X184062381Y-93571429D01*
X184062381Y-93285714D01*
X184014762Y-93190476D01*
X183967143Y-93142857D01*
X181252857Y-92607143D02*
X181300476Y-92654762D01*
X181443333Y-92702381D01*
X181538571Y-92702381D01*
X181681429Y-92654762D01*
X181776667Y-92559524D01*
X181824286Y-92464286D01*
X181871905Y-92273810D01*
X181871905Y-92130952D01*
X181824286Y-91940476D01*
X181776667Y-91845238D01*
X181681429Y-91750000D01*
X181538571Y-91702381D01*
X181443333Y-91702381D01*
X181300476Y-91750000D01*
X181252857Y-91797619D01*
X180871905Y-91797619D02*
X180824286Y-91750000D01*
X180729048Y-91702381D01*
X180490952Y-91702381D01*
X180395714Y-91750000D01*
X180348095Y-91797619D01*
X180300476Y-91892857D01*
X180300476Y-91988095D01*
X180348095Y-92130952D01*
X180919524Y-92702381D01*
X180300476Y-92702381D01*
X179443333Y-92035714D02*
X179443333Y-92702381D01*
X179681429Y-91654762D02*
X179919524Y-92369048D01*
X179300476Y-92369048D01*
X200967143Y-96857143D02*
X201014762Y-96809524D01*
X201062381Y-96666667D01*
X201062381Y-96571429D01*
X201014762Y-96428571D01*
X200919524Y-96333333D01*
X200824286Y-96285714D01*
X200633810Y-96238095D01*
X200490952Y-96238095D01*
X200300476Y-96285714D01*
X200205238Y-96333333D01*
X200110000Y-96428571D01*
X200062381Y-96571429D01*
X200062381Y-96666667D01*
X200110000Y-96809524D01*
X200157619Y-96857143D01*
X200157619Y-97238095D02*
X200110000Y-97285714D01*
X200062381Y-97380952D01*
X200062381Y-97619048D01*
X200110000Y-97714286D01*
X200157619Y-97761905D01*
X200252857Y-97809524D01*
X200348095Y-97809524D01*
X200490952Y-97761905D01*
X201062381Y-97190476D01*
X201062381Y-97809524D01*
X200062381Y-98714286D02*
X200062381Y-98238095D01*
X200538571Y-98190476D01*
X200490952Y-98238095D01*
X200443333Y-98333333D01*
X200443333Y-98571429D01*
X200490952Y-98666667D01*
X200538571Y-98714286D01*
X200633810Y-98761905D01*
X200871905Y-98761905D01*
X200967143Y-98714286D01*
X201014762Y-98666667D01*
X201062381Y-98571429D01*
X201062381Y-98333333D01*
X201014762Y-98238095D01*
X200967143Y-98190476D01*
X200967143Y-93607143D02*
X201014762Y-93559524D01*
X201062381Y-93416667D01*
X201062381Y-93321429D01*
X201014762Y-93178571D01*
X200919524Y-93083333D01*
X200824286Y-93035714D01*
X200633810Y-92988095D01*
X200490952Y-92988095D01*
X200300476Y-93035714D01*
X200205238Y-93083333D01*
X200110000Y-93178571D01*
X200062381Y-93321429D01*
X200062381Y-93416667D01*
X200110000Y-93559524D01*
X200157619Y-93607143D01*
X200157619Y-93988095D02*
X200110000Y-94035714D01*
X200062381Y-94130952D01*
X200062381Y-94369048D01*
X200110000Y-94464286D01*
X200157619Y-94511905D01*
X200252857Y-94559524D01*
X200348095Y-94559524D01*
X200490952Y-94511905D01*
X201062381Y-93940476D01*
X201062381Y-94559524D01*
X200062381Y-95416667D02*
X200062381Y-95226190D01*
X200110000Y-95130952D01*
X200157619Y-95083333D01*
X200300476Y-94988095D01*
X200490952Y-94940476D01*
X200871905Y-94940476D01*
X200967143Y-94988095D01*
X201014762Y-95035714D01*
X201062381Y-95130952D01*
X201062381Y-95321429D01*
X201014762Y-95416667D01*
X200967143Y-95464286D01*
X200871905Y-95511905D01*
X200633810Y-95511905D01*
X200538571Y-95464286D01*
X200490952Y-95416667D01*
X200443333Y-95321429D01*
X200443333Y-95130952D01*
X200490952Y-95035714D01*
X200538571Y-94988095D01*
X200633810Y-94940476D01*
X180252857Y-102607143D02*
X180300476Y-102654762D01*
X180443333Y-102702381D01*
X180538571Y-102702381D01*
X180681429Y-102654762D01*
X180776667Y-102559524D01*
X180824286Y-102464286D01*
X180871905Y-102273810D01*
X180871905Y-102130952D01*
X180824286Y-101940476D01*
X180776667Y-101845238D01*
X180681429Y-101750000D01*
X180538571Y-101702381D01*
X180443333Y-101702381D01*
X180300476Y-101750000D01*
X180252857Y-101797619D01*
X179395714Y-102035714D02*
X179395714Y-102702381D01*
X179633810Y-101654762D02*
X179871905Y-102369048D01*
X179252857Y-102369048D01*
X178967143Y-101702381D02*
X178300476Y-101702381D01*
X178729048Y-102702381D01*
X187252857Y-90607143D02*
X187300476Y-90654762D01*
X187443333Y-90702381D01*
X187538571Y-90702381D01*
X187681429Y-90654762D01*
X187776667Y-90559524D01*
X187824286Y-90464286D01*
X187871905Y-90273810D01*
X187871905Y-90130952D01*
X187824286Y-89940476D01*
X187776667Y-89845238D01*
X187681429Y-89750000D01*
X187538571Y-89702381D01*
X187443333Y-89702381D01*
X187300476Y-89750000D01*
X187252857Y-89797619D01*
X186395714Y-90035714D02*
X186395714Y-90702381D01*
X186633810Y-89654762D02*
X186871905Y-90369048D01*
X186252857Y-90369048D01*
X185729048Y-90130952D02*
X185824286Y-90083333D01*
X185871905Y-90035714D01*
X185919524Y-89940476D01*
X185919524Y-89892857D01*
X185871905Y-89797619D01*
X185824286Y-89750000D01*
X185729048Y-89702381D01*
X185538571Y-89702381D01*
X185443333Y-89750000D01*
X185395714Y-89797619D01*
X185348095Y-89892857D01*
X185348095Y-89940476D01*
X185395714Y-90035714D01*
X185443333Y-90083333D01*
X185538571Y-90130952D01*
X185729048Y-90130952D01*
X185824286Y-90178571D01*
X185871905Y-90226190D01*
X185919524Y-90321429D01*
X185919524Y-90511905D01*
X185871905Y-90607143D01*
X185824286Y-90654762D01*
X185729048Y-90702381D01*
X185538571Y-90702381D01*
X185443333Y-90654762D01*
X185395714Y-90607143D01*
X185348095Y-90511905D01*
X185348095Y-90321429D01*
X185395714Y-90226190D01*
X185443333Y-90178571D01*
X185538571Y-90130952D01*
X182717143Y-87107143D02*
X182764762Y-87059524D01*
X182812381Y-86916667D01*
X182812381Y-86821429D01*
X182764762Y-86678571D01*
X182669524Y-86583333D01*
X182574286Y-86535714D01*
X182383810Y-86488095D01*
X182240952Y-86488095D01*
X182050476Y-86535714D01*
X181955238Y-86583333D01*
X181860000Y-86678571D01*
X181812381Y-86821429D01*
X181812381Y-86916667D01*
X181860000Y-87059524D01*
X181907619Y-87107143D01*
X182145714Y-87964286D02*
X182812381Y-87964286D01*
X181764762Y-87726190D02*
X182479048Y-87488095D01*
X182479048Y-88107143D01*
X182812381Y-88535714D02*
X182812381Y-88726190D01*
X182764762Y-88821429D01*
X182717143Y-88869048D01*
X182574286Y-88964286D01*
X182383810Y-89011905D01*
X182002857Y-89011905D01*
X181907619Y-88964286D01*
X181860000Y-88916667D01*
X181812381Y-88821429D01*
X181812381Y-88630952D01*
X181860000Y-88535714D01*
X181907619Y-88488095D01*
X182002857Y-88440476D01*
X182240952Y-88440476D01*
X182336190Y-88488095D01*
X182383810Y-88535714D01*
X182431429Y-88630952D01*
X182431429Y-88821429D01*
X182383810Y-88916667D01*
X182336190Y-88964286D01*
X182240952Y-89011905D01*
X198776666Y-80452381D02*
X199252857Y-80452381D01*
X199252857Y-79452381D01*
X198490952Y-79547619D02*
X198443333Y-79500000D01*
X198348095Y-79452381D01*
X198109999Y-79452381D01*
X198014761Y-79500000D01*
X197967142Y-79547619D01*
X197919523Y-79642857D01*
X197919523Y-79738095D01*
X197967142Y-79880952D01*
X198538571Y-80452381D01*
X197919523Y-80452381D01*
X201062381Y-99607143D02*
X200586190Y-99273809D01*
X201062381Y-99035714D02*
X200062381Y-99035714D01*
X200062381Y-99416667D01*
X200110000Y-99511905D01*
X200157619Y-99559524D01*
X200252857Y-99607143D01*
X200395714Y-99607143D01*
X200490952Y-99559524D01*
X200538571Y-99511905D01*
X200586190Y-99416667D01*
X200586190Y-99035714D01*
X200062381Y-100511905D02*
X200062381Y-100035714D01*
X200538571Y-99988095D01*
X200490952Y-100035714D01*
X200443333Y-100130952D01*
X200443333Y-100369048D01*
X200490952Y-100464286D01*
X200538571Y-100511905D01*
X200633810Y-100559524D01*
X200871905Y-100559524D01*
X200967143Y-100511905D01*
X201014762Y-100464286D01*
X201062381Y-100369048D01*
X201062381Y-100130952D01*
X201014762Y-100035714D01*
X200967143Y-99988095D01*
X200062381Y-101416667D02*
X200062381Y-101226190D01*
X200110000Y-101130952D01*
X200157619Y-101083333D01*
X200300476Y-100988095D01*
X200490952Y-100940476D01*
X200871905Y-100940476D01*
X200967143Y-100988095D01*
X201014762Y-101035714D01*
X201062381Y-101130952D01*
X201062381Y-101321429D01*
X201014762Y-101416667D01*
X200967143Y-101464286D01*
X200871905Y-101511905D01*
X200633810Y-101511905D01*
X200538571Y-101464286D01*
X200490952Y-101416667D01*
X200443333Y-101321429D01*
X200443333Y-101130952D01*
X200490952Y-101035714D01*
X200538571Y-100988095D01*
X200633810Y-100940476D01*
X180502857Y-100452381D02*
X180836191Y-99976190D01*
X181074286Y-100452381D02*
X181074286Y-99452381D01*
X180693333Y-99452381D01*
X180598095Y-99500000D01*
X180550476Y-99547619D01*
X180502857Y-99642857D01*
X180502857Y-99785714D01*
X180550476Y-99880952D01*
X180598095Y-99928571D01*
X180693333Y-99976190D01*
X181074286Y-99976190D01*
X179598095Y-99452381D02*
X180074286Y-99452381D01*
X180121905Y-99928571D01*
X180074286Y-99880952D01*
X179979048Y-99833333D01*
X179740952Y-99833333D01*
X179645714Y-99880952D01*
X179598095Y-99928571D01*
X179550476Y-100023810D01*
X179550476Y-100261905D01*
X179598095Y-100357143D01*
X179645714Y-100404762D01*
X179740952Y-100452381D01*
X179979048Y-100452381D01*
X180074286Y-100404762D01*
X180121905Y-100357143D01*
X179217143Y-99452381D02*
X178550476Y-99452381D01*
X178979048Y-100452381D01*
X186952857Y-104552381D02*
X187286191Y-104076190D01*
X187524286Y-104552381D02*
X187524286Y-103552381D01*
X187143333Y-103552381D01*
X187048095Y-103600000D01*
X187000476Y-103647619D01*
X186952857Y-103742857D01*
X186952857Y-103885714D01*
X187000476Y-103980952D01*
X187048095Y-104028571D01*
X187143333Y-104076190D01*
X187524286Y-104076190D01*
X186048095Y-103552381D02*
X186524286Y-103552381D01*
X186571905Y-104028571D01*
X186524286Y-103980952D01*
X186429048Y-103933333D01*
X186190952Y-103933333D01*
X186095714Y-103980952D01*
X186048095Y-104028571D01*
X186000476Y-104123810D01*
X186000476Y-104361905D01*
X186048095Y-104457143D01*
X186095714Y-104504762D01*
X186190952Y-104552381D01*
X186429048Y-104552381D01*
X186524286Y-104504762D01*
X186571905Y-104457143D01*
X185429048Y-103980952D02*
X185524286Y-103933333D01*
X185571905Y-103885714D01*
X185619524Y-103790476D01*
X185619524Y-103742857D01*
X185571905Y-103647619D01*
X185524286Y-103600000D01*
X185429048Y-103552381D01*
X185238571Y-103552381D01*
X185143333Y-103600000D01*
X185095714Y-103647619D01*
X185048095Y-103742857D01*
X185048095Y-103790476D01*
X185095714Y-103885714D01*
X185143333Y-103933333D01*
X185238571Y-103980952D01*
X185429048Y-103980952D01*
X185524286Y-104028571D01*
X185571905Y-104076190D01*
X185619524Y-104171429D01*
X185619524Y-104361905D01*
X185571905Y-104457143D01*
X185524286Y-104504762D01*
X185429048Y-104552381D01*
X185238571Y-104552381D01*
X185143333Y-104504762D01*
X185095714Y-104457143D01*
X185048095Y-104361905D01*
X185048095Y-104171429D01*
X185095714Y-104076190D01*
X185143333Y-104028571D01*
X185238571Y-103980952D01*
X188795714Y-92892857D02*
X188795714Y-93864286D01*
X188738571Y-93978571D01*
X188681428Y-94035714D01*
X188567142Y-94092857D01*
X188338571Y-94092857D01*
X188224285Y-94035714D01*
X188167142Y-93978571D01*
X188109999Y-93864286D01*
X188109999Y-92892857D01*
X186909999Y-94092857D02*
X187595714Y-94092857D01*
X187252856Y-94092857D02*
X187252856Y-92892857D01*
X187367142Y-93064286D01*
X187481428Y-93178571D01*
X187595714Y-93235714D01*
X185767142Y-94092857D02*
X186452857Y-94092857D01*
X186109999Y-94092857D02*
X186109999Y-92892857D01*
X186224285Y-93064286D01*
X186338571Y-93178571D01*
X186452857Y-93235714D01*
M02*
