G04 #@! TF.FileFunction,Legend,Top*
%FSLAX46Y46*%
G04 Gerber Fmt 4.6, Leading zero omitted, Abs format (unit mm)*
G04 Created by KiCad (PCBNEW 4.0.3-stable) date 09/30/16 03:10:32*
%MOMM*%
%LPD*%
G01*
G04 APERTURE LIST*
%ADD10C,0.100000*%
%ADD11C,0.250000*%
%ADD12C,0.300000*%
%ADD13C,0.150000*%
G04 APERTURE END LIST*
D10*
D11*
X171038571Y-112678571D02*
X171038571Y-113440476D01*
X170657619Y-113059524D02*
X171419524Y-113059524D01*
X171181429Y-114250000D02*
X171133810Y-114392857D01*
X171086190Y-114440476D01*
X170990952Y-114488095D01*
X170848095Y-114488095D01*
X170752857Y-114440476D01*
X170705238Y-114392857D01*
X170657619Y-114297619D01*
X170657619Y-113916666D01*
X171657619Y-113916666D01*
X171657619Y-114250000D01*
X171610000Y-114345238D01*
X171562381Y-114392857D01*
X171467143Y-114440476D01*
X171371905Y-114440476D01*
X171276667Y-114392857D01*
X171229048Y-114345238D01*
X171181429Y-114250000D01*
X171181429Y-113916666D01*
X170943333Y-114869047D02*
X170943333Y-115345238D01*
X170657619Y-114773809D02*
X171657619Y-115107142D01*
X170657619Y-115440476D01*
X171657619Y-115630952D02*
X171657619Y-116202381D01*
X170657619Y-115916666D02*
X171657619Y-115916666D01*
X171657619Y-116392857D02*
X171657619Y-116964286D01*
X170657619Y-116678571D02*
X171657619Y-116678571D01*
X177038571Y-152464286D02*
X177038571Y-153226191D01*
X176657619Y-152845239D02*
X177419524Y-152845239D01*
X177657619Y-154178572D02*
X177657619Y-153702381D01*
X177181429Y-153654762D01*
X177229048Y-153702381D01*
X177276667Y-153797619D01*
X177276667Y-154035715D01*
X177229048Y-154130953D01*
X177181429Y-154178572D01*
X177086190Y-154226191D01*
X176848095Y-154226191D01*
X176752857Y-154178572D01*
X176705238Y-154130953D01*
X176657619Y-154035715D01*
X176657619Y-153797619D01*
X176705238Y-153702381D01*
X176752857Y-153654762D01*
X177657619Y-154511905D02*
X176657619Y-154845238D01*
X177657619Y-155178572D01*
X199360000Y-104238096D02*
X199407619Y-104142858D01*
X199407619Y-104000001D01*
X199360000Y-103857143D01*
X199264762Y-103761905D01*
X199169524Y-103714286D01*
X198979048Y-103666667D01*
X198836190Y-103666667D01*
X198645714Y-103714286D01*
X198550476Y-103761905D01*
X198455238Y-103857143D01*
X198407619Y-104000001D01*
X198407619Y-104095239D01*
X198455238Y-104238096D01*
X198502857Y-104285715D01*
X198836190Y-104285715D01*
X198836190Y-104095239D01*
X198407619Y-104714286D02*
X199407619Y-104714286D01*
X198407619Y-105285715D01*
X199407619Y-105285715D01*
X198407619Y-105761905D02*
X199407619Y-105761905D01*
X199407619Y-106000000D01*
X199360000Y-106142858D01*
X199264762Y-106238096D01*
X199169524Y-106285715D01*
X198979048Y-106333334D01*
X198836190Y-106333334D01*
X198645714Y-106285715D01*
X198550476Y-106238096D01*
X198455238Y-106142858D01*
X198407619Y-106000000D01*
X198407619Y-105761905D01*
X198407619Y-81047619D02*
X198740953Y-81523810D01*
X198979048Y-81047619D02*
X198979048Y-82047619D01*
X198598095Y-82047619D01*
X198502857Y-82000000D01*
X198455238Y-81952381D01*
X198407619Y-81857143D01*
X198407619Y-81714286D01*
X198455238Y-81619048D01*
X198502857Y-81571429D01*
X198598095Y-81523810D01*
X198979048Y-81523810D01*
X198217143Y-80952381D02*
X197455238Y-80952381D01*
X196645714Y-81142857D02*
X196693333Y-81095238D01*
X196836190Y-81047619D01*
X196931428Y-81047619D01*
X197074286Y-81095238D01*
X197169524Y-81190476D01*
X197217143Y-81285714D01*
X197264762Y-81476190D01*
X197264762Y-81619048D01*
X197217143Y-81809524D01*
X197169524Y-81904762D01*
X197074286Y-82000000D01*
X196931428Y-82047619D01*
X196836190Y-82047619D01*
X196693333Y-82000000D01*
X196645714Y-81952381D01*
X196264762Y-81095238D02*
X196121905Y-81047619D01*
X195883809Y-81047619D01*
X195788571Y-81095238D01*
X195740952Y-81142857D01*
X195693333Y-81238095D01*
X195693333Y-81333333D01*
X195740952Y-81428571D01*
X195788571Y-81476190D01*
X195883809Y-81523810D01*
X196074286Y-81571429D01*
X196169524Y-81619048D01*
X196217143Y-81666667D01*
X196264762Y-81761905D01*
X196264762Y-81857143D01*
X196217143Y-81952381D01*
X196169524Y-82000000D01*
X196074286Y-82047619D01*
X195836190Y-82047619D01*
X195693333Y-82000000D01*
D12*
X162288572Y-148607143D02*
X163431429Y-148607143D01*
X162860000Y-149178571D02*
X162860000Y-148035714D01*
X164860001Y-147678571D02*
X164145715Y-147678571D01*
X164074286Y-148392857D01*
X164145715Y-148321429D01*
X164288572Y-148250000D01*
X164645715Y-148250000D01*
X164788572Y-148321429D01*
X164860001Y-148392857D01*
X164931429Y-148535714D01*
X164931429Y-148892857D01*
X164860001Y-149035714D01*
X164788572Y-149107143D01*
X164645715Y-149178571D01*
X164288572Y-149178571D01*
X164145715Y-149107143D01*
X164074286Y-149035714D01*
X165360000Y-147678571D02*
X165860000Y-149178571D01*
X166360000Y-147678571D01*
X168002857Y-149178571D02*
X168002857Y-147678571D01*
X168574285Y-147678571D01*
X168717143Y-147750000D01*
X168788571Y-147821429D01*
X168860000Y-147964286D01*
X168860000Y-148178571D01*
X168788571Y-148321429D01*
X168717143Y-148392857D01*
X168574285Y-148464286D01*
X168002857Y-148464286D01*
X169717143Y-149178571D02*
X169574285Y-149107143D01*
X169502857Y-149035714D01*
X169431428Y-148892857D01*
X169431428Y-148464286D01*
X169502857Y-148321429D01*
X169574285Y-148250000D01*
X169717143Y-148178571D01*
X169931428Y-148178571D01*
X170074285Y-148250000D01*
X170145714Y-148321429D01*
X170217143Y-148464286D01*
X170217143Y-148892857D01*
X170145714Y-149035714D01*
X170074285Y-149107143D01*
X169931428Y-149178571D01*
X169717143Y-149178571D01*
X170717143Y-148178571D02*
X171002857Y-149178571D01*
X171288571Y-148464286D01*
X171574286Y-149178571D01*
X171860000Y-148178571D01*
X173002857Y-149107143D02*
X172860000Y-149178571D01*
X172574286Y-149178571D01*
X172431429Y-149107143D01*
X172360000Y-148964286D01*
X172360000Y-148392857D01*
X172431429Y-148250000D01*
X172574286Y-148178571D01*
X172860000Y-148178571D01*
X173002857Y-148250000D01*
X173074286Y-148392857D01*
X173074286Y-148535714D01*
X172360000Y-148678571D01*
X173717143Y-149178571D02*
X173717143Y-148178571D01*
X173717143Y-148464286D02*
X173788571Y-148321429D01*
X173860000Y-148250000D01*
X174002857Y-148178571D01*
X174145714Y-148178571D01*
X174538571Y-137714285D02*
X173038571Y-137714285D01*
X173038571Y-137142857D01*
X173110000Y-136999999D01*
X173181429Y-136928571D01*
X173324286Y-136857142D01*
X173538571Y-136857142D01*
X173681429Y-136928571D01*
X173752857Y-136999999D01*
X173824286Y-137142857D01*
X173824286Y-137714285D01*
X174538571Y-135999999D02*
X174467143Y-136142857D01*
X174395714Y-136214285D01*
X174252857Y-136285714D01*
X173824286Y-136285714D01*
X173681429Y-136214285D01*
X173610000Y-136142857D01*
X173538571Y-135999999D01*
X173538571Y-135785714D01*
X173610000Y-135642857D01*
X173681429Y-135571428D01*
X173824286Y-135499999D01*
X174252857Y-135499999D01*
X174395714Y-135571428D01*
X174467143Y-135642857D01*
X174538571Y-135785714D01*
X174538571Y-135999999D01*
X174538571Y-134642856D02*
X174467143Y-134785714D01*
X174324286Y-134857142D01*
X173038571Y-134857142D01*
X174538571Y-133428571D02*
X173752857Y-133428571D01*
X173610000Y-133500000D01*
X173538571Y-133642857D01*
X173538571Y-133928571D01*
X173610000Y-134071428D01*
X174467143Y-133428571D02*
X174538571Y-133571428D01*
X174538571Y-133928571D01*
X174467143Y-134071428D01*
X174324286Y-134142857D01*
X174181429Y-134142857D01*
X174038571Y-134071428D01*
X173967143Y-133928571D01*
X173967143Y-133571428D01*
X173895714Y-133428571D01*
X174538571Y-132714285D02*
X173538571Y-132714285D01*
X173824286Y-132714285D02*
X173681429Y-132642857D01*
X173610000Y-132571428D01*
X173538571Y-132428571D01*
X173538571Y-132285714D01*
X174538571Y-131785714D02*
X173538571Y-131785714D01*
X173038571Y-131785714D02*
X173110000Y-131857143D01*
X173181429Y-131785714D01*
X173110000Y-131714286D01*
X173038571Y-131785714D01*
X173181429Y-131785714D01*
X173538571Y-131285714D02*
X173538571Y-130714285D01*
X173038571Y-131071428D02*
X174324286Y-131071428D01*
X174467143Y-131000000D01*
X174538571Y-130857142D01*
X174538571Y-130714285D01*
X173538571Y-130357142D02*
X174538571Y-129999999D01*
X173538571Y-129642857D02*
X174538571Y-129999999D01*
X174895714Y-130142857D01*
X174967143Y-130214285D01*
X175038571Y-130357142D01*
X171038571Y-135285714D02*
X172538571Y-134785714D01*
X171038571Y-134285714D01*
X171752857Y-133285714D02*
X171824286Y-133071428D01*
X171895714Y-133000000D01*
X172038571Y-132928571D01*
X172252857Y-132928571D01*
X172395714Y-133000000D01*
X172467143Y-133071428D01*
X172538571Y-133214286D01*
X172538571Y-133785714D01*
X171038571Y-133785714D01*
X171038571Y-133285714D01*
X171110000Y-133142857D01*
X171181429Y-133071428D01*
X171324286Y-133000000D01*
X171467143Y-133000000D01*
X171610000Y-133071428D01*
X171681429Y-133142857D01*
X171752857Y-133285714D01*
X171752857Y-133785714D01*
X172110000Y-132357143D02*
X172110000Y-131642857D01*
X172538571Y-132500000D02*
X171038571Y-132000000D01*
X172538571Y-131500000D01*
X171038571Y-131214286D02*
X171038571Y-130357143D01*
X172538571Y-130785714D02*
X171038571Y-130785714D01*
X171038571Y-130071429D02*
X171038571Y-129214286D01*
X172538571Y-129642857D02*
X171038571Y-129642857D01*
X195288571Y-100821428D02*
X194574286Y-101321428D01*
X195288571Y-101678571D02*
X193788571Y-101678571D01*
X193788571Y-101107143D01*
X193860000Y-100964285D01*
X193931429Y-100892857D01*
X194074286Y-100821428D01*
X194288571Y-100821428D01*
X194431429Y-100892857D01*
X194502857Y-100964285D01*
X194574286Y-101107143D01*
X194574286Y-101678571D01*
X193788571Y-100392857D02*
X193788571Y-99535714D01*
X195288571Y-99964285D02*
X193788571Y-99964285D01*
X195145714Y-98178571D02*
X195217143Y-98250000D01*
X195288571Y-98464286D01*
X195288571Y-98607143D01*
X195217143Y-98821428D01*
X195074286Y-98964286D01*
X194931429Y-99035714D01*
X194645714Y-99107143D01*
X194431429Y-99107143D01*
X194145714Y-99035714D01*
X194002857Y-98964286D01*
X193860000Y-98821428D01*
X193788571Y-98607143D01*
X193788571Y-98464286D01*
X193860000Y-98250000D01*
X193931429Y-98178571D01*
X195288571Y-96392857D02*
X193788571Y-96392857D01*
X195288571Y-94821428D02*
X194574286Y-95321428D01*
X195288571Y-95678571D02*
X193788571Y-95678571D01*
X193788571Y-95107143D01*
X193860000Y-94964285D01*
X193931429Y-94892857D01*
X194074286Y-94821428D01*
X194288571Y-94821428D01*
X194431429Y-94892857D01*
X194502857Y-94964285D01*
X194574286Y-95107143D01*
X194574286Y-95678571D01*
X195431429Y-93178571D02*
X195360000Y-93321428D01*
X195217143Y-93464285D01*
X195002857Y-93678571D01*
X194931429Y-93821428D01*
X194931429Y-93964285D01*
X195288571Y-93892857D02*
X195217143Y-94035714D01*
X195074286Y-94178571D01*
X194788571Y-94250000D01*
X194288571Y-94250000D01*
X194002857Y-94178571D01*
X193860000Y-94035714D01*
X193788571Y-93892857D01*
X193788571Y-93607143D01*
X193860000Y-93464285D01*
X194002857Y-93321428D01*
X194288571Y-93250000D01*
X194788571Y-93250000D01*
X195074286Y-93321428D01*
X195217143Y-93464285D01*
X195288571Y-93607143D01*
X195288571Y-93892857D01*
X192717143Y-103392856D02*
X192717143Y-102249999D01*
X193288571Y-102821428D02*
X192145714Y-102821428D01*
X191788571Y-101678570D02*
X191788571Y-100749999D01*
X192360000Y-101249999D01*
X192360000Y-101035713D01*
X192431429Y-100892856D01*
X192502857Y-100821427D01*
X192645714Y-100749999D01*
X193002857Y-100749999D01*
X193145714Y-100821427D01*
X193217143Y-100892856D01*
X193288571Y-101035713D01*
X193288571Y-101464285D01*
X193217143Y-101607142D01*
X193145714Y-101678570D01*
X193145714Y-100107142D02*
X193217143Y-100035714D01*
X193288571Y-100107142D01*
X193217143Y-100178571D01*
X193145714Y-100107142D01*
X193288571Y-100107142D01*
X191788571Y-99535713D02*
X191788571Y-98607142D01*
X192360000Y-99107142D01*
X192360000Y-98892856D01*
X192431429Y-98749999D01*
X192502857Y-98678570D01*
X192645714Y-98607142D01*
X193002857Y-98607142D01*
X193145714Y-98678570D01*
X193217143Y-98749999D01*
X193288571Y-98892856D01*
X193288571Y-99321428D01*
X193217143Y-99464285D01*
X193145714Y-99535713D01*
X191788571Y-98178571D02*
X193288571Y-97678571D01*
X191788571Y-97178571D01*
X193288571Y-95535714D02*
X191788571Y-95535714D01*
X191788571Y-94964286D01*
X191860000Y-94821428D01*
X191931429Y-94750000D01*
X192074286Y-94678571D01*
X192288571Y-94678571D01*
X192431429Y-94750000D01*
X192502857Y-94821428D01*
X192574286Y-94964286D01*
X192574286Y-95535714D01*
X193288571Y-93821428D02*
X193217143Y-93964286D01*
X193145714Y-94035714D01*
X193002857Y-94107143D01*
X192574286Y-94107143D01*
X192431429Y-94035714D01*
X192360000Y-93964286D01*
X192288571Y-93821428D01*
X192288571Y-93607143D01*
X192360000Y-93464286D01*
X192431429Y-93392857D01*
X192574286Y-93321428D01*
X193002857Y-93321428D01*
X193145714Y-93392857D01*
X193217143Y-93464286D01*
X193288571Y-93607143D01*
X193288571Y-93821428D01*
X192288571Y-92821428D02*
X193288571Y-92535714D01*
X192574286Y-92250000D01*
X193288571Y-91964285D01*
X192288571Y-91678571D01*
X193217143Y-90535714D02*
X193288571Y-90678571D01*
X193288571Y-90964285D01*
X193217143Y-91107142D01*
X193074286Y-91178571D01*
X192502857Y-91178571D01*
X192360000Y-91107142D01*
X192288571Y-90964285D01*
X192288571Y-90678571D01*
X192360000Y-90535714D01*
X192502857Y-90464285D01*
X192645714Y-90464285D01*
X192788571Y-91178571D01*
X193288571Y-89821428D02*
X192288571Y-89821428D01*
X192574286Y-89821428D02*
X192431429Y-89750000D01*
X192360000Y-89678571D01*
X192288571Y-89535714D01*
X192288571Y-89392857D01*
X187288571Y-101142857D02*
X185788571Y-101142857D01*
X186860000Y-100642857D01*
X185788571Y-100142857D01*
X187288571Y-100142857D01*
X187145714Y-98571428D02*
X187217143Y-98642857D01*
X187288571Y-98857143D01*
X187288571Y-99000000D01*
X187217143Y-99214285D01*
X187074286Y-99357143D01*
X186931429Y-99428571D01*
X186645714Y-99500000D01*
X186431429Y-99500000D01*
X186145714Y-99428571D01*
X186002857Y-99357143D01*
X185860000Y-99214285D01*
X185788571Y-99000000D01*
X185788571Y-98857143D01*
X185860000Y-98642857D01*
X185931429Y-98571428D01*
X185788571Y-97928571D02*
X187002857Y-97928571D01*
X187145714Y-97857143D01*
X187217143Y-97785714D01*
X187288571Y-97642857D01*
X187288571Y-97357143D01*
X187217143Y-97214285D01*
X187145714Y-97142857D01*
X187002857Y-97071428D01*
X185788571Y-97071428D01*
X186860000Y-95285714D02*
X186860000Y-94571428D01*
X187288571Y-95428571D02*
X185788571Y-94928571D01*
X187288571Y-94428571D01*
X187217143Y-93285714D02*
X187288571Y-93428571D01*
X187288571Y-93714285D01*
X187217143Y-93857143D01*
X187145714Y-93928571D01*
X187002857Y-94000000D01*
X186574286Y-94000000D01*
X186431429Y-93928571D01*
X186360000Y-93857143D01*
X186288571Y-93714285D01*
X186288571Y-93428571D01*
X186360000Y-93285714D01*
X186288571Y-92857143D02*
X186288571Y-92285714D01*
X185788571Y-92642857D02*
X187074286Y-92642857D01*
X187217143Y-92571429D01*
X187288571Y-92428571D01*
X187288571Y-92285714D01*
X187288571Y-91785714D02*
X186288571Y-91785714D01*
X185788571Y-91785714D02*
X185860000Y-91857143D01*
X185931429Y-91785714D01*
X185860000Y-91714286D01*
X185788571Y-91785714D01*
X185931429Y-91785714D01*
X186288571Y-91214285D02*
X187288571Y-90857142D01*
X186288571Y-90500000D01*
X187217143Y-89357143D02*
X187288571Y-89500000D01*
X187288571Y-89785714D01*
X187217143Y-89928571D01*
X187074286Y-90000000D01*
X186502857Y-90000000D01*
X186360000Y-89928571D01*
X186288571Y-89785714D01*
X186288571Y-89500000D01*
X186360000Y-89357143D01*
X186502857Y-89285714D01*
X186645714Y-89285714D01*
X186788571Y-90000000D01*
X185038571Y-101214286D02*
X183538571Y-101214286D01*
X184610000Y-100714286D01*
X183538571Y-100214286D01*
X185038571Y-100214286D01*
X184895714Y-98642857D02*
X184967143Y-98714286D01*
X185038571Y-98928572D01*
X185038571Y-99071429D01*
X184967143Y-99285714D01*
X184824286Y-99428572D01*
X184681429Y-99500000D01*
X184395714Y-99571429D01*
X184181429Y-99571429D01*
X183895714Y-99500000D01*
X183752857Y-99428572D01*
X183610000Y-99285714D01*
X183538571Y-99071429D01*
X183538571Y-98928572D01*
X183610000Y-98714286D01*
X183681429Y-98642857D01*
X183538571Y-98000000D02*
X184752857Y-98000000D01*
X184895714Y-97928572D01*
X184967143Y-97857143D01*
X185038571Y-97714286D01*
X185038571Y-97428572D01*
X184967143Y-97285714D01*
X184895714Y-97214286D01*
X184752857Y-97142857D01*
X183538571Y-97142857D01*
X185038571Y-95285714D02*
X183538571Y-95285714D01*
X184610000Y-94785714D01*
X183538571Y-94285714D01*
X185038571Y-94285714D01*
X185038571Y-93357142D02*
X184967143Y-93500000D01*
X184895714Y-93571428D01*
X184752857Y-93642857D01*
X184324286Y-93642857D01*
X184181429Y-93571428D01*
X184110000Y-93500000D01*
X184038571Y-93357142D01*
X184038571Y-93142857D01*
X184110000Y-93000000D01*
X184181429Y-92928571D01*
X184324286Y-92857142D01*
X184752857Y-92857142D01*
X184895714Y-92928571D01*
X184967143Y-93000000D01*
X185038571Y-93142857D01*
X185038571Y-93357142D01*
X185038571Y-91571428D02*
X183538571Y-91571428D01*
X184967143Y-91571428D02*
X185038571Y-91714285D01*
X185038571Y-91999999D01*
X184967143Y-92142857D01*
X184895714Y-92214285D01*
X184752857Y-92285714D01*
X184324286Y-92285714D01*
X184181429Y-92214285D01*
X184110000Y-92142857D01*
X184038571Y-91999999D01*
X184038571Y-91714285D01*
X184110000Y-91571428D01*
X184967143Y-90285714D02*
X185038571Y-90428571D01*
X185038571Y-90714285D01*
X184967143Y-90857142D01*
X184824286Y-90928571D01*
X184252857Y-90928571D01*
X184110000Y-90857142D01*
X184038571Y-90714285D01*
X184038571Y-90428571D01*
X184110000Y-90285714D01*
X184252857Y-90214285D01*
X184395714Y-90214285D01*
X184538571Y-90928571D01*
X182538571Y-101107142D02*
X181038571Y-101107142D01*
X181038571Y-100535714D01*
X181110000Y-100392856D01*
X181181429Y-100321428D01*
X181324286Y-100249999D01*
X181538571Y-100249999D01*
X181681429Y-100321428D01*
X181752857Y-100392856D01*
X181824286Y-100535714D01*
X181824286Y-101107142D01*
X182538571Y-99607142D02*
X181538571Y-99607142D01*
X181038571Y-99607142D02*
X181110000Y-99678571D01*
X181181429Y-99607142D01*
X181110000Y-99535714D01*
X181038571Y-99607142D01*
X181181429Y-99607142D01*
X182110000Y-97821428D02*
X182110000Y-97107142D01*
X182538571Y-97964285D02*
X181038571Y-97464285D01*
X182538571Y-96964285D01*
X182467143Y-95821428D02*
X182538571Y-95964285D01*
X182538571Y-96249999D01*
X182467143Y-96392857D01*
X182395714Y-96464285D01*
X182252857Y-96535714D01*
X181824286Y-96535714D01*
X181681429Y-96464285D01*
X181610000Y-96392857D01*
X181538571Y-96249999D01*
X181538571Y-95964285D01*
X181610000Y-95821428D01*
X181538571Y-95392857D02*
X181538571Y-94821428D01*
X181038571Y-95178571D02*
X182324286Y-95178571D01*
X182467143Y-95107143D01*
X182538571Y-94964285D01*
X182538571Y-94821428D01*
X182538571Y-94321428D02*
X181538571Y-94321428D01*
X181038571Y-94321428D02*
X181110000Y-94392857D01*
X181181429Y-94321428D01*
X181110000Y-94250000D01*
X181038571Y-94321428D01*
X181181429Y-94321428D01*
X181538571Y-93749999D02*
X182538571Y-93392856D01*
X181538571Y-93035714D01*
X182467143Y-91892857D02*
X182538571Y-92035714D01*
X182538571Y-92321428D01*
X182467143Y-92464285D01*
X182324286Y-92535714D01*
X181752857Y-92535714D01*
X181610000Y-92464285D01*
X181538571Y-92321428D01*
X181538571Y-92035714D01*
X181610000Y-91892857D01*
X181752857Y-91821428D01*
X181895714Y-91821428D01*
X182038571Y-92535714D01*
X199824286Y-141050000D02*
X199967143Y-141121429D01*
X200181429Y-141121429D01*
X200395714Y-141050000D01*
X200538572Y-140907143D01*
X200610000Y-140764286D01*
X200681429Y-140478571D01*
X200681429Y-140264286D01*
X200610000Y-139978571D01*
X200538572Y-139835714D01*
X200395714Y-139692857D01*
X200181429Y-139621429D01*
X200038572Y-139621429D01*
X199824286Y-139692857D01*
X199752857Y-139764286D01*
X199752857Y-140264286D01*
X200038572Y-140264286D01*
X199110000Y-139621429D02*
X199110000Y-141121429D01*
X198252857Y-139621429D01*
X198252857Y-141121429D01*
X197538571Y-139621429D02*
X197538571Y-141121429D01*
X197181428Y-141121429D01*
X196967143Y-141050000D01*
X196824285Y-140907143D01*
X196752857Y-140764286D01*
X196681428Y-140478571D01*
X196681428Y-140264286D01*
X196752857Y-139978571D01*
X196824285Y-139835714D01*
X196967143Y-139692857D01*
X197181428Y-139621429D01*
X197538571Y-139621429D01*
X200110000Y-138571429D02*
X199610000Y-137071429D01*
X199110000Y-138571429D01*
X198610000Y-137642857D02*
X197467143Y-137642857D01*
X199538571Y-136021429D02*
X199038571Y-134521429D01*
X198538571Y-136021429D01*
X198038571Y-135092857D02*
X196895714Y-135092857D01*
X197467143Y-134521429D02*
X197467143Y-135664286D01*
X150088571Y-134257143D02*
X151588571Y-133757143D01*
X150088571Y-133257143D01*
X151588571Y-132757143D02*
X150088571Y-132757143D01*
X151160000Y-132257143D01*
X150088571Y-131757143D01*
X151588571Y-131757143D01*
X151017143Y-131042857D02*
X151017143Y-129900000D01*
X151588571Y-130471429D02*
X150445714Y-130471429D01*
X152638571Y-133685714D02*
X154138571Y-133185714D01*
X152638571Y-132685714D01*
X154138571Y-132185714D02*
X152638571Y-132185714D01*
X153710000Y-131685714D01*
X152638571Y-131185714D01*
X154138571Y-131185714D01*
X153567143Y-130471428D02*
X153567143Y-129328571D01*
X155260000Y-132542857D02*
X155188571Y-132685714D01*
X155188571Y-132900000D01*
X155260000Y-133114285D01*
X155402857Y-133257143D01*
X155545714Y-133328571D01*
X155831429Y-133400000D01*
X156045714Y-133400000D01*
X156331429Y-133328571D01*
X156474286Y-133257143D01*
X156617143Y-133114285D01*
X156688571Y-132900000D01*
X156688571Y-132757143D01*
X156617143Y-132542857D01*
X156545714Y-132471428D01*
X156045714Y-132471428D01*
X156045714Y-132757143D01*
X156688571Y-131828571D02*
X155188571Y-131828571D01*
X156688571Y-130971428D01*
X155188571Y-130971428D01*
X156688571Y-130257142D02*
X155188571Y-130257142D01*
X155188571Y-129899999D01*
X155260000Y-129685714D01*
X155402857Y-129542856D01*
X155545714Y-129471428D01*
X155831429Y-129399999D01*
X156045714Y-129399999D01*
X156331429Y-129471428D01*
X156474286Y-129542856D01*
X156617143Y-129685714D01*
X156688571Y-129899999D01*
X156688571Y-130257142D01*
D13*
X183900000Y-104730000D02*
X188980000Y-104730000D01*
X188980000Y-104730000D02*
X188980000Y-107270000D01*
X188980000Y-107270000D02*
X183900000Y-107270000D01*
X183900000Y-107270000D02*
X183900000Y-104730000D01*
X183900000Y-106000000D02*
X182630000Y-106000000D01*
X188980000Y-106000000D02*
X190250000Y-106000000D01*
X160797000Y-68762000D02*
X160797000Y-68062000D01*
X161997000Y-68062000D02*
X161997000Y-68762000D01*
X164572000Y-88650020D02*
X165842000Y-88650020D01*
X164572000Y-90301020D02*
X165842000Y-90301020D01*
X165842000Y-90301020D02*
X165842000Y-88269020D01*
X165842000Y-88269020D02*
X164572000Y-88269020D01*
X164572000Y-88269020D02*
X164572000Y-90301020D01*
X169906000Y-88710980D02*
X171176000Y-88710980D01*
X169906000Y-90361980D02*
X171176000Y-90361980D01*
X171176000Y-90361980D02*
X171176000Y-88329980D01*
X171176000Y-88329980D02*
X169906000Y-88329980D01*
X169906000Y-88329980D02*
X169906000Y-90361980D01*
X158780160Y-46191000D02*
X158731900Y-46191000D01*
X155981180Y-46892040D02*
X155981180Y-46191000D01*
X155981180Y-46191000D02*
X156230100Y-46191000D01*
X158780160Y-46191000D02*
X158980820Y-46191000D01*
X158980820Y-46191000D02*
X158980820Y-46892040D01*
X176597000Y-69190000D02*
X176597000Y-68190000D01*
X177947000Y-68190000D02*
X177947000Y-69190000D01*
X176597000Y-66523000D02*
X176597000Y-65523000D01*
X177947000Y-65523000D02*
X177947000Y-66523000D01*
X162072000Y-70706000D02*
X162072000Y-71706000D01*
X160722000Y-71706000D02*
X160722000Y-70706000D01*
X168362000Y-88911000D02*
X167362000Y-88911000D01*
X167362000Y-87561000D02*
X168362000Y-87561000D01*
X170035000Y-80104000D02*
X170035000Y-81104000D01*
X168685000Y-81104000D02*
X168685000Y-80104000D01*
X172954000Y-86204000D02*
X172954000Y-85823000D01*
X172954000Y-82902000D02*
X172954000Y-83283000D01*
X163048000Y-82902000D02*
X163048000Y-83283000D01*
X163048000Y-86204000D02*
X163048000Y-85823000D01*
X162286000Y-87093000D02*
X162286000Y-85823000D01*
X162286000Y-82013000D02*
X162286000Y-83283000D01*
X173716000Y-82013000D02*
X173716000Y-83283000D01*
X173716000Y-87093000D02*
X173716000Y-85823000D01*
X172954000Y-82902000D02*
X172319000Y-82267000D01*
X172319000Y-82267000D02*
X163683000Y-82267000D01*
X163683000Y-82267000D02*
X163048000Y-82902000D01*
X163048000Y-86204000D02*
X163683000Y-86839000D01*
X163683000Y-86839000D02*
X172319000Y-86839000D01*
X172319000Y-86839000D02*
X172954000Y-86204000D01*
X162286000Y-82013000D02*
X173716000Y-82013000D01*
X173716000Y-87093000D02*
X162286000Y-87093000D01*
X152809980Y-47969000D02*
X152809980Y-46699000D01*
X154460980Y-47969000D02*
X154460980Y-46699000D01*
X154460980Y-46699000D02*
X152428980Y-46699000D01*
X152428980Y-46699000D02*
X152428980Y-47969000D01*
X152428980Y-47969000D02*
X154460980Y-47969000D01*
X176227000Y-63563000D02*
X175527000Y-63563000D01*
X175527000Y-62363000D02*
X176227000Y-62363000D01*
X166847000Y-62658000D02*
X166147000Y-62658000D01*
X166147000Y-61458000D02*
X166847000Y-61458000D01*
X165970000Y-47340000D02*
X167170000Y-47340000D01*
X167170000Y-49090000D02*
X165970000Y-49090000D01*
X175326000Y-48245000D02*
X176526000Y-48245000D01*
X176526000Y-49995000D02*
X175326000Y-49995000D01*
X162668000Y-47340000D02*
X163868000Y-47340000D01*
X163868000Y-49090000D02*
X162668000Y-49090000D01*
X172029000Y-48245000D02*
X173229000Y-48245000D01*
X173229000Y-49995000D02*
X172029000Y-49995000D01*
X172559000Y-62161000D02*
X173559000Y-62161000D01*
X173559000Y-63511000D02*
X172559000Y-63511000D01*
X163330000Y-61256000D02*
X164330000Y-61256000D01*
X164330000Y-62606000D02*
X163330000Y-62606000D01*
X151466000Y-60756000D02*
X152466000Y-60756000D01*
X152466000Y-62106000D02*
X151466000Y-62106000D01*
X155110000Y-60825000D02*
X156110000Y-60825000D01*
X156110000Y-62175000D02*
X155110000Y-62175000D01*
X156975000Y-123291020D02*
X158245000Y-123291020D01*
X156975000Y-124942020D02*
X158245000Y-124942020D01*
X158245000Y-124942020D02*
X158245000Y-122910020D01*
X158245000Y-122910020D02*
X156975000Y-122910020D01*
X156975000Y-122910020D02*
X156975000Y-124942020D01*
X166495000Y-114958980D02*
X165225000Y-114958980D01*
X166495000Y-113307980D02*
X165225000Y-113307980D01*
X165225000Y-113307980D02*
X165225000Y-115339980D01*
X165225000Y-115339980D02*
X166495000Y-115339980D01*
X166495000Y-115339980D02*
X166495000Y-113307980D01*
X163123000Y-104661000D02*
X163823000Y-104661000D01*
X163823000Y-105861000D02*
X163123000Y-105861000D01*
X166298000Y-104661000D02*
X166998000Y-104661000D01*
X166998000Y-105861000D02*
X166298000Y-105861000D01*
X161714000Y-95136000D02*
X162414000Y-95136000D01*
X162414000Y-96336000D02*
X161714000Y-96336000D01*
X167687000Y-95312000D02*
X167687000Y-94612000D01*
X168887000Y-94612000D02*
X168887000Y-95312000D01*
X186449167Y-108452147D02*
X186449167Y-109452147D01*
X185099167Y-109452147D02*
X185099167Y-108452147D01*
X164346000Y-95061000D02*
X165346000Y-95061000D01*
X165346000Y-96411000D02*
X164346000Y-96411000D01*
X160246000Y-106281000D02*
X160246000Y-105281000D01*
X161596000Y-105281000D02*
X161596000Y-106281000D01*
X162860000Y-93325000D02*
X163860000Y-93325000D01*
X163860000Y-94675000D02*
X162860000Y-94675000D01*
X187685000Y-112500000D02*
X187685000Y-111500000D01*
X189035000Y-111500000D02*
X189035000Y-112500000D01*
X159778000Y-99800000D02*
X160540000Y-99800000D01*
X160540000Y-99800000D02*
X160540000Y-101324000D01*
X160540000Y-101324000D02*
X159778000Y-101324000D01*
X170954000Y-98276000D02*
X170954000Y-102848000D01*
X170954000Y-102848000D02*
X159778000Y-102848000D01*
X159778000Y-102848000D02*
X159778000Y-98276000D01*
X159778000Y-98276000D02*
X170954000Y-98276000D01*
X173633000Y-66889000D02*
X174383000Y-67639000D01*
X174383000Y-76139000D02*
X174383000Y-76889000D01*
X174383000Y-76889000D02*
X173633000Y-76889000D01*
X164383000Y-67639000D02*
X164383000Y-66889000D01*
X164383000Y-66889000D02*
X165133000Y-66889000D01*
X164383000Y-76139000D02*
X164383000Y-76889000D01*
X164383000Y-76889000D02*
X165133000Y-76889000D01*
X167915000Y-61035000D02*
X168915000Y-60035000D01*
X168915000Y-60035000D02*
X168915000Y-49495000D01*
X168915000Y-49495000D02*
X161055000Y-49495000D01*
X161055000Y-49495000D02*
X161055000Y-61035000D01*
X161055000Y-61035000D02*
X167915000Y-61035000D01*
X152326000Y-48865000D02*
X151326000Y-49865000D01*
X151326000Y-49865000D02*
X151326000Y-60405000D01*
X151326000Y-60405000D02*
X159186000Y-60405000D01*
X159186000Y-60405000D02*
X159186000Y-48865000D01*
X159186000Y-48865000D02*
X152326000Y-48865000D01*
X177271000Y-61940000D02*
X178271000Y-60940000D01*
X178271000Y-60940000D02*
X178271000Y-50400000D01*
X178271000Y-50400000D02*
X170411000Y-50400000D01*
X170411000Y-50400000D02*
X170411000Y-61940000D01*
X170411000Y-61940000D02*
X177271000Y-61940000D01*
X160430000Y-116740000D02*
X159430000Y-117740000D01*
X159430000Y-117740000D02*
X159430000Y-128780000D01*
X159430000Y-128780000D02*
X167290000Y-128780000D01*
X167290000Y-128780000D02*
X167290000Y-116740000D01*
X167290000Y-116740000D02*
X160430000Y-116740000D01*
X169690000Y-146180000D02*
X170690000Y-145180000D01*
X170690000Y-145180000D02*
X170690000Y-134140000D01*
X170690000Y-134140000D02*
X162830000Y-134140000D01*
X162830000Y-134140000D02*
X162830000Y-146180000D01*
X162830000Y-146180000D02*
X169690000Y-146180000D01*
X198005000Y-59716000D02*
X194830000Y-59716000D01*
X198005000Y-43714000D02*
X194830000Y-43714000D01*
X179082000Y-43714000D02*
X179082000Y-59716000D01*
X191020000Y-43714000D02*
X179082000Y-43714000D01*
X198005000Y-59716000D02*
X198005000Y-43714000D01*
X179082000Y-59716000D02*
X191020000Y-59716000D01*
X180955000Y-67281000D02*
X180955000Y-79981000D01*
X180955000Y-79981000D02*
X178415000Y-79981000D01*
X178415000Y-79981000D02*
X178415000Y-67281000D01*
X181235000Y-64461000D02*
X181235000Y-66011000D01*
X180955000Y-67281000D02*
X178415000Y-67281000D01*
X178135000Y-66011000D02*
X178135000Y-64461000D01*
X178135000Y-64461000D02*
X181235000Y-64461000D01*
X195261200Y-124900440D02*
X195261200Y-133099560D01*
X195659980Y-124900440D02*
X195659980Y-133099560D01*
X200960960Y-124900440D02*
X200960960Y-133099560D01*
X201458800Y-133099560D02*
X201458800Y-124900440D01*
X200960960Y-127699520D02*
X201458800Y-127699520D01*
X201458800Y-132898900D02*
X200960960Y-132898900D01*
X200960960Y-125098560D02*
X201458800Y-125098560D01*
X201458800Y-130297940D02*
X200960960Y-130297940D01*
X201458800Y-124900440D02*
X195261200Y-124900440D01*
X195261200Y-133097020D02*
X201458800Y-133097020D01*
X179510000Y-141500000D02*
X179510000Y-142500000D01*
X181210000Y-142500000D02*
X181210000Y-141500000D01*
X176118038Y-141500000D02*
X176118038Y-143500000D01*
X179068038Y-143500000D02*
X179068038Y-141500000D01*
X193860000Y-140850000D02*
X194860000Y-140850000D01*
X194860000Y-139150000D02*
X193860000Y-139150000D01*
X181885000Y-149000000D02*
X181885000Y-151000000D01*
X184835000Y-151000000D02*
X184835000Y-149000000D01*
X180260000Y-150600000D02*
X180260000Y-149900000D01*
X181460000Y-149900000D02*
X181460000Y-150600000D01*
X194360000Y-143350000D02*
X195360000Y-143350000D01*
X195360000Y-141650000D02*
X194360000Y-141650000D01*
X178560000Y-136850000D02*
X179560000Y-136850000D01*
X179560000Y-135150000D02*
X178560000Y-135150000D01*
X190110000Y-111825000D02*
X191110000Y-111825000D01*
X191110000Y-113175000D02*
X190110000Y-113175000D01*
X185510000Y-61899252D02*
X185510000Y-61199252D01*
X186710000Y-61199252D02*
X186710000Y-61899252D01*
X181510000Y-61899252D02*
X181510000Y-61199252D01*
X182710000Y-61199252D02*
X182710000Y-61899252D01*
X196361260Y-150001260D02*
G75*
G03X196361260Y-150001260I-5001260J0D01*
G01*
X191360000Y-144001780D02*
X196361260Y-144001780D01*
X196361260Y-144001780D02*
X197359480Y-145000000D01*
X197359480Y-145000000D02*
X197359480Y-155002520D01*
X197359480Y-155002520D02*
X196361260Y-156000740D01*
X196361260Y-156000740D02*
X186358740Y-156000740D01*
X186358740Y-156000740D02*
X185360520Y-155002520D01*
X185360520Y-155002520D02*
X185360520Y-145000000D01*
X185360520Y-145000000D02*
X186358740Y-144001780D01*
X186358740Y-144001780D02*
X191360000Y-144001780D01*
X165785000Y-108750000D02*
X165785000Y-109750000D01*
X164435000Y-109750000D02*
X164435000Y-108750000D01*
X193710000Y-137125000D02*
X194910000Y-137125000D01*
X194910000Y-138875000D02*
X193710000Y-138875000D01*
X179610000Y-138875000D02*
X178410000Y-138875000D01*
X178410000Y-137125000D02*
X179610000Y-137125000D01*
X183410000Y-136875000D02*
X182210000Y-136875000D01*
X182210000Y-135125000D02*
X183410000Y-135125000D01*
X179599167Y-111452147D02*
X179599167Y-110452147D01*
X180949167Y-110452147D02*
X180949167Y-111452147D01*
X179599167Y-114202147D02*
X179599167Y-113202147D01*
X180949167Y-113202147D02*
X180949167Y-114202147D01*
X182024167Y-112277147D02*
X183024167Y-112277147D01*
X183024167Y-113627147D02*
X182024167Y-113627147D01*
X185524167Y-113777147D02*
X186524167Y-113777147D01*
X186524167Y-115127147D02*
X185524167Y-115127147D01*
X185474167Y-110302147D02*
G75*
G03X185474167Y-110302147I-100000J0D01*
G01*
X185924167Y-110552147D02*
X185424167Y-110552147D01*
X185924167Y-113452147D02*
X185924167Y-110552147D01*
X185424167Y-113452147D02*
X185924167Y-113452147D01*
X185424167Y-110552147D02*
X185424167Y-113452147D01*
X184559580Y-63198412D02*
X184460520Y-63249212D01*
X184460520Y-63249212D02*
X184259860Y-63300012D01*
X184259860Y-63300012D02*
X184059200Y-63300012D01*
X184059200Y-63300012D02*
X183810280Y-63249212D01*
X183810280Y-63249212D02*
X183711220Y-63198412D01*
X184508780Y-61400092D02*
X184358920Y-61298492D01*
X184358920Y-61298492D02*
X184160800Y-61298492D01*
X184160800Y-61298492D02*
X183960140Y-61298492D01*
X183960140Y-61298492D02*
X183810280Y-61349292D01*
X183810280Y-61349292D02*
X183711220Y-61400092D01*
X159640000Y-62920000D02*
X159640000Y-90860000D01*
X159090000Y-63460000D02*
X159090000Y-90300000D01*
X150540000Y-62920000D02*
X150540000Y-90860000D01*
X151090000Y-63460000D02*
X151090000Y-74640000D01*
X151090000Y-79140000D02*
X151090000Y-90300000D01*
X151090000Y-74640000D02*
X150540000Y-74640000D01*
X151090000Y-79140000D02*
X150540000Y-79140000D01*
X159640000Y-62920000D02*
X150540000Y-62920000D01*
X159090000Y-63460000D02*
X151090000Y-63460000D01*
X159640000Y-90860000D02*
X150540000Y-90860000D01*
X159090000Y-90300000D02*
X151090000Y-90300000D01*
X159640000Y-62920000D02*
X159090000Y-63460000D01*
X159640000Y-90860000D02*
X159090000Y-90300000D01*
X150540000Y-62920000D02*
X151090000Y-63460000D01*
X150540000Y-90860000D02*
X151090000Y-90300000D01*
X149790000Y-120080000D02*
X149790000Y-99760000D01*
X150340000Y-119540000D02*
X150340000Y-100320000D01*
X158890000Y-120080000D02*
X158890000Y-99760000D01*
X158340000Y-119540000D02*
X158340000Y-112170000D01*
X158340000Y-107670000D02*
X158340000Y-100320000D01*
X158340000Y-112170000D02*
X158890000Y-112170000D01*
X158340000Y-107670000D02*
X158890000Y-107670000D01*
X149790000Y-120080000D02*
X158890000Y-120080000D01*
X150340000Y-119540000D02*
X158340000Y-119540000D01*
X149790000Y-99760000D02*
X158890000Y-99760000D01*
X150340000Y-100320000D02*
X158340000Y-100320000D01*
X149790000Y-120080000D02*
X150340000Y-119540000D01*
X149790000Y-99760000D02*
X150340000Y-100320000D01*
X158890000Y-120080000D02*
X158340000Y-119540000D01*
X158890000Y-99760000D02*
X158340000Y-100320000D01*
X161210000Y-139150000D02*
X161210000Y-134250000D01*
X161210000Y-134250000D02*
X151310000Y-134250000D01*
X151310000Y-134250000D02*
X151310000Y-137350000D01*
X151310000Y-137350000D02*
X149910000Y-137350000D01*
X149910000Y-137350000D02*
X149910000Y-139150000D01*
X161210000Y-139150000D02*
X161210000Y-144050000D01*
X161210000Y-144050000D02*
X151310000Y-144050000D01*
X151310000Y-144050000D02*
X151310000Y-140950000D01*
X151310000Y-140950000D02*
X149910000Y-140950000D01*
X149910000Y-140950000D02*
X149910000Y-139150000D01*
X158860000Y-133850000D02*
X158560000Y-133250000D01*
X158560000Y-133250000D02*
X159160000Y-133250000D01*
X159160000Y-133250000D02*
X158860000Y-133850000D01*
X178760940Y-108500000D02*
X179761700Y-108500000D01*
X178860000Y-108500000D02*
G75*
G03X178860000Y-108500000I-2499360J0D01*
G01*
X173860000Y-140649860D02*
X173860000Y-141411860D01*
X173479000Y-141030860D02*
X174241000Y-141030860D01*
X176146000Y-140776860D02*
X176146000Y-144586860D01*
X172336000Y-140014860D02*
X175384000Y-140014860D01*
X176146000Y-140776860D02*
X175384000Y-140014860D01*
X171574000Y-140776860D02*
X171574000Y-144586860D01*
X171574000Y-140776860D02*
X172336000Y-140014860D01*
X173987000Y-144332860D02*
X173733000Y-144332860D01*
X173225000Y-144205860D02*
X174495000Y-144205860D01*
X174749000Y-144078860D02*
X172971000Y-144078860D01*
X175003000Y-143951860D02*
X172717000Y-143951860D01*
X172590000Y-143824860D02*
X175130000Y-143824860D01*
X175257000Y-143697860D02*
X172463000Y-143697860D01*
X172336000Y-143570860D02*
X175384000Y-143570860D01*
X172209000Y-143443860D02*
X175511000Y-143443860D01*
X171574000Y-144586860D02*
X176146000Y-144586860D01*
X175892000Y-142300860D02*
G75*
G03X175892000Y-142300860I-2032000J0D01*
G01*
X185360000Y-118500000D02*
X185360000Y-124500000D01*
X201360000Y-118500000D02*
X185360000Y-118500000D01*
X201360000Y-124500000D02*
X201360000Y-118500000D01*
X185360000Y-124500000D02*
X201360000Y-124500000D01*
X174011000Y-121349160D02*
X174011000Y-121300900D01*
X173309960Y-118550180D02*
X174011000Y-118550180D01*
X174011000Y-118550180D02*
X174011000Y-118799100D01*
X174011000Y-121349160D02*
X174011000Y-121549820D01*
X174011000Y-121549820D02*
X173309960Y-121549820D01*
X175590000Y-120960000D02*
X175590000Y-115880000D01*
X175590000Y-115880000D02*
X178130000Y-115880000D01*
X178130000Y-115880000D02*
X178130000Y-120960000D01*
X178130000Y-120960000D02*
X175590000Y-120960000D01*
X176860000Y-120960000D02*
X176860000Y-122230000D01*
X176860000Y-115880000D02*
X176860000Y-114610000D01*
X181740000Y-115730000D02*
X186820000Y-115730000D01*
X186820000Y-115730000D02*
X186820000Y-118270000D01*
X186820000Y-118270000D02*
X181740000Y-118270000D01*
X181740000Y-118270000D02*
X181740000Y-115730000D01*
X181740000Y-117000000D02*
X180470000Y-117000000D01*
X186820000Y-117000000D02*
X188090000Y-117000000D01*
X175360000Y-131000000D02*
X190860000Y-131000000D01*
X175360000Y-124900000D02*
X190860000Y-124900000D01*
X190860000Y-124900000D02*
X190860000Y-131000000D01*
X175360000Y-124900000D02*
X175360000Y-131000000D01*
X191110000Y-125000000D02*
X191110000Y-132000000D01*
X194910000Y-125000000D02*
X194910000Y-132000000D01*
X194910000Y-132000000D02*
X191110000Y-132000000D01*
X194910000Y-125000000D02*
X191110000Y-125000000D01*
X182099167Y-111452147D02*
X182099167Y-110452147D01*
X183449167Y-110452147D02*
X183449167Y-111452147D01*
X173185000Y-128500000D02*
X173185000Y-127500000D01*
X174535000Y-127500000D02*
X174535000Y-128500000D01*
X171185000Y-128250000D02*
X171185000Y-127250000D01*
X172535000Y-127250000D02*
X172535000Y-128250000D01*
X187935000Y-88250000D02*
X187935000Y-87250000D01*
X189285000Y-87250000D02*
X189285000Y-88250000D01*
X166185000Y-155250000D02*
X166185000Y-154250000D01*
X167535000Y-154250000D02*
X167535000Y-155250000D01*
X181185000Y-88250000D02*
X181185000Y-87250000D01*
X182535000Y-87250000D02*
X182535000Y-88250000D01*
X196510000Y-98500000D02*
X196510000Y-99500000D01*
X198210000Y-99500000D02*
X198210000Y-98500000D01*
X173110000Y-122850980D02*
X173110000Y-125550980D01*
X174610000Y-122850980D02*
X174610000Y-125550980D01*
X173710000Y-124350980D02*
X173960000Y-124350980D01*
X173960000Y-124350980D02*
X173810000Y-124200980D01*
X174210000Y-124100980D02*
X173510000Y-124100980D01*
X173860000Y-124450980D02*
X173860000Y-124800980D01*
X173860000Y-124100980D02*
X174210000Y-124450980D01*
X174210000Y-124450980D02*
X173510000Y-124450980D01*
X173510000Y-124450980D02*
X173860000Y-124100980D01*
X172610000Y-126050980D02*
X172610000Y-123350980D01*
X171110000Y-126050980D02*
X171110000Y-123350980D01*
X172010000Y-124550980D02*
X171760000Y-124550980D01*
X171760000Y-124550980D02*
X171910000Y-124700980D01*
X171510000Y-124800980D02*
X172210000Y-124800980D01*
X171860000Y-124450980D02*
X171860000Y-124100980D01*
X171860000Y-124800980D02*
X171510000Y-124450980D01*
X171510000Y-124450980D02*
X172210000Y-124450980D01*
X172210000Y-124450980D02*
X171860000Y-124800980D01*
X189360000Y-86149020D02*
X189360000Y-83449020D01*
X187860000Y-86149020D02*
X187860000Y-83449020D01*
X188760000Y-84649020D02*
X188510000Y-84649020D01*
X188510000Y-84649020D02*
X188660000Y-84799020D01*
X188260000Y-84899020D02*
X188960000Y-84899020D01*
X188610000Y-84549020D02*
X188610000Y-84199020D01*
X188610000Y-84899020D02*
X188260000Y-84549020D01*
X188260000Y-84549020D02*
X188960000Y-84549020D01*
X188960000Y-84549020D02*
X188610000Y-84899020D01*
X167535000Y-153050980D02*
X167535000Y-150350980D01*
X166035000Y-153050980D02*
X166035000Y-150350980D01*
X166935000Y-151550980D02*
X166685000Y-151550980D01*
X166685000Y-151550980D02*
X166835000Y-151700980D01*
X166435000Y-151800980D02*
X167135000Y-151800980D01*
X166785000Y-151450980D02*
X166785000Y-151100980D01*
X166785000Y-151800980D02*
X166435000Y-151450980D01*
X166435000Y-151450980D02*
X167135000Y-151450980D01*
X167135000Y-151450980D02*
X166785000Y-151800980D01*
X182675000Y-86149020D02*
X182675000Y-83449020D01*
X181175000Y-86149020D02*
X181175000Y-83449020D01*
X182075000Y-84649020D02*
X181825000Y-84649020D01*
X181825000Y-84649020D02*
X181975000Y-84799020D01*
X181575000Y-84899020D02*
X182275000Y-84899020D01*
X181925000Y-84549020D02*
X181925000Y-84199020D01*
X181925000Y-84899020D02*
X181575000Y-84549020D01*
X181575000Y-84549020D02*
X182275000Y-84549020D01*
X182275000Y-84549020D02*
X181925000Y-84899020D01*
X191245000Y-86149020D02*
X191245000Y-83449020D01*
X189745000Y-86149020D02*
X189745000Y-83449020D01*
X190645000Y-84649020D02*
X190395000Y-84649020D01*
X190395000Y-84649020D02*
X190545000Y-84799020D01*
X190145000Y-84899020D02*
X190845000Y-84899020D01*
X190495000Y-84549020D02*
X190495000Y-84199020D01*
X190495000Y-84899020D02*
X190145000Y-84549020D01*
X190145000Y-84549020D02*
X190845000Y-84549020D01*
X190845000Y-84549020D02*
X190495000Y-84899020D01*
X187360000Y-86149020D02*
X187360000Y-83449020D01*
X185860000Y-86149020D02*
X185860000Y-83449020D01*
X186760000Y-84649020D02*
X186510000Y-84649020D01*
X186510000Y-84649020D02*
X186660000Y-84799020D01*
X186260000Y-84899020D02*
X186960000Y-84899020D01*
X186610000Y-84549020D02*
X186610000Y-84199020D01*
X186610000Y-84899020D02*
X186260000Y-84549020D01*
X186260000Y-84549020D02*
X186960000Y-84549020D01*
X186960000Y-84549020D02*
X186610000Y-84899020D01*
X185360000Y-86149020D02*
X185360000Y-83449020D01*
X183860000Y-86149020D02*
X183860000Y-83449020D01*
X184760000Y-84649020D02*
X184510000Y-84649020D01*
X184510000Y-84649020D02*
X184660000Y-84799020D01*
X184260000Y-84899020D02*
X184960000Y-84899020D01*
X184610000Y-84549020D02*
X184610000Y-84199020D01*
X184610000Y-84899020D02*
X184260000Y-84549020D01*
X184260000Y-84549020D02*
X184960000Y-84549020D01*
X184960000Y-84549020D02*
X184610000Y-84899020D01*
X189935000Y-88250000D02*
X189935000Y-87250000D01*
X191285000Y-87250000D02*
X191285000Y-88250000D01*
X185935000Y-88250000D02*
X185935000Y-87250000D01*
X187285000Y-87250000D02*
X187285000Y-88250000D01*
X183935000Y-88250000D02*
X183935000Y-87250000D01*
X185285000Y-87250000D02*
X185285000Y-88250000D01*
X192610000Y-80000000D02*
G75*
G03X188610000Y-80000000I-2000000J8000000D01*
G01*
X198610000Y-80000000D02*
X192610000Y-80000000D01*
X198610000Y-72000000D02*
X198610000Y-80000000D01*
X182610000Y-80000000D02*
X182610000Y-72000000D01*
X188610000Y-80000000D02*
X182610000Y-80000000D01*
X156208800Y-129139560D02*
X156208800Y-120940440D01*
X155810020Y-129139560D02*
X155810020Y-120940440D01*
X150509040Y-129139560D02*
X150509040Y-120940440D01*
X150011200Y-120940440D02*
X150011200Y-129139560D01*
X150509040Y-126340480D02*
X150011200Y-126340480D01*
X150011200Y-121141100D02*
X150509040Y-121141100D01*
X150509040Y-128941440D02*
X150011200Y-128941440D01*
X150011200Y-123742060D02*
X150509040Y-123742060D01*
X150011200Y-129139560D02*
X156208800Y-129139560D01*
X156208800Y-120942980D02*
X150011200Y-120942980D01*
X182160000Y-142250000D02*
X183160000Y-143250000D01*
X183160000Y-143250000D02*
X191360000Y-143250000D01*
X191360000Y-143250000D02*
X191360000Y-137300000D01*
X191360000Y-137300000D02*
X182160000Y-137300000D01*
X182160000Y-137300000D02*
X182160000Y-142250000D01*
X194062381Y-106642857D02*
X193586190Y-106976191D01*
X194062381Y-107214286D02*
X193062381Y-107214286D01*
X193062381Y-106833333D01*
X193110000Y-106738095D01*
X193157619Y-106690476D01*
X193252857Y-106642857D01*
X193395714Y-106642857D01*
X193490952Y-106690476D01*
X193538571Y-106738095D01*
X193586190Y-106833333D01*
X193586190Y-107214286D01*
X193395714Y-105785714D02*
X194062381Y-105785714D01*
X193014762Y-106023810D02*
X193729048Y-106261905D01*
X193729048Y-105642857D01*
X193062381Y-104785714D02*
X193062381Y-105261905D01*
X193538571Y-105309524D01*
X193490952Y-105261905D01*
X193443333Y-105166667D01*
X193443333Y-104928571D01*
X193490952Y-104833333D01*
X193538571Y-104785714D01*
X193633810Y-104738095D01*
X193871905Y-104738095D01*
X193967143Y-104785714D01*
X194014762Y-104833333D01*
X194062381Y-104928571D01*
X194062381Y-105166667D01*
X194014762Y-105261905D01*
X193967143Y-105309524D01*
X161717143Y-65916666D02*
X161764762Y-65964285D01*
X161812381Y-66107142D01*
X161812381Y-66202380D01*
X161764762Y-66345238D01*
X161669524Y-66440476D01*
X161574286Y-66488095D01*
X161383810Y-66535714D01*
X161240952Y-66535714D01*
X161050476Y-66488095D01*
X160955238Y-66440476D01*
X160860000Y-66345238D01*
X160812381Y-66202380D01*
X160812381Y-66107142D01*
X160860000Y-65964285D01*
X160907619Y-65916666D01*
X160812381Y-65059523D02*
X160812381Y-65250000D01*
X160860000Y-65345238D01*
X160907619Y-65392857D01*
X161050476Y-65488095D01*
X161240952Y-65535714D01*
X161621905Y-65535714D01*
X161717143Y-65488095D01*
X161764762Y-65440476D01*
X161812381Y-65345238D01*
X161812381Y-65154761D01*
X161764762Y-65059523D01*
X161717143Y-65011904D01*
X161621905Y-64964285D01*
X161383810Y-64964285D01*
X161288571Y-65011904D01*
X161240952Y-65059523D01*
X161193333Y-65154761D01*
X161193333Y-65345238D01*
X161240952Y-65440476D01*
X161288571Y-65488095D01*
X161383810Y-65535714D01*
X163687143Y-89426666D02*
X163734762Y-89474285D01*
X163782381Y-89617142D01*
X163782381Y-89712380D01*
X163734762Y-89855238D01*
X163639524Y-89950476D01*
X163544286Y-89998095D01*
X163353810Y-90045714D01*
X163210952Y-90045714D01*
X163020476Y-89998095D01*
X162925238Y-89950476D01*
X162830000Y-89855238D01*
X162782381Y-89712380D01*
X162782381Y-89617142D01*
X162830000Y-89474285D01*
X162877619Y-89426666D01*
X162782381Y-89093333D02*
X162782381Y-88426666D01*
X163782381Y-88855238D01*
X172507143Y-89476666D02*
X172554762Y-89524285D01*
X172602381Y-89667142D01*
X172602381Y-89762380D01*
X172554762Y-89905238D01*
X172459524Y-90000476D01*
X172364286Y-90048095D01*
X172173810Y-90095714D01*
X172030952Y-90095714D01*
X171840476Y-90048095D01*
X171745238Y-90000476D01*
X171650000Y-89905238D01*
X171602381Y-89762380D01*
X171602381Y-89667142D01*
X171650000Y-89524285D01*
X171697619Y-89476666D01*
X172030952Y-88905238D02*
X171983333Y-89000476D01*
X171935714Y-89048095D01*
X171840476Y-89095714D01*
X171792857Y-89095714D01*
X171697619Y-89048095D01*
X171650000Y-89000476D01*
X171602381Y-88905238D01*
X171602381Y-88714761D01*
X171650000Y-88619523D01*
X171697619Y-88571904D01*
X171792857Y-88524285D01*
X171840476Y-88524285D01*
X171935714Y-88571904D01*
X171983333Y-88619523D01*
X172030952Y-88714761D01*
X172030952Y-88905238D01*
X172078571Y-89000476D01*
X172126190Y-89048095D01*
X172221429Y-89095714D01*
X172411905Y-89095714D01*
X172507143Y-89048095D01*
X172554762Y-89000476D01*
X172602381Y-88905238D01*
X172602381Y-88714761D01*
X172554762Y-88619523D01*
X172507143Y-88571904D01*
X172411905Y-88524285D01*
X172221429Y-88524285D01*
X172126190Y-88571904D01*
X172078571Y-88619523D01*
X172030952Y-88714761D01*
X157424762Y-45077619D02*
X157329524Y-45030000D01*
X157234286Y-44934762D01*
X157091429Y-44791905D01*
X156996190Y-44744286D01*
X156900952Y-44744286D01*
X156948571Y-44982381D02*
X156853333Y-44934762D01*
X156758095Y-44839524D01*
X156710476Y-44649048D01*
X156710476Y-44315714D01*
X156758095Y-44125238D01*
X156853333Y-44030000D01*
X156948571Y-43982381D01*
X157139048Y-43982381D01*
X157234286Y-44030000D01*
X157329524Y-44125238D01*
X157377143Y-44315714D01*
X157377143Y-44649048D01*
X157329524Y-44839524D01*
X157234286Y-44934762D01*
X157139048Y-44982381D01*
X156948571Y-44982381D01*
X158329524Y-44982381D02*
X157758095Y-44982381D01*
X158043809Y-44982381D02*
X158043809Y-43982381D01*
X157948571Y-44125238D01*
X157853333Y-44220476D01*
X157758095Y-44268095D01*
X177582381Y-71316666D02*
X177106190Y-71650000D01*
X177582381Y-71888095D02*
X176582381Y-71888095D01*
X176582381Y-71507142D01*
X176630000Y-71411904D01*
X176677619Y-71364285D01*
X176772857Y-71316666D01*
X176915714Y-71316666D01*
X177010952Y-71364285D01*
X177058571Y-71411904D01*
X177106190Y-71507142D01*
X177106190Y-71888095D01*
X176677619Y-70935714D02*
X176630000Y-70888095D01*
X176582381Y-70792857D01*
X176582381Y-70554761D01*
X176630000Y-70459523D01*
X176677619Y-70411904D01*
X176772857Y-70364285D01*
X176868095Y-70364285D01*
X177010952Y-70411904D01*
X177582381Y-70983333D01*
X177582381Y-70364285D01*
X177193334Y-64702381D02*
X176860000Y-64226190D01*
X176621905Y-64702381D02*
X176621905Y-63702381D01*
X177002858Y-63702381D01*
X177098096Y-63750000D01*
X177145715Y-63797619D01*
X177193334Y-63892857D01*
X177193334Y-64035714D01*
X177145715Y-64130952D01*
X177098096Y-64178571D01*
X177002858Y-64226190D01*
X176621905Y-64226190D01*
X177526667Y-63702381D02*
X178145715Y-63702381D01*
X177812381Y-64083333D01*
X177955239Y-64083333D01*
X178050477Y-64130952D01*
X178098096Y-64178571D01*
X178145715Y-64273810D01*
X178145715Y-64511905D01*
X178098096Y-64607143D01*
X178050477Y-64654762D01*
X177955239Y-64702381D01*
X177669524Y-64702381D01*
X177574286Y-64654762D01*
X177526667Y-64607143D01*
X161812381Y-73666666D02*
X161336190Y-74000000D01*
X161812381Y-74238095D02*
X160812381Y-74238095D01*
X160812381Y-73857142D01*
X160860000Y-73761904D01*
X160907619Y-73714285D01*
X161002857Y-73666666D01*
X161145714Y-73666666D01*
X161240952Y-73714285D01*
X161288571Y-73761904D01*
X161336190Y-73857142D01*
X161336190Y-74238095D01*
X161145714Y-72809523D02*
X161812381Y-72809523D01*
X160764762Y-73047619D02*
X161479048Y-73285714D01*
X161479048Y-72666666D01*
X167753334Y-90212381D02*
X167420000Y-89736190D01*
X167181905Y-90212381D02*
X167181905Y-89212381D01*
X167562858Y-89212381D01*
X167658096Y-89260000D01*
X167705715Y-89307619D01*
X167753334Y-89402857D01*
X167753334Y-89545714D01*
X167705715Y-89640952D01*
X167658096Y-89688571D01*
X167562858Y-89736190D01*
X167181905Y-89736190D01*
X168658096Y-89212381D02*
X168181905Y-89212381D01*
X168134286Y-89688571D01*
X168181905Y-89640952D01*
X168277143Y-89593333D01*
X168515239Y-89593333D01*
X168610477Y-89640952D01*
X168658096Y-89688571D01*
X168705715Y-89783810D01*
X168705715Y-90021905D01*
X168658096Y-90117143D01*
X168610477Y-90164762D01*
X168515239Y-90212381D01*
X168277143Y-90212381D01*
X168181905Y-90164762D01*
X168134286Y-90117143D01*
X168164381Y-80876666D02*
X167688190Y-81210000D01*
X168164381Y-81448095D02*
X167164381Y-81448095D01*
X167164381Y-81067142D01*
X167212000Y-80971904D01*
X167259619Y-80924285D01*
X167354857Y-80876666D01*
X167497714Y-80876666D01*
X167592952Y-80924285D01*
X167640571Y-80971904D01*
X167688190Y-81067142D01*
X167688190Y-81448095D01*
X167164381Y-80019523D02*
X167164381Y-80210000D01*
X167212000Y-80305238D01*
X167259619Y-80352857D01*
X167402476Y-80448095D01*
X167592952Y-80495714D01*
X167973905Y-80495714D01*
X168069143Y-80448095D01*
X168116762Y-80400476D01*
X168164381Y-80305238D01*
X168164381Y-80114761D01*
X168116762Y-80019523D01*
X168069143Y-79971904D01*
X167973905Y-79924285D01*
X167735810Y-79924285D01*
X167640571Y-79971904D01*
X167592952Y-80019523D01*
X167545333Y-80114761D01*
X167545333Y-80305238D01*
X167592952Y-80400476D01*
X167640571Y-80448095D01*
X167735810Y-80495714D01*
X174666190Y-86996191D02*
X175142381Y-86996191D01*
X174142381Y-87329524D02*
X174666190Y-86996191D01*
X174142381Y-86662857D01*
X175142381Y-85805714D02*
X175142381Y-86377143D01*
X175142381Y-86091429D02*
X174142381Y-86091429D01*
X174285238Y-86186667D01*
X174380476Y-86281905D01*
X174428095Y-86377143D01*
X153223334Y-46047143D02*
X153175715Y-46094762D01*
X153032858Y-46142381D01*
X152937620Y-46142381D01*
X152794762Y-46094762D01*
X152699524Y-45999524D01*
X152651905Y-45904286D01*
X152604286Y-45713810D01*
X152604286Y-45570952D01*
X152651905Y-45380476D01*
X152699524Y-45285238D01*
X152794762Y-45190000D01*
X152937620Y-45142381D01*
X153032858Y-45142381D01*
X153175715Y-45190000D01*
X153223334Y-45237619D01*
X153699524Y-46142381D02*
X153890000Y-46142381D01*
X153985239Y-46094762D01*
X154032858Y-46047143D01*
X154128096Y-45904286D01*
X154175715Y-45713810D01*
X154175715Y-45332857D01*
X154128096Y-45237619D01*
X154080477Y-45190000D01*
X153985239Y-45142381D01*
X153794762Y-45142381D01*
X153699524Y-45190000D01*
X153651905Y-45237619D01*
X153604286Y-45332857D01*
X153604286Y-45570952D01*
X153651905Y-45666190D01*
X153699524Y-45713810D01*
X153794762Y-45761429D01*
X153985239Y-45761429D01*
X154080477Y-45713810D01*
X154128096Y-45666190D01*
X154175715Y-45570952D01*
X172967143Y-64857143D02*
X172919524Y-64904762D01*
X172776667Y-64952381D01*
X172681429Y-64952381D01*
X172538571Y-64904762D01*
X172443333Y-64809524D01*
X172395714Y-64714286D01*
X172348095Y-64523810D01*
X172348095Y-64380952D01*
X172395714Y-64190476D01*
X172443333Y-64095238D01*
X172538571Y-64000000D01*
X172681429Y-63952381D01*
X172776667Y-63952381D01*
X172919524Y-64000000D01*
X172967143Y-64047619D01*
X173919524Y-64952381D02*
X173348095Y-64952381D01*
X173633809Y-64952381D02*
X173633809Y-63952381D01*
X173538571Y-64095238D01*
X173443333Y-64190476D01*
X173348095Y-64238095D01*
X174300476Y-64047619D02*
X174348095Y-64000000D01*
X174443333Y-63952381D01*
X174681429Y-63952381D01*
X174776667Y-64000000D01*
X174824286Y-64047619D01*
X174871905Y-64142857D01*
X174871905Y-64238095D01*
X174824286Y-64380952D01*
X174252857Y-64952381D01*
X174871905Y-64952381D01*
X165854143Y-64315143D02*
X165806524Y-64362762D01*
X165663667Y-64410381D01*
X165568429Y-64410381D01*
X165425571Y-64362762D01*
X165330333Y-64267524D01*
X165282714Y-64172286D01*
X165235095Y-63981810D01*
X165235095Y-63838952D01*
X165282714Y-63648476D01*
X165330333Y-63553238D01*
X165425571Y-63458000D01*
X165568429Y-63410381D01*
X165663667Y-63410381D01*
X165806524Y-63458000D01*
X165854143Y-63505619D01*
X166806524Y-64410381D02*
X166235095Y-64410381D01*
X166520809Y-64410381D02*
X166520809Y-63410381D01*
X166425571Y-63553238D01*
X166330333Y-63648476D01*
X166235095Y-63696095D01*
X167139857Y-63410381D02*
X167758905Y-63410381D01*
X167425571Y-63791333D01*
X167568429Y-63791333D01*
X167663667Y-63838952D01*
X167711286Y-63886571D01*
X167758905Y-63981810D01*
X167758905Y-64219905D01*
X167711286Y-64315143D01*
X167663667Y-64362762D01*
X167568429Y-64410381D01*
X167282714Y-64410381D01*
X167187476Y-64362762D01*
X167139857Y-64315143D01*
X166942381Y-46206666D02*
X166466190Y-46540000D01*
X166942381Y-46778095D02*
X165942381Y-46778095D01*
X165942381Y-46397142D01*
X165990000Y-46301904D01*
X166037619Y-46254285D01*
X166132857Y-46206666D01*
X166275714Y-46206666D01*
X166370952Y-46254285D01*
X166418571Y-46301904D01*
X166466190Y-46397142D01*
X166466190Y-46778095D01*
X165942381Y-45873333D02*
X165942381Y-45206666D01*
X166942381Y-45635238D01*
X176462381Y-47172857D02*
X175986190Y-47506191D01*
X176462381Y-47744286D02*
X175462381Y-47744286D01*
X175462381Y-47363333D01*
X175510000Y-47268095D01*
X175557619Y-47220476D01*
X175652857Y-47172857D01*
X175795714Y-47172857D01*
X175890952Y-47220476D01*
X175938571Y-47268095D01*
X175986190Y-47363333D01*
X175986190Y-47744286D01*
X176462381Y-46220476D02*
X176462381Y-46791905D01*
X176462381Y-46506191D02*
X175462381Y-46506191D01*
X175605238Y-46601429D01*
X175700476Y-46696667D01*
X175748095Y-46791905D01*
X175462381Y-45601429D02*
X175462381Y-45506190D01*
X175510000Y-45410952D01*
X175557619Y-45363333D01*
X175652857Y-45315714D01*
X175843333Y-45268095D01*
X176081429Y-45268095D01*
X176271905Y-45315714D01*
X176367143Y-45363333D01*
X176414762Y-45410952D01*
X176462381Y-45506190D01*
X176462381Y-45601429D01*
X176414762Y-45696667D01*
X176367143Y-45744286D01*
X176271905Y-45791905D01*
X176081429Y-45839524D01*
X175843333Y-45839524D01*
X175652857Y-45791905D01*
X175557619Y-45744286D01*
X175510000Y-45696667D01*
X175462381Y-45601429D01*
X163692381Y-46532857D02*
X163216190Y-46866191D01*
X163692381Y-47104286D02*
X162692381Y-47104286D01*
X162692381Y-46723333D01*
X162740000Y-46628095D01*
X162787619Y-46580476D01*
X162882857Y-46532857D01*
X163025714Y-46532857D01*
X163120952Y-46580476D01*
X163168571Y-46628095D01*
X163216190Y-46723333D01*
X163216190Y-47104286D01*
X163692381Y-45580476D02*
X163692381Y-46151905D01*
X163692381Y-45866191D02*
X162692381Y-45866191D01*
X162835238Y-45961429D01*
X162930476Y-46056667D01*
X162978095Y-46151905D01*
X163692381Y-44628095D02*
X163692381Y-45199524D01*
X163692381Y-44913810D02*
X162692381Y-44913810D01*
X162835238Y-45009048D01*
X162930476Y-45104286D01*
X162978095Y-45199524D01*
X173132381Y-47162857D02*
X172656190Y-47496191D01*
X173132381Y-47734286D02*
X172132381Y-47734286D01*
X172132381Y-47353333D01*
X172180000Y-47258095D01*
X172227619Y-47210476D01*
X172322857Y-47162857D01*
X172465714Y-47162857D01*
X172560952Y-47210476D01*
X172608571Y-47258095D01*
X172656190Y-47353333D01*
X172656190Y-47734286D01*
X173132381Y-46210476D02*
X173132381Y-46781905D01*
X173132381Y-46496191D02*
X172132381Y-46496191D01*
X172275238Y-46591429D01*
X172370476Y-46686667D01*
X172418095Y-46781905D01*
X172465714Y-45353333D02*
X173132381Y-45353333D01*
X172084762Y-45591429D02*
X172799048Y-45829524D01*
X172799048Y-45210476D01*
X169527143Y-63452381D02*
X169193809Y-62976190D01*
X168955714Y-63452381D02*
X168955714Y-62452381D01*
X169336667Y-62452381D01*
X169431905Y-62500000D01*
X169479524Y-62547619D01*
X169527143Y-62642857D01*
X169527143Y-62785714D01*
X169479524Y-62880952D01*
X169431905Y-62928571D01*
X169336667Y-62976190D01*
X168955714Y-62976190D01*
X170479524Y-63452381D02*
X169908095Y-63452381D01*
X170193809Y-63452381D02*
X170193809Y-62452381D01*
X170098571Y-62595238D01*
X170003333Y-62690476D01*
X169908095Y-62738095D01*
X171384286Y-62452381D02*
X170908095Y-62452381D01*
X170860476Y-62928571D01*
X170908095Y-62880952D01*
X171003333Y-62833333D01*
X171241429Y-62833333D01*
X171336667Y-62880952D01*
X171384286Y-62928571D01*
X171431905Y-63023810D01*
X171431905Y-63261905D01*
X171384286Y-63357143D01*
X171336667Y-63404762D01*
X171241429Y-63452381D01*
X171003333Y-63452381D01*
X170908095Y-63404762D01*
X170860476Y-63357143D01*
X163187143Y-64283381D02*
X162853809Y-63807190D01*
X162615714Y-64283381D02*
X162615714Y-63283381D01*
X162996667Y-63283381D01*
X163091905Y-63331000D01*
X163139524Y-63378619D01*
X163187143Y-63473857D01*
X163187143Y-63616714D01*
X163139524Y-63711952D01*
X163091905Y-63759571D01*
X162996667Y-63807190D01*
X162615714Y-63807190D01*
X164139524Y-64283381D02*
X163568095Y-64283381D01*
X163853809Y-64283381D02*
X163853809Y-63283381D01*
X163758571Y-63426238D01*
X163663333Y-63521476D01*
X163568095Y-63569095D01*
X164710952Y-63711952D02*
X164615714Y-63664333D01*
X164568095Y-63616714D01*
X164520476Y-63521476D01*
X164520476Y-63473857D01*
X164568095Y-63378619D01*
X164615714Y-63331000D01*
X164710952Y-63283381D01*
X164901429Y-63283381D01*
X164996667Y-63331000D01*
X165044286Y-63378619D01*
X165091905Y-63473857D01*
X165091905Y-63521476D01*
X165044286Y-63616714D01*
X164996667Y-63664333D01*
X164901429Y-63711952D01*
X164710952Y-63711952D01*
X164615714Y-63759571D01*
X164568095Y-63807190D01*
X164520476Y-63902429D01*
X164520476Y-64092905D01*
X164568095Y-64188143D01*
X164615714Y-64235762D01*
X164710952Y-64283381D01*
X164901429Y-64283381D01*
X164996667Y-64235762D01*
X165044286Y-64188143D01*
X165091905Y-64092905D01*
X165091905Y-63902429D01*
X165044286Y-63807190D01*
X164996667Y-63759571D01*
X164901429Y-63711952D01*
X151062381Y-59642857D02*
X150586190Y-59976191D01*
X151062381Y-60214286D02*
X150062381Y-60214286D01*
X150062381Y-59833333D01*
X150110000Y-59738095D01*
X150157619Y-59690476D01*
X150252857Y-59642857D01*
X150395714Y-59642857D01*
X150490952Y-59690476D01*
X150538571Y-59738095D01*
X150586190Y-59833333D01*
X150586190Y-60214286D01*
X151062381Y-58690476D02*
X151062381Y-59261905D01*
X151062381Y-58976191D02*
X150062381Y-58976191D01*
X150205238Y-59071429D01*
X150300476Y-59166667D01*
X150348095Y-59261905D01*
X151062381Y-58214286D02*
X151062381Y-58023810D01*
X151014762Y-57928571D01*
X150967143Y-57880952D01*
X150824286Y-57785714D01*
X150633810Y-57738095D01*
X150252857Y-57738095D01*
X150157619Y-57785714D01*
X150110000Y-57833333D01*
X150062381Y-57928571D01*
X150062381Y-58119048D01*
X150110000Y-58214286D01*
X150157619Y-58261905D01*
X150252857Y-58309524D01*
X150490952Y-58309524D01*
X150586190Y-58261905D01*
X150633810Y-58214286D01*
X150681429Y-58119048D01*
X150681429Y-57928571D01*
X150633810Y-57833333D01*
X150586190Y-57785714D01*
X150490952Y-57738095D01*
X157967143Y-61952381D02*
X157633809Y-61476190D01*
X157395714Y-61952381D02*
X157395714Y-60952381D01*
X157776667Y-60952381D01*
X157871905Y-61000000D01*
X157919524Y-61047619D01*
X157967143Y-61142857D01*
X157967143Y-61285714D01*
X157919524Y-61380952D01*
X157871905Y-61428571D01*
X157776667Y-61476190D01*
X157395714Y-61476190D01*
X158348095Y-61047619D02*
X158395714Y-61000000D01*
X158490952Y-60952381D01*
X158729048Y-60952381D01*
X158824286Y-61000000D01*
X158871905Y-61047619D01*
X158919524Y-61142857D01*
X158919524Y-61238095D01*
X158871905Y-61380952D01*
X158300476Y-61952381D01*
X158919524Y-61952381D01*
X159538571Y-60952381D02*
X159633810Y-60952381D01*
X159729048Y-61000000D01*
X159776667Y-61047619D01*
X159824286Y-61142857D01*
X159871905Y-61333333D01*
X159871905Y-61571429D01*
X159824286Y-61761905D01*
X159776667Y-61857143D01*
X159729048Y-61904762D01*
X159633810Y-61952381D01*
X159538571Y-61952381D01*
X159443333Y-61904762D01*
X159395714Y-61857143D01*
X159348095Y-61761905D01*
X159300476Y-61571429D01*
X159300476Y-61333333D01*
X159348095Y-61142857D01*
X159395714Y-61047619D01*
X159443333Y-61000000D01*
X159538571Y-60952381D01*
X156967143Y-128107143D02*
X156919524Y-128154762D01*
X156776667Y-128202381D01*
X156681429Y-128202381D01*
X156538571Y-128154762D01*
X156443333Y-128059524D01*
X156395714Y-127964286D01*
X156348095Y-127773810D01*
X156348095Y-127630952D01*
X156395714Y-127440476D01*
X156443333Y-127345238D01*
X156538571Y-127250000D01*
X156681429Y-127202381D01*
X156776667Y-127202381D01*
X156919524Y-127250000D01*
X156967143Y-127297619D01*
X157919524Y-128202381D02*
X157348095Y-128202381D01*
X157633809Y-128202381D02*
X157633809Y-127202381D01*
X157538571Y-127345238D01*
X157443333Y-127440476D01*
X157348095Y-127488095D01*
X158776667Y-127535714D02*
X158776667Y-128202381D01*
X158538571Y-127154762D02*
X158300476Y-127869048D01*
X158919524Y-127869048D01*
X167967143Y-115026857D02*
X168014762Y-115074476D01*
X168062381Y-115217333D01*
X168062381Y-115312571D01*
X168014762Y-115455429D01*
X167919524Y-115550667D01*
X167824286Y-115598286D01*
X167633810Y-115645905D01*
X167490952Y-115645905D01*
X167300476Y-115598286D01*
X167205238Y-115550667D01*
X167110000Y-115455429D01*
X167062381Y-115312571D01*
X167062381Y-115217333D01*
X167110000Y-115074476D01*
X167157619Y-115026857D01*
X168062381Y-114074476D02*
X168062381Y-114645905D01*
X168062381Y-114360191D02*
X167062381Y-114360191D01*
X167205238Y-114455429D01*
X167300476Y-114550667D01*
X167348095Y-114645905D01*
X167062381Y-113169714D02*
X167062381Y-113645905D01*
X167538571Y-113693524D01*
X167490952Y-113645905D01*
X167443333Y-113550667D01*
X167443333Y-113312571D01*
X167490952Y-113217333D01*
X167538571Y-113169714D01*
X167633810Y-113122095D01*
X167871905Y-113122095D01*
X167967143Y-113169714D01*
X168014762Y-113217333D01*
X168062381Y-113312571D01*
X168062381Y-113550667D01*
X168014762Y-113645905D01*
X167967143Y-113693524D01*
X162967143Y-107107143D02*
X162919524Y-107154762D01*
X162776667Y-107202381D01*
X162681429Y-107202381D01*
X162538571Y-107154762D01*
X162443333Y-107059524D01*
X162395714Y-106964286D01*
X162348095Y-106773810D01*
X162348095Y-106630952D01*
X162395714Y-106440476D01*
X162443333Y-106345238D01*
X162538571Y-106250000D01*
X162681429Y-106202381D01*
X162776667Y-106202381D01*
X162919524Y-106250000D01*
X162967143Y-106297619D01*
X163348095Y-106297619D02*
X163395714Y-106250000D01*
X163490952Y-106202381D01*
X163729048Y-106202381D01*
X163824286Y-106250000D01*
X163871905Y-106297619D01*
X163919524Y-106392857D01*
X163919524Y-106488095D01*
X163871905Y-106630952D01*
X163300476Y-107202381D01*
X163919524Y-107202381D01*
X164252857Y-106202381D02*
X164919524Y-106202381D01*
X164490952Y-107202381D01*
X165717143Y-107357143D02*
X165669524Y-107404762D01*
X165526667Y-107452381D01*
X165431429Y-107452381D01*
X165288571Y-107404762D01*
X165193333Y-107309524D01*
X165145714Y-107214286D01*
X165098095Y-107023810D01*
X165098095Y-106880952D01*
X165145714Y-106690476D01*
X165193333Y-106595238D01*
X165288571Y-106500000D01*
X165431429Y-106452381D01*
X165526667Y-106452381D01*
X165669524Y-106500000D01*
X165717143Y-106547619D01*
X166050476Y-106452381D02*
X166669524Y-106452381D01*
X166336190Y-106833333D01*
X166479048Y-106833333D01*
X166574286Y-106880952D01*
X166621905Y-106928571D01*
X166669524Y-107023810D01*
X166669524Y-107261905D01*
X166621905Y-107357143D01*
X166574286Y-107404762D01*
X166479048Y-107452381D01*
X166193333Y-107452381D01*
X166098095Y-107404762D01*
X166050476Y-107357143D01*
X167288571Y-106452381D02*
X167383810Y-106452381D01*
X167479048Y-106500000D01*
X167526667Y-106547619D01*
X167574286Y-106642857D01*
X167621905Y-106833333D01*
X167621905Y-107071429D01*
X167574286Y-107261905D01*
X167526667Y-107357143D01*
X167479048Y-107404762D01*
X167383810Y-107452381D01*
X167288571Y-107452381D01*
X167193333Y-107404762D01*
X167145714Y-107357143D01*
X167098095Y-107261905D01*
X167050476Y-107071429D01*
X167050476Y-106833333D01*
X167098095Y-106642857D01*
X167145714Y-106547619D01*
X167193333Y-106500000D01*
X167288571Y-106452381D01*
X161717143Y-94142857D02*
X161764762Y-94190476D01*
X161812381Y-94333333D01*
X161812381Y-94428571D01*
X161764762Y-94571429D01*
X161669524Y-94666667D01*
X161574286Y-94714286D01*
X161383810Y-94761905D01*
X161240952Y-94761905D01*
X161050476Y-94714286D01*
X160955238Y-94666667D01*
X160860000Y-94571429D01*
X160812381Y-94428571D01*
X160812381Y-94333333D01*
X160860000Y-94190476D01*
X160907619Y-94142857D01*
X160812381Y-93809524D02*
X160812381Y-93190476D01*
X161193333Y-93523810D01*
X161193333Y-93380952D01*
X161240952Y-93285714D01*
X161288571Y-93238095D01*
X161383810Y-93190476D01*
X161621905Y-93190476D01*
X161717143Y-93238095D01*
X161764762Y-93285714D01*
X161812381Y-93380952D01*
X161812381Y-93666667D01*
X161764762Y-93761905D01*
X161717143Y-93809524D01*
X161812381Y-92238095D02*
X161812381Y-92809524D01*
X161812381Y-92523810D02*
X160812381Y-92523810D01*
X160955238Y-92619048D01*
X161050476Y-92714286D01*
X161098095Y-92809524D01*
X170217143Y-95642857D02*
X170264762Y-95690476D01*
X170312381Y-95833333D01*
X170312381Y-95928571D01*
X170264762Y-96071429D01*
X170169524Y-96166667D01*
X170074286Y-96214286D01*
X169883810Y-96261905D01*
X169740952Y-96261905D01*
X169550476Y-96214286D01*
X169455238Y-96166667D01*
X169360000Y-96071429D01*
X169312381Y-95928571D01*
X169312381Y-95833333D01*
X169360000Y-95690476D01*
X169407619Y-95642857D01*
X169312381Y-95309524D02*
X169312381Y-94690476D01*
X169693333Y-95023810D01*
X169693333Y-94880952D01*
X169740952Y-94785714D01*
X169788571Y-94738095D01*
X169883810Y-94690476D01*
X170121905Y-94690476D01*
X170217143Y-94738095D01*
X170264762Y-94785714D01*
X170312381Y-94880952D01*
X170312381Y-95166667D01*
X170264762Y-95261905D01*
X170217143Y-95309524D01*
X169407619Y-94309524D02*
X169360000Y-94261905D01*
X169312381Y-94166667D01*
X169312381Y-93928571D01*
X169360000Y-93833333D01*
X169407619Y-93785714D01*
X169502857Y-93738095D01*
X169598095Y-93738095D01*
X169740952Y-93785714D01*
X170312381Y-94357143D01*
X170312381Y-93738095D01*
X187717143Y-109392857D02*
X187764762Y-109440476D01*
X187812381Y-109583333D01*
X187812381Y-109678571D01*
X187764762Y-109821429D01*
X187669524Y-109916667D01*
X187574286Y-109964286D01*
X187383810Y-110011905D01*
X187240952Y-110011905D01*
X187050476Y-109964286D01*
X186955238Y-109916667D01*
X186860000Y-109821429D01*
X186812381Y-109678571D01*
X186812381Y-109583333D01*
X186860000Y-109440476D01*
X186907619Y-109392857D01*
X186812381Y-109059524D02*
X186812381Y-108440476D01*
X187193333Y-108773810D01*
X187193333Y-108630952D01*
X187240952Y-108535714D01*
X187288571Y-108488095D01*
X187383810Y-108440476D01*
X187621905Y-108440476D01*
X187717143Y-108488095D01*
X187764762Y-108535714D01*
X187812381Y-108630952D01*
X187812381Y-108916667D01*
X187764762Y-109011905D01*
X187717143Y-109059524D01*
X186812381Y-107535714D02*
X186812381Y-108011905D01*
X187288571Y-108059524D01*
X187240952Y-108011905D01*
X187193333Y-107916667D01*
X187193333Y-107678571D01*
X187240952Y-107583333D01*
X187288571Y-107535714D01*
X187383810Y-107488095D01*
X187621905Y-107488095D01*
X187717143Y-107535714D01*
X187764762Y-107583333D01*
X187812381Y-107678571D01*
X187812381Y-107916667D01*
X187764762Y-108011905D01*
X187717143Y-108059524D01*
X166312381Y-94142857D02*
X165836190Y-94476191D01*
X166312381Y-94714286D02*
X165312381Y-94714286D01*
X165312381Y-94333333D01*
X165360000Y-94238095D01*
X165407619Y-94190476D01*
X165502857Y-94142857D01*
X165645714Y-94142857D01*
X165740952Y-94190476D01*
X165788571Y-94238095D01*
X165836190Y-94333333D01*
X165836190Y-94714286D01*
X165645714Y-93285714D02*
X166312381Y-93285714D01*
X165264762Y-93523810D02*
X165979048Y-93761905D01*
X165979048Y-93142857D01*
X165312381Y-92571429D02*
X165312381Y-92476190D01*
X165360000Y-92380952D01*
X165407619Y-92333333D01*
X165502857Y-92285714D01*
X165693333Y-92238095D01*
X165931429Y-92238095D01*
X166121905Y-92285714D01*
X166217143Y-92333333D01*
X166264762Y-92380952D01*
X166312381Y-92476190D01*
X166312381Y-92571429D01*
X166264762Y-92666667D01*
X166217143Y-92714286D01*
X166121905Y-92761905D01*
X165931429Y-92809524D01*
X165693333Y-92809524D01*
X165502857Y-92761905D01*
X165407619Y-92714286D01*
X165360000Y-92666667D01*
X165312381Y-92571429D01*
X161312381Y-109142857D02*
X160836190Y-109476191D01*
X161312381Y-109714286D02*
X160312381Y-109714286D01*
X160312381Y-109333333D01*
X160360000Y-109238095D01*
X160407619Y-109190476D01*
X160502857Y-109142857D01*
X160645714Y-109142857D01*
X160740952Y-109190476D01*
X160788571Y-109238095D01*
X160836190Y-109333333D01*
X160836190Y-109714286D01*
X160645714Y-108285714D02*
X161312381Y-108285714D01*
X160264762Y-108523810D02*
X160979048Y-108761905D01*
X160979048Y-108142857D01*
X161312381Y-107238095D02*
X161312381Y-107809524D01*
X161312381Y-107523810D02*
X160312381Y-107523810D01*
X160455238Y-107619048D01*
X160550476Y-107714286D01*
X160598095Y-107809524D01*
X162967143Y-92952381D02*
X162633809Y-92476190D01*
X162395714Y-92952381D02*
X162395714Y-91952381D01*
X162776667Y-91952381D01*
X162871905Y-92000000D01*
X162919524Y-92047619D01*
X162967143Y-92142857D01*
X162967143Y-92285714D01*
X162919524Y-92380952D01*
X162871905Y-92428571D01*
X162776667Y-92476190D01*
X162395714Y-92476190D01*
X163824286Y-92285714D02*
X163824286Y-92952381D01*
X163586190Y-91904762D02*
X163348095Y-92619048D01*
X163967143Y-92619048D01*
X164300476Y-92047619D02*
X164348095Y-92000000D01*
X164443333Y-91952381D01*
X164681429Y-91952381D01*
X164776667Y-92000000D01*
X164824286Y-92047619D01*
X164871905Y-92142857D01*
X164871905Y-92238095D01*
X164824286Y-92380952D01*
X164252857Y-92952381D01*
X164871905Y-92952381D01*
X189062381Y-109892857D02*
X188586190Y-110226191D01*
X189062381Y-110464286D02*
X188062381Y-110464286D01*
X188062381Y-110083333D01*
X188110000Y-109988095D01*
X188157619Y-109940476D01*
X188252857Y-109892857D01*
X188395714Y-109892857D01*
X188490952Y-109940476D01*
X188538571Y-109988095D01*
X188586190Y-110083333D01*
X188586190Y-110464286D01*
X188395714Y-109035714D02*
X189062381Y-109035714D01*
X188014762Y-109273810D02*
X188729048Y-109511905D01*
X188729048Y-108892857D01*
X188062381Y-108083333D02*
X188062381Y-108273810D01*
X188110000Y-108369048D01*
X188157619Y-108416667D01*
X188300476Y-108511905D01*
X188490952Y-108559524D01*
X188871905Y-108559524D01*
X188967143Y-108511905D01*
X189014762Y-108464286D01*
X189062381Y-108369048D01*
X189062381Y-108178571D01*
X189014762Y-108083333D01*
X188967143Y-108035714D01*
X188871905Y-107988095D01*
X188633810Y-107988095D01*
X188538571Y-108035714D01*
X188490952Y-108083333D01*
X188443333Y-108178571D01*
X188443333Y-108369048D01*
X188490952Y-108464286D01*
X188538571Y-108511905D01*
X188633810Y-108559524D01*
X171562381Y-101738095D02*
X172371905Y-101738095D01*
X172467143Y-101690476D01*
X172514762Y-101642857D01*
X172562381Y-101547619D01*
X172562381Y-101357142D01*
X172514762Y-101261904D01*
X172467143Y-101214285D01*
X172371905Y-101166666D01*
X171562381Y-101166666D01*
X172562381Y-100166666D02*
X172562381Y-100738095D01*
X172562381Y-100452381D02*
X171562381Y-100452381D01*
X171705238Y-100547619D01*
X171800476Y-100642857D01*
X171848095Y-100738095D01*
X171657619Y-99785714D02*
X171610000Y-99738095D01*
X171562381Y-99642857D01*
X171562381Y-99404761D01*
X171610000Y-99309523D01*
X171657619Y-99261904D01*
X171752857Y-99214285D01*
X171848095Y-99214285D01*
X171990952Y-99261904D01*
X172562381Y-99833333D01*
X172562381Y-99214285D01*
X192512381Y-112404762D02*
X193512381Y-112166667D01*
X192798095Y-111976190D01*
X193512381Y-111785714D01*
X192512381Y-111547619D01*
X193512381Y-110642857D02*
X193512381Y-111214286D01*
X193512381Y-110928572D02*
X192512381Y-110928572D01*
X192655238Y-111023810D01*
X192750476Y-111119048D01*
X192798095Y-111214286D01*
X193612381Y-64004762D02*
X194612381Y-63766667D01*
X193898095Y-63576190D01*
X194612381Y-63385714D01*
X193612381Y-63147619D01*
X193707619Y-62814286D02*
X193660000Y-62766667D01*
X193612381Y-62671429D01*
X193612381Y-62433333D01*
X193660000Y-62338095D01*
X193707619Y-62290476D01*
X193802857Y-62242857D01*
X193898095Y-62242857D01*
X194040952Y-62290476D01*
X194612381Y-62861905D01*
X194612381Y-62242857D01*
X154542381Y-146096762D02*
X155542381Y-145858667D01*
X154828095Y-145668190D01*
X155542381Y-145477714D01*
X154542381Y-145239619D01*
X154542381Y-144953905D02*
X154542381Y-144334857D01*
X154923333Y-144668191D01*
X154923333Y-144525333D01*
X154970952Y-144430095D01*
X155018571Y-144382476D01*
X155113810Y-144334857D01*
X155351905Y-144334857D01*
X155447143Y-144382476D01*
X155494762Y-144430095D01*
X155542381Y-144525333D01*
X155542381Y-144811048D01*
X155494762Y-144906286D01*
X155447143Y-144953905D01*
X151152381Y-91396762D02*
X152152381Y-91158667D01*
X151438095Y-90968190D01*
X152152381Y-90777714D01*
X151152381Y-90539619D01*
X151485714Y-89730095D02*
X152152381Y-89730095D01*
X151104762Y-89968191D02*
X151819048Y-90206286D01*
X151819048Y-89587238D01*
X176302857Y-78324286D02*
X177274286Y-78324286D01*
X177388571Y-78267143D01*
X177445714Y-78210000D01*
X177502857Y-78095714D01*
X177502857Y-77867143D01*
X177445714Y-77752857D01*
X177388571Y-77695714D01*
X177274286Y-77638571D01*
X176302857Y-77638571D01*
X176302857Y-76552857D02*
X176302857Y-76781428D01*
X176360000Y-76895714D01*
X176417143Y-76952857D01*
X176588571Y-77067143D01*
X176817143Y-77124286D01*
X177274286Y-77124286D01*
X177388571Y-77067143D01*
X177445714Y-77010000D01*
X177502857Y-76895714D01*
X177502857Y-76667143D01*
X177445714Y-76552857D01*
X177388571Y-76495714D01*
X177274286Y-76438571D01*
X176988571Y-76438571D01*
X176874286Y-76495714D01*
X176817143Y-76552857D01*
X176760000Y-76667143D01*
X176760000Y-76895714D01*
X176817143Y-77010000D01*
X176874286Y-77067143D01*
X176988571Y-77124286D01*
X168432857Y-49254286D02*
X169404286Y-49254286D01*
X169518571Y-49197143D01*
X169575714Y-49140000D01*
X169632857Y-49025714D01*
X169632857Y-48797143D01*
X169575714Y-48682857D01*
X169518571Y-48625714D01*
X169404286Y-48568571D01*
X168432857Y-48568571D01*
X169632857Y-47368571D02*
X169632857Y-48054286D01*
X169632857Y-47711428D02*
X168432857Y-47711428D01*
X168604286Y-47825714D01*
X168718571Y-47940000D01*
X168775714Y-48054286D01*
X159402857Y-51134286D02*
X160374286Y-51134286D01*
X160488571Y-51077143D01*
X160545714Y-51020000D01*
X160602857Y-50905714D01*
X160602857Y-50677143D01*
X160545714Y-50562857D01*
X160488571Y-50505714D01*
X160374286Y-50448571D01*
X159402857Y-50448571D01*
X159402857Y-49305714D02*
X159402857Y-49877143D01*
X159974286Y-49934286D01*
X159917143Y-49877143D01*
X159860000Y-49762857D01*
X159860000Y-49477143D01*
X159917143Y-49362857D01*
X159974286Y-49305714D01*
X160088571Y-49248571D01*
X160374286Y-49248571D01*
X160488571Y-49305714D01*
X160545714Y-49362857D01*
X160602857Y-49477143D01*
X160602857Y-49762857D01*
X160545714Y-49877143D01*
X160488571Y-49934286D01*
X177582857Y-49784286D02*
X178554286Y-49784286D01*
X178668571Y-49727143D01*
X178725714Y-49670000D01*
X178782857Y-49555714D01*
X178782857Y-49327143D01*
X178725714Y-49212857D01*
X178668571Y-49155714D01*
X178554286Y-49098571D01*
X177582857Y-49098571D01*
X177982857Y-48012857D02*
X178782857Y-48012857D01*
X177525714Y-48298571D02*
X178382857Y-48584286D01*
X178382857Y-47841428D01*
X161445714Y-129092857D02*
X161445714Y-130064286D01*
X161502857Y-130178571D01*
X161560000Y-130235714D01*
X161674286Y-130292857D01*
X161902857Y-130292857D01*
X162017143Y-130235714D01*
X162074286Y-130178571D01*
X162131429Y-130064286D01*
X162131429Y-129092857D01*
X162588572Y-129092857D02*
X163388572Y-129092857D01*
X162874286Y-130292857D01*
X164695714Y-132342857D02*
X164695714Y-133314286D01*
X164752857Y-133428571D01*
X164810000Y-133485714D01*
X164924286Y-133542857D01*
X165152857Y-133542857D01*
X165267143Y-133485714D01*
X165324286Y-133428571D01*
X165381429Y-133314286D01*
X165381429Y-132342857D01*
X166124286Y-132857143D02*
X166010000Y-132800000D01*
X165952857Y-132742857D01*
X165895714Y-132628571D01*
X165895714Y-132571429D01*
X165952857Y-132457143D01*
X166010000Y-132400000D01*
X166124286Y-132342857D01*
X166352857Y-132342857D01*
X166467143Y-132400000D01*
X166524286Y-132457143D01*
X166581429Y-132571429D01*
X166581429Y-132628571D01*
X166524286Y-132742857D01*
X166467143Y-132800000D01*
X166352857Y-132857143D01*
X166124286Y-132857143D01*
X166010000Y-132914286D01*
X165952857Y-132971429D01*
X165895714Y-133085714D01*
X165895714Y-133314286D01*
X165952857Y-133428571D01*
X166010000Y-133485714D01*
X166124286Y-133542857D01*
X166352857Y-133542857D01*
X166467143Y-133485714D01*
X166524286Y-133428571D01*
X166581429Y-133314286D01*
X166581429Y-133085714D01*
X166524286Y-132971429D01*
X166467143Y-132914286D01*
X166352857Y-132857143D01*
X177562381Y-44833333D02*
X178276667Y-44833333D01*
X178419524Y-44880953D01*
X178514762Y-44976191D01*
X178562381Y-45119048D01*
X178562381Y-45214286D01*
X178562381Y-43833333D02*
X178562381Y-44404762D01*
X178562381Y-44119048D02*
X177562381Y-44119048D01*
X177705238Y-44214286D01*
X177800476Y-44309524D01*
X177848095Y-44404762D01*
X177062381Y-73833333D02*
X177776667Y-73833333D01*
X177919524Y-73880953D01*
X178014762Y-73976191D01*
X178062381Y-74119048D01*
X178062381Y-74214286D01*
X177395714Y-72928571D02*
X178062381Y-72928571D01*
X177014762Y-73166667D02*
X177729048Y-73404762D01*
X177729048Y-72785714D01*
X195276667Y-133452381D02*
X195276667Y-134166667D01*
X195229047Y-134309524D01*
X195133809Y-134404762D01*
X194990952Y-134452381D01*
X194895714Y-134452381D01*
X195705238Y-133547619D02*
X195752857Y-133500000D01*
X195848095Y-133452381D01*
X196086191Y-133452381D01*
X196181429Y-133500000D01*
X196229048Y-133547619D01*
X196276667Y-133642857D01*
X196276667Y-133738095D01*
X196229048Y-133880952D01*
X195657619Y-134452381D01*
X196276667Y-134452381D01*
X180467143Y-144857143D02*
X180419524Y-144904762D01*
X180276667Y-144952381D01*
X180181429Y-144952381D01*
X180038571Y-144904762D01*
X179943333Y-144809524D01*
X179895714Y-144714286D01*
X179848095Y-144523810D01*
X179848095Y-144380952D01*
X179895714Y-144190476D01*
X179943333Y-144095238D01*
X180038571Y-144000000D01*
X180181429Y-143952381D01*
X180276667Y-143952381D01*
X180419524Y-144000000D01*
X180467143Y-144047619D01*
X181419524Y-144952381D02*
X180848095Y-144952381D01*
X181133809Y-144952381D02*
X181133809Y-143952381D01*
X181038571Y-144095238D01*
X180943333Y-144190476D01*
X180848095Y-144238095D01*
X181752857Y-143952381D02*
X182419524Y-143952381D01*
X181990952Y-144952381D01*
X177217143Y-145857143D02*
X177169524Y-145904762D01*
X177026667Y-145952381D01*
X176931429Y-145952381D01*
X176788571Y-145904762D01*
X176693333Y-145809524D01*
X176645714Y-145714286D01*
X176598095Y-145523810D01*
X176598095Y-145380952D01*
X176645714Y-145190476D01*
X176693333Y-145095238D01*
X176788571Y-145000000D01*
X176931429Y-144952381D01*
X177026667Y-144952381D01*
X177169524Y-145000000D01*
X177217143Y-145047619D01*
X178169524Y-145952381D02*
X177598095Y-145952381D01*
X177883809Y-145952381D02*
X177883809Y-144952381D01*
X177788571Y-145095238D01*
X177693333Y-145190476D01*
X177598095Y-145238095D01*
X178740952Y-145380952D02*
X178645714Y-145333333D01*
X178598095Y-145285714D01*
X178550476Y-145190476D01*
X178550476Y-145142857D01*
X178598095Y-145047619D01*
X178645714Y-145000000D01*
X178740952Y-144952381D01*
X178931429Y-144952381D01*
X179026667Y-145000000D01*
X179074286Y-145047619D01*
X179121905Y-145142857D01*
X179121905Y-145190476D01*
X179074286Y-145285714D01*
X179026667Y-145333333D01*
X178931429Y-145380952D01*
X178740952Y-145380952D01*
X178645714Y-145428571D01*
X178598095Y-145476190D01*
X178550476Y-145571429D01*
X178550476Y-145761905D01*
X178598095Y-145857143D01*
X178645714Y-145904762D01*
X178740952Y-145952381D01*
X178931429Y-145952381D01*
X179026667Y-145904762D01*
X179074286Y-145857143D01*
X179121905Y-145761905D01*
X179121905Y-145571429D01*
X179074286Y-145476190D01*
X179026667Y-145428571D01*
X178931429Y-145380952D01*
X189967143Y-135607143D02*
X189919524Y-135654762D01*
X189776667Y-135702381D01*
X189681429Y-135702381D01*
X189538571Y-135654762D01*
X189443333Y-135559524D01*
X189395714Y-135464286D01*
X189348095Y-135273810D01*
X189348095Y-135130952D01*
X189395714Y-134940476D01*
X189443333Y-134845238D01*
X189538571Y-134750000D01*
X189681429Y-134702381D01*
X189776667Y-134702381D01*
X189919524Y-134750000D01*
X189967143Y-134797619D01*
X190919524Y-135702381D02*
X190348095Y-135702381D01*
X190633809Y-135702381D02*
X190633809Y-134702381D01*
X190538571Y-134845238D01*
X190443333Y-134940476D01*
X190348095Y-134988095D01*
X191395714Y-135702381D02*
X191586190Y-135702381D01*
X191681429Y-135654762D01*
X191729048Y-135607143D01*
X191824286Y-135464286D01*
X191871905Y-135273810D01*
X191871905Y-134892857D01*
X191824286Y-134797619D01*
X191776667Y-134750000D01*
X191681429Y-134702381D01*
X191490952Y-134702381D01*
X191395714Y-134750000D01*
X191348095Y-134797619D01*
X191300476Y-134892857D01*
X191300476Y-135130952D01*
X191348095Y-135226190D01*
X191395714Y-135273810D01*
X191490952Y-135321429D01*
X191681429Y-135321429D01*
X191776667Y-135273810D01*
X191824286Y-135226190D01*
X191871905Y-135130952D01*
X182717143Y-153607143D02*
X182669524Y-153654762D01*
X182526667Y-153702381D01*
X182431429Y-153702381D01*
X182288571Y-153654762D01*
X182193333Y-153559524D01*
X182145714Y-153464286D01*
X182098095Y-153273810D01*
X182098095Y-153130952D01*
X182145714Y-152940476D01*
X182193333Y-152845238D01*
X182288571Y-152750000D01*
X182431429Y-152702381D01*
X182526667Y-152702381D01*
X182669524Y-152750000D01*
X182717143Y-152797619D01*
X183098095Y-152797619D02*
X183145714Y-152750000D01*
X183240952Y-152702381D01*
X183479048Y-152702381D01*
X183574286Y-152750000D01*
X183621905Y-152797619D01*
X183669524Y-152892857D01*
X183669524Y-152988095D01*
X183621905Y-153130952D01*
X183050476Y-153702381D01*
X183669524Y-153702381D01*
X184288571Y-152702381D02*
X184383810Y-152702381D01*
X184479048Y-152750000D01*
X184526667Y-152797619D01*
X184574286Y-152892857D01*
X184621905Y-153083333D01*
X184621905Y-153321429D01*
X184574286Y-153511905D01*
X184526667Y-153607143D01*
X184479048Y-153654762D01*
X184383810Y-153702381D01*
X184288571Y-153702381D01*
X184193333Y-153654762D01*
X184145714Y-153607143D01*
X184098095Y-153511905D01*
X184050476Y-153321429D01*
X184050476Y-153083333D01*
X184098095Y-152892857D01*
X184145714Y-152797619D01*
X184193333Y-152750000D01*
X184288571Y-152702381D01*
X179317143Y-150892857D02*
X179364762Y-150940476D01*
X179412381Y-151083333D01*
X179412381Y-151178571D01*
X179364762Y-151321429D01*
X179269524Y-151416667D01*
X179174286Y-151464286D01*
X178983810Y-151511905D01*
X178840952Y-151511905D01*
X178650476Y-151464286D01*
X178555238Y-151416667D01*
X178460000Y-151321429D01*
X178412381Y-151178571D01*
X178412381Y-151083333D01*
X178460000Y-150940476D01*
X178507619Y-150892857D01*
X178507619Y-150511905D02*
X178460000Y-150464286D01*
X178412381Y-150369048D01*
X178412381Y-150130952D01*
X178460000Y-150035714D01*
X178507619Y-149988095D01*
X178602857Y-149940476D01*
X178698095Y-149940476D01*
X178840952Y-149988095D01*
X179412381Y-150559524D01*
X179412381Y-149940476D01*
X179412381Y-148988095D02*
X179412381Y-149559524D01*
X179412381Y-149273810D02*
X178412381Y-149273810D01*
X178555238Y-149369048D01*
X178650476Y-149464286D01*
X178698095Y-149559524D01*
X189967143Y-137107143D02*
X189919524Y-137154762D01*
X189776667Y-137202381D01*
X189681429Y-137202381D01*
X189538571Y-137154762D01*
X189443333Y-137059524D01*
X189395714Y-136964286D01*
X189348095Y-136773810D01*
X189348095Y-136630952D01*
X189395714Y-136440476D01*
X189443333Y-136345238D01*
X189538571Y-136250000D01*
X189681429Y-136202381D01*
X189776667Y-136202381D01*
X189919524Y-136250000D01*
X189967143Y-136297619D01*
X190300476Y-136202381D02*
X190919524Y-136202381D01*
X190586190Y-136583333D01*
X190729048Y-136583333D01*
X190824286Y-136630952D01*
X190871905Y-136678571D01*
X190919524Y-136773810D01*
X190919524Y-137011905D01*
X190871905Y-137107143D01*
X190824286Y-137154762D01*
X190729048Y-137202381D01*
X190443333Y-137202381D01*
X190348095Y-137154762D01*
X190300476Y-137107143D01*
X191252857Y-136202381D02*
X191919524Y-136202381D01*
X191490952Y-137202381D01*
X178467143Y-134607143D02*
X178419524Y-134654762D01*
X178276667Y-134702381D01*
X178181429Y-134702381D01*
X178038571Y-134654762D01*
X177943333Y-134559524D01*
X177895714Y-134464286D01*
X177848095Y-134273810D01*
X177848095Y-134130952D01*
X177895714Y-133940476D01*
X177943333Y-133845238D01*
X178038571Y-133750000D01*
X178181429Y-133702381D01*
X178276667Y-133702381D01*
X178419524Y-133750000D01*
X178467143Y-133797619D01*
X178800476Y-133702381D02*
X179419524Y-133702381D01*
X179086190Y-134083333D01*
X179229048Y-134083333D01*
X179324286Y-134130952D01*
X179371905Y-134178571D01*
X179419524Y-134273810D01*
X179419524Y-134511905D01*
X179371905Y-134607143D01*
X179324286Y-134654762D01*
X179229048Y-134702381D01*
X178943333Y-134702381D01*
X178848095Y-134654762D01*
X178800476Y-134607143D01*
X179895714Y-134702381D02*
X180086190Y-134702381D01*
X180181429Y-134654762D01*
X180229048Y-134607143D01*
X180324286Y-134464286D01*
X180371905Y-134273810D01*
X180371905Y-133892857D01*
X180324286Y-133797619D01*
X180276667Y-133750000D01*
X180181429Y-133702381D01*
X179990952Y-133702381D01*
X179895714Y-133750000D01*
X179848095Y-133797619D01*
X179800476Y-133892857D01*
X179800476Y-134130952D01*
X179848095Y-134226190D01*
X179895714Y-134273810D01*
X179990952Y-134321429D01*
X180181429Y-134321429D01*
X180276667Y-134273810D01*
X180324286Y-134226190D01*
X180371905Y-134130952D01*
X191217143Y-114357143D02*
X191169524Y-114404762D01*
X191026667Y-114452381D01*
X190931429Y-114452381D01*
X190788571Y-114404762D01*
X190693333Y-114309524D01*
X190645714Y-114214286D01*
X190598095Y-114023810D01*
X190598095Y-113880952D01*
X190645714Y-113690476D01*
X190693333Y-113595238D01*
X190788571Y-113500000D01*
X190931429Y-113452381D01*
X191026667Y-113452381D01*
X191169524Y-113500000D01*
X191217143Y-113547619D01*
X192074286Y-113785714D02*
X192074286Y-114452381D01*
X191836190Y-113404762D02*
X191598095Y-114119048D01*
X192217143Y-114119048D01*
X192788571Y-113452381D02*
X192883810Y-113452381D01*
X192979048Y-113500000D01*
X193026667Y-113547619D01*
X193074286Y-113642857D01*
X193121905Y-113833333D01*
X193121905Y-114071429D01*
X193074286Y-114261905D01*
X193026667Y-114357143D01*
X192979048Y-114404762D01*
X192883810Y-114452381D01*
X192788571Y-114452381D01*
X192693333Y-114404762D01*
X192645714Y-114357143D01*
X192598095Y-114261905D01*
X192550476Y-114071429D01*
X192550476Y-113833333D01*
X192598095Y-113642857D01*
X192645714Y-113547619D01*
X192693333Y-113500000D01*
X192788571Y-113452381D01*
X186717143Y-65142857D02*
X186764762Y-65190476D01*
X186812381Y-65333333D01*
X186812381Y-65428571D01*
X186764762Y-65571429D01*
X186669524Y-65666667D01*
X186574286Y-65714286D01*
X186383810Y-65761905D01*
X186240952Y-65761905D01*
X186050476Y-65714286D01*
X185955238Y-65666667D01*
X185860000Y-65571429D01*
X185812381Y-65428571D01*
X185812381Y-65333333D01*
X185860000Y-65190476D01*
X185907619Y-65142857D01*
X186145714Y-64285714D02*
X186812381Y-64285714D01*
X185764762Y-64523810D02*
X186479048Y-64761905D01*
X186479048Y-64142857D01*
X186812381Y-63238095D02*
X186812381Y-63809524D01*
X186812381Y-63523810D02*
X185812381Y-63523810D01*
X185955238Y-63619048D01*
X186050476Y-63714286D01*
X186098095Y-63809524D01*
X180967143Y-62392857D02*
X181014762Y-62440476D01*
X181062381Y-62583333D01*
X181062381Y-62678571D01*
X181014762Y-62821429D01*
X180919524Y-62916667D01*
X180824286Y-62964286D01*
X180633810Y-63011905D01*
X180490952Y-63011905D01*
X180300476Y-62964286D01*
X180205238Y-62916667D01*
X180110000Y-62821429D01*
X180062381Y-62678571D01*
X180062381Y-62583333D01*
X180110000Y-62440476D01*
X180157619Y-62392857D01*
X180395714Y-61535714D02*
X181062381Y-61535714D01*
X180014762Y-61773810D02*
X180729048Y-62011905D01*
X180729048Y-61392857D01*
X180157619Y-61059524D02*
X180110000Y-61011905D01*
X180062381Y-60916667D01*
X180062381Y-60678571D01*
X180110000Y-60583333D01*
X180157619Y-60535714D01*
X180252857Y-60488095D01*
X180348095Y-60488095D01*
X180490952Y-60535714D01*
X181062381Y-61107143D01*
X181062381Y-60488095D01*
X198812381Y-152416666D02*
X198812381Y-152892857D01*
X197812381Y-152892857D01*
X198812381Y-151559523D02*
X198812381Y-152130952D01*
X198812381Y-151845238D02*
X197812381Y-151845238D01*
X197955238Y-151940476D01*
X198050476Y-152035714D01*
X198098095Y-152130952D01*
X167062381Y-109892857D02*
X166586190Y-110226191D01*
X167062381Y-110464286D02*
X166062381Y-110464286D01*
X166062381Y-110083333D01*
X166110000Y-109988095D01*
X166157619Y-109940476D01*
X166252857Y-109892857D01*
X166395714Y-109892857D01*
X166490952Y-109940476D01*
X166538571Y-109988095D01*
X166586190Y-110083333D01*
X166586190Y-110464286D01*
X166157619Y-109511905D02*
X166110000Y-109464286D01*
X166062381Y-109369048D01*
X166062381Y-109130952D01*
X166110000Y-109035714D01*
X166157619Y-108988095D01*
X166252857Y-108940476D01*
X166348095Y-108940476D01*
X166490952Y-108988095D01*
X167062381Y-109559524D01*
X167062381Y-108940476D01*
X166062381Y-108083333D02*
X166062381Y-108273810D01*
X166110000Y-108369048D01*
X166157619Y-108416667D01*
X166300476Y-108511905D01*
X166490952Y-108559524D01*
X166871905Y-108559524D01*
X166967143Y-108511905D01*
X167014762Y-108464286D01*
X167062381Y-108369048D01*
X167062381Y-108178571D01*
X167014762Y-108083333D01*
X166967143Y-108035714D01*
X166871905Y-107988095D01*
X166633810Y-107988095D01*
X166538571Y-108035714D01*
X166490952Y-108083333D01*
X166443333Y-108178571D01*
X166443333Y-108369048D01*
X166490952Y-108464286D01*
X166538571Y-108511905D01*
X166633810Y-108559524D01*
X189967143Y-134202381D02*
X189633809Y-133726190D01*
X189395714Y-134202381D02*
X189395714Y-133202381D01*
X189776667Y-133202381D01*
X189871905Y-133250000D01*
X189919524Y-133297619D01*
X189967143Y-133392857D01*
X189967143Y-133535714D01*
X189919524Y-133630952D01*
X189871905Y-133678571D01*
X189776667Y-133726190D01*
X189395714Y-133726190D01*
X190348095Y-133297619D02*
X190395714Y-133250000D01*
X190490952Y-133202381D01*
X190729048Y-133202381D01*
X190824286Y-133250000D01*
X190871905Y-133297619D01*
X190919524Y-133392857D01*
X190919524Y-133488095D01*
X190871905Y-133630952D01*
X190300476Y-134202381D01*
X190919524Y-134202381D01*
X191252857Y-133202381D02*
X191919524Y-133202381D01*
X191490952Y-134202381D01*
X175217143Y-138702381D02*
X174883809Y-138226190D01*
X174645714Y-138702381D02*
X174645714Y-137702381D01*
X175026667Y-137702381D01*
X175121905Y-137750000D01*
X175169524Y-137797619D01*
X175217143Y-137892857D01*
X175217143Y-138035714D01*
X175169524Y-138130952D01*
X175121905Y-138178571D01*
X175026667Y-138226190D01*
X174645714Y-138226190D01*
X175598095Y-137797619D02*
X175645714Y-137750000D01*
X175740952Y-137702381D01*
X175979048Y-137702381D01*
X176074286Y-137750000D01*
X176121905Y-137797619D01*
X176169524Y-137892857D01*
X176169524Y-137988095D01*
X176121905Y-138130952D01*
X175550476Y-138702381D01*
X176169524Y-138702381D01*
X176740952Y-138130952D02*
X176645714Y-138083333D01*
X176598095Y-138035714D01*
X176550476Y-137940476D01*
X176550476Y-137892857D01*
X176598095Y-137797619D01*
X176645714Y-137750000D01*
X176740952Y-137702381D01*
X176931429Y-137702381D01*
X177026667Y-137750000D01*
X177074286Y-137797619D01*
X177121905Y-137892857D01*
X177121905Y-137940476D01*
X177074286Y-138035714D01*
X177026667Y-138083333D01*
X176931429Y-138130952D01*
X176740952Y-138130952D01*
X176645714Y-138178571D01*
X176598095Y-138226190D01*
X176550476Y-138321429D01*
X176550476Y-138511905D01*
X176598095Y-138607143D01*
X176645714Y-138654762D01*
X176740952Y-138702381D01*
X176931429Y-138702381D01*
X177026667Y-138654762D01*
X177074286Y-138607143D01*
X177121905Y-138511905D01*
X177121905Y-138321429D01*
X177074286Y-138226190D01*
X177026667Y-138178571D01*
X176931429Y-138130952D01*
X182167143Y-134452381D02*
X181833809Y-133976190D01*
X181595714Y-134452381D02*
X181595714Y-133452381D01*
X181976667Y-133452381D01*
X182071905Y-133500000D01*
X182119524Y-133547619D01*
X182167143Y-133642857D01*
X182167143Y-133785714D01*
X182119524Y-133880952D01*
X182071905Y-133928571D01*
X181976667Y-133976190D01*
X181595714Y-133976190D01*
X182548095Y-133547619D02*
X182595714Y-133500000D01*
X182690952Y-133452381D01*
X182929048Y-133452381D01*
X183024286Y-133500000D01*
X183071905Y-133547619D01*
X183119524Y-133642857D01*
X183119524Y-133738095D01*
X183071905Y-133880952D01*
X182500476Y-134452381D01*
X183119524Y-134452381D01*
X183595714Y-134452381D02*
X183786190Y-134452381D01*
X183881429Y-134404762D01*
X183929048Y-134357143D01*
X184024286Y-134214286D01*
X184071905Y-134023810D01*
X184071905Y-133642857D01*
X184024286Y-133547619D01*
X183976667Y-133500000D01*
X183881429Y-133452381D01*
X183690952Y-133452381D01*
X183595714Y-133500000D01*
X183548095Y-133547619D01*
X183500476Y-133642857D01*
X183500476Y-133880952D01*
X183548095Y-133976190D01*
X183595714Y-134023810D01*
X183690952Y-134071429D01*
X183881429Y-134071429D01*
X183976667Y-134023810D01*
X184024286Y-133976190D01*
X184071905Y-133880952D01*
X179312381Y-111392857D02*
X178836190Y-111726191D01*
X179312381Y-111964286D02*
X178312381Y-111964286D01*
X178312381Y-111583333D01*
X178360000Y-111488095D01*
X178407619Y-111440476D01*
X178502857Y-111392857D01*
X178645714Y-111392857D01*
X178740952Y-111440476D01*
X178788571Y-111488095D01*
X178836190Y-111583333D01*
X178836190Y-111964286D01*
X178312381Y-111059524D02*
X178312381Y-110440476D01*
X178693333Y-110773810D01*
X178693333Y-110630952D01*
X178740952Y-110535714D01*
X178788571Y-110488095D01*
X178883810Y-110440476D01*
X179121905Y-110440476D01*
X179217143Y-110488095D01*
X179264762Y-110535714D01*
X179312381Y-110630952D01*
X179312381Y-110916667D01*
X179264762Y-111011905D01*
X179217143Y-111059524D01*
X178312381Y-109821429D02*
X178312381Y-109726190D01*
X178360000Y-109630952D01*
X178407619Y-109583333D01*
X178502857Y-109535714D01*
X178693333Y-109488095D01*
X178931429Y-109488095D01*
X179121905Y-109535714D01*
X179217143Y-109583333D01*
X179264762Y-109630952D01*
X179312381Y-109726190D01*
X179312381Y-109821429D01*
X179264762Y-109916667D01*
X179217143Y-109964286D01*
X179121905Y-110011905D01*
X178931429Y-110059524D01*
X178693333Y-110059524D01*
X178502857Y-110011905D01*
X178407619Y-109964286D01*
X178360000Y-109916667D01*
X178312381Y-109821429D01*
X179312381Y-114345004D02*
X178836190Y-114678338D01*
X179312381Y-114916433D02*
X178312381Y-114916433D01*
X178312381Y-114535480D01*
X178360000Y-114440242D01*
X178407619Y-114392623D01*
X178502857Y-114345004D01*
X178645714Y-114345004D01*
X178740952Y-114392623D01*
X178788571Y-114440242D01*
X178836190Y-114535480D01*
X178836190Y-114916433D01*
X178312381Y-114011671D02*
X178312381Y-113392623D01*
X178693333Y-113725957D01*
X178693333Y-113583099D01*
X178740952Y-113487861D01*
X178788571Y-113440242D01*
X178883810Y-113392623D01*
X179121905Y-113392623D01*
X179217143Y-113440242D01*
X179264762Y-113487861D01*
X179312381Y-113583099D01*
X179312381Y-113868814D01*
X179264762Y-113964052D01*
X179217143Y-114011671D01*
X179312381Y-112440242D02*
X179312381Y-113011671D01*
X179312381Y-112725957D02*
X178312381Y-112725957D01*
X178455238Y-112821195D01*
X178550476Y-112916433D01*
X178598095Y-113011671D01*
X181967143Y-114952381D02*
X181633809Y-114476190D01*
X181395714Y-114952381D02*
X181395714Y-113952381D01*
X181776667Y-113952381D01*
X181871905Y-114000000D01*
X181919524Y-114047619D01*
X181967143Y-114142857D01*
X181967143Y-114285714D01*
X181919524Y-114380952D01*
X181871905Y-114428571D01*
X181776667Y-114476190D01*
X181395714Y-114476190D01*
X182824286Y-114285714D02*
X182824286Y-114952381D01*
X182586190Y-113904762D02*
X182348095Y-114619048D01*
X182967143Y-114619048D01*
X183252857Y-113952381D02*
X183919524Y-113952381D01*
X183490952Y-114952381D01*
X188217143Y-115452381D02*
X187883809Y-114976190D01*
X187645714Y-115452381D02*
X187645714Y-114452381D01*
X188026667Y-114452381D01*
X188121905Y-114500000D01*
X188169524Y-114547619D01*
X188217143Y-114642857D01*
X188217143Y-114785714D01*
X188169524Y-114880952D01*
X188121905Y-114928571D01*
X188026667Y-114976190D01*
X187645714Y-114976190D01*
X189074286Y-114785714D02*
X189074286Y-115452381D01*
X188836190Y-114404762D02*
X188598095Y-115119048D01*
X189217143Y-115119048D01*
X189740952Y-114880952D02*
X189645714Y-114833333D01*
X189598095Y-114785714D01*
X189550476Y-114690476D01*
X189550476Y-114642857D01*
X189598095Y-114547619D01*
X189645714Y-114500000D01*
X189740952Y-114452381D01*
X189931429Y-114452381D01*
X190026667Y-114500000D01*
X190074286Y-114547619D01*
X190121905Y-114642857D01*
X190121905Y-114690476D01*
X190074286Y-114785714D01*
X190026667Y-114833333D01*
X189931429Y-114880952D01*
X189740952Y-114880952D01*
X189645714Y-114928571D01*
X189598095Y-114976190D01*
X189550476Y-115071429D01*
X189550476Y-115261905D01*
X189598095Y-115357143D01*
X189645714Y-115404762D01*
X189740952Y-115452381D01*
X189931429Y-115452381D01*
X190026667Y-115404762D01*
X190074286Y-115357143D01*
X190121905Y-115261905D01*
X190121905Y-115071429D01*
X190074286Y-114976190D01*
X190026667Y-114928571D01*
X189931429Y-114880952D01*
X190062381Y-110988095D02*
X190871905Y-110988095D01*
X190967143Y-110940476D01*
X191014762Y-110892857D01*
X191062381Y-110797619D01*
X191062381Y-110607142D01*
X191014762Y-110511904D01*
X190967143Y-110464285D01*
X190871905Y-110416666D01*
X190062381Y-110416666D01*
X191062381Y-109416666D02*
X191062381Y-109988095D01*
X191062381Y-109702381D02*
X190062381Y-109702381D01*
X190205238Y-109797619D01*
X190300476Y-109892857D01*
X190348095Y-109988095D01*
X190062381Y-108797619D02*
X190062381Y-108702380D01*
X190110000Y-108607142D01*
X190157619Y-108559523D01*
X190252857Y-108511904D01*
X190443333Y-108464285D01*
X190681429Y-108464285D01*
X190871905Y-108511904D01*
X190967143Y-108559523D01*
X191014762Y-108607142D01*
X191062381Y-108702380D01*
X191062381Y-108797619D01*
X191014762Y-108892857D01*
X190967143Y-108940476D01*
X190871905Y-108988095D01*
X190681429Y-109035714D01*
X190443333Y-109035714D01*
X190252857Y-108988095D01*
X190157619Y-108940476D01*
X190110000Y-108892857D01*
X190062381Y-108797619D01*
X183300476Y-63702381D02*
X183967143Y-64702381D01*
X183967143Y-63702381D02*
X183300476Y-64702381D01*
X184871905Y-64702381D02*
X184300476Y-64702381D01*
X184586190Y-64702381D02*
X184586190Y-63702381D01*
X184490952Y-63845238D01*
X184395714Y-63940476D01*
X184300476Y-63988095D01*
X160892381Y-77223333D02*
X161606667Y-77223333D01*
X161749524Y-77270953D01*
X161844762Y-77366191D01*
X161892381Y-77509048D01*
X161892381Y-77604286D01*
X160892381Y-76842381D02*
X160892381Y-76223333D01*
X161273333Y-76556667D01*
X161273333Y-76413809D01*
X161320952Y-76318571D01*
X161368571Y-76270952D01*
X161463810Y-76223333D01*
X161701905Y-76223333D01*
X161797143Y-76270952D01*
X161844762Y-76318571D01*
X161892381Y-76413809D01*
X161892381Y-76699524D01*
X161844762Y-76794762D01*
X161797143Y-76842381D01*
X159522381Y-113083333D02*
X160236667Y-113083333D01*
X160379524Y-113130953D01*
X160474762Y-113226191D01*
X160522381Y-113369048D01*
X160522381Y-113464286D01*
X159522381Y-112130952D02*
X159522381Y-112607143D01*
X159998571Y-112654762D01*
X159950952Y-112607143D01*
X159903333Y-112511905D01*
X159903333Y-112273809D01*
X159950952Y-112178571D01*
X159998571Y-112130952D01*
X160093810Y-112083333D01*
X160331905Y-112083333D01*
X160427143Y-112130952D01*
X160474762Y-112178571D01*
X160522381Y-112273809D01*
X160522381Y-112511905D01*
X160474762Y-112607143D01*
X160427143Y-112654762D01*
X156526667Y-132452381D02*
X156526667Y-133166667D01*
X156479047Y-133309524D01*
X156383809Y-133404762D01*
X156240952Y-133452381D01*
X156145714Y-133452381D01*
X156907619Y-132452381D02*
X157574286Y-132452381D01*
X157145714Y-133452381D01*
X175967143Y-105202381D02*
X175633809Y-104726190D01*
X175395714Y-105202381D02*
X175395714Y-104202381D01*
X175776667Y-104202381D01*
X175871905Y-104250000D01*
X175919524Y-104297619D01*
X175967143Y-104392857D01*
X175967143Y-104535714D01*
X175919524Y-104630952D01*
X175871905Y-104678571D01*
X175776667Y-104726190D01*
X175395714Y-104726190D01*
X176824286Y-104535714D02*
X176824286Y-105202381D01*
X176586190Y-104154762D02*
X176348095Y-104869048D01*
X176967143Y-104869048D01*
X177776667Y-104535714D02*
X177776667Y-105202381D01*
X177538571Y-104154762D02*
X177300476Y-104869048D01*
X177919524Y-104869048D01*
X173467143Y-146857143D02*
X173419524Y-146904762D01*
X173276667Y-146952381D01*
X173181429Y-146952381D01*
X173038571Y-146904762D01*
X172943333Y-146809524D01*
X172895714Y-146714286D01*
X172848095Y-146523810D01*
X172848095Y-146380952D01*
X172895714Y-146190476D01*
X172943333Y-146095238D01*
X173038571Y-146000000D01*
X173181429Y-145952381D01*
X173276667Y-145952381D01*
X173419524Y-146000000D01*
X173467143Y-146047619D01*
X174419524Y-146952381D02*
X173848095Y-146952381D01*
X174133809Y-146952381D02*
X174133809Y-145952381D01*
X174038571Y-146095238D01*
X173943333Y-146190476D01*
X173848095Y-146238095D01*
X175276667Y-145952381D02*
X175086190Y-145952381D01*
X174990952Y-146000000D01*
X174943333Y-146047619D01*
X174848095Y-146190476D01*
X174800476Y-146380952D01*
X174800476Y-146761905D01*
X174848095Y-146857143D01*
X174895714Y-146904762D01*
X174990952Y-146952381D01*
X175181429Y-146952381D01*
X175276667Y-146904762D01*
X175324286Y-146857143D01*
X175371905Y-146761905D01*
X175371905Y-146523810D01*
X175324286Y-146428571D01*
X175276667Y-146380952D01*
X175181429Y-146333333D01*
X174990952Y-146333333D01*
X174895714Y-146380952D01*
X174848095Y-146428571D01*
X174800476Y-146523810D01*
X193026667Y-117428571D02*
X192693333Y-117428571D01*
X192693333Y-117952381D02*
X192693333Y-116952381D01*
X193169524Y-116952381D01*
X194074286Y-117952381D02*
X193502857Y-117952381D01*
X193788571Y-117952381D02*
X193788571Y-116952381D01*
X193693333Y-117095238D01*
X193598095Y-117190476D01*
X193502857Y-117238095D01*
X171657619Y-120095238D02*
X171610000Y-120190476D01*
X171514762Y-120285714D01*
X171371905Y-120428571D01*
X171324286Y-120523810D01*
X171324286Y-120619048D01*
X171562381Y-120571429D02*
X171514762Y-120666667D01*
X171419524Y-120761905D01*
X171229048Y-120809524D01*
X170895714Y-120809524D01*
X170705238Y-120761905D01*
X170610000Y-120666667D01*
X170562381Y-120571429D01*
X170562381Y-120380952D01*
X170610000Y-120285714D01*
X170705238Y-120190476D01*
X170895714Y-120142857D01*
X171229048Y-120142857D01*
X171419524Y-120190476D01*
X171514762Y-120285714D01*
X171562381Y-120380952D01*
X171562381Y-120571429D01*
X170657619Y-119761905D02*
X170610000Y-119714286D01*
X170562381Y-119619048D01*
X170562381Y-119380952D01*
X170610000Y-119285714D01*
X170657619Y-119238095D01*
X170752857Y-119190476D01*
X170848095Y-119190476D01*
X170990952Y-119238095D01*
X171562381Y-119809524D01*
X171562381Y-119190476D01*
X179812381Y-120892857D02*
X179336190Y-121226191D01*
X179812381Y-121464286D02*
X178812381Y-121464286D01*
X178812381Y-121083333D01*
X178860000Y-120988095D01*
X178907619Y-120940476D01*
X179002857Y-120892857D01*
X179145714Y-120892857D01*
X179240952Y-120940476D01*
X179288571Y-120988095D01*
X179336190Y-121083333D01*
X179336190Y-121464286D01*
X178812381Y-119988095D02*
X178812381Y-120464286D01*
X179288571Y-120511905D01*
X179240952Y-120464286D01*
X179193333Y-120369048D01*
X179193333Y-120130952D01*
X179240952Y-120035714D01*
X179288571Y-119988095D01*
X179383810Y-119940476D01*
X179621905Y-119940476D01*
X179717143Y-119988095D01*
X179764762Y-120035714D01*
X179812381Y-120130952D01*
X179812381Y-120369048D01*
X179764762Y-120464286D01*
X179717143Y-120511905D01*
X179812381Y-118988095D02*
X179812381Y-119559524D01*
X179812381Y-119273810D02*
X178812381Y-119273810D01*
X178955238Y-119369048D01*
X179050476Y-119464286D01*
X179098095Y-119559524D01*
X182467143Y-119702381D02*
X182133809Y-119226190D01*
X181895714Y-119702381D02*
X181895714Y-118702381D01*
X182276667Y-118702381D01*
X182371905Y-118750000D01*
X182419524Y-118797619D01*
X182467143Y-118892857D01*
X182467143Y-119035714D01*
X182419524Y-119130952D01*
X182371905Y-119178571D01*
X182276667Y-119226190D01*
X181895714Y-119226190D01*
X183371905Y-118702381D02*
X182895714Y-118702381D01*
X182848095Y-119178571D01*
X182895714Y-119130952D01*
X182990952Y-119083333D01*
X183229048Y-119083333D01*
X183324286Y-119130952D01*
X183371905Y-119178571D01*
X183419524Y-119273810D01*
X183419524Y-119511905D01*
X183371905Y-119607143D01*
X183324286Y-119654762D01*
X183229048Y-119702381D01*
X182990952Y-119702381D01*
X182895714Y-119654762D01*
X182848095Y-119607143D01*
X183800476Y-118797619D02*
X183848095Y-118750000D01*
X183943333Y-118702381D01*
X184181429Y-118702381D01*
X184276667Y-118750000D01*
X184324286Y-118797619D01*
X184371905Y-118892857D01*
X184371905Y-118988095D01*
X184324286Y-119130952D01*
X183752857Y-119702381D01*
X184371905Y-119702381D01*
X181824286Y-131452381D02*
X182395715Y-131452381D01*
X182110000Y-132452381D02*
X182110000Y-131452381D01*
X182729048Y-132452381D02*
X182729048Y-131452381D01*
X182729048Y-131928571D02*
X183300477Y-131928571D01*
X183300477Y-132452381D02*
X183300477Y-131452381D01*
X184300477Y-132452381D02*
X183729048Y-132452381D01*
X184014762Y-132452381D02*
X184014762Y-131452381D01*
X183919524Y-131595238D01*
X183824286Y-131690476D01*
X183729048Y-131738095D01*
X191600476Y-132452381D02*
X191933809Y-133452381D01*
X192267143Y-132452381D01*
X193171905Y-133452381D02*
X192838571Y-132976190D01*
X192600476Y-133452381D02*
X192600476Y-132452381D01*
X192981429Y-132452381D01*
X193076667Y-132500000D01*
X193124286Y-132547619D01*
X193171905Y-132642857D01*
X193171905Y-132785714D01*
X193124286Y-132880952D01*
X193076667Y-132928571D01*
X192981429Y-132976190D01*
X192600476Y-132976190D01*
X194124286Y-133452381D02*
X193552857Y-133452381D01*
X193838571Y-133452381D02*
X193838571Y-132452381D01*
X193743333Y-132595238D01*
X193648095Y-132690476D01*
X193552857Y-132738095D01*
X183217143Y-109357143D02*
X183169524Y-109404762D01*
X183026667Y-109452381D01*
X182931429Y-109452381D01*
X182788571Y-109404762D01*
X182693333Y-109309524D01*
X182645714Y-109214286D01*
X182598095Y-109023810D01*
X182598095Y-108880952D01*
X182645714Y-108690476D01*
X182693333Y-108595238D01*
X182788571Y-108500000D01*
X182931429Y-108452381D01*
X183026667Y-108452381D01*
X183169524Y-108500000D01*
X183217143Y-108547619D01*
X183550476Y-108452381D02*
X184169524Y-108452381D01*
X183836190Y-108833333D01*
X183979048Y-108833333D01*
X184074286Y-108880952D01*
X184121905Y-108928571D01*
X184169524Y-109023810D01*
X184169524Y-109261905D01*
X184121905Y-109357143D01*
X184074286Y-109404762D01*
X183979048Y-109452381D01*
X183693333Y-109452381D01*
X183598095Y-109404762D01*
X183550476Y-109357143D01*
X185026667Y-108785714D02*
X185026667Y-109452381D01*
X184788571Y-108404762D02*
X184550476Y-109119048D01*
X185169524Y-109119048D01*
X170562381Y-127892857D02*
X170086190Y-128226191D01*
X170562381Y-128464286D02*
X169562381Y-128464286D01*
X169562381Y-128083333D01*
X169610000Y-127988095D01*
X169657619Y-127940476D01*
X169752857Y-127892857D01*
X169895714Y-127892857D01*
X169990952Y-127940476D01*
X170038571Y-127988095D01*
X170086190Y-128083333D01*
X170086190Y-128464286D01*
X169562381Y-127559524D02*
X169562381Y-126940476D01*
X169943333Y-127273810D01*
X169943333Y-127130952D01*
X169990952Y-127035714D01*
X170038571Y-126988095D01*
X170133810Y-126940476D01*
X170371905Y-126940476D01*
X170467143Y-126988095D01*
X170514762Y-127035714D01*
X170562381Y-127130952D01*
X170562381Y-127416667D01*
X170514762Y-127511905D01*
X170467143Y-127559524D01*
X169657619Y-126559524D02*
X169610000Y-126511905D01*
X169562381Y-126416667D01*
X169562381Y-126178571D01*
X169610000Y-126083333D01*
X169657619Y-126035714D01*
X169752857Y-125988095D01*
X169848095Y-125988095D01*
X169990952Y-126035714D01*
X170562381Y-126607143D01*
X170562381Y-125988095D01*
X169062381Y-127892857D02*
X168586190Y-128226191D01*
X169062381Y-128464286D02*
X168062381Y-128464286D01*
X168062381Y-128083333D01*
X168110000Y-127988095D01*
X168157619Y-127940476D01*
X168252857Y-127892857D01*
X168395714Y-127892857D01*
X168490952Y-127940476D01*
X168538571Y-127988095D01*
X168586190Y-128083333D01*
X168586190Y-128464286D01*
X168062381Y-127559524D02*
X168062381Y-126940476D01*
X168443333Y-127273810D01*
X168443333Y-127130952D01*
X168490952Y-127035714D01*
X168538571Y-126988095D01*
X168633810Y-126940476D01*
X168871905Y-126940476D01*
X168967143Y-126988095D01*
X169014762Y-127035714D01*
X169062381Y-127130952D01*
X169062381Y-127416667D01*
X169014762Y-127511905D01*
X168967143Y-127559524D01*
X168062381Y-126607143D02*
X168062381Y-125988095D01*
X168443333Y-126321429D01*
X168443333Y-126178571D01*
X168490952Y-126083333D01*
X168538571Y-126035714D01*
X168633810Y-125988095D01*
X168871905Y-125988095D01*
X168967143Y-126035714D01*
X169014762Y-126083333D01*
X169062381Y-126178571D01*
X169062381Y-126464286D01*
X169014762Y-126559524D01*
X168967143Y-126607143D01*
X197062381Y-88392857D02*
X196586190Y-88726191D01*
X197062381Y-88964286D02*
X196062381Y-88964286D01*
X196062381Y-88583333D01*
X196110000Y-88488095D01*
X196157619Y-88440476D01*
X196252857Y-88392857D01*
X196395714Y-88392857D01*
X196490952Y-88440476D01*
X196538571Y-88488095D01*
X196586190Y-88583333D01*
X196586190Y-88964286D01*
X196062381Y-88059524D02*
X196062381Y-87440476D01*
X196443333Y-87773810D01*
X196443333Y-87630952D01*
X196490952Y-87535714D01*
X196538571Y-87488095D01*
X196633810Y-87440476D01*
X196871905Y-87440476D01*
X196967143Y-87488095D01*
X197014762Y-87535714D01*
X197062381Y-87630952D01*
X197062381Y-87916667D01*
X197014762Y-88011905D01*
X196967143Y-88059524D01*
X196395714Y-86583333D02*
X197062381Y-86583333D01*
X196014762Y-86821429D02*
X196729048Y-87059524D01*
X196729048Y-86440476D01*
X169212381Y-155392857D02*
X168736190Y-155726191D01*
X169212381Y-155964286D02*
X168212381Y-155964286D01*
X168212381Y-155583333D01*
X168260000Y-155488095D01*
X168307619Y-155440476D01*
X168402857Y-155392857D01*
X168545714Y-155392857D01*
X168640952Y-155440476D01*
X168688571Y-155488095D01*
X168736190Y-155583333D01*
X168736190Y-155964286D01*
X168212381Y-155059524D02*
X168212381Y-154440476D01*
X168593333Y-154773810D01*
X168593333Y-154630952D01*
X168640952Y-154535714D01*
X168688571Y-154488095D01*
X168783810Y-154440476D01*
X169021905Y-154440476D01*
X169117143Y-154488095D01*
X169164762Y-154535714D01*
X169212381Y-154630952D01*
X169212381Y-154916667D01*
X169164762Y-155011905D01*
X169117143Y-155059524D01*
X168212381Y-153535714D02*
X168212381Y-154011905D01*
X168688571Y-154059524D01*
X168640952Y-154011905D01*
X168593333Y-153916667D01*
X168593333Y-153678571D01*
X168640952Y-153583333D01*
X168688571Y-153535714D01*
X168783810Y-153488095D01*
X169021905Y-153488095D01*
X169117143Y-153535714D01*
X169164762Y-153583333D01*
X169212381Y-153678571D01*
X169212381Y-153916667D01*
X169164762Y-154011905D01*
X169117143Y-154059524D01*
X193312381Y-88392857D02*
X192836190Y-88726191D01*
X193312381Y-88964286D02*
X192312381Y-88964286D01*
X192312381Y-88583333D01*
X192360000Y-88488095D01*
X192407619Y-88440476D01*
X192502857Y-88392857D01*
X192645714Y-88392857D01*
X192740952Y-88440476D01*
X192788571Y-88488095D01*
X192836190Y-88583333D01*
X192836190Y-88964286D01*
X192312381Y-88059524D02*
X192312381Y-87440476D01*
X192693333Y-87773810D01*
X192693333Y-87630952D01*
X192740952Y-87535714D01*
X192788571Y-87488095D01*
X192883810Y-87440476D01*
X193121905Y-87440476D01*
X193217143Y-87488095D01*
X193264762Y-87535714D01*
X193312381Y-87630952D01*
X193312381Y-87916667D01*
X193264762Y-88011905D01*
X193217143Y-88059524D01*
X192312381Y-86583333D02*
X192312381Y-86773810D01*
X192360000Y-86869048D01*
X192407619Y-86916667D01*
X192550476Y-87011905D01*
X192740952Y-87059524D01*
X193121905Y-87059524D01*
X193217143Y-87011905D01*
X193264762Y-86964286D01*
X193312381Y-86869048D01*
X193312381Y-86678571D01*
X193264762Y-86583333D01*
X193217143Y-86535714D01*
X193121905Y-86488095D01*
X192883810Y-86488095D01*
X192788571Y-86535714D01*
X192740952Y-86583333D01*
X192693333Y-86678571D01*
X192693333Y-86869048D01*
X192740952Y-86964286D01*
X192788571Y-87011905D01*
X192883810Y-87059524D01*
X197717143Y-102892857D02*
X197764762Y-102940476D01*
X197812381Y-103083333D01*
X197812381Y-103178571D01*
X197764762Y-103321429D01*
X197669524Y-103416667D01*
X197574286Y-103464286D01*
X197383810Y-103511905D01*
X197240952Y-103511905D01*
X197050476Y-103464286D01*
X196955238Y-103416667D01*
X196860000Y-103321429D01*
X196812381Y-103178571D01*
X196812381Y-103083333D01*
X196860000Y-102940476D01*
X196907619Y-102892857D01*
X196812381Y-102559524D02*
X196812381Y-101940476D01*
X197193333Y-102273810D01*
X197193333Y-102130952D01*
X197240952Y-102035714D01*
X197288571Y-101988095D01*
X197383810Y-101940476D01*
X197621905Y-101940476D01*
X197717143Y-101988095D01*
X197764762Y-102035714D01*
X197812381Y-102130952D01*
X197812381Y-102416667D01*
X197764762Y-102511905D01*
X197717143Y-102559524D01*
X196812381Y-101083333D02*
X196812381Y-101273810D01*
X196860000Y-101369048D01*
X196907619Y-101416667D01*
X197050476Y-101511905D01*
X197240952Y-101559524D01*
X197621905Y-101559524D01*
X197717143Y-101511905D01*
X197764762Y-101464286D01*
X197812381Y-101369048D01*
X197812381Y-101178571D01*
X197764762Y-101083333D01*
X197717143Y-101035714D01*
X197621905Y-100988095D01*
X197383810Y-100988095D01*
X197288571Y-101035714D01*
X197240952Y-101083333D01*
X197193333Y-101178571D01*
X197193333Y-101369048D01*
X197240952Y-101464286D01*
X197288571Y-101511905D01*
X197383810Y-101559524D01*
X170562381Y-124738095D02*
X169562381Y-124738095D01*
X169562381Y-124500000D01*
X169610000Y-124357142D01*
X169705238Y-124261904D01*
X169800476Y-124214285D01*
X169990952Y-124166666D01*
X170133810Y-124166666D01*
X170324286Y-124214285D01*
X170419524Y-124261904D01*
X170514762Y-124357142D01*
X170562381Y-124500000D01*
X170562381Y-124738095D01*
X169657619Y-123785714D02*
X169610000Y-123738095D01*
X169562381Y-123642857D01*
X169562381Y-123404761D01*
X169610000Y-123309523D01*
X169657619Y-123261904D01*
X169752857Y-123214285D01*
X169848095Y-123214285D01*
X169990952Y-123261904D01*
X170562381Y-123833333D01*
X170562381Y-123214285D01*
X169062381Y-124738095D02*
X168062381Y-124738095D01*
X168062381Y-124500000D01*
X168110000Y-124357142D01*
X168205238Y-124261904D01*
X168300476Y-124214285D01*
X168490952Y-124166666D01*
X168633810Y-124166666D01*
X168824286Y-124214285D01*
X168919524Y-124261904D01*
X169014762Y-124357142D01*
X169062381Y-124500000D01*
X169062381Y-124738095D01*
X168062381Y-123833333D02*
X168062381Y-123214285D01*
X168443333Y-123547619D01*
X168443333Y-123404761D01*
X168490952Y-123309523D01*
X168538571Y-123261904D01*
X168633810Y-123214285D01*
X168871905Y-123214285D01*
X168967143Y-123261904D01*
X169014762Y-123309523D01*
X169062381Y-123404761D01*
X169062381Y-123690476D01*
X169014762Y-123785714D01*
X168967143Y-123833333D01*
X197062381Y-85488095D02*
X196062381Y-85488095D01*
X196062381Y-85250000D01*
X196110000Y-85107142D01*
X196205238Y-85011904D01*
X196300476Y-84964285D01*
X196490952Y-84916666D01*
X196633810Y-84916666D01*
X196824286Y-84964285D01*
X196919524Y-85011904D01*
X197014762Y-85107142D01*
X197062381Y-85250000D01*
X197062381Y-85488095D01*
X196395714Y-84059523D02*
X197062381Y-84059523D01*
X196014762Y-84297619D02*
X196729048Y-84535714D01*
X196729048Y-83916666D01*
X169312381Y-152189075D02*
X168312381Y-152189075D01*
X168312381Y-151950980D01*
X168360000Y-151808122D01*
X168455238Y-151712884D01*
X168550476Y-151665265D01*
X168740952Y-151617646D01*
X168883810Y-151617646D01*
X169074286Y-151665265D01*
X169169524Y-151712884D01*
X169264762Y-151808122D01*
X169312381Y-151950980D01*
X169312381Y-152189075D01*
X168312381Y-150712884D02*
X168312381Y-151189075D01*
X168788571Y-151236694D01*
X168740952Y-151189075D01*
X168693333Y-151093837D01*
X168693333Y-150855741D01*
X168740952Y-150760503D01*
X168788571Y-150712884D01*
X168883810Y-150665265D01*
X169121905Y-150665265D01*
X169217143Y-150712884D01*
X169264762Y-150760503D01*
X169312381Y-150855741D01*
X169312381Y-151093837D01*
X169264762Y-151189075D01*
X169217143Y-151236694D01*
X193312381Y-85488095D02*
X192312381Y-85488095D01*
X192312381Y-85250000D01*
X192360000Y-85107142D01*
X192455238Y-85011904D01*
X192550476Y-84964285D01*
X192740952Y-84916666D01*
X192883810Y-84916666D01*
X193074286Y-84964285D01*
X193169524Y-85011904D01*
X193264762Y-85107142D01*
X193312381Y-85250000D01*
X193312381Y-85488095D01*
X192312381Y-84059523D02*
X192312381Y-84250000D01*
X192360000Y-84345238D01*
X192407619Y-84392857D01*
X192550476Y-84488095D01*
X192740952Y-84535714D01*
X193121905Y-84535714D01*
X193217143Y-84488095D01*
X193264762Y-84440476D01*
X193312381Y-84345238D01*
X193312381Y-84154761D01*
X193264762Y-84059523D01*
X193217143Y-84011904D01*
X193121905Y-83964285D01*
X192883810Y-83964285D01*
X192788571Y-84011904D01*
X192740952Y-84059523D01*
X192693333Y-84154761D01*
X192693333Y-84345238D01*
X192740952Y-84440476D01*
X192788571Y-84488095D01*
X192883810Y-84535714D01*
X198312381Y-85488095D02*
X197312381Y-85488095D01*
X197312381Y-85250000D01*
X197360000Y-85107142D01*
X197455238Y-85011904D01*
X197550476Y-84964285D01*
X197740952Y-84916666D01*
X197883810Y-84916666D01*
X198074286Y-84964285D01*
X198169524Y-85011904D01*
X198264762Y-85107142D01*
X198312381Y-85250000D01*
X198312381Y-85488095D01*
X197312381Y-84583333D02*
X197312381Y-83916666D01*
X198312381Y-84345238D01*
X195812381Y-85488095D02*
X194812381Y-85488095D01*
X194812381Y-85250000D01*
X194860000Y-85107142D01*
X194955238Y-85011904D01*
X195050476Y-84964285D01*
X195240952Y-84916666D01*
X195383810Y-84916666D01*
X195574286Y-84964285D01*
X195669524Y-85011904D01*
X195764762Y-85107142D01*
X195812381Y-85250000D01*
X195812381Y-85488095D01*
X195240952Y-84345238D02*
X195193333Y-84440476D01*
X195145714Y-84488095D01*
X195050476Y-84535714D01*
X195002857Y-84535714D01*
X194907619Y-84488095D01*
X194860000Y-84440476D01*
X194812381Y-84345238D01*
X194812381Y-84154761D01*
X194860000Y-84059523D01*
X194907619Y-84011904D01*
X195002857Y-83964285D01*
X195050476Y-83964285D01*
X195145714Y-84011904D01*
X195193333Y-84059523D01*
X195240952Y-84154761D01*
X195240952Y-84345238D01*
X195288571Y-84440476D01*
X195336190Y-84488095D01*
X195431429Y-84535714D01*
X195621905Y-84535714D01*
X195717143Y-84488095D01*
X195764762Y-84440476D01*
X195812381Y-84345238D01*
X195812381Y-84154761D01*
X195764762Y-84059523D01*
X195717143Y-84011904D01*
X195621905Y-83964285D01*
X195431429Y-83964285D01*
X195336190Y-84011904D01*
X195288571Y-84059523D01*
X195240952Y-84154761D01*
X194562381Y-85488095D02*
X193562381Y-85488095D01*
X193562381Y-85250000D01*
X193610000Y-85107142D01*
X193705238Y-85011904D01*
X193800476Y-84964285D01*
X193990952Y-84916666D01*
X194133810Y-84916666D01*
X194324286Y-84964285D01*
X194419524Y-85011904D01*
X194514762Y-85107142D01*
X194562381Y-85250000D01*
X194562381Y-85488095D01*
X194562381Y-84440476D02*
X194562381Y-84250000D01*
X194514762Y-84154761D01*
X194467143Y-84107142D01*
X194324286Y-84011904D01*
X194133810Y-83964285D01*
X193752857Y-83964285D01*
X193657619Y-84011904D01*
X193610000Y-84059523D01*
X193562381Y-84154761D01*
X193562381Y-84345238D01*
X193610000Y-84440476D01*
X193657619Y-84488095D01*
X193752857Y-84535714D01*
X193990952Y-84535714D01*
X194086190Y-84488095D01*
X194133810Y-84440476D01*
X194181429Y-84345238D01*
X194181429Y-84154761D01*
X194133810Y-84059523D01*
X194086190Y-84011904D01*
X193990952Y-83964285D01*
X198312381Y-88392857D02*
X197836190Y-88726191D01*
X198312381Y-88964286D02*
X197312381Y-88964286D01*
X197312381Y-88583333D01*
X197360000Y-88488095D01*
X197407619Y-88440476D01*
X197502857Y-88392857D01*
X197645714Y-88392857D01*
X197740952Y-88440476D01*
X197788571Y-88488095D01*
X197836190Y-88583333D01*
X197836190Y-88964286D01*
X197312381Y-87488095D02*
X197312381Y-87964286D01*
X197788571Y-88011905D01*
X197740952Y-87964286D01*
X197693333Y-87869048D01*
X197693333Y-87630952D01*
X197740952Y-87535714D01*
X197788571Y-87488095D01*
X197883810Y-87440476D01*
X198121905Y-87440476D01*
X198217143Y-87488095D01*
X198264762Y-87535714D01*
X198312381Y-87630952D01*
X198312381Y-87869048D01*
X198264762Y-87964286D01*
X198217143Y-88011905D01*
X197312381Y-87107143D02*
X197312381Y-86488095D01*
X197693333Y-86821429D01*
X197693333Y-86678571D01*
X197740952Y-86583333D01*
X197788571Y-86535714D01*
X197883810Y-86488095D01*
X198121905Y-86488095D01*
X198217143Y-86535714D01*
X198264762Y-86583333D01*
X198312381Y-86678571D01*
X198312381Y-86964286D01*
X198264762Y-87059524D01*
X198217143Y-87107143D01*
X195812381Y-88392857D02*
X195336190Y-88726191D01*
X195812381Y-88964286D02*
X194812381Y-88964286D01*
X194812381Y-88583333D01*
X194860000Y-88488095D01*
X194907619Y-88440476D01*
X195002857Y-88392857D01*
X195145714Y-88392857D01*
X195240952Y-88440476D01*
X195288571Y-88488095D01*
X195336190Y-88583333D01*
X195336190Y-88964286D01*
X194812381Y-87488095D02*
X194812381Y-87964286D01*
X195288571Y-88011905D01*
X195240952Y-87964286D01*
X195193333Y-87869048D01*
X195193333Y-87630952D01*
X195240952Y-87535714D01*
X195288571Y-87488095D01*
X195383810Y-87440476D01*
X195621905Y-87440476D01*
X195717143Y-87488095D01*
X195764762Y-87535714D01*
X195812381Y-87630952D01*
X195812381Y-87869048D01*
X195764762Y-87964286D01*
X195717143Y-88011905D01*
X195145714Y-86583333D02*
X195812381Y-86583333D01*
X194764762Y-86821429D02*
X195479048Y-87059524D01*
X195479048Y-86440476D01*
X194562381Y-88392857D02*
X194086190Y-88726191D01*
X194562381Y-88964286D02*
X193562381Y-88964286D01*
X193562381Y-88583333D01*
X193610000Y-88488095D01*
X193657619Y-88440476D01*
X193752857Y-88392857D01*
X193895714Y-88392857D01*
X193990952Y-88440476D01*
X194038571Y-88488095D01*
X194086190Y-88583333D01*
X194086190Y-88964286D01*
X193562381Y-87488095D02*
X193562381Y-87964286D01*
X194038571Y-88011905D01*
X193990952Y-87964286D01*
X193943333Y-87869048D01*
X193943333Y-87630952D01*
X193990952Y-87535714D01*
X194038571Y-87488095D01*
X194133810Y-87440476D01*
X194371905Y-87440476D01*
X194467143Y-87488095D01*
X194514762Y-87535714D01*
X194562381Y-87630952D01*
X194562381Y-87869048D01*
X194514762Y-87964286D01*
X194467143Y-88011905D01*
X193562381Y-86535714D02*
X193562381Y-87011905D01*
X194038571Y-87059524D01*
X193990952Y-87011905D01*
X193943333Y-86916667D01*
X193943333Y-86678571D01*
X193990952Y-86583333D01*
X194038571Y-86535714D01*
X194133810Y-86488095D01*
X194371905Y-86488095D01*
X194467143Y-86535714D01*
X194514762Y-86583333D01*
X194562381Y-86678571D01*
X194562381Y-86916667D01*
X194514762Y-87011905D01*
X194467143Y-87059524D01*
X193038571Y-73285714D02*
X193086190Y-73142857D01*
X193133810Y-73095238D01*
X193229048Y-73047619D01*
X193371905Y-73047619D01*
X193467143Y-73095238D01*
X193514762Y-73142857D01*
X193562381Y-73238095D01*
X193562381Y-73619048D01*
X192562381Y-73619048D01*
X192562381Y-73285714D01*
X192610000Y-73190476D01*
X192657619Y-73142857D01*
X192752857Y-73095238D01*
X192848095Y-73095238D01*
X192943333Y-73142857D01*
X192990952Y-73190476D01*
X193038571Y-73285714D01*
X193038571Y-73619048D01*
X192562381Y-72761905D02*
X192562381Y-72190476D01*
X193562381Y-72476191D02*
X192562381Y-72476191D01*
X193562381Y-71333333D02*
X193562381Y-71904762D01*
X193562381Y-71619048D02*
X192562381Y-71619048D01*
X192705238Y-71714286D01*
X192800476Y-71809524D01*
X192848095Y-71904762D01*
X157063261Y-125373333D02*
X157777547Y-125373333D01*
X157920404Y-125420953D01*
X158015642Y-125516191D01*
X158063261Y-125659048D01*
X158063261Y-125754286D01*
X157063261Y-124468571D02*
X157063261Y-124659048D01*
X157110880Y-124754286D01*
X157158499Y-124801905D01*
X157301356Y-124897143D01*
X157491832Y-124944762D01*
X157872785Y-124944762D01*
X157968023Y-124897143D01*
X158015642Y-124849524D01*
X158063261Y-124754286D01*
X158063261Y-124563809D01*
X158015642Y-124468571D01*
X157968023Y-124420952D01*
X157872785Y-124373333D01*
X157634690Y-124373333D01*
X157539451Y-124420952D01*
X157491832Y-124468571D01*
X157444213Y-124563809D01*
X157444213Y-124754286D01*
X157491832Y-124849524D01*
X157539451Y-124897143D01*
X157634690Y-124944762D01*
X183195714Y-143592857D02*
X183195714Y-144564286D01*
X183252857Y-144678571D01*
X183310000Y-144735714D01*
X183424286Y-144792857D01*
X183652857Y-144792857D01*
X183767143Y-144735714D01*
X183824286Y-144678571D01*
X183881429Y-144564286D01*
X183881429Y-143592857D01*
X184510000Y-144792857D02*
X184738572Y-144792857D01*
X184852857Y-144735714D01*
X184910000Y-144678571D01*
X185024286Y-144507143D01*
X185081429Y-144278571D01*
X185081429Y-143821429D01*
X185024286Y-143707143D01*
X184967143Y-143650000D01*
X184852857Y-143592857D01*
X184624286Y-143592857D01*
X184510000Y-143650000D01*
X184452857Y-143707143D01*
X184395714Y-143821429D01*
X184395714Y-144107143D01*
X184452857Y-144221429D01*
X184510000Y-144278571D01*
X184624286Y-144335714D01*
X184852857Y-144335714D01*
X184967143Y-144278571D01*
X185024286Y-144221429D01*
X185081429Y-144107143D01*
M02*
