G04 #@! TF.FileFunction,Soldermask,Top*
%FSLAX46Y46*%
G04 Gerber Fmt 4.6, Leading zero omitted, Abs format (unit mm)*
G04 Created by KiCad (PCBNEW 4.0.3-stable) date 09/30/16 03:10:32*
%MOMM*%
%LPD*%
G01*
G04 APERTURE LIST*
%ADD10C,0.100000*%
%ADD11C,1.900000*%
%ADD12C,2.398980*%
%ADD13R,1.150000X1.200000*%
%ADD14R,2.200860X1.949400*%
%ADD15R,1.200100X1.200100*%
%ADD16R,1.300000X0.900000*%
%ADD17R,0.900000X1.300000*%
%ADD18R,5.899100X2.398980*%
%ADD19R,1.949400X2.200860*%
%ADD20R,1.200000X1.150000*%
%ADD21R,1.100000X1.700000*%
%ADD22R,0.908000X1.543000*%
%ADD23C,6.800000*%
%ADD24C,1.000000*%
%ADD25R,0.700000X1.900000*%
%ADD26R,1.900000X0.700000*%
%ADD27R,2.180000X1.920000*%
%ADD28C,2.100000*%
%ADD29C,3.600000*%
%ADD30C,2.900000*%
%ADD31R,2.432000X2.127200*%
%ADD32O,2.432000X2.127200*%
%ADD33O,2.398980X2.398980*%
%ADD34R,2.398980X2.398980*%
%ADD35R,1.650000X1.400000*%
%ADD36R,2.900000X1.400000*%
%ADD37R,1.400000X1.650000*%
%ADD38R,5.800040X3.300680*%
%ADD39R,1.460000X1.050000*%
%ADD40C,1.400760*%
%ADD41R,2.127200X2.127200*%
%ADD42O,2.127200X2.127200*%
%ADD43R,3.200000X3.200000*%
%ADD44C,3.200000*%
%ADD45R,2.000200X3.000960*%
%ADD46C,3.400000*%
%ADD47C,2.200000*%
%ADD48C,2.000000*%
%ADD49R,1.598880X1.598880*%
%ADD50R,3.000000X4.000000*%
%ADD51R,2.400000X0.800000*%
%ADD52R,3.400000X4.400000*%
%ADD53C,1.416000*%
%ADD54C,1.162000*%
G04 APERTURE END LIST*
D10*
D11*
X194360000Y-81500000D03*
X175110000Y-153750000D03*
X169360000Y-115500000D03*
D12*
X181360000Y-106000000D03*
X191520000Y-106000000D03*
D13*
X161397000Y-69162000D03*
X161397000Y-67662000D03*
D14*
X165207000Y-88109000D03*
X165207000Y-90461040D03*
X170541000Y-88169960D03*
X170541000Y-90522000D03*
D15*
X156531000Y-47842000D03*
X158431000Y-47842000D03*
X157481000Y-45843020D03*
D16*
X177272000Y-67940000D03*
X177272000Y-69440000D03*
X177272000Y-65273000D03*
X177272000Y-66773000D03*
X161397000Y-71956000D03*
X161397000Y-70456000D03*
D17*
X167112000Y-88236000D03*
X168612000Y-88236000D03*
D16*
X169360000Y-81354000D03*
X169360000Y-79854000D03*
D18*
X172700000Y-84553000D03*
X163302000Y-84553000D03*
D19*
X152268960Y-47334000D03*
X154621000Y-47334000D03*
D20*
X176627000Y-62963000D03*
X175127000Y-62963000D03*
X167247000Y-62058000D03*
X165747000Y-62058000D03*
D21*
X167520000Y-48215000D03*
X165620000Y-48215000D03*
X176876000Y-49120000D03*
X174976000Y-49120000D03*
X164218000Y-48215000D03*
X162318000Y-48215000D03*
X173579000Y-49120000D03*
X171679000Y-49120000D03*
D17*
X173809000Y-62836000D03*
X172309000Y-62836000D03*
X164580000Y-61931000D03*
X163080000Y-61931000D03*
X152716000Y-61431000D03*
X151216000Y-61431000D03*
X156360000Y-61500000D03*
X154860000Y-61500000D03*
D14*
X157610000Y-122750000D03*
X157610000Y-125102040D03*
X165860000Y-115500000D03*
X165860000Y-113147960D03*
D20*
X162723000Y-105261000D03*
X164223000Y-105261000D03*
X165898000Y-105261000D03*
X167398000Y-105261000D03*
X161314000Y-95736000D03*
X162814000Y-95736000D03*
D13*
X168287000Y-95712000D03*
X168287000Y-94212000D03*
D16*
X185774167Y-109702147D03*
X185774167Y-108202147D03*
D17*
X165596000Y-95736000D03*
X164096000Y-95736000D03*
D16*
X160921000Y-105031000D03*
X160921000Y-106531000D03*
D17*
X164110000Y-94000000D03*
X162610000Y-94000000D03*
D16*
X188360000Y-111250000D03*
X188360000Y-112750000D03*
D22*
X160921000Y-97387000D03*
X163461000Y-97387000D03*
X164731000Y-97387000D03*
X166001000Y-97387000D03*
X167271000Y-97387000D03*
X168541000Y-97387000D03*
X169811000Y-97387000D03*
X169811000Y-103737000D03*
X168541000Y-103737000D03*
X167271000Y-103737000D03*
X166001000Y-103737000D03*
X164731000Y-103737000D03*
X163461000Y-103737000D03*
X162191000Y-103737000D03*
X160921000Y-103737000D03*
X162191000Y-97387000D03*
D23*
X197260000Y-111500000D03*
D24*
X197260000Y-109100000D03*
X198957056Y-109802944D03*
X199660000Y-111500000D03*
X198957056Y-113197056D03*
X197260000Y-113900000D03*
X195562944Y-113197056D03*
X194860000Y-111500000D03*
X195562944Y-109802944D03*
D23*
X198360000Y-63100000D03*
D24*
X198360000Y-60700000D03*
X200057056Y-61402944D03*
X200760000Y-63100000D03*
X200057056Y-64797056D03*
X198360000Y-65500000D03*
X196662944Y-64797056D03*
X195960000Y-63100000D03*
X196662944Y-61402944D03*
D23*
X157860000Y-149100000D03*
D24*
X157860000Y-146700000D03*
X159557056Y-147402944D03*
X160260000Y-149100000D03*
X159557056Y-150797056D03*
X157860000Y-151500000D03*
X156162944Y-150797056D03*
X155460000Y-149100000D03*
X156162944Y-147402944D03*
D23*
X153860000Y-95500000D03*
D24*
X153860000Y-93100000D03*
X155557056Y-93802944D03*
X156260000Y-95500000D03*
X155557056Y-97197056D03*
X153860000Y-97900000D03*
X152162944Y-97197056D03*
X151460000Y-95500000D03*
X152162944Y-93802944D03*
D25*
X173133000Y-66189000D03*
X172633000Y-66189000D03*
X172133000Y-66189000D03*
X171633000Y-66189000D03*
X171133000Y-66189000D03*
X170633000Y-66189000D03*
X170133000Y-66189000D03*
X169633000Y-66189000D03*
X169133000Y-66189000D03*
X168633000Y-66189000D03*
X168133000Y-66189000D03*
X167633000Y-66189000D03*
X167133000Y-66189000D03*
X166633000Y-66189000D03*
X166133000Y-66189000D03*
X165633000Y-66189000D03*
D26*
X163683000Y-68139000D03*
X163683000Y-68639000D03*
X163683000Y-69139000D03*
X163683000Y-69639000D03*
X163683000Y-70139000D03*
X163683000Y-70639000D03*
X163683000Y-71139000D03*
X163683000Y-71639000D03*
X163683000Y-72139000D03*
X163683000Y-72639000D03*
X163683000Y-73139000D03*
X163683000Y-73639000D03*
X163683000Y-74139000D03*
X163683000Y-74639000D03*
X163683000Y-75139000D03*
X163683000Y-75639000D03*
D25*
X165633000Y-77589000D03*
X166133000Y-77589000D03*
X166633000Y-77589000D03*
X167133000Y-77589000D03*
X167633000Y-77589000D03*
X168133000Y-77589000D03*
X168633000Y-77589000D03*
X169133000Y-77589000D03*
X169633000Y-77589000D03*
X170133000Y-77589000D03*
X170633000Y-77589000D03*
X171133000Y-77589000D03*
X171633000Y-77589000D03*
X172133000Y-77589000D03*
X172633000Y-77589000D03*
X173133000Y-77589000D03*
D26*
X175083000Y-75639000D03*
X175083000Y-75139000D03*
X175083000Y-74639000D03*
X175083000Y-74139000D03*
X175083000Y-73639000D03*
X175083000Y-73139000D03*
X175083000Y-72639000D03*
X175083000Y-72139000D03*
X175083000Y-71639000D03*
X175083000Y-71139000D03*
X175083000Y-70639000D03*
X175083000Y-70139000D03*
X175083000Y-69639000D03*
X175083000Y-69139000D03*
X175083000Y-68639000D03*
X175083000Y-68139000D03*
D27*
X167525000Y-59775000D03*
X167525000Y-50755000D03*
X164985000Y-59775000D03*
X164985000Y-50755000D03*
X162445000Y-59775000D03*
X162445000Y-50755000D03*
X152716000Y-50125000D03*
X152716000Y-59145000D03*
X155256000Y-50125000D03*
X155256000Y-59145000D03*
X157796000Y-50125000D03*
X157796000Y-59145000D03*
X176881000Y-60680000D03*
X176881000Y-51660000D03*
X174341000Y-60680000D03*
X174341000Y-51660000D03*
X171801000Y-60680000D03*
X171801000Y-51660000D03*
X160820000Y-118000000D03*
X160820000Y-127520000D03*
X163360000Y-118000000D03*
X163360000Y-127520000D03*
X165900000Y-118000000D03*
X165900000Y-127520000D03*
X169300000Y-144920000D03*
X169300000Y-135400000D03*
X166760000Y-144920000D03*
X166760000Y-135400000D03*
X164220000Y-144920000D03*
X164220000Y-135400000D03*
D28*
X180860000Y-57430000D03*
X183400000Y-56160000D03*
X180860000Y-54890000D03*
X183400000Y-53620000D03*
X180860000Y-52350000D03*
X183400000Y-51080000D03*
X180860000Y-49810000D03*
X183400000Y-48540000D03*
X180860000Y-47270000D03*
X183400000Y-46000000D03*
D29*
X189750000Y-57430000D03*
X189750000Y-46000000D03*
D30*
X192800000Y-59490000D03*
X192800000Y-43940000D03*
D31*
X179685000Y-66011000D03*
D32*
X179685000Y-68551000D03*
X179685000Y-71091000D03*
X179685000Y-73631000D03*
X179685000Y-76171000D03*
X179685000Y-78711000D03*
D33*
X198360000Y-126460000D03*
D34*
X198360000Y-131540000D03*
D33*
X198360000Y-129000000D03*
D35*
X180360000Y-143000000D03*
X180360000Y-141000000D03*
D36*
X177593038Y-144000000D03*
X177593038Y-141000000D03*
D37*
X195360000Y-140000000D03*
X193360000Y-140000000D03*
D36*
X183360000Y-151500000D03*
X183360000Y-148500000D03*
D13*
X180860000Y-151000000D03*
X180860000Y-149500000D03*
D37*
X195860000Y-142500000D03*
X193860000Y-142500000D03*
X180060000Y-136000000D03*
X178060000Y-136000000D03*
D17*
X191360000Y-112500000D03*
X189860000Y-112500000D03*
D13*
X186110000Y-62299252D03*
X186110000Y-60799252D03*
X182110000Y-62299252D03*
X182110000Y-60799252D03*
D38*
X191360000Y-145000000D03*
X191360000Y-155002520D03*
D16*
X165110000Y-110000000D03*
X165110000Y-108500000D03*
D21*
X195260000Y-138000000D03*
X193360000Y-138000000D03*
X178060000Y-138000000D03*
X179960000Y-138000000D03*
X181860000Y-136000000D03*
X183760000Y-136000000D03*
D16*
X180274167Y-110202147D03*
X180274167Y-111702147D03*
X180274167Y-112952147D03*
X180274167Y-114452147D03*
D17*
X183274167Y-112952147D03*
X181774167Y-112952147D03*
X186774167Y-114452147D03*
X185274167Y-114452147D03*
D39*
X184574167Y-111052147D03*
X184574167Y-112002147D03*
X184574167Y-112952147D03*
X186774167Y-112952147D03*
X186774167Y-111052147D03*
D40*
X183360700Y-62299252D03*
X184859300Y-62299252D03*
D41*
X153820000Y-68000000D03*
D42*
X156360000Y-68000000D03*
X153820000Y-70540000D03*
X156360000Y-70540000D03*
X153820000Y-73080000D03*
X156360000Y-73080000D03*
X153820000Y-75620000D03*
X156360000Y-75620000D03*
X153820000Y-78160000D03*
X156360000Y-78160000D03*
X153820000Y-80700000D03*
X156360000Y-80700000D03*
X153820000Y-83240000D03*
X156360000Y-83240000D03*
X153820000Y-85780000D03*
X156360000Y-85780000D03*
D41*
X155610000Y-115000000D03*
D42*
X153070000Y-115000000D03*
X155610000Y-112460000D03*
X153070000Y-112460000D03*
X155610000Y-109920000D03*
X153070000Y-109920000D03*
X155610000Y-107380000D03*
X153070000Y-107380000D03*
X155610000Y-104840000D03*
X153070000Y-104840000D03*
D43*
X158860000Y-137050000D03*
D44*
X158860000Y-141250000D03*
X153360000Y-137050000D03*
X153360000Y-141250000D03*
D12*
X176360640Y-108500000D03*
X181361900Y-108500000D03*
D45*
X173860000Y-140500000D03*
X173860000Y-144101720D03*
D46*
X195595000Y-121500000D03*
X191125000Y-121500000D03*
X199255000Y-121500000D03*
X187465000Y-121500000D03*
D15*
X172360000Y-119100000D03*
X172360000Y-121000000D03*
X174358980Y-120050000D03*
D12*
X176860000Y-123500000D03*
X176860000Y-113340000D03*
X179200000Y-117000000D03*
X189360000Y-117000000D03*
D47*
X179360000Y-126500000D03*
X186860000Y-129400000D03*
D48*
X193910000Y-126000000D03*
X192110000Y-131000000D03*
D16*
X182774167Y-110202147D03*
X182774167Y-111702147D03*
X173860000Y-127250000D03*
X173860000Y-128750000D03*
X171860000Y-127000000D03*
X171860000Y-128500000D03*
X188610000Y-87000000D03*
X188610000Y-88500000D03*
X166860000Y-154000000D03*
X166860000Y-155500000D03*
X181860000Y-87000000D03*
X181860000Y-88500000D03*
D35*
X197360000Y-100000000D03*
X197360000Y-98000000D03*
D49*
X173860000Y-125500000D03*
X173860000Y-123401960D03*
X171860000Y-123401960D03*
X171860000Y-125500000D03*
X188610000Y-83500000D03*
X188610000Y-85598040D03*
X166785000Y-150401960D03*
X166785000Y-152500000D03*
X181925000Y-83500000D03*
X181925000Y-85598040D03*
X190495000Y-83500000D03*
X190495000Y-85598040D03*
X186610000Y-83500000D03*
X186610000Y-85598040D03*
X184610000Y-83500000D03*
X184610000Y-85598040D03*
D16*
X190610000Y-87000000D03*
X190610000Y-88500000D03*
X186610000Y-87000000D03*
X186610000Y-88500000D03*
X184610000Y-87000000D03*
X184610000Y-88500000D03*
D50*
X190610000Y-79950000D03*
X190610000Y-64150000D03*
D11*
X196860000Y-105000000D03*
D33*
X153110000Y-127580000D03*
D34*
X153110000Y-122500000D03*
D33*
X153110000Y-125040000D03*
D51*
X183660000Y-142550000D03*
X189860000Y-142550000D03*
X183660000Y-141900000D03*
X189860000Y-141900000D03*
X183660000Y-141250000D03*
X189860000Y-141250000D03*
X183660000Y-140600000D03*
X189860000Y-140600000D03*
X183660000Y-139950000D03*
X189860000Y-139950000D03*
X183660000Y-139300000D03*
X189860000Y-139300000D03*
X183660000Y-138650000D03*
X189860000Y-138650000D03*
X183660000Y-138000000D03*
X189860000Y-138000000D03*
D52*
X186760000Y-140275000D03*
D53*
X185760000Y-141775000D03*
D54*
X186760000Y-141775000D03*
D53*
X187760000Y-141775000D03*
D54*
X187760000Y-138775000D03*
D53*
X186760000Y-138775000D03*
D54*
X185760000Y-138775000D03*
X187760000Y-140775000D03*
D53*
X186760000Y-140775000D03*
D54*
X185760000Y-140775000D03*
D53*
X187760000Y-139775000D03*
D54*
X186760000Y-139775000D03*
D53*
X185760000Y-139775000D03*
X188960000Y-96025000D03*
D54*
X189960000Y-96025000D03*
D53*
X190960000Y-96025000D03*
D54*
X190960000Y-99025000D03*
D53*
X189960000Y-99025000D03*
D54*
X188960000Y-99025000D03*
X190960000Y-97025000D03*
D53*
X189960000Y-97025000D03*
D54*
X188960000Y-97025000D03*
D53*
X190960000Y-98025000D03*
D54*
X189960000Y-98025000D03*
D53*
X188960000Y-98025000D03*
M02*
