%FSLAX23Y23*%
%MOIN*%
G04 EasyPC Gerber Version 16.0.6 Build 3249 *
%ADD94R,0.01584X0.06506*%
%ADD97R,0.01781X0.05718*%
%ADD91R,0.01781X0.06506*%
%ADD101R,0.01978X0.03946*%
%ADD19R,0.04340X0.04931*%
%ADD99R,0.16939X0.16939*%
%ADD71R,0.06600X0.06600*%
%ADD11C,0.01800*%
%ADD13C,0.02400*%
%ADD12C,0.03000*%
%ADD106C,0.03500*%
%ADD20C,0.05521*%
%ADD70C,0.06600*%
%ADD17C,0.07096*%
%ADD14C,0.07490*%
%ADD107C,0.10443*%
%ADD16C,0.13395*%
%ADD93R,0.06506X0.01584*%
%ADD98R,0.05718X0.01781*%
%ADD92R,0.06506X0.01781*%
%ADD18R,0.04931X0.04340*%
%ADD95R,0.07687X0.05324*%
%ADD96R,0.08080X0.05718*%
%ADD100R,0.08474X0.07687*%
X0Y0D02*
D02*
D11*
X361Y1470D03*
X366Y1585D03*
X622Y1262D03*
X648Y1261D03*
X677D03*
X711Y1265D03*
X786Y1580D03*
X806Y1560D03*
X815Y1540D03*
X827Y1521D03*
X926Y1395D03*
X946Y1410D03*
X966Y1430D03*
X1121Y1595D03*
X1146Y1590D03*
X1171D03*
X1172Y1279D03*
X1185Y1174D03*
X1186Y1151D03*
Y1197D03*
Y1295D03*
Y1525D03*
X1256Y970D03*
X1276Y1000D03*
X1281Y1455D03*
X1283Y1515D03*
X1286Y1285D03*
Y1745D03*
X1297Y1493D03*
X1301Y1235D03*
X1356Y1795D03*
X1361Y1770D03*
X1391Y920D03*
X1411Y900D03*
X1431Y870D03*
X1476Y1745D03*
X1571Y1015D03*
X1581Y1585D03*
X1636Y1615D03*
X1656Y1625D03*
X1669Y1138D03*
X1676Y1635D03*
X1692Y1138D03*
X1696Y1645D03*
X1716Y1140D03*
Y1655D03*
X1741Y1140D03*
X1746Y525D03*
X1767Y1139D03*
X1801Y1113D03*
X1911Y1435D03*
X1936D03*
X1961Y1430D03*
X2001Y1153D03*
Y1175D03*
Y1197D03*
Y1220D03*
X2061Y1150D03*
X2176Y1155D03*
X2256Y1220D03*
X2276Y1205D03*
X2291Y880D03*
X2296Y1185D03*
X2301Y1030D03*
X2311Y900D03*
Y1165D03*
X2321Y1015D03*
X2331Y1145D03*
X2346Y880D03*
X2351Y1125D03*
X2451Y1060D03*
X2461Y1095D03*
X2481Y1120D03*
X2811Y1145D03*
X2816Y1170D03*
X2976Y770D03*
X3051Y765D03*
X3121D03*
X3206Y770D03*
X3281Y765D03*
X3356Y770D03*
D02*
D12*
X1986Y880D03*
X2641Y1070D03*
X2666Y1350D03*
X2801Y915D03*
D02*
D13*
X2541Y1205D03*
X2656Y1280D03*
D02*
D14*
X3271Y1020D03*
Y1120D03*
Y1220D03*
Y1320D03*
Y1420D03*
X3371Y1070D03*
Y1170D03*
Y1270D03*
Y1370D03*
Y1470D03*
X3781Y985D03*
Y1085D03*
Y1407D03*
Y1507D03*
D02*
D16*
X3621Y1021D03*
Y1495D03*
D02*
D17*
X1615Y667D03*
Y745D03*
X1694Y667D03*
Y745D03*
X1772Y667D03*
Y745D03*
X2075Y667D03*
Y745D03*
X2154Y667D03*
Y745D03*
X2232Y667D03*
Y745D03*
D02*
D18*
X160Y1070D03*
Y1127D03*
X235Y1070D03*
Y1127D03*
X540Y1055D03*
Y1112D03*
X1272Y1943D03*
Y2001D03*
X1650Y1975D03*
Y2032D03*
X1990Y915D03*
Y972D03*
X2035Y1835D03*
Y1892D03*
X2405Y570D03*
Y627D03*
X2660Y730D03*
Y787D03*
X2710Y985D03*
Y1042D03*
X2975Y715D03*
Y772D03*
X2977Y598D03*
Y656D03*
X3050Y715D03*
Y772D03*
X3052Y598D03*
Y656D03*
X3070Y965D03*
Y1022D03*
X3127Y598D03*
Y656D03*
X3130Y715D03*
Y772D03*
X3155Y965D03*
Y1022D03*
X3202Y598D03*
Y656D03*
X3205Y715D03*
Y772D03*
X3277Y598D03*
Y656D03*
X3280Y715D03*
Y772D03*
X3355Y715D03*
Y772D03*
X3357Y598D03*
Y656D03*
D02*
D19*
X331Y1821D03*
X334Y2029D03*
X388Y1821D03*
X391Y2029D03*
X1354Y769D03*
X1411D03*
X1616Y1851D03*
X1673D03*
X2479Y619D03*
X2536D03*
X2784Y989D03*
X2841D03*
X3086Y886D03*
X3143D03*
X3211D03*
X3268D03*
X3426Y606D03*
Y686D03*
X3483Y606D03*
Y686D03*
D02*
D70*
X155Y1304D03*
Y1383D03*
Y1462D03*
Y1540D03*
Y1619D03*
Y1698D03*
Y1777D03*
X273Y731D03*
X373D03*
X529Y662D03*
X607D03*
Y740D03*
X686Y662D03*
Y740D03*
X765Y662D03*
Y740D03*
X834Y2012D03*
X843Y662D03*
Y740D03*
X912Y2012D03*
Y2090D03*
X991Y2012D03*
Y2090D03*
X1070Y2012D03*
Y2090D03*
X1102Y665D03*
X1148Y2012D03*
Y2090D03*
X1181Y665D03*
X1260D03*
X1339D03*
X1417D03*
X2260Y2087D03*
X2338D03*
X2417D03*
X2496D03*
X2575D03*
X2653D03*
X2732D03*
D02*
D71*
X155Y1225D03*
X529Y740D03*
X834Y2090D03*
X1024Y665D03*
X2181Y2087D03*
D02*
D20*
X381Y945D03*
Y1045D03*
Y1145D03*
D02*
D91*
X1301Y1092D03*
Y1699D03*
X1321Y1092D03*
Y1699D03*
X1340Y1092D03*
Y1699D03*
X1360Y1092D03*
Y1699D03*
X1380Y1092D03*
Y1699D03*
X1400Y1092D03*
Y1699D03*
X1419Y1092D03*
Y1699D03*
X1439Y1092D03*
Y1699D03*
X1459Y1092D03*
Y1699D03*
X1478Y1092D03*
Y1699D03*
X1498Y1092D03*
Y1699D03*
X1518Y1092D03*
Y1699D03*
X1537Y1092D03*
Y1699D03*
X1557Y1092D03*
Y1699D03*
X1577Y1092D03*
Y1699D03*
X1596Y1092D03*
Y1699D03*
X1616Y1092D03*
Y1699D03*
X1636Y1092D03*
Y1699D03*
X1655Y1092D03*
Y1699D03*
X1675Y1092D03*
Y1699D03*
X1695Y1092D03*
Y1699D03*
X1714Y1092D03*
Y1699D03*
X1734Y1092D03*
Y1699D03*
X1754Y1092D03*
Y1699D03*
X1774Y1092D03*
Y1699D03*
D02*
D92*
X1234Y1159D03*
Y1179D03*
Y1199D03*
Y1218D03*
Y1238D03*
Y1258D03*
Y1277D03*
Y1297D03*
Y1317D03*
Y1336D03*
Y1356D03*
Y1376D03*
Y1395D03*
Y1415D03*
Y1435D03*
Y1454D03*
Y1474D03*
Y1494D03*
Y1514D03*
Y1533D03*
Y1553D03*
Y1573D03*
Y1592D03*
Y1612D03*
Y1632D03*
X1840Y1159D03*
Y1179D03*
Y1199D03*
Y1218D03*
Y1238D03*
Y1258D03*
Y1277D03*
Y1297D03*
Y1317D03*
Y1336D03*
Y1356D03*
Y1376D03*
Y1395D03*
Y1415D03*
Y1435D03*
Y1454D03*
Y1474D03*
Y1494D03*
Y1514D03*
Y1533D03*
Y1553D03*
Y1573D03*
Y1592D03*
Y1612D03*
Y1632D03*
D02*
D93*
X2129Y1046D03*
Y1062D03*
Y1078D03*
Y1093D03*
Y1109D03*
Y1125D03*
Y1141D03*
Y1156D03*
Y1172D03*
Y1188D03*
Y1204D03*
Y1219D03*
Y1235D03*
Y1251D03*
Y1267D03*
Y1282D03*
Y1298D03*
Y1314D03*
Y1330D03*
Y1345D03*
X2589Y1046D03*
Y1062D03*
Y1078D03*
Y1093D03*
Y1109D03*
Y1125D03*
Y1141D03*
Y1156D03*
Y1172D03*
Y1188D03*
Y1204D03*
Y1219D03*
Y1235D03*
Y1251D03*
Y1267D03*
Y1282D03*
Y1298D03*
Y1314D03*
Y1330D03*
Y1345D03*
D02*
D94*
X2211Y956D03*
Y1428D03*
X2227Y956D03*
Y1428D03*
X2243Y956D03*
Y1428D03*
X2259Y956D03*
Y1428D03*
X2274Y956D03*
Y1428D03*
X2290Y956D03*
Y1428D03*
X2306Y956D03*
Y1428D03*
X2321Y956D03*
Y1428D03*
X2337Y956D03*
Y1428D03*
X2353Y956D03*
Y1428D03*
X2369Y956D03*
Y1428D03*
X2384Y956D03*
Y1428D03*
X2400Y956D03*
Y1428D03*
X2416Y956D03*
Y1428D03*
X2432Y956D03*
Y1428D03*
X2447Y956D03*
Y1428D03*
X2463Y956D03*
Y1428D03*
X2479Y956D03*
Y1428D03*
X2495Y956D03*
Y1428D03*
X2510Y956D03*
Y1428D03*
D02*
D95*
X1378Y1940D03*
Y2034D03*
X1551Y1940D03*
Y2034D03*
X2406Y696D03*
Y791D03*
X2563Y696D03*
Y791D03*
D02*
D96*
X1768Y1890D03*
Y2107D03*
X1917Y1890D03*
Y2107D03*
D02*
D97*
X467Y1305D03*
Y1640D03*
X486Y1305D03*
Y1640D03*
X506Y1305D03*
Y1640D03*
X526Y1305D03*
Y1640D03*
X545Y1305D03*
Y1640D03*
X565Y1305D03*
Y1640D03*
X585Y1305D03*
Y1640D03*
X604Y1305D03*
Y1640D03*
X624Y1305D03*
Y1640D03*
X644Y1305D03*
Y1640D03*
X664Y1305D03*
Y1640D03*
X683Y1305D03*
Y1640D03*
D02*
D98*
X408Y1364D03*
Y1384D03*
Y1403D03*
Y1423D03*
Y1443D03*
Y1463D03*
Y1482D03*
Y1502D03*
Y1522D03*
Y1541D03*
Y1561D03*
Y1581D03*
X742Y1364D03*
Y1384D03*
Y1403D03*
Y1423D03*
Y1443D03*
Y1463D03*
Y1482D03*
Y1502D03*
Y1522D03*
Y1541D03*
Y1561D03*
Y1581D03*
D02*
D99*
X575Y1472D03*
D02*
D100*
X482Y1824D03*
Y2024D03*
X648Y1824D03*
Y2024D03*
D02*
D101*
X635Y1050D03*
Y1136D03*
X661Y1050D03*
X687D03*
Y1136D03*
D02*
D106*
X2685Y1217D03*
D02*
D107*
X3501Y941D03*
Y1575D03*
X0Y0D02*
M02*
