%FSLAX23Y23*%
%MOIN*%
G04 EasyPC Gerber Version 16.0.6 Build 3249 *
%ADD74R,0.03740X0.04331*%
%ADD103R,0.08465X0.12795*%
%ADD80R,0.06000X0.06000*%
%ADD10C,0.00500*%
%ADD87C,0.00800*%
%ADD23C,0.01000*%
%ADD24C,0.01200*%
%ADD89C,0.01500*%
%ADD26C,0.01800*%
%ADD88C,0.02000*%
%ADD25C,0.02400*%
%ADD90C,0.02500*%
%ADD104C,0.02900*%
%ADD150C,0.04000*%
%ADD86C,0.04921*%
%ADD79C,0.06000*%
%ADD76C,0.06496*%
%ADD73C,0.06890*%
%ADD105C,0.09843*%
%ADD75R,0.04331X0.03740*%
%ADD102R,0.08465X0.03740*%
X0Y0D02*
D02*
D10*
X116Y1282D02*
Y590D01*
X211Y495*
X3741*
X3906Y660*
Y1725*
X3461Y2170*
X256*
X116Y2030*
Y1798*
G75*
G02X155Y1821I39J-22*
G01*
G75*
G02X168Y1734J-44*
G01*
G75*
G02Y1662I-13J-36*
G01*
G75*
G02Y1577I-13J-43*
G01*
G75*
G02Y1504I-13J-36*
G01*
G75*
G02Y1419I-13J-43*
G01*
G75*
G02Y1347I-13J-36*
G01*
G75*
G02X174Y1264I-13J-43*
G01*
X193*
Y1187*
X116*
Y1264*
X136*
G75*
G02X116Y1282I19J40*
G01*
X229Y731D02*
G75*
G02X318I44D01*
G01*
G75*
G02X229I-44*
G01*
X345Y1463D02*
G75*
G02Y1478I16J8D01*
G01*
Y1580*
G75*
G02X349Y1591I16*
G01*
G75*
G02X372Y1602I17J-6*
G01*
X382*
Y1615*
X433*
Y1621*
X466*
X459Y1628*
X452*
G75*
G02X428Y1645I-6J18*
G01*
G75*
G02X452Y1663I19*
G01*
X466*
G75*
G02X478Y1658I0J-18*
G01*
X543Y1593*
G75*
G02X546Y1590I-12J-12*
G01*
X611*
Y1524*
X605*
Y1516*
X625*
Y1524*
X619*
Y1590*
X691*
Y1524*
X685*
Y1506*
X687*
G75*
G02X710Y1502I9J-16*
G01*
Y1954*
X649Y2014*
X430*
G75*
G02X403Y2030I-9J16*
G01*
G75*
G02X430Y2046I19*
G01*
X656*
G75*
G02X667Y2042I0J-16*
G01*
X737Y1972*
G75*
G02X742Y1960I-11J-11*
G01*
Y1479*
X762Y1499*
G75*
G02X771Y1503I9J-9*
G01*
X821*
X826Y1508*
X793*
G75*
G02X776Y1530I-7J13*
G01*
G75*
G02Y1550I11J10*
G01*
G75*
G02Y1570I11J10*
G01*
G75*
G02X792Y1594I11J10*
G01*
X922Y1724*
G75*
G02X931Y1728I9J-9*
G01*
X1661*
G75*
G02X1670Y1724J-13*
G01*
X1705Y1689*
G75*
G02X1709Y1680I-9J-9*
G01*
Y1668*
G75*
G02X1729Y1648I8J-12*
G01*
Y1635*
G75*
G02X1725Y1627I-13*
G01*
X1722Y1624*
G75*
G02X1726Y1624I4J-14*
G01*
X2100*
X2247Y1771*
Y2050*
G75*
G02X2221Y2087I13J36*
G01*
G75*
G02X2298I39*
G01*
G75*
G02X2275Y2051I-39*
G01*
Y1765*
G75*
G02X2275Y1762I-14*
G01*
X2399Y1886*
Y2053*
G75*
G02X2379Y2087I19J34*
G01*
G75*
G02X2456I39*
G01*
G75*
G02X2424Y2049I-39*
G01*
Y1880*
G75*
G02X2420Y1872I-13*
G01*
X2110Y1562*
G75*
G02X2101Y1558I-9J9*
G01*
X2111*
X2412Y1859*
G75*
G02X2421Y1863I9J-9*
G01*
X2551*
X2624Y1936*
Y2062*
G75*
G02X2615Y2087I30J24*
G01*
G75*
G02X2692I39*
G01*
G75*
G02X2649Y2048I-39*
G01*
Y1930*
G75*
G02X2646Y1923I-13*
G01*
X2714Y1991*
Y2053*
G75*
G02X2694Y2087I19J34*
G01*
G75*
G02X2771I39*
G01*
G75*
G02X2739Y2049I-39*
G01*
Y1985*
G75*
G02X2735Y1977I-13*
G01*
X2580Y1822*
G75*
G02X2571Y1818I-9J9*
G01*
X2441*
X2140Y1517*
G75*
G02X2131Y1513I-9J9*
G01*
X2016*
X1949Y1445*
Y1443*
G75*
G02X1950Y1440I-13J-7*
G01*
G75*
G02X1974Y1423I11J-9*
G01*
Y1415*
G75*
G02X1970Y1407I-13*
G01*
X1950Y1387*
G75*
G02X1941Y1383I-9J9*
G01*
X1906*
G75*
G02X1897Y1387J13*
G01*
X1872Y1412*
G75*
G02X1869Y1420I9J9*
G01*
Y1455*
G75*
G02X1872Y1464I13*
G01*
X1987Y1579*
G75*
G02X1996Y1583I9J-9*
G01*
X2096*
X2110Y1597*
G75*
G02X2106Y1596I-4J14*
G01*
X1732*
X1719Y1583*
X1735*
Y1589*
X1795*
Y1538*
X1801*
Y1479*
X1803*
Y1414*
X1841*
G75*
G02X1861Y1406J-29*
G01*
X1956Y1311*
X2027*
Y1313*
X2021*
Y1379*
X2093*
Y1317*
X2165*
Y1367*
X2136Y1396*
G75*
G02X2130Y1410I15J15*
G01*
Y1450*
G75*
G02X2136Y1465I21*
G01*
X2261Y1590*
G75*
G02X2276Y1596I15J-15*
G01*
X2476*
G75*
G02X2491Y1590J-21*
G01*
X2676Y1405*
G75*
G02X2682Y1390I-15J-15*
G01*
Y1385*
X2713*
Y1391*
X2780*
Y1318*
X2713*
Y1324*
X2662*
Y1327*
G75*
G02X2657Y1328I4J24*
G01*
G75*
G02X2645Y1334I5J22*
G01*
X2573*
X2527Y1289*
Y1216*
G75*
G02X2548Y1221I14J-11*
G01*
X2608*
Y1255*
G75*
G02X2614Y1268I18J0*
G01*
X2639Y1293*
G75*
G02X2651Y1298I12J-12*
G01*
X2662*
Y1310*
X2713*
Y1316*
X2780*
Y1243*
X2713*
Y1249*
X2662*
Y1263*
X2658*
X2644Y1248*
Y1207*
G75*
G02X2642Y1198I-18J-2*
G01*
Y1157*
X2654Y1145*
X2662*
Y1160*
X2713*
Y1166*
X2780*
Y1093*
X2713*
Y1099*
X2662*
Y1113*
X2647*
G75*
G02X2636Y1118I0J16*
G01*
X2615Y1139*
G75*
G02X2610Y1150I11J11*
G01*
Y1189*
X2548*
G75*
G02X2527Y1195I-7J16*
G01*
Y1177*
X2533Y1171*
X2556*
G75*
G02X2567Y1167I0J-16*
G01*
X2643Y1091*
G75*
G02X2655Y1085I-2J-20*
G01*
X2689*
G75*
G02X2695Y1085J-16*
G01*
X2713*
Y1091*
X2780*
Y1018*
X2721*
X2803Y936*
G75*
G02X2822Y915I-2J-20*
G01*
G75*
G02X2781Y913I-21*
G01*
X2680Y1014*
G75*
G02X2675Y1024I11J11*
G01*
X2662*
Y1053*
X2653*
G75*
G02X2621Y1068I-12J17*
G01*
X2549Y1139*
X2526*
G75*
G02X2515Y1144I0J16*
G01*
X2514Y1144*
G75*
G02X2510Y1133I-18J1*
G01*
X2521*
G75*
G02X2530Y1129J-13*
G01*
X2806Y853*
X3046*
G75*
G02X3055Y849J-13*
G01*
X3125Y779*
G75*
G02X3136Y765I-4J-14*
G01*
G75*
G02X3107Y762I-15*
G01*
X3041Y828*
X3001*
G75*
G02X3010Y824J-13*
G01*
X3055Y779*
G75*
G02X3066Y765I-4J-14*
G01*
G75*
G02X3037Y762I-15*
G01*
X2996Y803*
X2801*
X2816Y788*
X2971*
G75*
G02X2980Y784J-13*
G01*
G75*
G02X2991Y770I-4J-14*
G01*
G75*
G02X2964Y763I-15*
G01*
X2811*
G75*
G02X2802Y767J13*
G01*
X2771Y797*
G75*
G02X2758Y811I2J16*
G01*
X2535Y1034*
Y978*
X2468*
Y984*
X2417*
Y989*
X2355*
G75*
G02X2328Y1003I-9J16*
G01*
G75*
G02X2325Y1001I-7J13*
G01*
X2270Y947*
G75*
G02X2261Y943I-9J9*
G01*
X1521*
X1445Y867*
G75*
G02X1417Y870I-14J4*
G01*
G75*
G02X1427Y884I15*
G01*
X1506Y963*
X1491*
X1425Y897*
G75*
G02X1397Y900I-14J4*
G01*
G75*
G02X1399Y908I15*
G01*
G75*
G02X1380Y912I-8J12*
G01*
Y904*
X1395*
Y850*
X1335*
Y904*
X1353*
Y970*
G75*
G02X1356Y980I14J0*
G01*
X1399Y1023*
X1266*
G75*
G02X1257Y1027J13*
G01*
X1177Y1107*
G75*
G02X1174Y1115I9J9*
G01*
Y950*
G75*
G02X1173Y949I-13J0*
G01*
X1235Y1011*
G75*
G02X1246Y1015I11J-11*
G01*
X1276*
G75*
G02Y985J-15*
G01*
X1252*
X1251Y984*
G75*
G02X1262Y957I5J-14*
G01*
X1195Y890*
Y701*
G75*
G02X1217Y678I-14J-36*
G01*
G75*
G02X1302I43J-13*
G01*
G75*
G02X1377Y665I36J-13*
G01*
G75*
G02X1302Y652I-39*
G01*
G75*
G02X1217I-43J13*
G01*
G75*
G02X1143Y665I-36J13*
G01*
G75*
G02X1168Y701I39*
G01*
Y895*
G75*
G02X1170Y903I14*
G01*
X1116Y849*
Y701*
G75*
G02X1141Y665I-14J-36*
G01*
G75*
G02X1064I-39*
G01*
G75*
G02X1086Y700I39*
G01*
Y855*
G75*
G02X1086Y858I15J0*
G01*
X984Y755*
Y680*
G75*
G02X980Y672I-13*
G01*
X885Y577*
G75*
G02X876Y573I-9J9*
G01*
X631*
G75*
G02X622Y577J13*
G01*
X592Y607*
G75*
G02X589Y615I9J9*
G01*
Y628*
G75*
G02X569Y662I19J34*
G01*
G75*
G02X646I39*
G01*
G75*
G02X614Y624I-39*
G01*
Y621*
X636Y598*
X799*
X773Y624*
G75*
G02X726Y662I-8J38*
G01*
G75*
G02X803I39*
G01*
G75*
G02X796Y640I-39*
G01*
X817Y619*
X860*
X932Y691*
Y775*
G75*
G02X936Y785I14*
G01*
X1122Y971*
Y1215*
X1117Y1219*
G75*
G02X1113Y1229I10J10*
G01*
Y1312*
G75*
G02X1118Y1323I14*
G01*
X1126Y1331*
X1156Y1360*
G75*
G02X1158Y1362I10J-10*
G01*
X1103*
X956Y1215*
G75*
G02X936Y1207I-20J20*
G01*
X873*
X867Y1201*
Y1151*
X829*
G75*
G02X806Y1150I-13J27*
G01*
X761*
X747Y1136*
Y1122*
X753*
Y1056*
X751*
Y1013*
X757Y1019*
G75*
G02X778Y1027I21J-21*
G01*
X816*
G75*
G02X829Y1025J-30*
G01*
X867*
Y970*
X829*
G75*
G02X816Y967I-13J27*
G01*
X790*
X772Y949*
G75*
G02X751Y940I-21J21*
G01*
X746*
Y900*
G75*
G02X737Y879I-30J0*
G01*
X657Y799*
G75*
G02X636Y790I-21J21*
G01*
X473*
X412Y728*
G75*
G02X335Y731I-38J2*
G01*
G75*
G02X367Y769I39*
G01*
X440Y842*
G75*
G02X461Y850I21J-21*
G01*
X624*
X686Y913*
Y943*
X685*
Y948*
X666*
G75*
G02X650Y954I0J23*
G01*
X620Y984*
G75*
G02X613Y1000I16J16*
G01*
Y1165*
X591*
G75*
G02X577Y1171I0J20*
G01*
X547Y1201*
G75*
G02X541Y1215I14J14*
G01*
Y1364*
X534*
Y1359*
X518*
X514Y1356*
G75*
G02X479Y1353I-18J5*
G01*
X416*
Y1426*
X483*
Y1420*
X534*
Y1396*
X545*
Y1407*
X605*
Y1353*
X581*
Y1326*
G75*
G02X585Y1332I15J-6*
G01*
X610Y1357*
Y1425*
G75*
G02X615Y1437I16J0*
G01*
X630Y1452*
G75*
G02X641Y1457I11J-11*
G01*
X642*
Y1468*
X679*
G75*
G02X682Y1473I17J-8*
G01*
X625*
Y1484*
X605*
Y1473*
X591*
Y1464*
X605*
Y1410*
X545*
Y1464*
X559*
Y1473*
X545*
Y1502*
X519Y1528*
G75*
G02X513Y1540I12J13*
G01*
Y1573*
X500Y1587*
Y1548*
X433*
Y1554*
X382*
Y1567*
X377*
Y1487*
X377*
Y1500*
X428*
Y1506*
X495*
Y1433*
X428*
Y1439*
X377*
Y1452*
X377*
Y1257*
X392Y1242*
G75*
G02X397Y1230I-11J-11*
G01*
Y1174*
G75*
G02X381Y1112I-16J-29*
G01*
G75*
G02X365Y1174J33*
G01*
Y1224*
X350Y1239*
G75*
G02X345Y1250I11J11*
G01*
Y1463*
X381Y984D02*
G75*
G02Y906J-39D01*
G01*
G75*
G02Y984J39*
G01*
Y1078D02*
G75*
G02Y1012J-33D01*
G01*
G75*
G02Y1078J33*
G01*
X490Y662D02*
G75*
G02X567I39D01*
G01*
G75*
G02X490I-39*
G01*
Y702D02*
Y779D01*
X567*
Y702*
X490*
X569Y740D02*
G75*
G02X646I39D01*
G01*
G75*
G02X569I-39*
G01*
X647Y662D02*
G75*
G02X724I39D01*
G01*
G75*
G02X647I-39*
G01*
Y740D02*
G75*
G02X724I39D01*
G01*
G75*
G02X647I-39*
G01*
X726D02*
G75*
G02X803I39D01*
G01*
G75*
G02X726I-39*
G01*
X759Y1121D02*
X873D01*
Y1055*
X759*
Y1121*
X795Y2012D02*
G75*
G02X872I39D01*
G01*
G75*
G02X795I-39*
G01*
Y2052D02*
Y2129D01*
X872*
Y2052*
X795*
X805Y662D02*
G75*
G02X882I39D01*
G01*
G75*
G02X805I-39*
G01*
Y740D02*
G75*
G02X882I39D01*
G01*
G75*
G02X805I-39*
G01*
X874Y2012D02*
G75*
G02X951I39D01*
G01*
G75*
G02X874I-39*
G01*
Y2090D02*
G75*
G02X951I39D01*
G01*
G75*
G02X874I-39*
G01*
X952D02*
G75*
G02X1029I39D01*
G01*
G75*
G02X952I-39*
G01*
X977Y1976D02*
G75*
G02X952Y2012I14J36D01*
G01*
G75*
G02X1029I39*
G01*
G75*
G02X1005Y1976I-39*
G01*
Y1946*
X1192Y1759*
X1195*
G75*
G02X1192Y1762I6J11*
G01*
X1067Y1887*
G75*
G02X1064Y1895I9J9*
G01*
Y1974*
G75*
G02X1031Y2012I6J38*
G01*
G75*
G02X1108I39*
G01*
G75*
G02X1089Y1978I-39*
G01*
Y1901*
X1136Y1853*
G75*
G02X1134Y1860I10J7*
G01*
Y1976*
G75*
G02X1110Y2012I15J35*
G01*
G75*
G02X1187I39*
G01*
G75*
G02X1159Y1974I-39*
G01*
Y1866*
X1216Y1808*
X1349*
G75*
G02X1365Y1784I7J-13*
G01*
G75*
G02X1376Y1770I-4J-14*
G01*
G75*
G02X1354Y1758I-15*
G01*
X1293*
G75*
G02X1283Y1731I-7J-13*
G01*
X1186*
G75*
G02X1176Y1735J14*
G01*
X981Y1930*
G75*
G02X977Y1940I10J10*
G01*
Y1976*
X988Y1009D02*
Y1166D01*
X1101*
Y1009*
X988*
X1031Y2090D02*
G75*
G02X1108I39D01*
G01*
G75*
G02X1031I-39*
G01*
X1062Y704D02*
Y627D01*
X985*
Y704*
X1062*
X1172Y2060D02*
G75*
G02X1110Y2090I-23J31D01*
G01*
G75*
G02X1187I39*
G01*
G75*
G02X1186Y2081I-39J0*
G01*
X1210Y2057*
G75*
G02X1214Y2048I-9J-9*
G01*
Y1901*
X1251Y1863*
X1371*
G75*
G02X1380Y1859J-13*
G01*
X1480Y1759*
G75*
G02X1491Y1745I-4J-14*
G01*
G75*
G02X1462Y1742I-15*
G01*
X1366Y1838*
X1246*
G75*
G02X1237Y1842J13*
G01*
X1192Y1887*
G75*
G02X1189Y1895I9J9*
G01*
Y2043*
X1172Y2060*
X1269Y801D02*
Y795D01*
X1202*
Y867*
X1269*
Y861*
X1320*
Y836*
X1335*
Y847*
X1395*
Y793*
X1383*
Y773*
X1424Y731*
X1426Y730*
G75*
G02X1434Y715I-10J-14*
G01*
Y700*
G75*
G02X1456Y665I-16J-35*
G01*
G75*
G02X1379I-39*
G01*
G75*
G02X1398Y699I39*
G01*
Y707*
X1353Y753*
G75*
G02X1348Y765I12J12*
G01*
Y793*
X1335*
Y804*
X1320*
Y801*
X1269*
X1603Y706D02*
G75*
G02X1574Y745I11J39D01*
G01*
G75*
G02X1654Y757I41*
G01*
G75*
G02X1733I39J-11*
G01*
G75*
G02X1813Y745I39J-11*
G01*
G75*
G02X1784Y706I-41*
G01*
G75*
G02X1813Y667I-11J-39*
G01*
G75*
G02X1733Y655I-41*
G01*
G75*
G02X1654I-39J11*
G01*
G75*
G02X1574Y667I-39J11*
G01*
G75*
G02X1603Y706I41*
G01*
X1732Y525D02*
G75*
G02X1761I15D01*
G01*
G75*
G02X1732I-15*
G01*
X2052Y853D02*
X1991D01*
G75*
G02X1975Y859J23*
G01*
X1971Y863*
G75*
G02X1999Y898I15J17*
G01*
X2052*
Y903*
X2112*
Y897*
X2127*
Y903*
X2187*
Y897*
X2202*
Y903*
X2262*
Y849*
X2202*
Y855*
X2187*
Y849*
X2127*
Y855*
X2112*
Y849*
X2052*
Y853*
X2055Y709D02*
G75*
G02X2059Y783I20J36D01*
G01*
Y792*
X2052*
Y846*
X2112*
Y792*
X2091*
Y783*
G75*
G02X2114Y757I-16J-38*
G01*
G75*
G02X2138Y783I39J-11*
G01*
Y792*
X2127*
Y846*
X2187*
Y792*
X2170*
Y783*
G75*
G02X2193Y757I-16J-38*
G01*
G75*
G02X2215Y782I39J-11*
G01*
Y792*
X2202*
Y846*
X2262*
Y792*
X2250*
Y782*
G75*
G02X2252Y709I-18J-37*
G01*
G75*
G02X2274Y689I-20J-43*
G01*
Y880*
G75*
G02X2283Y893I13*
G01*
G75*
G02X2299Y893I8J-12*
G01*
Y893*
G75*
G02X2297Y900I13J7*
G01*
G75*
G02X2326I15*
G01*
G75*
G02X2324Y893I-15*
G01*
Y856*
G75*
G02X2326Y860I12J-5*
G01*
X2334Y868*
Y873*
G75*
G02X2332Y880I13J7*
G01*
G75*
G02X2361I15*
G01*
G75*
G02X2359Y873I-15*
G01*
Y862*
G75*
G02X2355Y854I-13*
G01*
X2348Y846*
Y627*
X2391Y583*
X2796*
X2827Y614*
G75*
G02X2836Y618I9J-9*
G01*
X3071*
X3194Y741*
Y763*
G75*
G02X3193Y765I13J7*
G01*
G75*
G02X3192Y778I13J7*
G01*
Y794*
G75*
G02X3196Y804I14J0*
G01*
X3211Y820*
G75*
G02X3221Y824I10J-10*
G01*
X3290*
X3398Y931*
Y985*
G75*
G02X3401Y995I14J0*
G01*
X3703Y1296*
Y1442*
G75*
G02X3706Y1451I14J0*
G01*
X3743Y1488*
G75*
G02X3781Y1550I38J19*
G01*
G75*
G02Y1464J-43*
G01*
G75*
G02X3762Y1469I0J43*
G01*
X3730Y1436*
Y1290*
G75*
G02X3726Y1281I-14J0*
G01*
X3425Y980*
Y925*
G75*
G02X3421Y916I-14J0*
G01*
X3306Y801*
G75*
G02X3296Y797I-10J10*
G01*
X3227*
X3219Y789*
Y778*
G75*
G02X3219Y763I-13J-7*
G01*
Y735*
G75*
G02X3215Y727I-13*
G01*
X3086Y598*
X3116*
X3269Y751*
Y758*
G75*
G02X3267Y765I13J7*
G01*
G75*
G02X3296I15*
G01*
G75*
G02X3294Y758I-15*
G01*
Y745*
G75*
G02X3290Y737I-13*
G01*
X3131Y578*
X3156*
X3344Y761*
Y762*
G75*
G02X3363Y784I13J9*
G01*
X3510*
X3708Y981*
Y1045*
G75*
G02X3711Y1054I14J0*
G01*
X3738Y1081*
G75*
G02X3781Y1128I43J4*
G01*
G75*
G02Y1042J-43*
G01*
G75*
G02X3750Y1055J43*
G01*
X3735Y1039*
Y975*
G75*
G02X3731Y966I-14J0*
G01*
X3526Y761*
G75*
G02X3516Y757I-10J10*
G01*
X3369*
Y755*
G75*
G02X3365Y746I-13*
G01*
X3170Y556*
G75*
G02X3161Y553I-9J9*
G01*
X2871*
X2840Y522*
G75*
G02X2831Y518I-9J9*
G01*
X2361*
G75*
G02X2352Y522J13*
G01*
X2277Y597*
G75*
G02X2274Y605I9J9*
G01*
Y644*
G75*
G02X2193Y641I-41J23*
G01*
G75*
G02X2114I-39J26*
G01*
G75*
G02X2028Y667I-39J26*
G01*
G75*
G02X2055Y709I47*
G01*
X2143Y2048D02*
Y2125D01*
X2220*
Y2048*
X2143*
X2300Y2087D02*
G75*
G02X2377I39D01*
G01*
G75*
G02X2300I-39*
G01*
X2457D02*
G75*
G02X2534I39D01*
G01*
G75*
G02X2457I-39*
G01*
X2536D02*
G75*
G02X2613I39D01*
G01*
G75*
G02X2536I-39*
G01*
X2662Y1214D02*
G75*
G02Y1220I23J3D01*
G01*
Y1235*
X2670*
G75*
G02X2700I15J-17*
G01*
X2713*
Y1241*
X2780*
Y1168*
X2713*
Y1174*
X2662*
Y1214*
X2807Y1159D02*
G75*
G02X2824Y1183I9J11D01*
G01*
G75*
G02X2830Y1179I-3J-12*
G01*
X2906Y1103*
X3231*
X3232Y1104*
G75*
G02X3246Y1155I40J17*
G01*
X3136*
G75*
G02X3125Y1160I0J15*
G01*
X3065Y1220*
G75*
G02X3061Y1230I11J11*
G01*
Y1258*
X3045*
Y1312*
X3105*
Y1258*
X3091*
Y1237*
X3142Y1185*
X3246*
G75*
G02X3230Y1207I25J35*
G01*
X3181*
G75*
G02X3171Y1211I0J14*
G01*
X3141Y1241*
G75*
G02X3138Y1250I10J10*
G01*
Y1258*
X3125*
Y1312*
X3185*
Y1258*
X3165*
Y1256*
X3187Y1234*
X3230*
G75*
G02X3271Y1263I41J-14*
G01*
G75*
G02X3296Y1185J-43*
G01*
X3331*
G75*
G02X3371Y1213I40J-15*
G01*
G75*
G02Y1127J-43*
G01*
G75*
G02X3331Y1155J43*
G01*
X3296*
G75*
G02X3292Y1083I-25J-35*
G01*
X3330*
G75*
G02X3371Y1113I41J-13*
G01*
G75*
G02Y1027J-43*
G01*
G75*
G02X3330Y1058J43*
G01*
X3292*
G75*
G02X3271Y977I-21J-38*
G01*
G75*
G02X3250Y1058J43*
G01*
X2886*
G75*
G02X2877Y1062J13*
G01*
X2807Y1131*
G75*
G02X2807Y1159I4J14*
G01*
X3062Y1369D02*
Y1385D01*
G75*
G02X3066Y1395I14J0*
G01*
X3077Y1406*
Y1445*
X3128*
Y1451*
X3195*
Y1378*
X3128*
Y1384*
X3093*
X3089Y1380*
Y1369*
X3105*
Y1356*
X3125*
Y1369*
X3185*
Y1315*
X3125*
Y1329*
X3105*
Y1315*
X3045*
Y1369*
X3062*
X3271Y1271D02*
G75*
G02Y1369J49D01*
G01*
G75*
G02Y1271J-49*
G01*
Y1371D02*
G75*
G02Y1469J49D01*
G01*
G75*
G02Y1371J-49*
G01*
X3371Y1221D02*
G75*
G02Y1319J49D01*
G01*
G75*
G02Y1221J-49*
G01*
Y1321D02*
G75*
G02Y1419J49D01*
G01*
G75*
G02Y1321J-49*
G01*
Y1421D02*
G75*
G02Y1519J49D01*
G01*
G75*
G02Y1421J-49*
G01*
X3501Y877D02*
G75*
G02Y1005J64D01*
G01*
G75*
G02Y877J-64*
G01*
Y1512D02*
G75*
G02Y1639J64D01*
G01*
G75*
G02Y1512J-64*
G01*
X3621Y943D02*
G75*
G02Y1099J78D01*
G01*
G75*
G02Y943J-78*
G01*
Y1417D02*
G75*
G02Y1574J78D01*
G01*
G75*
G02Y1417J-78*
G01*
X3781Y942D02*
G75*
G02Y1028J43D01*
G01*
G75*
G02Y942J-43*
G01*
Y1364D02*
G75*
G02Y1450J43D01*
G01*
G75*
G02Y1364J-43*
G01*
X116Y731D02*
G36*
Y662D01*
X490*
G75*
G02X567I39*
G01*
X569*
G75*
G02X646I39*
G01*
X647*
G75*
G02X724I39*
G01*
X726*
G75*
G02X803I39*
G01*
X805*
G75*
G02X882I39*
G01*
X902*
X932Y691*
Y731*
X881*
G75*
G02X806I-37J10*
G01*
X802*
G75*
G02X727I-37J10*
G01*
X723*
G75*
G02X649I-37J10*
G01*
X644*
G75*
G02X570I-37J10*
G01*
X567*
Y702*
X490*
Y731*
X414*
X412Y728*
G75*
G02X335Y731I-38J2*
G01*
X318*
G75*
G02X229I-44*
G01*
X116*
G37*
X229D02*
G36*
G75*
G02X318I44D01*
G01*
X335*
G75*
G02X367Y769I39*
G01*
X440Y842*
G75*
G02X461Y850I21J-21*
G01*
X624*
X649Y876*
X116*
Y731*
X229*
G37*
X490D02*
G36*
Y779D01*
X567*
Y731*
X570*
G75*
G02X569Y740I37J10*
G01*
G75*
G02X646I39*
G01*
G75*
G02X644Y731I-39J0*
G01*
X649*
G75*
G02X647Y740I37J10*
G01*
G75*
G02X724I39*
G01*
G75*
G02X723Y731I-39J0*
G01*
X727*
G75*
G02X726Y740I37J10*
G01*
G75*
G02X803I39*
G01*
G75*
G02X802Y731I-39J0*
G01*
X806*
G75*
G02X805Y740I37J10*
G01*
G75*
G02X882I39*
G01*
G75*
G02X881Y731I-39J0*
G01*
X932*
Y775*
G75*
G02X936Y785I14*
G01*
X1122Y971*
Y1045*
X1101*
Y1009*
X988*
Y1045*
X751*
Y1013*
X757Y1019*
G75*
G02X778Y1027I21J-21*
G01*
X816*
G75*
G02X829Y1025J-30*
G01*
X867*
Y970*
X829*
G75*
G02X816Y967I-13J27*
G01*
X790*
X772Y949*
G75*
G02X751Y940I-21J21*
G01*
X746*
Y900*
G75*
G02X737Y879I-30J0*
G01*
X657Y799*
G75*
G02X636Y790I-21J21*
G01*
X473*
X414Y731*
X490*
G37*
X1195D02*
G36*
Y701D01*
G75*
G02X1217Y678I-14J-36*
G01*
G75*
G02X1302I43J-13*
G01*
G75*
G02X1377Y665I36J-13*
G01*
G75*
G02X1377Y662I-39J0*
G01*
X1379*
G75*
G02X1379Y665I38J4*
G01*
G75*
G02X1398Y699I39*
G01*
Y707*
X1375Y731*
X1195*
G37*
X1375D02*
G36*
X1353Y753D01*
G75*
G02X1348Y765I12J12*
G01*
Y793*
X1335*
Y804*
X1320*
Y801*
X1269*
Y795*
X1202*
Y867*
X1269*
Y861*
X1320*
Y836*
X1335*
Y847*
X1395*
Y793*
X1383*
Y773*
X1424Y731*
X1425Y731*
X1577*
G75*
G02X1574Y745I38J15*
G01*
G75*
G02X1654Y757I41*
G01*
G75*
G02X1733I39J-11*
G01*
G75*
G02X1813Y745I39J-11*
G01*
G75*
G02X1810Y731I-41*
G01*
X2037*
G75*
G02X2059Y783I38J15*
G01*
Y792*
X2052*
Y846*
X2112*
Y792*
X2091*
Y783*
G75*
G02X2114Y757I-16J-38*
G01*
G75*
G02X2138Y783I39J-11*
G01*
Y792*
X2127*
Y846*
X2187*
Y792*
X2170*
Y783*
G75*
G02X2193Y757I-16J-38*
G01*
G75*
G02X2215Y782I39J-11*
G01*
Y792*
X2202*
Y846*
X2262*
Y792*
X2250*
Y782*
G75*
G02X2252Y709I-18J-37*
G01*
G75*
G02X2274Y689I-20J-43*
G01*
Y876*
X2262*
Y849*
X2202*
Y855*
X2187*
Y849*
X2127*
Y855*
X2112*
Y849*
X2052*
Y853*
X1991*
G75*
G02X1975Y859J23*
G01*
X1971Y863*
G75*
G02X1964Y876I15J17*
G01*
X1454*
X1445Y867*
G75*
G02X1417Y870I-14J4*
G01*
G75*
G02X1427Y884I15*
G01*
X1506Y963*
X1491*
X1425Y897*
G75*
G02X1397Y900I-14J4*
G01*
G75*
G02X1399Y908I15*
G01*
G75*
G02X1380Y912I-8J12*
G01*
Y904*
X1395*
Y850*
X1335*
Y904*
X1353*
Y970*
G75*
G02X1356Y980I14J0*
G01*
X1399Y1023*
X1266*
G75*
G02X1257Y1027J13*
G01*
X1177Y1107*
G75*
G02X1174Y1115I9J9*
G01*
Y950*
G75*
G02X1173Y949I-13J0*
G01*
X1235Y1011*
G75*
G02X1246Y1015I11J-11*
G01*
X1276*
G75*
G02Y985J-15*
G01*
X1252*
X1251Y984*
G75*
G02X1262Y957I5J-14*
G01*
X1195Y890*
Y731*
X1375*
G37*
X1425D02*
G36*
X1426Y730D01*
G75*
G02X1434Y715I-10J-14*
G01*
Y700*
G75*
G02X1456Y665I-16J-35*
G01*
G75*
G02X1456Y662I-39J0*
G01*
X1574*
G75*
G02X1574Y667I41J5*
G01*
G75*
G02X1603Y706I41*
G01*
G75*
G02X1577Y731I11J39*
G01*
X1425*
G37*
X1810D02*
G36*
G75*
G02X1784Y706I-38J15D01*
G01*
G75*
G02X1813Y667I-11J-39*
G01*
G75*
G02X1813Y662I-41J0*
G01*
X2028*
G75*
G02X2028Y667I47J5*
G01*
G75*
G02X2055Y709I47*
G01*
G75*
G02X2037Y731I20J36*
G01*
X1810*
G37*
X3348D02*
G36*
X3278Y662D01*
X3906*
Y731*
X3348*
G37*
X3906D02*
G36*
Y876D01*
X3641*
X3526Y761*
G75*
G02X3516Y757I-10J10*
G01*
X3369*
Y755*
G75*
G02X3365Y746I-13*
G01*
X3348Y731*
X3906*
G37*
X116Y945D02*
G36*
Y876D01*
X649*
X686Y913*
Y943*
X685*
Y945*
X420*
G75*
G02X381Y906I-39*
G01*
G75*
G02X342Y945J39*
G01*
X116*
G37*
X342D02*
G36*
G75*
G02X381Y984I39D01*
G01*
G75*
G02X420Y945J-39*
G01*
X685*
Y948*
X666*
G75*
G02X650Y954I0J23*
G01*
X620Y984*
G75*
G02X613Y1000I16J16*
G01*
Y1045*
X414*
G75*
G02X381Y1012I-33*
G01*
G75*
G02X348Y1045J33*
G01*
X116*
Y945*
X342*
G37*
X2794D02*
G36*
X2803Y936D01*
G75*
G02X2822Y915I-2J-20*
G01*
G75*
G02X2781Y913I-21*
G01*
X2680Y1014*
G75*
G02X2675Y1024I11J11*
G01*
X2662*
Y1053*
X2653*
G75*
G02X2621Y1068I-12J17*
G01*
X2549Y1139*
X2526*
G75*
G02X2515Y1144I0J16*
G01*
X2514Y1144*
G75*
G02X2510Y1133I-18J1*
G01*
X2521*
G75*
G02X2530Y1129J-13*
G01*
X2783Y876*
X3342*
X3398Y931*
Y945*
X2794*
G37*
X3398D02*
G36*
Y985D01*
G75*
G02X3401Y995I14J0*
G01*
X3452Y1045*
X3406*
G75*
G02X3371Y1027I-35J25*
G01*
G75*
G02X3330Y1058J43*
G01*
X3292*
G75*
G02X3271Y977I-21J-38*
G01*
G75*
G02X3236Y1045J43*
G01*
X2780*
Y1018*
X2721*
X2794Y945*
X3398*
G37*
X3425D02*
G36*
Y925D01*
G75*
G02X3421Y916I-14J0*
G01*
X3306Y801*
G75*
G02X3296Y797I-10J10*
G01*
X3227*
X3219Y789*
Y778*
G75*
G02X3219Y763I-13J-7*
G01*
Y735*
G75*
G02X3215Y727I-13*
G01*
X3086Y598*
X3116*
X3269Y751*
Y758*
G75*
G02X3267Y765I13J7*
G01*
G75*
G02X3296I15*
G01*
G75*
G02X3294Y758I-15*
G01*
Y745*
G75*
G02X3290Y737I-13*
G01*
X3131Y578*
X3156*
X3344Y761*
Y762*
G75*
G02X3363Y784I13J9*
G01*
X3510*
X3672Y945*
X3642*
G75*
G02X3621Y943I-21J76*
G01*
G75*
G02X3600Y945J78*
G01*
X3565*
G75*
G02X3501Y877I-64J-4*
G01*
G75*
G02X3437Y945J64*
G01*
X3425*
G37*
X3437D02*
G36*
G75*
G02X3501Y1005I64J-4D01*
G01*
G75*
G02X3565Y945J-64*
G01*
X3600*
G75*
G02X3546Y1045I21J76*
G01*
X3490*
X3425Y980*
Y945*
X3437*
G37*
X3672D02*
G36*
X3708Y981D01*
Y1045*
X3696Y1045*
G75*
G02X3642Y945I-75J-24*
G01*
X3672*
G37*
X3710D02*
G36*
X3641Y876D01*
X3906*
Y945*
X3798*
G75*
G02X3781Y942I-17J40*
G01*
G75*
G02X3765Y945J43*
G01*
X3710*
G37*
X3765D02*
G36*
G75*
G02X3781Y1028I17J40D01*
G01*
G75*
G02X3798Y945J-43*
G01*
X3906*
Y1045*
X3798*
G75*
G02X3781Y1042I-17J40*
G01*
G75*
G02X3750Y1055J43*
G01*
X3735Y1039*
Y975*
G75*
G02X3731Y966I-14J0*
G01*
X3710Y945*
X3765*
G37*
X348Y1045D02*
G36*
G75*
G02X381Y1078I33D01*
G01*
G75*
G02X414Y1045J-33*
G01*
X613*
Y1088*
X116*
Y1045*
X348*
G37*
X988D02*
G36*
Y1088D01*
X873*
Y1055*
X759*
Y1088*
X753*
Y1056*
X751*
Y1045*
X988*
G37*
X1122D02*
G36*
Y1088D01*
X1101*
Y1045*
X1122*
G37*
X3236D02*
G36*
G75*
G02X3250Y1058I35J-25D01*
G01*
X2886*
G75*
G02X2877Y1062J13*
G01*
X2851Y1088*
X2780*
Y1045*
X3236*
G37*
X3452D02*
G36*
X3494Y1088D01*
X3410*
G75*
G02X3406Y1045I-39J-17*
G01*
X3452*
G37*
X3546D02*
G36*
G75*
G02X3580Y1088I75J-24D01*
G01*
X3533*
X3490Y1045*
X3546*
G37*
X3708D02*
G36*
G75*
G02X3711Y1054I13J-1D01*
G01*
X3738Y1081*
G75*
G02X3738Y1088I43J4*
G01*
X3662*
G75*
G02X3696Y1045I-41J-67*
G01*
X3708*
G37*
X3906D02*
G36*
Y1088D01*
X3824*
G75*
G02X3798Y1045I-43J-3*
G01*
X3906*
G37*
X116Y662D02*
G36*
Y590D01*
X181Y525*
X1732*
G75*
G02X1761I15*
G01*
X2348*
X2277Y597*
G75*
G02X2274Y605I9J9*
G01*
Y644*
G75*
G02X2193Y641I-41J23*
G01*
G75*
G02X2114I-39J26*
G01*
G75*
G02X2028Y662I-39J26*
G01*
X1813*
G75*
G02X1733Y655I-41J5*
G01*
G75*
G02X1654I-39J11*
G01*
G75*
G02X1574Y662I-39J11*
G01*
X1456*
G75*
G02X1379I-38J4*
G01*
X1377*
G75*
G02X1302Y652I-38J4*
G01*
G75*
G02X1217I-43J13*
G01*
G75*
G02X1143Y665I-36J13*
G01*
G75*
G02X1168Y701I39*
G01*
Y895*
G75*
G02X1170Y903I14*
G01*
X1116Y849*
Y701*
G75*
G02X1141Y665I-14J-36*
G01*
G75*
G02X1064Y662I-39*
G01*
X1062*
Y627*
X985*
Y662*
X970*
X885Y577*
G75*
G02X876Y573I-9J9*
G01*
X631*
G75*
G02X622Y577J13*
G01*
X592Y607*
G75*
G02X589Y615I9J9*
G01*
Y628*
G75*
G02X569Y662I19J34*
G01*
X567*
G75*
G02X490I-39*
G01*
X116*
G37*
X646D02*
G36*
G75*
G02X614Y624I-39D01*
G01*
Y621*
X636Y598*
X799*
X773Y624*
G75*
G02X726Y662I-8J38*
G01*
X724*
G75*
G02X647I-39*
G01*
X646*
G37*
X803D02*
G36*
G75*
G02X796Y640I-39D01*
G01*
X817Y619*
X860*
X902Y662*
X882*
G75*
G02X805I-39*
G01*
X803*
G37*
X985D02*
G36*
Y704D01*
X1062*
Y662*
X1064*
G75*
G02X1064Y665I38J4*
G01*
G75*
G02X1086Y700I39*
G01*
Y855*
G75*
G02X1086Y858I15J0*
G01*
X984Y755*
Y680*
G75*
G02X980Y672I-13*
G01*
X970Y662*
X985*
G37*
X3278D02*
G36*
X3170Y556D01*
G75*
G02X3161Y553I-9J9*
G01*
X2871*
X2844Y525*
X3771*
X3906Y660*
Y662*
X3278*
G37*
X613Y1088D02*
G36*
Y1165D01*
X591*
G75*
G02X577Y1171I0J20*
G01*
X547Y1201*
G75*
G02X541Y1215I14J14*
G01*
Y1364*
X534*
Y1359*
X518*
X514Y1356*
G75*
G02X479Y1353I-18J5*
G01*
X416*
Y1426*
X483*
Y1420*
X534*
Y1396*
X545*
Y1407*
X605*
Y1353*
X581*
Y1326*
G75*
G02X585Y1332I15J-6*
G01*
X610Y1357*
Y1425*
G75*
G02X615Y1437I16J0*
G01*
X630Y1452*
G75*
G02X641Y1457I11J-11*
G01*
X642*
Y1468*
X679*
G75*
G02X682Y1473I17J-8*
G01*
X625*
Y1484*
X605*
Y1473*
X591*
Y1464*
X605*
Y1410*
X545*
Y1464*
X559*
Y1473*
X545*
Y1502*
X519Y1528*
G75*
G02X513Y1540I12J13*
G01*
Y1573*
X500Y1587*
Y1548*
X433*
Y1554*
X382*
Y1567*
X377*
Y1487*
X377*
Y1500*
X428*
Y1506*
X495*
Y1433*
X428*
Y1439*
X377*
Y1452*
X377*
Y1257*
X392Y1242*
G75*
G02X397Y1230I-11J-11*
G01*
Y1174*
G75*
G02X381Y1112I-16J-29*
G01*
G75*
G02X365Y1174J33*
G01*
Y1204*
X193*
Y1187*
X116*
Y1264*
X136*
G75*
G02X116Y1282I19J40*
G01*
Y1088*
X613*
G37*
X759D02*
G36*
Y1121D01*
X873*
Y1088*
X988*
Y1166*
X1101*
Y1088*
X1122*
Y1215*
X1117Y1219*
G75*
G02X1113Y1229I10J10*
G01*
Y1312*
G75*
G02X1118Y1323I14*
G01*
X1126Y1331*
X1156Y1360*
G75*
G02X1158Y1362I10J-10*
G01*
X1103*
X956Y1215*
G75*
G02X936Y1207I-20J20*
G01*
X873*
X867Y1201*
Y1151*
X829*
G75*
G02X806Y1150I-13J27*
G01*
X761*
X747Y1136*
Y1122*
X753*
Y1088*
X759*
G37*
X2851D02*
G36*
X2807Y1131D01*
G75*
G02X2807Y1159I4J14*
G01*
G75*
G02X2824Y1183I9J11*
G01*
G75*
G02X2830Y1179I-3J-12*
G01*
X2906Y1103*
X3231*
X3232Y1104*
G75*
G02X3246Y1155I40J17*
G01*
X3136*
G75*
G02X3125Y1160I0J15*
G01*
X3081Y1204*
X2780*
Y1168*
X2713*
Y1174*
X2662*
Y1204*
X2644*
G75*
G02X2642Y1198I-18J1*
G01*
Y1157*
X2654Y1145*
X2662*
Y1160*
X2713*
Y1166*
X2780*
Y1093*
X2713*
Y1099*
X2662*
Y1113*
X2647*
G75*
G02X2636Y1118I0J16*
G01*
X2615Y1139*
G75*
G02X2610Y1150I11J11*
G01*
Y1189*
X2548*
G75*
G02X2527Y1195I-7J16*
G01*
Y1177*
X2533Y1171*
X2556*
G75*
G02X2567Y1167I0J-16*
G01*
X2643Y1091*
G75*
G02X2655Y1085I-2J-20*
G01*
X2689*
G75*
G02X2695Y1085J-16*
G01*
X2713*
Y1091*
X2780*
Y1088*
X2851*
G37*
X3494D02*
G36*
X3611Y1204D01*
X3397*
G75*
G02X3371Y1127I-26J-34*
G01*
G75*
G02X3331Y1155J43*
G01*
X3296*
G75*
G02X3292Y1083I-25J-35*
G01*
X3330*
G75*
G02X3371Y1113I41J-13*
G01*
G75*
G02X3410Y1088J-43*
G01*
X3494*
G37*
X3580D02*
G36*
G75*
G02X3621Y1099I41J-67D01*
G01*
G75*
G02X3662Y1088J-78*
G01*
X3738*
G75*
G02X3781Y1128I43J-3*
G01*
G75*
G02X3824Y1088J-43*
G01*
X3906*
Y1204*
X3649*
X3533Y1088*
X3580*
G37*
X116Y2012D02*
G36*
Y1798D01*
G75*
G02X155Y1821I39J-22*
G01*
G75*
G02X168Y1734J-44*
G01*
G75*
G02Y1662I-13J-36*
G01*
G75*
G02Y1577I-13J-43*
G01*
G75*
G02X171Y1575I-13J-36*
G01*
X345*
Y1580*
G75*
G02X349Y1591I16*
G01*
G75*
G02X372Y1602I17J-6*
G01*
X382*
Y1615*
X433*
Y1621*
X466*
X459Y1628*
X452*
G75*
G02X428Y1645I-6J18*
G01*
G75*
G02X452Y1663I19*
G01*
X466*
G75*
G02X478Y1658I0J-18*
G01*
X543Y1593*
G75*
G02X546Y1590I-12J-12*
G01*
X611*
Y1524*
X605*
Y1516*
X625*
Y1524*
X619*
Y1590*
X691*
Y1524*
X685*
Y1506*
X687*
G75*
G02X710Y1502I9J-16*
G01*
Y1954*
X652Y2012*
X116*
G37*
X652D02*
G36*
X649Y2014D01*
X430*
G75*
G02X403Y2030I-9J16*
G01*
G75*
G02X430Y2046I19*
G01*
X656*
G75*
G02X667Y2042I0J-16*
G01*
X697Y2012*
X795*
G75*
G02X872I39*
G01*
X874*
G75*
G02X951I39*
G01*
X952*
G75*
G02X1029I39*
G01*
G75*
G02X1005Y1976I-39*
G01*
Y1946*
X1192Y1759*
X1195*
G75*
G02X1192Y1762I6J11*
G01*
X1067Y1887*
G75*
G02X1064Y1895I9J9*
G01*
Y1974*
G75*
G02X1031Y2012I6J38*
G01*
G75*
G02X1108I39*
G01*
G75*
G02X1089Y1978I-39*
G01*
Y1901*
X1136Y1853*
G75*
G02X1134Y1860I10J7*
G01*
Y1976*
G75*
G02X1110Y2012I15J35*
G01*
G75*
G02X1187I39*
G01*
X1189*
Y2043*
X1172Y2060*
G75*
G02X1110Y2090I-23J31*
G01*
X1108*
G75*
G02X1031I-39*
G01*
X1029*
G75*
G02X952I-39*
G01*
X951*
G75*
G02X874I-39*
G01*
X872*
Y2052*
X795*
Y2090*
X176*
X116Y2030*
Y2012*
X652*
G37*
X697D02*
G36*
X737Y1972D01*
G75*
G02X742Y1960I-11J-11*
G01*
Y1479*
X762Y1499*
G75*
G02X771Y1503I9J-9*
G01*
X821*
X826Y1508*
X793*
G75*
G02X776Y1530I-7J13*
G01*
G75*
G02Y1550I11J10*
G01*
G75*
G02Y1570I11J10*
G01*
G75*
G02X792Y1594I11J10*
G01*
X922Y1724*
G75*
G02X931Y1728I9J-9*
G01*
X1661*
G75*
G02X1670Y1724J-13*
G01*
X1705Y1689*
G75*
G02X1709Y1680I-9J-9*
G01*
Y1668*
G75*
G02X1729Y1648I8J-12*
G01*
Y1635*
G75*
G02X1725Y1627I-13*
G01*
X1722Y1624*
G75*
G02X1726Y1624I4J-14*
G01*
X2100*
X2247Y1771*
Y2012*
X1214*
Y1901*
X1251Y1863*
X1371*
G75*
G02X1380Y1859J-13*
G01*
X1480Y1759*
G75*
G02X1491Y1745I-4J-14*
G01*
G75*
G02X1462Y1742I-15*
G01*
X1366Y1838*
X1246*
G75*
G02X1237Y1842J13*
G01*
X1192Y1887*
G75*
G02X1189Y1895I9J9*
G01*
Y2012*
X1187*
G75*
G02X1159Y1974I-39*
G01*
Y1866*
X1216Y1808*
X1349*
G75*
G02X1365Y1784I7J-13*
G01*
G75*
G02X1376Y1770I-4J-14*
G01*
G75*
G02X1354Y1758I-15*
G01*
X1293*
G75*
G02X1283Y1731I-7J-13*
G01*
X1186*
G75*
G02X1176Y1735J14*
G01*
X981Y1930*
G75*
G02X977Y1940I10J10*
G01*
Y1976*
G75*
G02X952Y2012I14J36*
G01*
X951*
G75*
G02X874I-39*
G01*
X872*
G75*
G02X795I-39*
G01*
X697*
G37*
X2247D02*
G36*
Y2050D01*
G75*
G02X2221Y2087I13J36*
G01*
G75*
G02X2221Y2090I39J0*
G01*
X2220*
Y2048*
X2143*
Y2090*
X1187*
G75*
G02X1186Y2081I-39J0*
G01*
X1210Y2057*
G75*
G02X1214Y2048I-9J-9*
G01*
Y2012*
X2247*
G37*
X2739D02*
G36*
Y1985D01*
G75*
G02X2735Y1977I-13*
G01*
X2580Y1822*
G75*
G02X2571Y1818I-9J9*
G01*
X2441*
X2140Y1517*
G75*
G02X2131Y1513I-9J9*
G01*
X2016*
X1949Y1445*
Y1443*
G75*
G02X1950Y1440I-13J-7*
G01*
G75*
G02X1974Y1423I11J-9*
G01*
Y1415*
G75*
G02X1970Y1407I-13*
G01*
X1950Y1387*
G75*
G02X1941Y1383I-9J9*
G01*
X1906*
G75*
G02X1897Y1387J13*
G01*
X1872Y1412*
G75*
G02X1869Y1420I9J9*
G01*
Y1455*
G75*
G02X1872Y1464I13*
G01*
X1987Y1579*
G75*
G02X1996Y1583I9J-9*
G01*
X2096*
X2110Y1597*
G75*
G02X2106Y1596I-4J14*
G01*
X1732*
X1719Y1583*
X1735*
Y1589*
X1795*
Y1538*
X1801*
Y1479*
X1803*
Y1414*
X1841*
G75*
G02X1861Y1406J-29*
G01*
X1956Y1311*
X2027*
Y1313*
X2021*
Y1379*
X2093*
Y1317*
X2165*
Y1367*
X2136Y1396*
G75*
G02X2130Y1410I15J15*
G01*
Y1450*
G75*
G02X2136Y1465I21*
G01*
X2261Y1590*
G75*
G02X2276Y1596I15J-15*
G01*
X2476*
G75*
G02X2491Y1590J-21*
G01*
X2506Y1575*
X3437*
G75*
G02X3501Y1639I64*
G01*
G75*
G02X3565Y1575J-64*
G01*
X3906*
Y1725*
X3620Y2012*
X2739*
G37*
X3620D02*
G36*
X3541Y2090D01*
X2771*
G75*
G02X2771Y2087I-38J-4*
G01*
G75*
G02X2739Y2049I-39*
G01*
Y2012*
X3620*
G37*
X795Y2090D02*
G36*
Y2129D01*
X872*
Y2090*
X874*
G75*
G02X951I39*
G01*
X952*
G75*
G02X1029I39*
G01*
X1031*
G75*
G02X1108I39*
G01*
X1110*
G75*
G02X1187I39*
G01*
X2143*
Y2125*
X2220*
Y2090*
X2221*
G75*
G02X2298I38J-4*
G01*
X2300*
G75*
G02X2377I38J-4*
G01*
X2379*
G75*
G02X2456I38J-4*
G01*
X2458*
G75*
G02X2534I38J-4*
G01*
X2536*
G75*
G02X2613I38J-4*
G01*
X2615*
G75*
G02X2692Y2087I38J-4*
G01*
G75*
G02X2649Y2048I-39*
G01*
Y1930*
G75*
G02X2646Y1923I-13*
G01*
X2714Y1991*
Y2053*
G75*
G02X2694Y2087I19J34*
G01*
G75*
G02X2771Y2090I39*
G01*
X3541*
X3461Y2170*
X256*
X176Y2090*
X795*
G37*
X2298D02*
G36*
G75*
G02X2298Y2087I-38J-4D01*
G01*
G75*
G02X2275Y2051I-39*
G01*
Y1765*
G75*
G02X2275Y1762I-14*
G01*
X2399Y1886*
Y2053*
G75*
G02X2379Y2087I19J34*
G01*
G75*
G02X2379Y2090I39J0*
G01*
X2377*
G75*
G02X2377Y2087I-38J-4*
G01*
G75*
G02X2300I-39*
G01*
G75*
G02X2300Y2090I39J0*
G01*
X2298*
G37*
X2456D02*
G36*
G75*
G02X2456Y2087I-38J-4D01*
G01*
G75*
G02X2424Y2049I-39*
G01*
Y1880*
G75*
G02X2420Y1872I-13*
G01*
X2110Y1562*
G75*
G02X2101Y1558I-9J9*
G01*
X2111*
X2412Y1859*
G75*
G02X2421Y1863I9J-9*
G01*
X2551*
X2624Y1936*
Y2062*
G75*
G02X2615Y2087I30J24*
G01*
G75*
G02X2615Y2090I39J0*
G01*
X2613*
G75*
G02X2613Y2087I-38J-4*
G01*
G75*
G02X2536I-39*
G01*
G75*
G02X2536Y2090I39J0*
G01*
X2534*
G75*
G02X2534Y2087I-38J-4*
G01*
G75*
G02X2457I-39*
G01*
G75*
G02X2458Y2090I39J0*
G01*
X2456*
G37*
X181Y525D02*
G36*
X211Y495D01*
X3741*
X3771Y525*
X2844*
X2840Y522*
G75*
G02X2831Y518I-9J9*
G01*
X2361*
G75*
G02X2352Y522J13*
G01*
X2348Y525*
X1761*
G75*
G02X1732I-15*
G01*
X181*
G37*
X1964Y876D02*
G36*
G75*
G02X1999Y898I22J4D01*
G01*
X2052*
Y903*
X2112*
Y897*
X2127*
Y903*
X2187*
Y897*
X2202*
Y903*
X2262*
Y876*
X2274*
Y880*
G75*
G02X2283Y893I13*
G01*
G75*
G02X2299Y893I8J-12*
G01*
Y893*
G75*
G02X2297Y900I13J7*
G01*
G75*
G02X2326I15*
G01*
G75*
G02X2324Y893I-15*
G01*
Y856*
G75*
G02X2326Y860I12J-5*
G01*
X2334Y868*
Y873*
G75*
G02X2332Y880I13J7*
G01*
G75*
G02X2361I15*
G01*
G75*
G02X2360Y876I-15*
G01*
X2693*
X2535Y1034*
Y978*
X2468*
Y984*
X2417*
Y989*
X2355*
G75*
G02X2328Y1003I-9J16*
G01*
G75*
G02X2325Y1001I-7J13*
G01*
X2270Y947*
G75*
G02X2261Y943I-9J9*
G01*
X1521*
X1454Y876*
X1964*
G37*
X2360D02*
G36*
G75*
G02X2359Y873I-14J5D01*
G01*
Y862*
G75*
G02X2355Y854I-13*
G01*
X2348Y846*
Y627*
X2391Y583*
X2796*
X2827Y614*
G75*
G02X2836Y618I9J-9*
G01*
X3071*
X3194Y741*
Y763*
G75*
G02X3193Y765I13J7*
G01*
G75*
G02X3192Y778I13J7*
G01*
Y794*
G75*
G02X3196Y804I14J0*
G01*
X3211Y820*
G75*
G02X3221Y824I10J-10*
G01*
X3290*
X3342Y876*
X2783*
X2806Y853*
X3046*
G75*
G02X3055Y849J-13*
G01*
X3125Y779*
G75*
G02X3136Y765I-4J-14*
G01*
G75*
G02X3107Y762I-15*
G01*
X3041Y828*
X3001*
G75*
G02X3010Y824J-13*
G01*
X3055Y779*
G75*
G02X3066Y765I-4J-14*
G01*
G75*
G02X3037Y762I-15*
G01*
X2996Y803*
X2801*
X2816Y788*
X2971*
G75*
G02X2980Y784J-13*
G01*
G75*
G02X2991Y770I-4J-14*
G01*
G75*
G02X2964Y763I-15*
G01*
X2811*
G75*
G02X2802Y767J13*
G01*
X2771Y797*
G75*
G02X2758Y811I2J16*
G01*
X2693Y876*
X2360*
G37*
X365Y1204D02*
G36*
Y1224D01*
X350Y1239*
G75*
G02X345Y1250I11J11*
G01*
Y1270*
X184*
G75*
G02X174Y1264I-29J34*
G01*
X193*
Y1204*
X365*
G37*
X2662D02*
G36*
Y1214D01*
G75*
G02Y1220I23J3*
G01*
Y1235*
X2670*
G75*
G02X2700I15J-17*
G01*
X2713*
Y1241*
X2780*
Y1204*
X3081*
X3065Y1220*
G75*
G02X3061Y1230I11J11*
G01*
Y1258*
X3045*
Y1270*
X2780*
Y1243*
X2713*
Y1249*
X2662*
Y1263*
X2658*
X2644Y1248*
Y1207*
G75*
G02X2644Y1204I-18J-2*
G01*
X2662*
G37*
X3611D02*
G36*
X3677Y1270D01*
X3420*
G75*
G02X3371Y1221I-49*
G01*
G75*
G02X3322Y1270J49*
G01*
X3185*
Y1258*
X3165*
Y1256*
X3187Y1234*
X3230*
G75*
G02X3271Y1263I41J-14*
G01*
G75*
G02X3296Y1185J-43*
G01*
X3331*
G75*
G02X3371Y1213I40J-15*
G01*
G75*
G02X3397Y1204J-43*
G01*
X3611*
G37*
X3906D02*
G36*
Y1270D01*
X3715*
X3649Y1204*
X3906*
G37*
X193Y1383D02*
G36*
G75*
G02X168Y1347I-39J0D01*
G01*
G75*
G02X196Y1320I-13J-43*
G01*
X345*
Y1383*
X193*
G37*
X345D02*
G36*
Y1463D01*
G75*
G02X343Y1470I16J8*
G01*
X198*
G75*
G02X168Y1419I-44J-9*
G01*
G75*
G02X193Y1383I-13J-36*
G01*
X345*
G37*
X2780D02*
G36*
Y1320D01*
X3045*
Y1369*
X3062*
Y1383*
X2780*
G37*
X3062D02*
G36*
Y1385D01*
G75*
G02X3066Y1395I14J0*
G01*
X3077Y1406*
Y1445*
X3128*
Y1451*
X3195*
Y1383*
X3240*
G75*
G02X3271Y1469I31J38*
G01*
G75*
G02X3302Y1383J-49*
G01*
X3324*
G75*
G02X3371Y1419I47J-12*
G01*
G75*
G02X3418Y1383J-49*
G01*
X3703*
Y1442*
G75*
G02X3706Y1451I14J0*
G01*
X3726Y1470*
X3695*
G75*
G02X3621Y1417I-74J25*
G01*
G75*
G02X3547Y1470J78*
G01*
X3420*
G75*
G02X3371Y1421I-49*
G01*
G75*
G02X3322Y1470J49*
G01*
X2611*
X2676Y1405*
G75*
G02X2682Y1390I-15J-15*
G01*
Y1385*
X2713*
Y1391*
X2780*
Y1383*
X3062*
G37*
X3195D02*
G36*
Y1378D01*
X3128*
Y1384*
X3093*
X3089Y1380*
Y1369*
X3105*
Y1356*
X3125*
Y1369*
X3185*
Y1320*
X3222*
G75*
G02X3271Y1369I49*
G01*
G75*
G02X3320Y1320J-49*
G01*
X3703*
Y1383*
X3418*
G75*
G02X3371Y1321I-47J-12*
G01*
G75*
G02X3324Y1383J49*
G01*
X3302*
G75*
G02X3271Y1371I-31J38*
G01*
G75*
G02X3240Y1383J49*
G01*
X3195*
G37*
X3730D02*
G36*
Y1320D01*
X3906*
Y1383*
X3817*
G75*
G02X3781Y1364I-35J24*
G01*
G75*
G02X3746Y1383J43*
G01*
X3730*
G37*
X3746D02*
G36*
G75*
G02X3781Y1450I35J24D01*
G01*
G75*
G02X3817Y1383J-43*
G01*
X3906*
Y1470*
X3804*
G75*
G02X3781Y1464I-22J37*
G01*
G75*
G02X3762Y1469I0J43*
G01*
X3730Y1436*
Y1383*
X3746*
G37*
X196Y1320D02*
G36*
G75*
G02X184Y1270I-41J-16D01*
G01*
X345*
Y1320*
X196*
G37*
X2780D02*
G36*
Y1318D01*
X2713*
Y1324*
X2662*
Y1327*
G75*
G02X2657Y1328I4J24*
G01*
G75*
G02X2645Y1334I5J22*
G01*
X2573*
X2527Y1289*
Y1216*
G75*
G02X2548Y1221I14J-11*
G01*
X2608*
Y1255*
G75*
G02X2614Y1268I18J0*
G01*
X2639Y1293*
G75*
G02X2651Y1298I12J-12*
G01*
X2662*
Y1310*
X2713*
Y1316*
X2780*
Y1270*
X3045*
Y1312*
X3105*
Y1258*
X3091*
Y1237*
X3142Y1185*
X3246*
G75*
G02X3230Y1207I25J35*
G01*
X3181*
G75*
G02X3171Y1211I0J14*
G01*
X3141Y1241*
G75*
G02X3138Y1250I10J10*
G01*
Y1258*
X3125*
Y1312*
X3185*
Y1270*
X3322*
G75*
G02X3371Y1319I49*
G01*
G75*
G02X3420Y1270J-49*
G01*
X3677*
X3703Y1296*
Y1320*
X3320*
G75*
G02X3271Y1271I-49*
G01*
G75*
G02X3222Y1320J49*
G01*
X3185*
Y1315*
X3125*
Y1329*
X3105*
Y1315*
X3045*
Y1320*
X2780*
G37*
X3730D02*
G36*
Y1290D01*
G75*
G02X3726Y1281I-14J0*
G01*
X3715Y1270*
X3906*
Y1320*
X3730*
G37*
X343Y1470D02*
G36*
G75*
G02X345Y1478I18D01*
G01*
Y1575*
X171*
G75*
G02X168Y1504I-16J-35*
G01*
G75*
G02X198Y1470I-13J-43*
G01*
X343*
G37*
X3322D02*
G36*
G75*
G02X3371Y1519I49D01*
G01*
G75*
G02X3420Y1470J-49*
G01*
X3547*
G75*
G02X3621Y1574I74J25*
G01*
G75*
G02X3695Y1470J-78*
G01*
X3726*
X3743Y1488*
G75*
G02X3781Y1550I38J19*
G01*
G75*
G02X3804Y1470J-43*
G01*
X3906*
Y1575*
X3565*
G75*
G02X3501Y1512I-64*
G01*
G75*
G02X3437Y1575J64*
G01*
X2506*
X2611Y1470*
X3322*
G37*
X581Y1245D02*
Y1224D01*
X599Y1205*
X626*
G75*
G02X659Y1185I10J-20*
G01*
G75*
G02X659Y1184I-23*
G01*
Y1010*
X675Y993*
X685*
Y994*
X679*
Y1060*
X681*
Y1122*
X687*
Y1173*
X704*
X729Y1199*
G75*
G02X750Y1207I20J-20*
G01*
X803*
G75*
G02X806Y1219I28J-2*
G01*
X611*
G75*
G02X600Y1224I0J16*
G01*
X585Y1239*
G75*
G02X581Y1245I11J11*
G01*
G36*
Y1224*
X599Y1205*
X626*
G75*
G02X659Y1185I10J-20*
G01*
G75*
G02X659Y1184I-23*
G01*
Y1010*
X675Y993*
X685*
Y994*
X679*
Y1060*
X681*
Y1122*
X687*
Y1173*
X704*
X729Y1199*
G75*
G02X750Y1207I20J-20*
G01*
X803*
G75*
G02X806Y1219I28J-2*
G01*
X611*
G75*
G02X600Y1224I0J16*
G01*
X585Y1239*
G75*
G02X581Y1245I11J11*
G01*
G37*
X685Y1251D02*
X835D01*
G75*
G02X871Y1264I26J-16*
G01*
X924*
X1071Y1411*
G75*
G02X1091Y1419I20J-20*
G01*
X1268*
G75*
G02X1268Y1420I18J1*
G01*
G75*
G02X1304Y1425I19*
G01*
X1309Y1420*
X1309Y1420*
X1310Y1420*
G75*
G02X1323Y1424I14J-25*
G01*
X1406*
G75*
G02X1426Y1416J-29*
G01*
X1436Y1405*
G75*
G02X1451Y1404I5J-30*
G01*
X1629*
X1636Y1411*
G75*
G02X1656Y1419I20J-20*
G01*
X1675*
Y1527*
X1565*
G75*
G02X1553Y1532I0J16*
G01*
X1513Y1572*
G75*
G02X1509Y1573I5J18*
G01*
X1495*
Y1551*
X1444*
Y1549*
X1453*
Y1483*
X1447*
Y1432*
X1387*
Y1443*
X1367*
Y1432*
X1307*
Y1442*
X1286*
G75*
G02X1267Y1455I-5J14*
G01*
G75*
G02X1286Y1469I15*
G01*
X1307*
Y1483*
X1307*
G75*
G02X1290Y1481I-10J11*
G01*
X1274*
X1270Y1477*
G75*
G02X1261Y1473I-9J9*
G01*
X1026*
X980Y1427*
G75*
G02X959Y1418I-14J4*
G01*
Y1418*
G75*
G02X940Y1397I-13J-7*
G01*
G75*
G02X941Y1395I-14J-2*
G01*
G75*
G02X912I-15*
G01*
G75*
G02X914Y1403I15*
G01*
Y1450*
G75*
G02X916Y1457I13*
G01*
X880Y1422*
G75*
G02X871Y1418I-9J9*
G01*
X831*
X824Y1410*
Y1365*
G75*
G02X820Y1357I-13*
G01*
X720Y1257*
G75*
G02X711Y1253I-9J9*
G01*
X688*
G75*
G02X685Y1251I-7J13*
G01*
G36*
X835*
G75*
G02X871Y1264I26J-16*
G01*
X924*
X1071Y1411*
G75*
G02X1091Y1419I20J-20*
G01*
X1268*
G75*
G02X1268Y1420I18J1*
G01*
G75*
G02X1304Y1425I19*
G01*
X1309Y1420*
X1309Y1420*
X1310Y1420*
G75*
G02X1323Y1424I14J-25*
G01*
X1406*
G75*
G02X1426Y1416J-29*
G01*
X1436Y1405*
G75*
G02X1451Y1404I5J-30*
G01*
X1629*
X1636Y1411*
G75*
G02X1656Y1419I20J-20*
G01*
X1675*
Y1527*
X1565*
G75*
G02X1553Y1532I0J16*
G01*
X1513Y1572*
G75*
G02X1509Y1573I5J18*
G01*
X1495*
Y1551*
X1444*
Y1549*
X1453*
Y1483*
X1447*
Y1432*
X1387*
Y1443*
X1367*
Y1432*
X1307*
Y1442*
X1286*
G75*
G02X1267Y1455I-5J14*
G01*
G75*
G02X1286Y1469I15*
G01*
X1307*
Y1483*
X1307*
G75*
G02X1290Y1481I-10J11*
G01*
X1274*
X1270Y1477*
G75*
G02X1261Y1473I-9J9*
G01*
X1026*
X980Y1427*
G75*
G02X959Y1418I-14J4*
G01*
Y1418*
G75*
G02X940Y1397I-13J-7*
G01*
G75*
G02X941Y1395I-14J-2*
G01*
G75*
G02X912I-15*
G01*
G75*
G02X914Y1403I15*
G01*
Y1450*
G75*
G02X916Y1457I13*
G01*
X880Y1422*
G75*
G02X871Y1418I-9J9*
G01*
X831*
X824Y1410*
Y1365*
G75*
G02X820Y1357I-13*
G01*
X720Y1257*
G75*
G02X711Y1253I-9J9*
G01*
X688*
G75*
G02X685Y1251I-7J13*
G01*
G37*
X994Y1536D02*
G75*
G02X1001Y1538I7J-10D01*
G01*
X1179*
G75*
G02X1198Y1518I7J-13*
G01*
X1201*
X1207Y1524*
G75*
G02X1216Y1528I9J-9*
G01*
X1276*
G75*
G02X1295Y1508I7J-13*
G01*
G75*
G02X1301Y1507I2J-14*
G01*
Y1549*
X1373*
Y1483*
X1367*
Y1475*
X1387*
Y1483*
X1381*
Y1545*
X1377*
Y1608*
X1128*
G75*
G02X1135Y1600I-7J-12*
G01*
G75*
G02X1159Y1598I11J-9*
G01*
G75*
G02X1184Y1583I13J-7*
G01*
Y1570*
G75*
G02X1180Y1562I-13*
G01*
X1165Y1547*
G75*
G02X1156Y1543I-9J9*
G01*
X1001*
X994Y1536*
G36*
G75*
G02X1001Y1538I7J-10*
G01*
X1179*
G75*
G02X1198Y1518I7J-13*
G01*
X1201*
X1207Y1524*
G75*
G02X1216Y1528I9J-9*
G01*
X1276*
G75*
G02X1295Y1508I7J-13*
G01*
G75*
G02X1301Y1507I2J-14*
G01*
Y1549*
X1373*
Y1483*
X1367*
Y1475*
X1387*
Y1483*
X1381*
Y1545*
X1377*
Y1608*
X1128*
G75*
G02X1135Y1600I-7J-12*
G01*
G75*
G02X1159Y1598I11J-9*
G01*
G75*
G02X1184Y1583I13J-7*
G01*
Y1570*
G75*
G02X1180Y1562I-13*
G01*
X1165Y1547*
G75*
G02X1156Y1543I-9J9*
G01*
X1001*
X994Y1536*
G37*
X1162Y1289D02*
G75*
G02X1172Y1294I11J-10D01*
G01*
G75*
G02X1172Y1295I14J2*
G01*
G75*
G02X1193Y1308I15*
G01*
X1201*
G75*
G02X1210Y1304J-13*
G01*
X1300Y1214*
G75*
G02X1304Y1205I-9J-9*
G01*
Y1151*
X1326Y1128*
X1353*
G75*
G02X1339Y1148I9J21*
G01*
Y1152*
X1332*
Y1203*
X1326*
Y1269*
X1398*
Y1203*
X1392*
Y1200*
X1406*
X1420Y1214*
Y1348*
G75*
G02X1406Y1355I6J28*
G01*
X1394Y1367*
X1356*
Y1302*
X1290*
X1294Y1298*
G75*
G02X1283Y1271I-7J-12*
G01*
X1305Y1249*
G75*
G02X1316Y1235I-4J-14*
G01*
G75*
G02X1287Y1232I-15*
G01*
X1201Y1318*
X1182*
X1162Y1297*
Y1289*
G36*
G75*
G02X1172Y1294I11J-10*
G01*
G75*
G02X1172Y1295I14J2*
G01*
G75*
G02X1193Y1308I15*
G01*
X1201*
G75*
G02X1210Y1304J-13*
G01*
X1300Y1214*
G75*
G02X1304Y1205I-9J-9*
G01*
Y1151*
X1326Y1128*
X1353*
G75*
G02X1339Y1148I9J21*
G01*
Y1152*
X1332*
Y1203*
X1326*
Y1269*
X1398*
Y1203*
X1392*
Y1200*
X1406*
X1420Y1214*
Y1348*
G75*
G02X1406Y1355I6J28*
G01*
X1394Y1367*
X1356*
Y1302*
X1290*
X1294Y1298*
G75*
G02X1283Y1271I-7J-12*
G01*
X1305Y1249*
G75*
G02X1316Y1235I-4J-14*
G01*
G75*
G02X1287Y1232I-15*
G01*
X1201Y1318*
X1182*
X1162Y1297*
Y1289*
G37*
X1371Y1128D02*
X1576D01*
G75*
G02X1569Y1150I15J18*
G01*
X1502*
Y1222*
X1569*
Y1216*
X1572*
Y1228*
G75*
G02X1578Y1243I21*
G01*
X1608Y1274*
Y1298*
G75*
G02X1608Y1320I28J12*
G01*
Y1347*
X1462*
Y1205*
G75*
G02X1456Y1191I-21*
G01*
X1429Y1164*
G75*
G02X1414Y1158I-15J15*
G01*
X1392*
Y1152*
X1385*
Y1148*
G75*
G02X1371Y1128I-23*
G01*
G36*
X1576*
G75*
G02X1569Y1150I15J18*
G01*
X1502*
Y1222*
X1569*
Y1216*
X1572*
Y1228*
G75*
G02X1578Y1243I21*
G01*
X1608Y1274*
Y1298*
G75*
G02X1608Y1320I28J12*
G01*
Y1347*
X1462*
Y1205*
G75*
G02X1456Y1191I-21*
G01*
X1429Y1164*
G75*
G02X1414Y1158I-15J15*
G01*
X1392*
Y1152*
X1385*
Y1148*
G75*
G02X1371Y1128I-23*
G01*
G37*
X1606D02*
X1651D01*
G75*
G02X1660Y1124J-13*
G01*
X1676Y1108*
X1788*
G75*
G02X1788Y1120I13J5*
G01*
X1774*
G75*
G02X1765Y1124J13*
G01*
X1763Y1125*
G75*
G02X1754Y1133I4J14*
G01*
G75*
G02X1729Y1133I-13J7*
G01*
G75*
G02X1705Y1131I-13J7*
G01*
G75*
G02X1681Y1130I-13J7*
G01*
G75*
G02X1657Y1146I-12J9*
G01*
Y1168*
G75*
G02X1660Y1177I13*
G01*
X1712Y1229*
G75*
G02X1721Y1233I9J-9*
G01*
X1994*
G75*
G02X2010Y1209I7J-13*
G01*
G75*
G02X2010Y1186I-9J-12*
G01*
G75*
G02Y1164I-9J-11*
G01*
G75*
G02X2015Y1150I-9J-11*
G01*
X2054Y1189*
G75*
G02X2063Y1193I9J-9*
G01*
X2156*
G75*
G02X2165Y1189J-13*
G01*
X2185Y1169*
G75*
G02X2188Y1163I-9J-9*
G01*
G75*
G02X2191Y1155I-12J-8*
G01*
G75*
G02X2162I-15*
G01*
G75*
G02X2162Y1157I15*
G01*
X2151Y1168*
X2068*
X2065Y1164*
G75*
G02X2065Y1136I-4J-14*
G01*
X2036Y1108*
X2156*
X2194Y1146*
Y1170*
G75*
G02X2197Y1179I13*
G01*
X2242Y1224*
G75*
G02X2270Y1219I14J-4*
G01*
G75*
G02X2288Y1198I6J-13*
G01*
G75*
G02X2309Y1180I8J-12*
G01*
G75*
G02X2323Y1158I2J-14*
G01*
G75*
G02X2343Y1138I8J-12*
G01*
G75*
G02X2366Y1125I8J-12*
G01*
G75*
G02X2355Y1111I-15*
G01*
X2231Y988*
X2241*
X2287Y1034*
G75*
G02X2315Y1029I14J-4*
G01*
G75*
G02X2335Y1020I6J-13*
G01*
G75*
G02X2355Y1021I11J-15*
G01*
X2415*
X2395Y1042*
G75*
G02X2390Y1053I11J11*
G01*
Y1105*
G75*
G02X2395Y1117I16J0*
G01*
X2429Y1151*
G75*
G02X2430Y1153I17J-6*
G01*
Y1391*
X2360Y1461*
X2329*
Y1455*
X2262*
Y1527*
X2329*
Y1521*
X2380*
Y1487*
X2457Y1409*
G75*
G02X2462Y1398I-11J-11*
G01*
Y1161*
X2487*
G75*
G02X2496Y1164I9J-16*
G01*
G75*
G02X2495Y1170I15J7*
G01*
Y1295*
G75*
G02X2500Y1307I16J0*
G01*
X2555Y1362*
G75*
G02X2566Y1366I11J-11*
G01*
X2640*
Y1382*
X2467Y1554*
X2285*
X2172Y1442*
Y1419*
X2201Y1390*
G75*
G02X2207Y1375I-15J-15*
G01*
Y1306*
G75*
G02X2179Y1260I-26J-15*
G01*
X2069*
G75*
G02X2050Y1254I-18J22*
G01*
X1944*
G75*
G02X1924Y1262J29*
G01*
X1829Y1357*
X1767*
G75*
G02X1751Y1362J29*
G01*
X1737*
Y1362*
X1706*
G75*
G02X1686I-10J29*
G01*
X1668*
X1665Y1359*
Y1320*
G75*
G02X1663Y1296I-29J-10*
G01*
Y1241*
X1635*
X1614Y1220*
Y1216*
X1620*
Y1156*
X1611*
G75*
G02X1606Y1128I-20J-11*
G01*
X1720Y1248D02*
Y1241D01*
X1665*
Y1301*
X1720*
Y1280*
X1737*
Y1288*
X1731*
Y1354*
X1803*
Y1288*
X1797*
Y1275*
G75*
G02Y1246I-11J-15*
G01*
Y1237*
X1737*
Y1248*
X1720*
X1663Y1295D02*
G36*
Y1241D01*
X1635*
X1614Y1220*
Y1216*
X1620*
Y1156*
X1611*
G75*
G02X1606Y1128I-20J-11*
G01*
X1651*
G75*
G02X1660Y1124J-13*
G01*
X1676Y1108*
X1788*
G75*
G02X1788Y1120I13J5*
G01*
X1774*
G75*
G02X1765Y1124J13*
G01*
X1763Y1125*
G75*
G02X1754Y1133I4J14*
G01*
G75*
G02X1729Y1133I-13J7*
G01*
G75*
G02X1705Y1131I-13J7*
G01*
G75*
G02X1681Y1130I-13J7*
G01*
G75*
G02X1657Y1146I-12J9*
G01*
Y1168*
G75*
G02X1660Y1177I13*
G01*
X1712Y1229*
G75*
G02X1721Y1233I9J-9*
G01*
X1994*
G75*
G02X2010Y1209I7J-13*
G01*
G75*
G02X2010Y1186I-9J-12*
G01*
G75*
G02Y1164I-9J-11*
G01*
G75*
G02X2015Y1150I-9J-11*
G01*
X2054Y1189*
G75*
G02X2063Y1193I9J-9*
G01*
X2156*
G75*
G02X2165Y1189J-13*
G01*
X2185Y1169*
G75*
G02X2188Y1163I-9J-9*
G01*
G75*
G02X2191Y1155I-12J-8*
G01*
G75*
G02X2162I-15*
G01*
G75*
G02X2162Y1157I15*
G01*
X2151Y1168*
X2068*
X2065Y1164*
G75*
G02X2065Y1136I-4J-14*
G01*
X2036Y1108*
X2156*
X2194Y1146*
Y1170*
G75*
G02X2197Y1179I13*
G01*
X2242Y1224*
G75*
G02X2270Y1219I14J-4*
G01*
G75*
G02X2288Y1198I6J-13*
G01*
G75*
G02X2309Y1180I8J-12*
G01*
G75*
G02X2323Y1158I2J-14*
G01*
G75*
G02X2343Y1138I8J-12*
G01*
G75*
G02X2366Y1125I8J-12*
G01*
G75*
G02X2355Y1111I-15*
G01*
X2231Y988*
X2241*
X2287Y1034*
G75*
G02X2315Y1029I14J-4*
G01*
G75*
G02X2335Y1020I6J-13*
G01*
G75*
G02X2355Y1021I11J-15*
G01*
X2415*
X2395Y1042*
G75*
G02X2390Y1053I11J11*
G01*
Y1105*
G75*
G02X2395Y1117I16J0*
G01*
X2429Y1151*
G75*
G02X2430Y1153I17J-6*
G01*
Y1391*
X2360Y1461*
X2329*
Y1455*
X2262*
Y1527*
X2329*
Y1521*
X2380*
Y1487*
X2457Y1409*
G75*
G02X2462Y1398I-11J-11*
G01*
Y1161*
X2487*
G75*
G02X2496Y1164I9J-16*
G01*
G75*
G02X2495Y1170I15J7*
G01*
Y1295*
G75*
G02X2500Y1307I16J0*
G01*
X2555Y1362*
G75*
G02X2566Y1366I11J-11*
G01*
X2640*
Y1382*
X2467Y1554*
X2285*
X2172Y1442*
Y1419*
X2201Y1390*
G75*
G02X2207Y1375I-15J-15*
G01*
Y1306*
G75*
G02X2179Y1260I-26J-15*
G01*
X2069*
G75*
G02X2050Y1254I-18J22*
G01*
X1944*
G75*
G02X1924Y1262J29*
G01*
X1891Y1295*
X1803*
Y1288*
X1797*
Y1275*
G75*
G02Y1246I-11J-15*
G01*
Y1237*
X1737*
Y1248*
X1720*
Y1241*
X1665*
Y1295*
X1663*
G37*
X1665D02*
G36*
Y1301D01*
X1720*
Y1280*
X1737*
Y1288*
X1731*
Y1354*
X1803*
Y1295*
X1891*
X1829Y1357*
X1767*
G75*
G02X1751Y1362J29*
G01*
X1737*
Y1362*
X1706*
G75*
G02X1686I-10J29*
G01*
X1668*
X1665Y1359*
Y1320*
G75*
G02X1663Y1296I-29J-10*
G01*
Y1295*
X1665*
G37*
D02*
D23*
X137Y1286D02*
X122Y1271D01*
X137Y1794D02*
X122Y1810D01*
X172Y1286D02*
X188Y1271D01*
X172Y1322D02*
X188Y1337D01*
X172Y1444D02*
X188Y1428D01*
X172Y1479D02*
X188Y1495D01*
X172Y1601D02*
X188Y1586D01*
X172Y1637D02*
X188Y1652D01*
X172Y1759D02*
X188Y1743D01*
X172Y1794D02*
X188Y1810D01*
X248Y731D02*
X226D01*
X273Y706D02*
Y684D01*
Y756D02*
Y778D01*
X298Y731D02*
X320D01*
X361Y945D02*
X339D01*
X381Y926D02*
Y904D01*
Y965D02*
Y987D01*
X401Y945D02*
X423D01*
X436Y1389D02*
X414D01*
X446Y1454D02*
X426Y1434D01*
X446Y1485D02*
X426Y1505D01*
X449Y1373D02*
Y1351D01*
Y1406D02*
Y1428D01*
X451Y1569D02*
X431Y1549D01*
X451Y1600D02*
X431Y1620D01*
X477Y1454D02*
X497Y1434D01*
X477Y1485D02*
X497Y1505D01*
X482Y1569D02*
X502Y1549D01*
X575Y1571D02*
Y1593D01*
X592Y1557D02*
X614D01*
X640Y1542D02*
X619Y1521D01*
X640Y1572D02*
X619Y1593D01*
X670Y1542D02*
X691Y1521D01*
X670Y1572D02*
X691Y1593D01*
X698Y1027D02*
X676D01*
X700Y1089D02*
X678D01*
X732Y1027D02*
X754D01*
X734Y1089D02*
X756D01*
X779Y1088D02*
X757D01*
X816Y1074D02*
Y1052D01*
Y1102D02*
Y1124D01*
X853Y1088D02*
X875D01*
X1007D02*
X985D01*
X1044Y1029D02*
Y1007D01*
Y1147D02*
Y1169D01*
X1082Y1088D02*
X1104D01*
X1220Y816D02*
X1200Y796D01*
X1220Y847D02*
X1200Y867D01*
X1242Y648D02*
X1227Y632D01*
X1242Y683D02*
X1227Y699D01*
X1251Y816D02*
X1271Y796D01*
X1251Y847D02*
X1271Y867D01*
X1256Y970D02*
X1181Y895D01*
Y665*
X1276Y1000D02*
X1246D01*
X1101Y855*
Y667*
X1102Y665*
X1277Y648D02*
X1293Y632D01*
X1277Y683D02*
X1293Y699D01*
X1281Y1455D02*
X1334D01*
X1337Y1459*
X1320Y1321D02*
Y1299D01*
X1322Y1531D02*
X1301Y1552D01*
X1337Y1335D02*
X1359D01*
X1345Y1236D02*
X1323D01*
X1352Y1501D02*
X1373Y1480D01*
X1352Y1531D02*
X1373Y1552D01*
X1362Y1250D02*
Y1272D01*
X1379Y1236D02*
X1401D01*
X1397Y1581D02*
X1375D01*
X1400Y1516D02*
X1378D01*
X1434D02*
X1456D01*
X1522Y1186D02*
X1500D01*
X1536Y1170D02*
Y1148D01*
Y1203D02*
Y1225D01*
X1571Y1015D02*
X1411D01*
X1366Y970*
Y885*
X1361Y880*
X1355Y884*
X1365*
Y877*
X1752Y1306D02*
X1731Y1285D01*
X1752Y1336D02*
X1731Y1357D01*
X1767Y1264D02*
X1783D01*
X1786Y1260*
X1781Y1345D02*
Y1335D01*
X1767Y1321*
X1782Y1505D02*
X1804D01*
X1782Y1306D02*
X1803Y1285D01*
X1784Y1446D02*
X1806D01*
X2040Y1346D02*
X2018D01*
X2055Y647D02*
X2040Y632D01*
X2055Y686D02*
X2040Y702D01*
X2057Y1360D02*
Y1382D01*
X2074Y1346D02*
X2096D01*
X2094Y647D02*
X2110Y632D01*
X2134Y647D02*
X2119Y632D01*
X2173Y647D02*
X2189Y632D01*
X2213Y647D02*
X2197Y632D01*
X2252Y647D02*
X2267Y632D01*
X2252Y686D02*
X2267Y702D01*
X2282Y1491D02*
X2260D01*
X2296Y1475D02*
Y1453D01*
Y1508D02*
Y1530D01*
X2501Y998D02*
Y976D01*
X2515Y1014D02*
X2537D01*
X2731Y1070D02*
X2711Y1090D01*
X2731Y1114D02*
X2711Y1094D01*
X2731Y1145D02*
X2711Y1165D01*
X2731Y1189D02*
X2711Y1169D01*
X2731Y1220D02*
X2711Y1240D01*
X2731Y1264D02*
X2711Y1244D01*
X2731Y1295D02*
X2711Y1315D01*
X2731Y1339D02*
X2711Y1319D01*
X2731Y1370D02*
X2711Y1390D01*
X2762Y1039D02*
X2782Y1019D01*
X2762Y1070D02*
X2782Y1090D01*
X2762Y1114D02*
X2782Y1094D01*
X2762Y1145D02*
X2782Y1165D01*
X2762Y1189D02*
X2782Y1169D01*
X2762Y1220D02*
X2782Y1240D01*
X2762Y1264D02*
X2782Y1244D01*
X2762Y1295D02*
X2782Y1315D01*
X2762Y1339D02*
X2782Y1319D01*
X2762Y1370D02*
X2782Y1390D01*
X3075Y1342D02*
Y1385D01*
X3104Y1414*
X3075Y1342D02*
X3155D01*
X3146Y1399D02*
X3126Y1379D01*
X3146Y1430D02*
X3126Y1450D01*
X3177Y1399D02*
X3197Y1379D01*
X3177Y1430D02*
X3197Y1450D01*
X3205Y772D02*
Y794D01*
X3221Y810*
X3296*
X3411Y925*
Y985*
X3716Y1290*
Y1442*
X3781Y1507*
X3250Y1300D02*
X3235Y1284D01*
X3250Y1341D02*
X3235Y1357D01*
X3250Y1400D02*
X3235Y1384D01*
X3250Y1441D02*
X3235Y1457D01*
X3271Y1220D02*
X3181D01*
X3151Y1250*
Y1271*
X3155Y1275*
Y1285*
X3292Y1300D02*
X3307Y1284D01*
X3292Y1341D02*
X3307Y1357D01*
X3292Y1400D02*
X3307Y1384D01*
X3292Y1441D02*
X3307Y1457D01*
X3350Y1250D02*
X3335Y1234D01*
X3350Y1291D02*
X3335Y1307D01*
X3350Y1350D02*
X3335Y1334D01*
X3350Y1391D02*
X3335Y1407D01*
X3350Y1450D02*
X3335Y1434D01*
X3350Y1491D02*
X3335Y1507D01*
X3356Y770D02*
X3516D01*
X3721Y975*
Y1045*
X3761Y1085*
X3781*
X3371Y1170D02*
X3136D01*
X3076Y1230*
Y1266*
X3075Y1267*
Y1285*
X3392Y1250D02*
X3407Y1234D01*
X3392Y1291D02*
X3407Y1307D01*
X3392Y1350D02*
X3407Y1334D01*
X3392Y1391D02*
X3407Y1407D01*
X3392Y1450D02*
X3407Y1434D01*
X3392Y1491D02*
X3407Y1507D01*
X3457Y941D02*
X3435D01*
X3457Y1575D02*
X3435D01*
X3501Y897D02*
Y875D01*
Y985D02*
Y1007D01*
Y1531D02*
Y1509D01*
Y1620D02*
Y1642D01*
X3545Y941D02*
X3567D01*
X3545Y1575D02*
X3567D01*
X3562Y1021D02*
X3540D01*
X3562Y1495D02*
X3540D01*
X3621Y962D02*
Y940D01*
Y1080D02*
Y1102D01*
Y1436D02*
Y1414D01*
Y1554D02*
Y1576D01*
X3680Y1021D02*
X3702D01*
X3680Y1495D02*
X3702D01*
D02*
D24*
X211Y930D03*
X226Y1315D03*
X251Y1590D03*
X256Y1465D03*
X261Y1890D03*
X301Y1295D03*
X361Y1470D03*
X366Y1585D03*
X476Y2115D03*
X616Y545D03*
X622Y1262D03*
X648Y1261D03*
X677D03*
X711Y1265D03*
X786Y1580D03*
X796Y1675D03*
Y1800D03*
X806Y1560D03*
X815Y1540D03*
X827Y1521D03*
X926Y1395D03*
X946Y1410D03*
X966Y1430D03*
X991Y1885D03*
X1041Y1945D03*
X1106Y1940D03*
X1121Y1595D03*
X1146Y1590D03*
X1171Y1455D03*
Y1590D03*
X1172Y1279D03*
X1181Y1880D03*
X1185Y1174D03*
X1186Y1151D03*
Y1197D03*
Y1295D03*
Y1525D03*
X1256Y970D03*
X1266Y2060D03*
X1276Y1000D03*
X1281Y1455D03*
X1283Y1515D03*
X1286Y1285D03*
Y1745D03*
X1297Y1493D03*
X1301Y1235D03*
Y1570D03*
X1356Y1795D03*
X1361Y1770D03*
X1371Y1320D03*
X1391Y920D03*
X1411Y900D03*
X1431Y870D03*
X1456Y2130D03*
X1461Y785D03*
Y1510D03*
X1476Y1745D03*
X1531Y1315D03*
X1571Y1015D03*
X1581Y1585D03*
X1606Y540D03*
X1626Y1485D03*
X1631Y1925D03*
X1636Y1615D03*
Y1770D03*
X1656Y1625D03*
X1669Y1138D03*
X1676Y1635D03*
X1692Y1138D03*
X1696Y1645D03*
X1706Y1325D03*
X1716Y1140D03*
Y1655D03*
X1741Y1140D03*
X1746Y525D03*
X1767Y1139D03*
X1801Y1113D03*
X1891Y835D03*
X1911Y1435D03*
X1936D03*
X1961Y1430D03*
X2001Y1153D03*
Y1175D03*
Y1197D03*
Y1220D03*
X2061Y1150D03*
X2121Y2000D03*
X2176Y1155D03*
X2241Y565D03*
X2256Y1220D03*
Y1265D03*
X2276Y1205D03*
X2291Y880D03*
X2296Y1185D03*
X2301Y1030D03*
X2306Y1910D03*
X2311Y900D03*
Y1165D03*
Y2000D03*
X2321Y1015D03*
X2331Y1145D03*
X2346Y880D03*
X2351Y1125D03*
X2371Y1925D03*
X2451Y1060D03*
X2461Y1095D03*
Y2015D03*
X2481Y1120D03*
X2496Y1925D03*
X2506Y1010D03*
X2546Y1690D03*
X2631Y890D03*
X2636Y625D03*
X2663Y1313D03*
X2686Y2000D03*
X2726Y1810D03*
X2811Y1145D03*
X2816Y1170D03*
X2906Y710D03*
X2911Y1280D03*
X2961Y990D03*
X2976Y770D03*
X3031Y1155D03*
X3051Y765D03*
X3121D03*
X3131Y1230D03*
X3205Y772D03*
X3206Y770D03*
X3281Y765D03*
X3356Y770D03*
X3486Y825D03*
X3641Y775D03*
X3741Y675D03*
D02*
D25*
X1986Y880D03*
X2641Y1070D03*
X2666Y1350D03*
X2801Y915D03*
D02*
D26*
X2541Y1205D03*
X2656Y1280D03*
D02*
D73*
X3271Y1020D03*
Y1120D03*
Y1220D03*
Y1320D03*
Y1420D03*
X3371Y1070D03*
Y1170D03*
Y1270D03*
Y1370D03*
Y1470D03*
X3781Y985D03*
Y1085D03*
Y1407D03*
Y1507D03*
D02*
D74*
X404Y1469D03*
X409Y1584D03*
X449Y1389D03*
X461Y1469D03*
X466Y1584D03*
X506Y1389D03*
X1236Y831D03*
X1293D03*
X1411Y1581D03*
X1468D03*
X1536Y1186D03*
X1593D03*
X1636Y1271D03*
X1693D03*
X2296Y1491D03*
X2353D03*
X2444Y1014D03*
X2501D03*
X2689Y1054D03*
Y1129D03*
Y1204D03*
Y1279D03*
Y1354D03*
X2746Y1054D03*
Y1129D03*
Y1204D03*
Y1279D03*
Y1354D03*
X3104Y1414D03*
X3161D03*
D02*
D75*
X575Y1380D03*
Y1437D03*
Y1500D03*
Y1557D03*
X655Y1500D03*
Y1557D03*
X672Y1384D03*
Y1441D03*
X715Y970D03*
Y1027D03*
X717Y1089D03*
Y1146D03*
X1320Y1335D03*
Y1392D03*
X1337Y1459D03*
Y1516D03*
X1362Y1179D03*
Y1236D03*
X1365Y820D03*
Y877D03*
X1417Y1459D03*
Y1516D03*
X1765Y1505D03*
Y1562D03*
X1767Y1264D03*
Y1321D03*
Y1389D03*
Y1446D03*
X2057Y1289D03*
Y1346D03*
X2082Y819D03*
Y876D03*
X2157Y819D03*
Y876D03*
X2232Y819D03*
Y876D03*
X3075Y1285D03*
Y1342D03*
X3155Y1285D03*
Y1342D03*
D02*
D76*
X1615Y667D03*
Y745D03*
X1694Y667D03*
Y745D03*
X1772Y667D03*
Y745D03*
X2075Y667D03*
Y745D03*
X2154Y667D03*
Y745D03*
X2232Y667D03*
Y745D03*
D02*
D79*
X155Y1304D03*
Y1383D03*
Y1462D03*
Y1540D03*
Y1619D03*
Y1698D03*
Y1777D03*
X273Y731D03*
X373D03*
X529Y662D03*
X607D03*
Y740D03*
X686Y662D03*
Y740D03*
X765Y662D03*
Y740D03*
X834Y2012D03*
X843Y662D03*
Y740D03*
X912Y2012D03*
Y2090D03*
X991Y2012D03*
Y2090D03*
X1070Y2012D03*
Y2090D03*
X1102Y665D03*
X1148Y2012D03*
Y2090D03*
X1181Y665D03*
X1260D03*
X1339D03*
X1417D03*
X2260Y2087D03*
X2338D03*
X2417D03*
X2496D03*
X2575D03*
X2653D03*
X2732D03*
D02*
D80*
X155Y1225D03*
X529Y740D03*
X834Y2090D03*
X1024Y665D03*
X2181Y2087D03*
D02*
D86*
X381Y945D03*
Y1045D03*
Y1145D03*
D02*
D87*
X1121Y1595D02*
X966D01*
X841Y1470*
X786*
X766Y1450*
Y1380*
X696Y1310*
X666*
X648Y1292*
Y1261*
X1146Y1590D02*
Y1585D01*
X1136Y1575*
X981*
X856Y1450*
X801*
X786Y1435*
Y1370*
X701Y1285*
X685*
X677Y1277*
Y1261*
X1171Y1590D02*
Y1570D01*
X1156Y1555*
X996*
X871Y1430*
X826*
X811Y1415*
Y1365*
X711Y1265*
X1185Y1174D02*
X1207D01*
X1216Y1165*
Y1115*
X1276Y1055*
X1611*
X1631Y1035*
X2191*
X2281Y1125*
Y1135*
X2311Y1165*
X1186Y1525D02*
X1001D01*
X926Y1450*
Y1395*
X1283Y1515D02*
X1216D01*
X1206Y1505*
X1011*
X946Y1440*
Y1410*
X1286Y1285D02*
X1221Y1350D01*
X1166*
X1136Y1320*
X1135*
X1127Y1312*
Y1229*
X1136Y1220*
Y965*
X946Y775*
Y685*
X866Y605*
X811*
X765Y652*
Y662*
X1286Y1745D02*
X1186D01*
X991Y1940*
Y2002*
X991Y2002*
Y2012*
X1297Y1493D02*
X1269D01*
X1261Y1485*
X1021*
X966Y1430*
X1301Y1235D02*
X1206Y1330D01*
X1177*
X1149Y1302*
Y1241*
X1161Y1229*
Y950*
X971Y760*
Y680*
X876Y585*
X631*
X601Y615*
Y655*
X607Y662*
X1356Y1795D02*
X1211D01*
X1146Y1860*
Y2009*
X1148Y2012*
X1361Y1770D02*
X1201D01*
X1076Y1895*
Y2005*
X1070Y2012*
X1476Y1745D02*
X1371Y1850D01*
X1246*
X1201Y1895*
Y2048*
X1158Y2090*
X1148*
X1581Y1585D02*
X1601Y1565D01*
X1681*
X1726Y1610*
X2106*
X2261Y1765*
Y2085*
X2260Y2087*
X1636Y1615D02*
Y1645D01*
X951*
X827Y1521*
X1656Y1625D02*
Y1655D01*
X1646Y1665*
X941*
X816Y1540*
X815*
X1676Y1635D02*
Y1675D01*
X1661Y1690*
X936*
X806Y1560*
X1696Y1645D02*
Y1680D01*
X1661Y1715*
X931*
X796Y1580*
X786*
X1716Y1655D02*
Y1635D01*
X1666Y1585*
X1626*
X1591Y1620*
X956*
X826Y1490*
X771*
X741Y1460*
Y1385*
X691Y1335*
X661*
X622Y1296*
Y1262*
X1741Y1140D02*
X1740D01*
Y1155*
X1745Y1160*
X1790*
X1797Y1153*
X2001*
X1767Y1139D02*
X1774Y1132D01*
X2015*
X2063Y1180*
X2156*
X2176Y1160*
Y1155*
X1911Y1435D02*
Y1455D01*
X2001Y1545*
X2116*
X2421Y1850*
X2556*
X2636Y1930*
Y2069*
X2653Y2087*
X1936Y1435D02*
Y1450D01*
X2011Y1525*
X2131*
X2436Y1830*
X2571*
X2726Y1985*
Y2080*
X2732Y2087*
X2001Y1175D02*
X1736D01*
X1716Y1155*
Y1140*
X2001Y1197D02*
X1728D01*
X1692Y1161*
Y1138*
X2001Y1220D02*
X1721D01*
X1669Y1168*
Y1138*
X2061Y1150D02*
X2024Y1113D01*
X1801*
X2256Y1220D02*
X2206Y1170D01*
Y1140*
X2161Y1095*
X1671*
X1651Y1115*
X1321*
X1291Y1145*
Y1205*
X1201Y1295*
X1186*
X2276Y1205D02*
X2231Y1160D01*
Y1135*
X2171Y1075*
X1661*
X1641Y1095*
X1301*
X1271Y1125*
Y1180*
X1172Y1279*
X2291Y880D02*
X2286D01*
Y605*
X2361Y530*
X2831*
X2866Y565*
X3161*
X3356Y755*
Y770*
X2296Y1185D02*
X2256Y1145D01*
Y1130*
X2181Y1055*
X1646*
X1626Y1075*
X1291*
X1246Y1120*
Y1170*
X1219Y1197*
X1186*
X2301Y1030D02*
X2246Y975D01*
X1486*
X1411Y900*
X2311D02*
Y610D01*
X2371Y550*
X2816*
X2851Y585*
X3121*
X3281Y745*
Y765*
X2321Y1015D02*
X2261Y955D01*
X1516*
X1431Y870*
X2331Y1145D02*
X2201Y1015D01*
X1616*
X1596Y1035*
X1266*
X1186Y1115*
Y1151*
X2346Y880D02*
Y862D01*
X2335Y851*
Y621*
X2386Y570*
X2801*
X2836Y605*
X3076*
X3206Y735*
Y770*
X2351Y1125D02*
X2221Y995D01*
X1466*
X1391Y920*
X2417Y2087D02*
X2411Y2080D01*
Y1880*
X2101Y1570*
X1996*
X1881Y1455*
Y1420*
X1906Y1395*
X1941*
X1961Y1415*
Y1430*
X2451Y1060D02*
X2526D01*
X2774Y813*
X2461Y1095D02*
X2516D01*
X2796Y815*
X3001*
X3051Y765*
X2481Y1120D02*
X2521D01*
X2801Y840*
X3046*
X3121Y765*
X2774Y813D02*
X2811Y775D01*
X2971*
X2976Y770*
X2774Y813D02*
X2776Y810D01*
X2816Y1170D02*
X2821D01*
X2901Y1090*
X3236*
X3266Y1120*
X3271*
X3371Y1070D02*
X2886D01*
X2811Y1145*
D02*
D88*
X421Y2030D03*
X446Y1645D03*
X496Y1360D03*
X636Y1185D02*
X591D01*
X561Y1215*
Y1379*
X562Y1380*
X575*
X636Y1185D03*
X686Y1545D03*
X696Y1395D03*
Y1460D03*
Y1490D03*
X1046Y760D03*
X1136Y765D03*
X1271Y755D03*
X1286Y1420D03*
X1362Y1148D03*
X1518Y1589D03*
X1761Y1475D03*
X1771Y1555D03*
X1781Y1345D03*
X1786Y1260D03*
Y1380D03*
X1911Y1250D03*
X2181Y1290D03*
X2346Y1005D03*
X2351Y1480D03*
X2436Y1005D03*
X2496Y1145D03*
X2587Y1242D03*
D02*
D89*
X361Y1470D02*
Y1580D01*
X366Y1585*
X381Y1145D02*
Y1230D01*
X361Y1250*
Y1470*
X404Y1469D02*
X362D01*
X361Y1470*
X409Y1584D02*
X367D01*
X366Y1585*
X506Y1389D02*
Y1371D01*
X496Y1360*
X575Y1380D02*
X516D01*
X506Y1389*
X575Y1437D02*
Y1500D01*
X566*
X566Y1500*
Y1505*
X531Y1540*
Y1580*
X466Y1645*
X446*
X655Y1500D02*
X575D01*
X672Y1384D02*
X684D01*
X696Y1395*
X672Y1441D02*
X641D01*
X626Y1425*
Y1350*
X596Y1320*
Y1250*
X611Y1235*
X861*
X672Y1441D02*
X676D01*
X696Y1460*
X711*
X726Y1475*
Y1960*
X656Y2030*
X421*
X696Y1490D02*
X665D01*
X655Y1500*
X1320Y1392D02*
X1314D01*
X1286Y1420*
X1337Y1459D02*
X1417D01*
X1365Y820D02*
X1304D01*
X1293Y831*
X1365Y820D02*
Y765D01*
X1413Y718*
X1414*
X1416Y715*
X1417Y665*
X1518Y1589D02*
X1476D01*
X1468Y1581*
X1536Y1186D02*
Y1150D01*
X1531Y1145*
X1593Y1186D02*
Y1147D01*
X1591Y1145*
X1699Y1543D02*
X1565D01*
X1518Y1589*
X1761Y1475D02*
Y1452D01*
X1767Y1446*
X1761Y1475D02*
Y1501D01*
X1765Y1505*
X1767Y1264D02*
X1700D01*
X1693Y1271*
X1771Y1555D02*
Y1556D01*
X1765Y1562*
X2075Y745D02*
Y812D01*
X2082Y819*
X2154Y745D02*
Y815D01*
X2157Y819*
X2232Y745D02*
Y818D01*
X2232Y819*
X2346Y1005D02*
X2435D01*
X2444Y1014*
X2351Y1480D02*
Y1490D01*
X2353Y1491*
X2446Y1145D02*
Y1398D01*
X2353Y1491*
X2446Y1145D02*
X2406Y1105D01*
Y1053*
X2444Y1014*
X2496Y1145D02*
X2446D01*
X2541Y1205D02*
X2626D01*
Y1255*
X2651Y1280*
X2688*
X2689Y1279*
X2661Y1350D02*
X2566D01*
X2511Y1295*
Y1170*
X2526Y1155*
X2556*
X2642Y1069*
X2689*
Y1054*
Y1129D02*
X2647D01*
X2626Y1150*
Y1205*
X2689Y1354D02*
X2685Y1350D01*
X2661*
X2801Y915D02*
X2691Y1025D01*
Y1053*
X2689Y1054*
D02*
D90*
X636Y1185D02*
Y1000D01*
X666Y970*
X715*
X715Y970*
X1362Y1179D02*
Y1148D01*
X1362Y1148*
X1362Y1179D02*
X1414D01*
X1441Y1205*
Y1375*
X1593Y1186D02*
Y1228D01*
X1636Y1271*
X1636Y1310D02*
Y1272D01*
X1636Y1271*
X1699Y1543D02*
X1696Y1540D01*
Y1390*
X1765Y1562D02*
X1718D01*
X1699Y1543*
X1767Y1389D02*
X1778D01*
X1786Y1380*
X2082Y876D02*
X2157D01*
X2082D02*
Y875D01*
X1991*
X1986Y880*
Y880*
X2157Y876D02*
X2232D01*
X2661Y1350D02*
Y1390D01*
X2476Y1575*
X2276*
X2151Y1450*
Y1410*
X2186Y1375*
Y1295*
X2181Y1290*
X2666Y1350D02*
X2661D01*
D02*
D102*
X816Y997D03*
Y1088D03*
Y1178D03*
D02*
D103*
X1044Y1088D03*
D02*
D104*
X1531Y1145D03*
X1591D03*
X2685Y1217D03*
D02*
D105*
X3501Y941D03*
Y1575D03*
D02*
D150*
X373Y731D02*
Y733D01*
X461Y820*
X636*
X716Y900*
Y961*
X715Y962*
Y970*
X816Y997D02*
X778D01*
X751Y970*
X716*
X715Y970*
X816Y1178D02*
X750D01*
X717Y1146*
X816Y1178D02*
X819D01*
X831Y1190*
Y1205*
X861Y1235*
X936*
X1091Y1390*
X1312*
X1313Y1392*
X1320*
X1441Y1375D02*
X1426D01*
X1406Y1395*
X1323*
X1320Y1392*
X1636Y1310D02*
Y1375D01*
X1441*
X1696Y1390D02*
X1656D01*
X1636Y1370*
Y1310*
X1767Y1389D02*
Y1385D01*
X1841*
X1944Y1282*
X2050*
X2057Y1289*
X1767Y1389D02*
Y1390D01*
X1696*
X2057Y1289D02*
X2179D01*
X2181Y1290*
X0Y0D02*
M02*
