%FSLAX25Y25*%
%MOIN*%
G04 EasyPC Gerber Version 18.0.8 Build 3632 *
%ADD18R,0.02402X0.03937*%
%ADD16R,0.03740X0.04331*%
%ADD19R,0.04134X0.05118*%
%ADD13R,0.06000X0.06000*%
%ADD12C,0.00100*%
%ADD10C,0.00500*%
%ADD11C,0.01000*%
%ADD24C,0.01500*%
%ADD22C,0.02000*%
%ADD23C,0.02500*%
%ADD25C,0.03000*%
%ADD26C,0.04000*%
%ADD21C,0.04800*%
%ADD14C,0.06000*%
%ADD70C,0.07874*%
%ADD20R,0.06181X0.03189*%
%ADD15R,0.04331X0.03740*%
%ADD17R,0.05118X0.04134*%
%ADD71R,0.20000X0.09646*%
X0Y0D02*
D02*
D10*
X120250Y51250D02*
X168394D01*
Y62626*
X184750*
Y84496*
X168394*
Y96642*
X184750*
Y102550*
X125850*
X120250Y96950*
Y75350*
X115450*
Y62550*
X120250*
Y51250*
X139122Y73750D02*
G75*
G02X149496I5187D01*
G01*
G75*
G02X139122I-5187*
G01*
X115450D02*
G36*
Y62550D01*
X120250*
Y51250*
X168394*
Y62626*
X184750*
Y73750*
X149496*
G75*
G02X139122I-5187*
G01*
X115450*
G37*
X139122D02*
G36*
G75*
G02X149496I5187D01*
G01*
X184750*
Y84496*
X168394*
Y96642*
X184750*
Y102550*
X125850*
X120250Y96950*
Y75350*
X115450*
Y73750*
X139122*
G37*
D02*
D11*
X10350Y64750D02*
X8350D01*
X10350Y76750D02*
X8350D01*
X10350Y92750D02*
X8350D01*
X10687Y151467D02*
X8687D01*
X12250Y62850D02*
Y60850D01*
Y66650D02*
Y68650D01*
Y74850D02*
Y72850D01*
Y78650D02*
Y80650D01*
Y90850D02*
Y88850D01*
Y94650D02*
Y96650D01*
X12333Y188907D02*
X10333D01*
X12350Y166750D02*
X10350D01*
X12350Y178750D02*
X10350D01*
X13187Y148967D02*
Y146967D01*
Y153967D02*
Y155967D01*
X14150Y64750D02*
X16150D01*
X14150Y76750D02*
X16150D01*
X14150Y92750D02*
X16150D01*
X14250Y164850D02*
Y162850D01*
Y168650D02*
Y170650D01*
Y176850D02*
Y174850D01*
Y180650D02*
Y182650D01*
X14833Y186407D02*
Y184407D01*
Y191407D02*
Y193407D01*
X16150Y166750D02*
X18150D01*
X16150Y178750D02*
X18150D01*
X17333Y188907D02*
X19333D01*
X19490Y114766D02*
X17490D01*
X19490Y138766D02*
X17490D01*
X19679Y120734D02*
X17679D01*
X21156Y109057D02*
X16226D01*
X13187Y112096*
X21156Y133057D02*
X14463D01*
X13187Y131781*
X21156Y145057D02*
X16620D01*
X13187Y141624*
X21156Y152136D02*
Y154136D01*
X21344Y126443D02*
X17691D01*
X13187Y121939*
X21350Y91750D02*
X19350D01*
X21350Y163750D02*
X19350D01*
X22821Y114766D02*
X24821D01*
X22821Y138766D02*
X24821D01*
X22821Y150766D02*
X24821D01*
X22906Y53406D02*
X21492Y51992D01*
X22906Y56094D02*
X21492Y57508D01*
X23010Y120734D02*
X25010D01*
X23250Y89850D02*
Y87850D01*
Y93650D02*
Y95650D01*
Y161850D02*
Y159850D01*
Y165650D02*
Y167650D01*
X25150Y91750D02*
X27150D01*
X25150Y163750D02*
X27150D01*
X25594Y53406D02*
X27008Y51992D01*
X25594Y56094D02*
X27008Y57508D01*
X26350Y173750D02*
X24350D01*
X27250Y136850D02*
Y134850D01*
Y140650D02*
Y142650D01*
X28219Y127656D02*
X26219D01*
X28250Y171850D02*
Y169850D01*
Y175650D02*
Y177650D01*
X29150Y138750D02*
X31150D01*
X29219Y154656D02*
X27219D01*
X29589Y125990D02*
Y123990D01*
Y129321D02*
Y131321D01*
X30150Y173750D02*
X32150D01*
X30589Y152990D02*
Y150990D01*
Y156321D02*
Y158321D01*
X36906Y112406D02*
X35492Y110992D01*
X36906Y115094D02*
X35492Y116508D01*
X38350Y139750D02*
X36350D01*
X38350Y162750D02*
X36350D01*
X38650Y96150D02*
Y80350D01*
X44250Y74750*
X56140*
X56156Y74766*
X39594Y115094D02*
X41008Y116508D01*
X40250Y137850D02*
Y135850D01*
Y141650D02*
Y143650D01*
Y160850D02*
Y158850D01*
Y164650D02*
Y166650D01*
X40906Y53406D02*
X39492Y51992D01*
X40906Y56094D02*
X39492Y57508D01*
X40906Y116406D02*
X39492Y114992D01*
X40906Y119094D02*
X39492Y120508D01*
X42150Y139750D02*
X44150D01*
X42150Y162750D02*
X44150D01*
X43350D02*
X41350D01*
X43594Y53406D02*
X45008Y51992D01*
X43594Y56094D02*
X45008Y57508D01*
X43594Y119094D02*
X45008Y120508D01*
X44350Y99750D02*
X42350D01*
X45250Y160850D02*
Y158850D01*
Y164650D02*
Y166650D01*
X45514Y81703D02*
X43514D01*
X46250Y97850D02*
Y95850D01*
Y101650D02*
Y103650D01*
X47150Y162750D02*
X49150D01*
X47350Y136750D02*
X45350D01*
X47350Y144750D02*
X45350D01*
X47573Y80136D02*
Y78136D01*
Y83270D02*
Y85270D01*
X48150Y99750D02*
X50150D01*
X49250Y134850D02*
Y132850D01*
Y138650D02*
Y140650D01*
Y142850D02*
Y140850D01*
Y146650D02*
Y148650D01*
X49632Y81703D02*
X51632D01*
X51150Y136750D02*
X53150D01*
X51150Y144750D02*
X53150D01*
X53679Y106089D02*
X51679D01*
X54679Y57089D02*
X52679D01*
X54679Y83734D02*
X52679D01*
X56344Y55719D02*
Y53719D01*
Y82364D02*
Y80364D01*
X57010Y106089D02*
X59010D01*
X57050Y82250D02*
Y80250D01*
X58010Y57089D02*
X60010D01*
X58010Y83734D02*
X60010D01*
X58950Y84150D02*
X60950D01*
X61350Y139750D02*
X59350D01*
X61490Y170411D02*
X59490D01*
X61679Y106089D02*
X59679D01*
X62350Y57750D02*
X60350D01*
X63156Y171781D02*
Y173781D01*
X63250Y137850D02*
Y135850D01*
Y141650D02*
Y143650D01*
X64250Y55850D02*
Y53850D01*
Y59650D02*
Y61650D01*
X64821Y170411D02*
X66821D01*
X65010Y106089D02*
X67010D01*
X65150Y139750D02*
X67150D01*
X66150Y57750D02*
X68150D01*
X67250Y147750D02*
X62250D01*
X59250Y144750*
X67350Y175750D02*
X65350D01*
X68911Y86179D02*
Y84179D01*
Y89510D02*
Y91510D01*
X69250Y177650D02*
Y179650D01*
X69350Y129750D02*
X67350D01*
X69490Y170411D02*
X67490D01*
X70281Y87844D02*
X72281D01*
X71150Y175750D02*
X73150D01*
X71156Y171781D02*
Y173781D01*
X71250Y131650D02*
Y133650D01*
X71906Y145406D02*
X70492Y143992D01*
X71906Y148094D02*
X70492Y149508D01*
X72821Y170411D02*
X74821D01*
X73150Y129750D02*
X75150D01*
X73350Y57750D02*
X71350D01*
X74594Y145406D02*
X76008Y143992D01*
X74594Y148094D02*
X76008Y149508D01*
X75250Y55850D02*
Y53850D01*
Y59650D02*
Y61650D01*
X75350Y117750D02*
X73350D01*
X77150Y57750D02*
X79150D01*
X77250Y115850D02*
Y113850D01*
Y119650D02*
Y121650D01*
X78350Y133750D02*
X76350D01*
X78350Y146750D02*
X76350D01*
X79150Y117750D02*
X81150D01*
X80250Y131850D02*
Y129850D01*
Y135650D02*
Y137650D01*
Y144850D02*
Y142850D01*
Y148650D02*
Y150650D01*
X82150Y133750D02*
X84150D01*
X82150Y146750D02*
X84150D01*
X82350Y57750D02*
X80350D01*
X82364Y65250D02*
X80364D01*
X82364Y80250D02*
X80364D01*
X82906Y116406D02*
X81492Y114992D01*
X82906Y119094D02*
X81492Y120508D01*
X84250Y55850D02*
Y53850D01*
Y59650D02*
Y61650D01*
X84955Y64156D02*
Y62156D01*
Y81344D02*
Y83344D01*
X85594Y116406D02*
X87008Y114992D01*
X85594Y119094D02*
X87008Y120508D01*
X86150Y57750D02*
X88150D01*
X87545Y65250D02*
X89545D01*
X87545Y80250D02*
X89545D01*
X90650Y167350D02*
X92250Y168950D01*
X92263*
X98357Y175044*
X92350Y98750D02*
X90350D01*
X94250Y96850D02*
Y94850D01*
Y100650D02*
Y102650D01*
X94350Y85750D02*
X92350D01*
X96111Y123179D02*
Y121179D01*
Y126510D02*
Y128510D01*
X96150Y98750D02*
X98150D01*
X96250Y83850D02*
Y81850D01*
Y87650D02*
Y89650D01*
X96911Y154510D02*
Y156510D01*
X98150Y85750D02*
X100150D01*
X98281Y152844D02*
X100281D01*
X98350Y57750D02*
X96350D01*
X98350Y160150D02*
X96350D01*
X98357Y175044D02*
Y178257D01*
X103450Y183350*
Y187525*
X104833Y188907*
X99350Y111750D02*
X97350D01*
X100250Y55850D02*
Y53850D01*
Y59650D02*
Y61650D01*
Y158250D02*
Y156250D01*
Y162050D02*
Y164050D01*
X101250Y109850D02*
Y107850D01*
Y113650D02*
Y115650D01*
X102150Y57750D02*
X104150D01*
X103150Y111750D02*
X105150D01*
X104066Y173379D02*
Y171379D01*
Y176710D02*
Y178710D01*
X105436Y175044D02*
X107436D01*
X105750Y162750D02*
X103750D01*
X108250Y160250D02*
Y158250D01*
X109490Y117766D02*
X107490D01*
X109679Y174734D02*
X107679D01*
X110750Y162750D02*
X112750D01*
X111156Y119136D02*
Y121136D01*
X111344Y173364D02*
Y171364D01*
Y180443D02*
Y183456D01*
X109850Y184950*
Y193890*
X104833Y198907*
X112350Y98750D02*
X110350D01*
X112821Y117766D02*
X114821D01*
X112906Y56406D02*
X111492Y54992D01*
X112906Y59094D02*
X111492Y60508D01*
X112906Y63406D02*
X111492Y61992D01*
X112906Y66094D02*
X111492Y67508D01*
X112906Y70406D02*
X111492Y68992D01*
X112906Y73094D02*
X111492Y74508D01*
X112906Y76406D02*
X111492Y74992D01*
X112906Y79094D02*
X111492Y80508D01*
X112906Y82406D02*
X111492Y80992D01*
X112906Y85094D02*
X111492Y86508D01*
X112906Y88406D02*
X111492Y86992D01*
X112906Y91094D02*
X111492Y92508D01*
X113010Y174734D02*
X115010D01*
X114250Y96850D02*
Y94850D01*
Y100650D02*
Y102650D01*
X115594Y56406D02*
X117008Y54992D01*
X115594Y59094D02*
X117008Y60508D01*
X115594Y63406D02*
X117008Y61992D01*
X115594Y66094D02*
X117008Y67508D01*
X115594Y70406D02*
X117008Y68992D01*
X115594Y73094D02*
X117008Y74508D01*
X115594Y76406D02*
X117008Y74992D01*
X115594Y79094D02*
X117008Y80508D01*
X115594Y82406D02*
X117008Y80992D01*
X115594Y85094D02*
X117008Y86508D01*
X115594Y88406D02*
X117008Y86992D01*
X115594Y91094D02*
X117008Y92508D01*
X116150Y98750D02*
X118150D01*
X117679Y174734D02*
X115679D01*
X117750Y120750D02*
X115750D01*
X119344Y173364D02*
Y171364D01*
Y180443D02*
Y184396D01*
X114833Y188907*
X120250Y118250D02*
Y116250D01*
Y123250D02*
Y125250D01*
X121010Y174734D02*
X123010D01*
X123065Y190675D02*
X121651Y192089D01*
X123906Y144094D02*
X122492Y145508D01*
X124679Y156334D02*
X122679D01*
X125679Y174734D02*
X123679D01*
X126344Y154964D02*
Y152964D01*
X126594Y144094D02*
X128008Y145508D01*
X126600Y187140D02*
X128015Y185726D01*
X126600Y190675D02*
X128015Y192089D01*
X127344Y180443D02*
X126357D01*
X119450Y187350*
Y194290*
X114833Y198907*
X128010Y156334D02*
X130010D01*
X129010Y174734D02*
X131010D01*
X133906Y142406D02*
X132492Y140992D01*
X133906Y179406D02*
X132492Y177992D01*
X133906Y182094D02*
X132492Y183508D01*
X134906Y194406D02*
X133492Y192992D01*
X134906Y197094D02*
X133492Y198508D01*
X136594Y142406D02*
X138008Y140992D01*
X136594Y145094D02*
X138008Y146508D01*
X136594Y179406D02*
X138008Y177992D01*
X136594Y182094D02*
X138008Y183508D01*
X137594Y194406D02*
X139008Y192992D01*
X137594Y197094D02*
X139008Y198508D01*
X150288Y143227D02*
X148288D01*
X150288Y178227D02*
X148288D01*
X150288Y189227D02*
X148288D01*
X151150Y160150D02*
X149150D01*
X151855Y141168D02*
Y139168D01*
Y145286D02*
Y147286D01*
Y180286D02*
Y182286D01*
Y187168D02*
Y185168D01*
Y191286D02*
Y193286D01*
X153050Y158250D02*
Y156250D01*
X153422Y143227D02*
X155422D01*
X153422Y178227D02*
X155422D01*
X153422Y189227D02*
X155422D01*
X154950Y160150D02*
X156950D01*
X157350Y183750D02*
X155350D01*
X157750Y120750D02*
X155750D01*
X158906Y147406D02*
X157492Y145992D01*
X158906Y150094D02*
X157492Y151508D01*
X159250Y181850D02*
Y179850D01*
Y185650D02*
Y187650D01*
X160250Y118250D02*
Y116250D01*
Y123250D02*
Y125250D01*
X161150Y183750D02*
X163150D01*
X161594Y147406D02*
X163008Y145992D01*
X161594Y150094D02*
X163008Y151508D01*
X162750Y120750D02*
X164750D01*
X167350Y153750D02*
X165350D01*
X169250Y151850D02*
Y149850D01*
Y155650D02*
Y157650D01*
Y166850D02*
Y164850D01*
Y170650D02*
Y172650D01*
X170144Y56553D02*
X168144D01*
X170144Y90569D02*
X168144D01*
X171350Y137750D02*
X169350D01*
X173250Y135850D02*
Y133850D01*
Y139650D02*
Y141650D01*
X174537Y188430D02*
X172537D01*
X175150Y137750D02*
X177150D01*
X177037Y185930D02*
Y183930D01*
Y190930D02*
Y192930D01*
X179537Y188430D02*
X181537D01*
X179644Y60876D02*
Y62876D01*
Y86246D02*
Y84246D01*
Y94892D02*
Y96892D01*
X179906Y113406D02*
X178492Y111992D01*
X179906Y116094D02*
X178492Y117508D01*
X180350Y129750D02*
X178350D01*
X180350Y145750D02*
X178350D01*
X180350Y163750D02*
X178350D01*
X180350Y176750D02*
X178350D01*
X182250Y127850D02*
Y125850D01*
Y131650D02*
Y133650D01*
Y143850D02*
Y141850D01*
Y147650D02*
Y149650D01*
Y161850D02*
Y159850D01*
Y165650D02*
Y167650D01*
Y174850D02*
Y172850D01*
Y178650D02*
Y180650D01*
X182594Y113406D02*
X184008Y111992D01*
X182594Y116094D02*
X184008Y117508D01*
D02*
D12*
X5550Y55650D02*
X10150Y51050D01*
X117850*
Y97750*
X125050Y104950*
X184950*
Y197050*
X182650Y199350*
X128858*
G75*
G02X124833Y194857I-4026J-443*
G01*
G75*
G02X120807Y199350J4050*
G01*
X118858*
G75*
G02X118574Y197358I-4026J-443*
G01*
X120547Y195386*
G75*
G02X121001Y194290I-1096J-1096*
G01*
Y190219*
G75*
G02X124833Y192957I3832J-1311*
G01*
G75*
G02Y184857J-4050*
G01*
G75*
G02X124061Y184932I1J4050*
G01*
X125628Y183364*
X130561*
Y171813*
X124128*
Y180480*
X122561Y182047*
Y171813*
X116128*
Y183364*
X117794*
Y183754*
X116382Y185166*
G75*
G02X111398Y186761I-1550J3742*
G01*
Y185593*
X112440Y184552*
G75*
G02X112894Y183456I-1095J-1097*
G01*
Y183364*
X114561*
Y171813*
X108128*
Y183364*
X109243*
X108753Y183854*
G75*
G02X108298Y184950I1095J1097*
G01*
Y186812*
G75*
G02X105001Y184861I-3465J2096*
G01*
Y183350*
G75*
G02X104546Y182254I-1550J0*
G01*
X100552Y178260*
X106986*
Y171829*
X97552*
X93456Y167741*
X92659Y166945*
G75*
G02X88600Y167350I-2009J405*
G01*
G75*
G02X90245Y169359I2050*
G01*
X91044Y170159*
X95437Y174543*
Y178260*
X96806*
G75*
G02X97261Y179353I1550J-3*
G01*
X101901Y183992*
Y186113*
G75*
G02X104833Y192957I2932J2794*
G01*
G75*
G02X108298Y191003J-4050*
G01*
Y193248*
X106382Y195165*
G75*
G02X100807Y199350I-1549J3742*
G01*
X98858*
G75*
G02X94833Y194857I-4026J-443*
G01*
G75*
G02X90807Y199350J4050*
G01*
X88858*
G75*
G02X84833Y194857I-4026J-443*
G01*
G75*
G02X80807Y199350J4050*
G01*
X78858*
G75*
G02X74833Y194857I-4026J-443*
G01*
G75*
G02X70807Y199350J4050*
G01*
X68858*
G75*
G02X64833Y194857I-4026J-443*
G01*
G75*
G02X60807Y199350J4050*
G01*
X58858*
G75*
G02X54833Y194857I-4026J-443*
G01*
G75*
G02X50807Y199350J4050*
G01*
X48858*
G75*
G02X44833Y194857I-4026J-443*
G01*
G75*
G02X40807Y199350J4050*
G01*
X38858*
G75*
G02X34833Y194857I-4026J-443*
G01*
G75*
G02X30807Y199350J4050*
G01*
X28858*
G75*
G02X24833Y194857I-4026J-443*
G01*
G75*
G02X20807Y199350J4050*
G01*
X18858*
G75*
G02X14833Y194857I-4026J-443*
G01*
G75*
G02X10807Y199350J4050*
G01*
X9850*
X5550Y195050*
Y55650*
X13187Y98204D02*
G75*
G02Y106304J4050D01*
G01*
G75*
G02Y98204J-4050*
G01*
X14737Y108355D02*
G75*
G02X13187Y108046I-1550J3741D01*
G01*
G75*
G02Y116146J4050*
G01*
G75*
G02X16953Y110607J-4050*
G01*
X17939*
Y117687*
X24372*
Y106136*
X17939*
Y107507*
X16226*
G75*
G02X15130Y107961J1550*
G01*
X14737Y108355*
Y125681D02*
X16595Y127539D01*
G75*
G02X17691Y127993I1096J-1096*
G01*
X18128*
Y129364*
X24561*
Y117813*
X18128*
Y124688*
X16929Y123489*
G75*
G02X13187Y117889I-3742J-1550*
G01*
G75*
G02Y125989J4050*
G01*
G75*
G02X14737Y125681J-4050*
G01*
Y145366D02*
X15524Y146153D01*
G75*
G02X16620Y146607I1096J-1096*
G01*
X17939*
Y153687*
X24372*
Y142136*
X17939*
Y143507*
X17262*
X16929Y143174*
G75*
G02X13187Y137574I-3742J-1550*
G01*
G75*
G02Y145674J4050*
G01*
G75*
G02X14737Y145366J-4050*
G01*
X16089Y134607D02*
X17939D01*
Y141687*
X24372*
Y130136*
X17939*
Y131507*
X17228*
G75*
G02X13187Y127731I-4041J274*
G01*
G75*
G02Y135831J4050*
G01*
G75*
G02X16089Y134607J-4050*
G01*
X17238Y147415D02*
X9136D01*
Y155518*
X17238*
Y147415*
X18884Y184856D02*
X10781D01*
Y192959*
X18884*
Y184856*
X24833Y184857D02*
G75*
G02Y192957J4050D01*
G01*
G75*
G02Y184857J-4050*
G01*
X29400Y82925D02*
Y100150D01*
G75*
G02X30000Y101600I2050*
G01*
X47600Y119200*
G75*
G02X49050Y119800I1450J-1450*
G01*
X52475*
G75*
G02X52950Y120322I2776J-2050*
G01*
Y120750*
G75*
G02X53624Y122376I2300*
G01*
X53950Y122703*
Y129704*
X49723Y125477*
G75*
G02X48450Y124950I-1273J1273*
G01*
X44194*
G75*
G02X38219Y125101I-2944J1800*
G01*
Y124439*
X26667*
Y130872*
X38219*
Y129456*
X39108*
G75*
G02X44194Y128550I2142J-2706*
G01*
X47704*
X53950Y134796*
Y140422*
G75*
G02X53920Y141324I2299J528*
G01*
Y147892*
X49092Y152720*
X45175*
G75*
G02X39339Y152698I-2925J1830*
G01*
X39219*
Y151439*
X27667*
Y157872*
X39219*
Y156613*
X39485*
G75*
G02X45175Y156380I2765J-2063*
G01*
X49850*
G75*
G02X51144Y155844I0J-1830*
G01*
X55918Y151070*
X59424Y154576*
G75*
G02X61050Y155250I1626J-1626*
G01*
X67926*
G75*
G02X69064Y155510I1124J-2300*
G01*
X69395Y155841*
G75*
G02X69198Y161524I1855J2909*
G01*
Y161781*
X67939*
Y173333*
X74372*
Y161781*
X73113*
Y161654*
G75*
G02X73050Y155807I-1863J-2904*
G01*
Y155500*
X76794*
X82447Y161152*
G75*
G02X84250Y161898I1803J-1804*
G01*
X89593*
X97646Y169954*
G75*
G02X99450Y170702I1804J-1803*
G01*
X120328*
G75*
G02X124972I2322J-2552*
G01*
X125128*
G75*
G02X130900Y168150I2322J-2552*
G01*
G75*
G02X128770Y164963I-3450*
G01*
X129561*
Y153415*
X123128*
Y160950*
X121878*
G75*
G02X114200Y162750I-3628J1800*
G01*
G75*
G02X115374Y165602I4050*
G01*
X112301*
Y158699*
X104199*
Y165602*
X100507*
X92454Y157546*
G75*
G02X90650Y156798I-1804J1803*
G01*
X85306*
X84656Y156148*
G75*
G02X88024Y154802I594J-3399*
G01*
X88281*
Y156061*
X99833*
Y150200*
X105104*
G75*
G02X104200Y152750I3146J2550*
G01*
G75*
G02X112300I4050*
G01*
G75*
G02X111396Y150200I-4050*
G01*
X115104*
G75*
G02X114200Y152750I3146J2550*
G01*
G75*
G02X122300I4050*
G01*
G75*
G02X121396Y150200I-4050*
G01*
X132201*
X133398Y151397*
X132848Y151948*
G75*
G02X132102Y153750I1804J1802*
G01*
Y153781*
X130939*
Y165333*
X132102*
Y166550*
G75*
G02X132848Y168353I2550*
G01*
X135894Y171399*
G75*
G02X137530Y172141I1804J-1803*
G01*
Y172518*
X138473*
G75*
G02X139304Y173117I2272J-2273*
G01*
X139443Y173256*
Y178227*
G75*
G02X139486Y178755I3207*
G01*
Y181837*
X139553*
Y185618*
X139486*
Y192837*
X145719*
Y185618*
X145653*
Y181837*
X145719*
Y179161*
G75*
G02X145857Y178227I-3069J-934*
G01*
Y175200*
X148738*
Y181837*
X154970*
Y175200*
X158587*
G75*
G02X159293Y176307I2863J-1050*
G01*
X163600Y180613*
Y186289*
G75*
G02X162987Y188430I3437J2142*
G01*
G75*
G02X171087I4050*
G01*
G75*
G02X169700Y185379I-4050*
G01*
Y180095*
G75*
G02X169788Y179465I-3050J-746*
G01*
X176276Y172976*
G75*
G02X176950Y171350I-1626J-1626*
G01*
Y151350*
G75*
G02X176276Y149724I-2300*
G01*
X159476Y132924*
G75*
G02X157850Y132250I-1626J1626*
G01*
X140250*
G75*
G02X138624Y132924J2300*
G01*
X136787Y134761*
G75*
G02X137183Y132061I-2937J-1811*
G01*
X146187*
Y126359*
X146523Y126023*
G75*
G02X147050Y124750I-1273J-1273*
G01*
Y123232*
G75*
G02X150250Y124800I3200J-2482*
G01*
G75*
G02Y116700J-4050*
G01*
G75*
G02X147050Y118268J4050*
G01*
Y115750*
G75*
G02X146523Y114477I-1800*
G01*
X144088Y112043*
G75*
G02X140250Y106700I-3838J-1293*
G01*
G75*
G02Y114800J4050*
G01*
G75*
G02X141543Y114588J-4050*
G01*
X143450Y116496*
Y118268*
G75*
G02X140250Y116700I-3200J2482*
G01*
G75*
G02Y124800J4050*
G01*
G75*
G02X143450Y123232J-4050*
G01*
Y124004*
X141993Y125461*
G75*
G02X141846Y125628I1273J1274*
G01*
X134636*
Y126452*
G75*
G02X133864Y126316I-786J2204*
G01*
Y125439*
X132743*
Y123942*
G75*
G02X130250Y116700I-2493J-3192*
G01*
G75*
G02X127034Y118288J4050*
G01*
Y116511*
X128957Y114588*
G75*
G02X130250Y114800I1293J-3838*
G01*
G75*
G02Y106700J-4050*
G01*
G75*
G02X126412Y112043J4050*
G01*
X124301Y114153*
Y106699*
X116199*
Y110257*
X114372*
Y109136*
X107939*
Y120687*
X114372*
Y113857*
X116199*
Y114801*
X123715*
G75*
G02X123434Y115766I1520J965*
G01*
Y118247*
G75*
G02X120250Y116700I-3184J2503*
G01*
G75*
G02Y124800J4050*
G01*
G75*
G02X123434Y123253J-4050*
G01*
Y125439*
X122313*
Y131872*
X130573*
G75*
G02X131472Y135450I3277J1078*
G01*
X121269*
G75*
G02X122300Y132750I-3019J-2700*
G01*
G75*
G02X114200I-4050*
G01*
G75*
G02X115231Y135450I4050J0*
G01*
X111269*
G75*
G02X112300Y132750I-3019J-2700*
G01*
G75*
G02X104200I-4050*
G01*
G75*
G02X104333Y133781I4050J0*
G01*
X104150Y133597*
Y120950*
G75*
G02X103476Y119324I-2300*
G01*
X82676Y98524*
G75*
G02X81050Y97850I-1626J1626*
G01*
X56121*
X51183Y92912*
Y92750*
G75*
G02X52318Y92228I-138J-1795*
G01*
X52996Y91550*
X53128*
Y92364*
X59250*
G75*
G02X59200Y92950I3400J585*
G01*
G75*
G02X66100I3450*
G01*
G75*
G02X65537Y91061I-3450*
G01*
X71833*
Y84628*
X67050*
Y82896*
X69687*
Y62604*
X61404*
Y73450*
X59372*
Y66136*
X58144*
Y65719*
X59561*
Y54167*
X53128*
Y65719*
X54544*
Y66136*
X52939*
Y66993*
X52250*
G75*
G02X50866Y67566J1957*
G01*
X49839Y68593*
X45050*
G75*
G02X43666Y69166J1957*
G01*
X34639Y78193*
X34291*
G75*
G02X28000Y80150I-2841J1957*
G01*
G75*
G02X29400Y82925I3450*
G01*
X34833Y184857D02*
G75*
G02Y192957J4050D01*
G01*
G75*
G02Y184857J-4050*
G01*
X44833D02*
G75*
G02Y192957J4050D01*
G01*
G75*
G02Y184857J-4050*
G01*
X54833D02*
G75*
G02Y192957J4050D01*
G01*
G75*
G02Y184857J-4050*
G01*
X59939Y161781D02*
Y173333D01*
X66372*
Y161781*
X65113*
Y161654*
G75*
G02X66700Y158750I-1863J-2904*
G01*
G75*
G02X59800I-3450*
G01*
G75*
G02X61198Y161524I3450*
G01*
Y161781*
X59939*
X64833Y184857D02*
G75*
G02Y192957J4050D01*
G01*
G75*
G02Y184857J-4050*
G01*
X74833D02*
G75*
G02Y192957J4050D01*
G01*
G75*
G02Y184857J-4050*
G01*
X80813Y67441D02*
G75*
G02X74800Y69750I-2563J2309D01*
G01*
G75*
G02X80813Y72059I3450*
G01*
Y82896*
X89096*
Y77550*
X93750*
G75*
G02X95376Y76876J-2300*
G01*
X96203Y76050*
X99766*
G75*
G02X109178Y73750I4425J-2300*
G01*
G75*
G02X99766Y71450I-4987*
G01*
X95250*
G75*
G02X93624Y72124J2300*
G01*
X92797Y72950*
X89096*
Y62604*
X80813*
Y67441*
X84833Y184857D02*
G75*
G02Y192957J4050D01*
G01*
G75*
G02Y184857J-4050*
G01*
X94833D02*
G75*
G02Y192957J4050D01*
G01*
G75*
G02Y184857J-4050*
G01*
X150250Y106700D02*
G75*
G02Y114800J4050D01*
G01*
G75*
G02Y106700J-4050*
G01*
X154970Y192837D02*
Y185618D01*
X148738*
Y192837*
X154970*
X160250Y116700D02*
G75*
G02Y124800J4050D01*
G01*
G75*
G02Y116700J-4050*
G01*
X163878Y108950D02*
G75*
G02X160250Y106700I-3628J1800D01*
G01*
G75*
G02Y114800J4050*
G01*
G75*
G02X163878Y112550J-4050*
G01*
X166128*
Y121364*
X167294*
Y123580*
G75*
G02X165600Y126550I1756J2970*
G01*
G75*
G02X172500I3450*
G01*
G75*
G02X171394Y124019I-3450*
G01*
Y121364*
X172561*
Y109813*
X168969*
X168633Y109477*
G75*
G02X167360Y108950I-1273J1273*
G01*
X163878*
X181087Y188430D02*
G75*
G02X172987I-4050D01*
G01*
G75*
G02X181087I4050*
G01*
X5550Y102254D02*
G36*
Y72750D01*
X40081*
X34639Y78193*
X34291*
G75*
G02X28000Y80150I-2841J1957*
G01*
G75*
G02X29400Y82925I3450*
G01*
Y100150*
G75*
G02X30000Y101600I2050*
G01*
X30655Y102254*
X17237*
G75*
G02X13187Y98204I-4050*
G01*
G75*
G02X9137Y102254J4050*
G01*
X5550*
G37*
X9137D02*
G36*
G75*
G02X13187Y106304I4050D01*
G01*
G75*
G02X17237Y102254J-4050*
G01*
X30655*
X40312Y111911*
X24372*
Y106136*
X17939*
Y107507*
X16226*
G75*
G02X15130Y107961J1550*
G01*
X14737Y108355*
G75*
G02X13187Y108046I-1550J3741*
G01*
G75*
G02X9141Y111911J4050*
G01*
X5550*
Y102254*
X9137*
G37*
X86407D02*
G36*
X82676Y98524D01*
G75*
G02X81050Y97850I-1626J1626*
G01*
X56121*
X51183Y92912*
Y92750*
G75*
G02X52318Y92228I-138J-1795*
G01*
X52996Y91550*
X53128*
Y92364*
X59250*
G75*
G02X59200Y92950I3400J585*
G01*
G75*
G02X66100I3450*
G01*
G75*
G02X65537Y91061I-3450*
G01*
X71833*
Y84628*
X67050*
Y82896*
X69687*
Y72750*
X76546*
G75*
G02X80813Y72059I1704J-3000*
G01*
Y82896*
X89096*
Y77550*
X93750*
G75*
G02X95376Y76876J-2300*
G01*
X96203Y76050*
X99766*
G75*
G02X109178Y73750I4425J-2300*
G01*
G75*
G02X109077Y72750I-4987J0*
G01*
X117850*
Y97750*
X122354Y102254*
X86407*
G37*
X122354D02*
G36*
X125050Y104950D01*
X184950*
Y111911*
X172561*
Y109813*
X168969*
X168633Y109477*
G75*
G02X167360Y108950I-1273J1273*
G01*
X163878*
G75*
G02X160250Y106700I-3628J1800*
G01*
G75*
G02X156370Y111911J4050*
G01*
X154130*
G75*
G02X150250Y106700I-3880J-1161*
G01*
G75*
G02X146370Y111911J4050*
G01*
X144130*
G75*
G02X140250Y106700I-3880J-1161*
G01*
G75*
G02Y114800J4050*
G01*
G75*
G02X141543Y114588J-4050*
G01*
X143450Y116496*
Y118268*
G75*
G02X140250Y116700I-3200J2482*
G01*
G75*
G02Y124800J4050*
G01*
G75*
G02X143450Y123232J-4050*
G01*
Y124004*
X141993Y125461*
G75*
G02X141846Y125628I1273J1274*
G01*
X134636*
Y126452*
G75*
G02X133864Y126316I-786J2204*
G01*
Y125439*
X132743*
Y123942*
G75*
G02X130250Y116700I-2493J-3192*
G01*
G75*
G02X127034Y118288J4050*
G01*
Y116511*
X128957Y114588*
G75*
G02X130250Y114800I1293J-3838*
G01*
G75*
G02Y106700J-4050*
G01*
G75*
G02X126412Y112043J4050*
G01*
X124301Y114153*
Y106699*
X116199*
Y110257*
X114372*
Y109136*
X107939*
Y120687*
X114372*
Y113857*
X116199*
Y114801*
X123715*
G75*
G02X123434Y115766I1520J965*
G01*
Y118247*
G75*
G02X120250Y116700I-3184J2503*
G01*
G75*
G02Y124800J4050*
G01*
G75*
G02X123434Y123253J-4050*
G01*
Y125439*
X122313*
Y131872*
X130573*
G75*
G02X131472Y135450I3277J1078*
G01*
X121269*
G75*
G02X122300Y132750I-3019J-2700*
G01*
G75*
G02X114200I-4050*
G01*
G75*
G02X115231Y135450I4050J0*
G01*
X111269*
G75*
G02X112300Y132750I-3019J-2700*
G01*
G75*
G02X104200I-4050*
G01*
G75*
G02X104333Y133781I4050J0*
G01*
X104150Y133597*
Y120950*
G75*
G02X103476Y119324I-2300*
G01*
X86407Y102254*
X122354*
G37*
X9141Y111911D02*
G36*
G75*
G02X13187Y116146I4046J185D01*
G01*
G75*
G02X16953Y110607J-4050*
G01*
X17939*
Y117687*
X24372*
Y111911*
X40312*
X47600Y119200*
G75*
G02X49050Y119800I1450J-1450*
G01*
X52475*
G75*
G02X52950Y120322I2776J-2050*
G01*
Y120750*
G75*
G02X53624Y122376I2300*
G01*
X53950Y122703*
Y129704*
X49723Y125477*
G75*
G02X48450Y124950I-1273J1273*
G01*
X44194*
G75*
G02X39867Y123589I-2944J1800*
G01*
X24561*
Y117813*
X18128*
Y124688*
X16929Y123489*
G75*
G02X13187Y117889I-3742J-1550*
G01*
G75*
G02X9488Y123589J4050*
G01*
X5550*
Y111911*
X9141*
G37*
X146370D02*
G36*
G75*
G02X150250Y114800I3880J-1161D01*
G01*
G75*
G02X154130Y111911J-4050*
G01*
X156370*
G75*
G02X160250Y114800I3880J-1161*
G01*
G75*
G02X163878Y112550J-4050*
G01*
X166128*
Y121364*
X167294*
Y123580*
G75*
G02X167280Y123589I1752J2964*
G01*
X163139*
G75*
G02X160250Y116700I-2889J-2839*
G01*
G75*
G02X157361Y123589J4050*
G01*
X153139*
G75*
G02X150250Y116700I-2889J-2839*
G01*
G75*
G02X147050Y118268J4050*
G01*
Y115750*
G75*
G02X146523Y114477I-1800*
G01*
X144088Y112043*
G75*
G02X144130Y111911I-3837J-1294*
G01*
X146370*
G37*
X184950D02*
G36*
Y123589D01*
X171394*
Y121364*
X172561*
Y111911*
X184950*
G37*
X9488Y123589D02*
G36*
G75*
G02X13187Y125989I3699J-1650D01*
G01*
G75*
G02X14737Y125681J-4050*
G01*
X16595Y127539*
G75*
G02X17691Y127993I1096J-1096*
G01*
X18128*
Y129364*
X24561*
Y123589*
X39867*
G75*
G02X38219Y125101I1383J3161*
G01*
Y124439*
X26667*
Y130872*
X38219*
Y129456*
X39108*
G75*
G02X44194Y128550I2142J-2706*
G01*
X47704*
X53863Y134709*
X24372*
Y130136*
X17939*
Y131507*
X17228*
G75*
G02X13187Y127731I-4041J274*
G01*
G75*
G02X10389Y134709J4050*
G01*
X5550*
Y123589*
X9488*
G37*
X157361D02*
G36*
G75*
G02X160250Y124800I2889J-2839D01*
G01*
G75*
G02X163139Y123589J-4050*
G01*
X167280*
G75*
G02X165600Y126550I1770J2961*
G01*
G75*
G02X172500I3450*
G01*
G75*
G02X171394Y124019I-3450*
G01*
Y123589*
X184950*
Y134709*
X161262*
X159476Y132924*
G75*
G02X157850Y132250I-1626J1626*
G01*
X140250*
G75*
G02X138624Y132924J2300*
G01*
X136787Y134761*
G75*
G02X137183Y132061I-2937J-1811*
G01*
X146187*
Y126359*
X146523Y126023*
G75*
G02X147050Y124750I-1273J-1273*
G01*
Y123232*
G75*
G02X150250Y124800I3200J-2482*
G01*
G75*
G02X153139Y123589J-4050*
G01*
X157361*
G37*
X5550Y145630D02*
G36*
Y134709D01*
X10389*
G75*
G02X13187Y135831I2798J-2928*
G01*
G75*
G02X16089Y134607J-4050*
G01*
X17939*
Y141687*
X24372*
Y134709*
X53863*
X53950Y134796*
Y140422*
G75*
G02X53920Y141324I2299J528*
G01*
Y145630*
X24372*
Y142136*
X17939*
Y143507*
X17262*
X16929Y143174*
G75*
G02X13187Y137574I-3742J-1550*
G01*
G75*
G02X12594Y145630J4050*
G01*
X5550*
G37*
X12594D02*
G36*
G75*
G02X13187Y145674I593J-4007D01*
G01*
G75*
G02X14737Y145366J-4050*
G01*
X15524Y146153*
G75*
G02X16620Y146607I1096J-1096*
G01*
X17939*
Y151467*
X17238*
Y147415*
X9136*
Y151467*
X5550*
Y145630*
X12594*
G37*
X53920D02*
G36*
Y147892D01*
X49092Y152720*
X45175*
G75*
G02X39339Y152698I-2925J1830*
G01*
X39219*
Y151439*
X27667*
Y151467*
X24372*
Y145630*
X53920*
G37*
X172183Y145632D02*
G36*
X161262Y134711D01*
X184951*
Y145632*
X172183*
G37*
X184950Y145630D02*
G36*
Y151467D01*
X176950*
Y151350*
G75*
G02X176276Y149724I-2300*
G01*
X172183Y145630*
X184950*
G37*
X9136Y151467D02*
G36*
Y155518D01*
X17238*
Y151467*
X17939*
Y153687*
X24372*
Y151467*
X27667*
Y157872*
X39219*
Y156613*
X39485*
G75*
G02X45175Y156380I2765J-2063*
G01*
X49850*
G75*
G02X51144Y155844I0J-1830*
G01*
X55918Y151070*
X59424Y154576*
G75*
G02X61050Y155250I1626J-1626*
G01*
X67926*
G75*
G02X69064Y155510I1124J-2300*
G01*
X69395Y155841*
G75*
G02X69198Y161524I1855J2909*
G01*
Y161781*
X67939*
Y164316*
X66372*
Y161781*
X65113*
Y161654*
G75*
G02X66700Y158750I-1863J-2904*
G01*
G75*
G02X59800I-3450*
G01*
G75*
G02X61198Y161524I3450*
G01*
Y161781*
X59939*
Y164316*
X5550*
Y151467*
X9136*
G37*
X184951D02*
G36*
Y164317D01*
X176951*
Y151467*
X184951*
G37*
X5550Y188907D02*
G36*
Y164316D01*
X59939*
Y173333*
X66372*
Y164316*
X67939*
Y173333*
X74372*
Y161781*
X73113*
Y161654*
G75*
G02X73050Y155807I-1863J-2904*
G01*
Y155500*
X76794*
X82447Y161152*
G75*
G02X84250Y161898I1803J-1804*
G01*
X89593*
X97646Y169954*
G75*
G02X99450Y170702I1804J-1803*
G01*
X120328*
G75*
G02X124972I2322J-2552*
G01*
X125128*
G75*
G02X130900Y168150I2322J-2552*
G01*
G75*
G02X128770Y164963I-3450*
G01*
X129561*
Y153415*
X123128*
Y160950*
X121878*
G75*
G02X114200Y162750I-3628J1800*
G01*
G75*
G02X115374Y165602I4050*
G01*
X112301*
Y158699*
X104199*
Y165602*
X100507*
X92454Y157546*
G75*
G02X90650Y156798I-1804J1803*
G01*
X85306*
X84656Y156148*
G75*
G02X88024Y154802I594J-3399*
G01*
X88281*
Y156061*
X99833*
Y150200*
X105104*
G75*
G02X104200Y152750I3146J2550*
G01*
G75*
G02X112300I4050*
G01*
G75*
G02X111396Y150200I-4050*
G01*
X115104*
G75*
G02X114200Y152750I3146J2550*
G01*
G75*
G02X122300I4050*
G01*
G75*
G02X121396Y150200I-4050*
G01*
X132201*
X133398Y151397*
X132848Y151948*
G75*
G02X132102Y153750I1804J1802*
G01*
Y153781*
X130939*
Y165333*
X132102*
Y166550*
G75*
G02X132848Y168353I2550*
G01*
X135894Y171399*
G75*
G02X137530Y172141I1804J-1803*
G01*
Y172518*
X138473*
G75*
G02X139304Y173117I2272J-2273*
G01*
X139443Y173256*
Y178227*
G75*
G02X139486Y178755I3207*
G01*
Y181837*
X139553*
Y185618*
X139486*
Y188907*
X128883*
G75*
G02X124833Y184857I-4050*
G01*
G75*
G02X124061Y184932I1J4050*
G01*
X125628Y183364*
X130561*
Y171813*
X124128*
Y180480*
X122561Y182047*
Y171813*
X116128*
Y183364*
X117794*
Y183754*
X116382Y185166*
G75*
G02X111398Y186761I-1550J3742*
G01*
Y185593*
X112440Y184552*
G75*
G02X112894Y183456I-1095J-1097*
G01*
Y183364*
X114561*
Y171813*
X108128*
Y183364*
X109243*
X108753Y183854*
G75*
G02X108298Y184950I1095J1097*
G01*
Y186812*
G75*
G02X105001Y184861I-3465J2096*
G01*
Y183350*
G75*
G02X104546Y182254I-1550J0*
G01*
X100552Y178260*
X106986*
Y171829*
X97552*
X93456Y167741*
X92659Y166945*
G75*
G02X88600Y167350I-2009J405*
G01*
G75*
G02X90245Y169359I2050*
G01*
X91044Y170159*
X95437Y174543*
Y178260*
X96806*
G75*
G02X97261Y179353I1550J-3*
G01*
X101901Y183992*
Y186113*
G75*
G02X100783Y188907I2932J2794*
G01*
X98883*
G75*
G02X94833Y184857I-4050*
G01*
G75*
G02X90783Y188907J4050*
G01*
X88883*
G75*
G02X84833Y184857I-4050*
G01*
G75*
G02X80783Y188907J4050*
G01*
X78883*
G75*
G02X74833Y184857I-4050*
G01*
G75*
G02X70783Y188907J4050*
G01*
X68883*
G75*
G02X64833Y184857I-4050*
G01*
G75*
G02X60783Y188907J4050*
G01*
X58883*
G75*
G02X54833Y184857I-4050*
G01*
G75*
G02X50783Y188907J4050*
G01*
X48883*
G75*
G02X44833Y184857I-4050*
G01*
G75*
G02X40783Y188907J4050*
G01*
X38883*
G75*
G02X34833Y184857I-4050*
G01*
G75*
G02X30783Y188907J4050*
G01*
X28883*
G75*
G02X24833Y184857I-4050*
G01*
G75*
G02X20783Y188907J4050*
G01*
X18884*
Y184856*
X10781*
Y188907*
X5550*
G37*
X10781D02*
G36*
Y192959D01*
X18884*
Y188907*
X20783*
G75*
G02X24833Y192957I4050*
G01*
G75*
G02X28883Y188907J-4050*
G01*
X30783*
G75*
G02X34833Y192957I4050*
G01*
G75*
G02X38883Y188907J-4050*
G01*
X40783*
G75*
G02X44833Y192957I4050*
G01*
G75*
G02X48883Y188907J-4050*
G01*
X50783*
G75*
G02X54833Y192957I4050*
G01*
G75*
G02X58883Y188907J-4050*
G01*
X60783*
G75*
G02X64833Y192957I4050*
G01*
G75*
G02X68883Y188907J-4050*
G01*
X70783*
G75*
G02X74833Y192957I4050*
G01*
G75*
G02X78883Y188907J-4050*
G01*
X80783*
G75*
G02X84833Y192957I4050*
G01*
G75*
G02X88883Y188907J-4050*
G01*
X90783*
G75*
G02X94833Y192957I4050*
G01*
G75*
G02X98883Y188907J-4050*
G01*
X100783*
G75*
G02X104833Y192957I4050*
G01*
G75*
G02X108298Y191003J-4050*
G01*
Y193248*
X106382Y195165*
G75*
G02X100807Y199350I-1549J3742*
G01*
X98858*
G75*
G02X94833Y194857I-4026J-443*
G01*
G75*
G02X90807Y199350J4050*
G01*
X88858*
G75*
G02X84833Y194857I-4026J-443*
G01*
G75*
G02X80807Y199350J4050*
G01*
X78858*
G75*
G02X74833Y194857I-4026J-443*
G01*
G75*
G02X70807Y199350J4050*
G01*
X68858*
G75*
G02X64833Y194857I-4026J-443*
G01*
G75*
G02X60807Y199350J4050*
G01*
X58858*
G75*
G02X54833Y194857I-4026J-443*
G01*
G75*
G02X50807Y199350J4050*
G01*
X48858*
G75*
G02X44833Y194857I-4026J-443*
G01*
G75*
G02X40807Y199350J4050*
G01*
X38858*
G75*
G02X34833Y194857I-4026J-443*
G01*
G75*
G02X30807Y199350J4050*
G01*
X28858*
G75*
G02X24833Y194857I-4026J-443*
G01*
G75*
G02X20807Y199350J4050*
G01*
X18858*
G75*
G02X14833Y194857I-4026J-443*
G01*
G75*
G02X10807Y199350J4050*
G01*
X9850*
X5550Y195050*
Y188907*
X10781*
G37*
X139486D02*
G36*
Y192837D01*
X145719*
Y188907*
X148738*
Y192837*
X154970*
Y188907*
X163016*
G75*
G02X171059I4022J-477*
G01*
X173016*
G75*
G02X181059I4022J-477*
G01*
X184950*
Y197050*
X182650Y199350*
X128858*
G75*
G02X124833Y194857I-4026J-443*
G01*
G75*
G02X120807Y199350J4050*
G01*
X118858*
G75*
G02X118574Y197358I-4026J-443*
G01*
X120547Y195386*
G75*
G02X121001Y194290I-1096J-1096*
G01*
Y190219*
G75*
G02X124833Y192957I3832J-1311*
G01*
G75*
G02X128883Y188907J-4050*
G01*
X139486*
G37*
X145719D02*
G36*
Y185618D01*
X145653*
Y181837*
X145719*
Y179161*
G75*
G02X145857Y178227I-3069J-934*
G01*
Y175200*
X148738*
Y181837*
X154970*
Y175200*
X158587*
G75*
G02X159293Y176307I2863J-1050*
G01*
X163600Y180613*
Y186289*
G75*
G02X162987Y188430I3437J2142*
G01*
G75*
G02X163016Y188907I4050J-1*
G01*
X154970*
Y185618*
X148738*
Y188907*
X145719*
G37*
X171059D02*
G36*
G75*
G02X171087Y188430I-4022J-478D01*
G01*
G75*
G02X169700Y185379I-4050*
G01*
Y180095*
G75*
G02X169788Y179465I-3050J-746*
G01*
X176276Y172976*
G75*
G02X176950Y171350I-1626J-1626*
G01*
Y164316*
X184950*
Y188907*
X181059*
G75*
G02X181087Y188430I-4022J-478*
G01*
G75*
G02X172987I-4050*
G01*
G75*
G02X173016Y188907I4050J-1*
G01*
X171059*
G37*
X5550Y72750D02*
G36*
Y55650D01*
X10150Y51050*
X117850*
Y72750*
X109077*
G75*
G02X99766Y71450I-4886J1000*
G01*
X95250*
G75*
G02X93624Y72124J2300*
G01*
X92797Y72950*
X89096*
Y62604*
X80813*
Y67441*
G75*
G02X74800Y69750I-2563J2309*
G01*
G75*
G02X76546Y72750I3450*
G01*
X69687*
Y62604*
X61404*
Y73450*
X59372*
Y66136*
X58144*
Y65719*
X59561*
Y54167*
X53128*
Y65719*
X54544*
Y66136*
X52939*
Y66993*
X52250*
G75*
G02X50866Y67566J1957*
G01*
X49839Y68593*
X45050*
G75*
G02X43666Y69166J1957*
G01*
X40081Y72750*
X5550*
G37*
X33500Y82925D02*
G75*
G02X34291Y82107I-2050J-2775D01*
G01*
X35450*
G75*
G02X36834Y81534J-1957*
G01*
X36943Y81426*
Y95015*
G75*
G02X36600Y96150I1708J1135*
G01*
G75*
G02X40700I2050*
G01*
G75*
G02X40357Y95015I-2050*
G01*
Y81057*
X44957Y76457*
X52939*
Y77687*
X59372*
Y77050*
X61404*
Y82896*
X63450*
Y84628*
X60281*
Y87173*
X59561Y87893*
Y80813*
X53128*
Y87950*
X52250*
G75*
G02X51183Y88300J1800*
G01*
Y87837*
X43963*
Y94073*
X45845*
G75*
G02X45946Y94181I1729J-1520*
G01*
X53542Y101776*
G75*
G02X55168Y102450I1626J-1626*
G01*
X80097*
X99550Y121903*
Y134550*
G75*
G02X100224Y136176I2300*
G01*
X103424Y139376*
G75*
G02X105050Y140050I1626J-1626*
G01*
X105231*
G75*
G02X105974Y146100I3019J2700*
G01*
X94499*
X88662Y140263*
G75*
G02X88700Y139750I-3412J-512*
G01*
G75*
G02X81800I-3450*
G01*
G75*
G02X85763Y143162I3450*
G01*
X92200Y149600*
G75*
G02X92230Y149628I1448J-1459*
G01*
X88281*
Y150887*
X88154*
G75*
G02X82193Y151150I-2904J1863*
G01*
X79754*
G75*
G02X77250Y150400I-1904J1800*
G01*
X69274*
G75*
G02X67926Y150650I-224J2550*
G01*
X62003*
X58580Y147227*
Y146687*
G75*
G02X59103Y146795I671J-1938*
G01*
X61154Y148846*
G75*
G02X62250Y149300I1096J-1096*
G01*
X65908*
G75*
G02X69300Y147750I1342J-1550*
G01*
G75*
G02X65908Y146200I-2050*
G01*
X62892*
X61295Y144603*
G75*
G02X58580Y142813I-2045J147*
G01*
Y141324*
G75*
G02X58550Y140422I-2330J-374*
G01*
Y134796*
X66796Y126550*
X82307*
G75*
G02X87482Y127380I2943J-1800*
G01*
Y128061*
X99031*
Y121628*
X87482*
Y122120*
G75*
G02X82307Y122950I-2232J2630*
G01*
X66050*
G75*
G02X64777Y123477J1800*
G01*
X58550Y129704*
Y121750*
G75*
G02X57876Y120124I-2300*
G01*
X57813Y120060*
G75*
G02X57302Y114976I-2563J-2310*
G01*
Y114719*
X58561*
Y103167*
X52128*
Y114719*
X53387*
Y114846*
G75*
G02X52475Y115700I1863J2904*
G01*
X49899*
X33500Y99301*
Y82925*
X43963Y84821D02*
X51183D01*
Y78585*
X43963*
Y84821*
X60128Y103167D02*
Y114719D01*
X61387*
Y114846*
G75*
G02X59800Y117750I1863J2904*
G01*
G75*
G02X66700I3450*
G01*
G75*
G02X65302Y114976I-3450*
G01*
Y114719*
X66561*
Y103167*
X60128*
X40357Y81703D02*
G36*
Y81057D01*
X44957Y76457*
X52939*
Y77687*
X59372*
Y77050*
X61404*
Y82896*
X63450*
Y84628*
X60281*
Y87173*
X59561Y87893*
Y80813*
X53128*
Y81703*
X51183*
Y78585*
X43963*
Y81703*
X40357*
G37*
X43963D02*
G36*
Y84821D01*
X51183*
Y81703*
X53128*
Y87950*
X52250*
G75*
G02X51183Y88300J1800*
G01*
Y87837*
X43963*
Y94073*
X45845*
G75*
G02X45946Y94181I1729J-1520*
G01*
X53542Y101776*
G75*
G02X55168Y102450I1626J-1626*
G01*
X80097*
X89831Y112183*
X66561*
Y103167*
X60128*
Y112183*
X58561*
Y103167*
X52128*
Y114719*
X53387*
Y114846*
G75*
G02X52475Y115700I1863J2904*
G01*
X49899*
X33500Y99301*
Y82925*
G75*
G02X34291Y82107I-2050J-2775*
G01*
X35450*
G75*
G02X36834Y81534J-1957*
G01*
X36943Y81426*
Y95015*
G75*
G02X36600Y96150I1708J1135*
G01*
G75*
G02X40700I2050*
G01*
G75*
G02X40357Y95015I-2050*
G01*
Y81703*
X43963*
G37*
X60128Y112183D02*
G36*
Y114719D01*
X61387*
Y114846*
G75*
G02X59800Y117750I1863J2904*
G01*
G75*
G02X66700I3450*
G01*
G75*
G02X65302Y114976I-3450*
G01*
Y114719*
X66561*
Y112183*
X89831*
X99550Y121903*
Y134550*
G75*
G02X100224Y136176I2300*
G01*
X103424Y139376*
G75*
G02X105050Y140050I1626J-1626*
G01*
X105231*
G75*
G02X105974Y146100I3019J2700*
G01*
X94499*
X88662Y140263*
G75*
G02X88700Y139750I-3412J-512*
G01*
G75*
G02X81800I-3450*
G01*
G75*
G02X85763Y143162I3450*
G01*
X92200Y149600*
G75*
G02X92230Y149628I1448J-1459*
G01*
X88281*
Y150887*
X88154*
G75*
G02X82193Y151150I-2904J1863*
G01*
X79754*
G75*
G02X77250Y150400I-1904J1800*
G01*
X69274*
G75*
G02X67926Y150650I-224J2550*
G01*
X62003*
X58580Y147227*
Y146687*
G75*
G02X59103Y146795I671J-1938*
G01*
X61154Y148846*
G75*
G02X62250Y149300I1096J-1096*
G01*
X65908*
G75*
G02X69300Y147750I1342J-1550*
G01*
G75*
G02X65908Y146200I-2050*
G01*
X62892*
X61295Y144603*
G75*
G02X58580Y142813I-2045J147*
G01*
Y141324*
G75*
G02X58550Y140422I-2330J-374*
G01*
Y134796*
X66796Y126550*
X82307*
G75*
G02X87482Y127380I2943J-1800*
G01*
Y128061*
X99031*
Y121628*
X87482*
Y122120*
G75*
G02X82307Y122950I-2232J2630*
G01*
X66050*
G75*
G02X64777Y123477J1800*
G01*
X58550Y129704*
Y121750*
G75*
G02X57876Y120124I-2300*
G01*
X57813Y120060*
G75*
G02X57302Y114976I-2563J-2310*
G01*
Y114719*
X58561*
Y112183*
X60128*
G37*
X120526Y146100D02*
G75*
G02X121269Y140050I-2276J-3350D01*
G01*
X137050*
G75*
G02X138676Y139376J-2300*
G01*
X141203Y136850*
X156897*
X172350Y152303*
Y170397*
X167180Y175567*
X164500Y172887*
Y171695*
G75*
G02X164548Y171458I-3048J-745*
G01*
X166548Y169459*
G75*
G02X167294Y167656I-1803J-1803*
G01*
Y167163*
X167959*
Y155614*
X165431*
X163642Y153826*
G75*
G02X161839Y153079I-1803J1803*
G01*
X158640*
Y152610*
X154140*
Y154430*
G75*
G02Y156828I2250J1199*
G01*
Y158648*
X158640*
Y158179*
X160783*
X161530Y158926*
Y167163*
X161630*
X160942Y167852*
G75*
G02X158913Y169100I508J3098*
G01*
X152195*
G75*
G02X151432Y169010I-746J3049*
G01*
X151257Y168836*
Y168490*
X158640*
Y162453*
X146659*
Y168490*
X146843*
Y169100*
X143959*
Y160969*
X137530*
Y165822*
X137202Y165494*
Y165333*
X137372*
Y160132*
X143770*
Y154056*
X143928*
X146336Y156463*
G75*
G02X146659Y157132I2576J-834*
G01*
Y158648*
X151159*
Y157138*
G75*
G02X151619Y155629I-2248J-1509*
G01*
Y155210*
G75*
G02X151159Y153701I-2708*
G01*
Y152610*
X150141*
X146965Y149434*
G75*
G02X145050Y148641I-1915J1915*
G01*
X144167*
X144406Y148402*
G75*
G02X145143Y146837I-1802J-1804*
G01*
X145719*
Y139618*
X139486*
Y146107*
X139248Y146346*
G75*
G02X138499Y148150I1802J1805*
G01*
Y148583*
X137341*
Y148800*
X136850*
G75*
G02X136546Y148747I-599J2550*
G01*
X134500Y146700*
G75*
G02X133050Y146100I-1450J1450*
G01*
X120526*
X154970Y146837D02*
Y139618D01*
X148738*
Y146837*
X154970*
X145719Y143227D02*
G36*
Y139618D01*
X139486*
Y146107*
X139248Y146346*
G75*
G02X138499Y148150I1802J1805*
G01*
Y148583*
X137341*
Y148800*
X136850*
G75*
G02X136546Y148747I-599J2550*
G01*
X134500Y146700*
G75*
G02X133050Y146100I-1450J1450*
G01*
X120526*
G75*
G02X121269Y140050I-2276J-3350*
G01*
X137050*
G75*
G02X138676Y139376J-2300*
G01*
X141203Y136850*
X156897*
X163274Y143227*
X154970*
Y139618*
X148738*
Y143227*
X145719*
G37*
X148738D02*
G36*
Y146837D01*
X154970*
Y143227*
X163274*
X172350Y152303*
Y170397*
X167180Y175567*
X164500Y172887*
Y171695*
G75*
G02X164548Y171458I-3048J-745*
G01*
X166548Y169459*
G75*
G02X167294Y167656I-1803J-1803*
G01*
Y167163*
X167959*
Y155614*
X165431*
X163642Y153826*
G75*
G02X161839Y153079I-1803J1803*
G01*
X158640*
Y152610*
X154140*
Y154430*
G75*
G02Y156828I2250J1199*
G01*
Y158648*
X158640*
Y158179*
X160783*
X161530Y158926*
Y167163*
X161630*
X160942Y167852*
G75*
G02X158913Y169100I508J3098*
G01*
X152195*
G75*
G02X151432Y169010I-746J3049*
G01*
X151257Y168836*
Y168490*
X158640*
Y162453*
X146659*
Y168490*
X146843*
Y169100*
X143959*
Y160969*
X137530*
Y165822*
X137202Y165494*
Y165333*
X137372*
Y160132*
X143770*
Y154056*
X143928*
X146336Y156463*
G75*
G02X146659Y157132I2576J-834*
G01*
Y158648*
X151159*
Y157138*
G75*
G02X151619Y155629I-2248J-1509*
G01*
Y155210*
G75*
G02X151159Y153701I-2708*
G01*
Y152610*
X150141*
X146965Y149434*
G75*
G02X145050Y148641I-1915J1915*
G01*
X144167*
X144406Y148402*
G75*
G02X145143Y146837I-1802J-1804*
G01*
X145719*
Y143227*
X148738*
G37*
D02*
D13*
X13187Y151467D03*
X14833Y188907D03*
X108250Y162750D03*
X120250Y110750D03*
D02*
D14*
X13187Y102254D03*
Y112096D03*
Y121939D03*
Y131781D03*
Y141624D03*
X14833Y198907D03*
X24833Y188907D03*
Y198907D03*
X34833Y188907D03*
Y198907D03*
X44833Y188907D03*
Y198907D03*
X54833Y188907D03*
Y198907D03*
X64833Y188907D03*
Y198907D03*
X74833Y188907D03*
Y198907D03*
X84833Y188907D03*
Y198907D03*
X94833Y188907D03*
Y198907D03*
X104833Y188907D03*
Y198907D03*
X108250Y132750D03*
Y142750D03*
Y152750D03*
X114833Y188907D03*
Y198907D03*
X118250Y132750D03*
Y142750D03*
Y152750D03*
Y162750D03*
X120250Y120750D03*
X124833Y188907D03*
Y198907D03*
X130250Y110750D03*
Y120750D03*
X140250Y110750D03*
Y120750D03*
X150250Y110750D03*
Y120750D03*
X160250Y110750D03*
Y120750D03*
X167037Y188430D03*
X177037D03*
D02*
D15*
X21156Y109057D03*
Y114766D03*
Y133057D03*
Y138766D03*
Y145057D03*
Y150766D03*
X21344Y120734D03*
Y126443D03*
X55344Y106089D03*
Y111797D03*
X56156Y69057D03*
Y74766D03*
X56344Y57089D03*
Y62797D03*
Y83734D03*
Y89443D03*
X63156Y164703D03*
Y170411D03*
X63344Y106089D03*
Y111797D03*
X71156Y164703D03*
Y170411D03*
X111156Y112057D03*
Y117766D03*
X111344Y174734D03*
Y180443D03*
X119344Y174734D03*
Y180443D03*
X126344Y156334D03*
Y162043D03*
X127344Y174734D03*
Y180443D03*
X134156Y156703D03*
Y162411D03*
X140556Y151503D03*
Y157211D03*
X140744Y163889D03*
Y169597D03*
X164744Y158534D03*
Y164243D03*
X169344Y112734D03*
Y118443D03*
D02*
D16*
X29589Y127656D03*
X30589Y154656D03*
X35297Y127656D03*
X36297Y154656D03*
X63203Y87844D03*
X68911D03*
X90403Y124844D03*
X91203Y152844D03*
X96111Y124844D03*
X96911Y152844D03*
X98357Y175044D03*
X104066D03*
X125234Y128656D03*
X130943D03*
X137557Y128844D03*
X143266D03*
D02*
D17*
X47573Y81703D03*
Y90955D03*
D02*
D18*
X148910Y155629D03*
Y165471D03*
X152650D03*
X156390Y155629D03*
Y165471D03*
D02*
D19*
X142603Y143227D03*
Y178227D03*
Y189227D03*
X151855Y143227D03*
Y178227D03*
Y189227D03*
D02*
D70*
X104191Y73750D03*
X144309D03*
D02*
D71*
X179644Y56553D03*
Y90569D03*
D02*
D20*
X65545Y65250D03*
Y70250D03*
Y75250D03*
Y80250D03*
X84955Y65250D03*
Y70250D03*
Y75250D03*
Y80250D03*
D02*
D21*
X12250Y64750D03*
Y76750D03*
Y92750D03*
X14250Y166750D03*
Y178750D03*
X23250Y91750D03*
Y163750D03*
X24250Y54750D03*
X27250Y138750D03*
X28250Y173750D03*
X31450Y80150D03*
X38250Y113750D03*
X40250Y139750D03*
Y162750D03*
X41250Y126750D03*
X42250Y54750D03*
Y117750D03*
Y154550D03*
X45250Y162750D03*
X46250Y99750D03*
X49250Y136750D03*
Y144750D03*
X55250Y117750D03*
X57050Y84150D03*
X62650Y92950D03*
X63250Y117750D03*
Y139750D03*
Y158750D03*
X64250Y57750D03*
X69250Y175750D03*
X71250Y129750D03*
Y158750D03*
X73250Y146750D03*
X75250Y57750D03*
X77250Y117750D03*
X78250Y69750D03*
X80250Y133750D03*
Y146750D03*
X84250Y57750D03*
Y117750D03*
X85250Y124750D03*
Y139750D03*
Y152750D03*
X100250Y160150D03*
X101250Y111750D03*
X114250Y57750D03*
Y64750D03*
Y71750D03*
Y77750D03*
Y83750D03*
Y89750D03*
Y98750D03*
X122650Y168150D03*
X125250Y142750D03*
X127450Y168150D03*
X133850Y132950D03*
X135250Y143750D03*
Y180750D03*
X136250Y195750D03*
X153050Y160150D03*
X159250Y183750D03*
X160250Y148750D03*
X169050Y126550D03*
X169250Y153750D03*
Y168750D03*
X173250Y137750D03*
X181250Y114750D03*
X182250Y129750D03*
Y145750D03*
Y163750D03*
Y176750D03*
D02*
D22*
X38650Y96150D03*
X55250Y117750D02*
X49050D01*
X31450Y100150*
Y80150*
X59250Y144750D03*
X67250Y147750D03*
X85250Y139750D02*
X93650Y148150D01*
X133050*
X136250Y151350*
X90650Y167350D03*
X121250Y53750D03*
Y61750D03*
Y69750D03*
Y77750D03*
Y85750D03*
Y93750D03*
X128250Y53750D03*
Y61750D03*
Y69750D03*
Y77750D03*
Y85750D03*
Y93750D03*
Y101750D03*
X136250Y53750D03*
Y61750D03*
Y65750D03*
Y69750D03*
Y73750D03*
Y77750D03*
Y81750D03*
Y85750D03*
Y93750D03*
Y101750D03*
X139250Y68750D03*
Y78750D03*
Y81750D03*
X139908Y151350D02*
X140061Y151503D01*
X140556*
X140250Y65750D03*
Y85750D03*
X140556Y157211D02*
X142911D01*
X145850Y160150*
X140744Y163889D02*
X142111D01*
X145850Y160150*
X144250Y53750D03*
Y61750D03*
Y65750D03*
Y85750D03*
Y93750D03*
Y101750D03*
X145850Y160150D02*
X153050D01*
X148250Y65750D03*
Y68750D03*
Y85750D03*
X149250Y78750D03*
Y81750D03*
X151450Y172150D02*
X149050Y169750D01*
Y165611*
X148910Y165471*
X151855Y143227D02*
Y152555D01*
X153050Y153750*
Y160150*
X152250Y53750D03*
Y61750D03*
Y65750D03*
Y68750D03*
Y78750D03*
Y81750D03*
Y85750D03*
Y93750D03*
Y101750D03*
X152650Y165471D02*
Y160550D01*
X153050Y160150*
X156250Y65750D03*
Y68750D03*
Y71750D03*
Y75750D03*
Y78750D03*
Y81750D03*
X160250Y53750D03*
Y61750D03*
Y65750D03*
Y68750D03*
Y78750D03*
Y81750D03*
Y85750D03*
Y93750D03*
Y101750D03*
X164250Y65750D03*
Y81750D03*
X168250Y53750D03*
Y61750D03*
Y65750D03*
Y81750D03*
Y85750D03*
Y93750D03*
Y101750D03*
X169344Y118443D02*
Y126256D01*
X169050Y126550*
X172250Y65750D03*
Y81750D03*
X176250Y53750D03*
Y61750D03*
Y65750D03*
Y81750D03*
Y85750D03*
Y93750D03*
Y101750D03*
X180250Y65750D03*
Y81750D03*
X184250Y53750D03*
Y61750D03*
Y65750D03*
Y81750D03*
Y85750D03*
Y93750D03*
Y101750D03*
D02*
D23*
X47573Y81703D02*
X54313D01*
X56344Y83734*
X47573Y90955D02*
Y92555D01*
X55168Y100150*
X81050*
X101850Y120950*
Y134550*
X105050Y137750*
X137050*
X140250Y134550*
X157850*
X174650Y151350*
Y171350*
X166650Y179350*
X55250Y117750D02*
Y120750D01*
X56250Y121750*
Y134550*
X55344Y106089D02*
X63344D01*
X56250Y140950D02*
Y134550D01*
Y148150D02*
X61050Y152950D01*
X69050*
X56250Y148150D02*
Y140950D01*
X68911Y87844D02*
X81356D01*
X84250Y84950*
Y80955*
X84955Y80250*
Y75250D02*
X93750D01*
X95250Y73750*
X104191*
X133850Y128656D02*
Y132950D01*
X166650Y188043D02*
X167037Y188430D01*
D02*
D24*
X31450Y80150D02*
X35450D01*
X45050Y70550*
X50650*
X52250Y68950*
X56048*
X56156Y69057*
X35297Y127656D02*
X40344D01*
X41250Y126750*
X36297Y154656D02*
X42144D01*
X42250Y154550*
X49850*
X56250Y148150*
X47573Y90955D02*
X51045D01*
X52250Y89750*
X56037*
X56344Y89443*
X55344Y111797D02*
Y117656D01*
X55250Y117750*
X56250Y134550D02*
Y148150D01*
Y134550D02*
X48450Y126750D01*
X41250*
X56250Y140950D02*
Y148150D01*
X56344Y62797D02*
Y68868D01*
X56156Y69057*
X63156Y164703D02*
Y158844D01*
X63250Y158750*
X63203Y87844D02*
Y92397D01*
X62650Y92950*
X63203Y87844D02*
X62156D01*
X60250Y89750*
X56652*
X56344Y89443*
X63344Y111797D02*
Y117656D01*
X63250Y117750*
X65545Y75250D02*
X56640D01*
X56156Y74766*
X65545Y80250D02*
X65250D01*
Y85797*
X63203Y87844*
X71156Y164703D02*
Y158844D01*
X71250Y158750*
Y155150*
X69050Y152950*
X77850D02*
X84250D01*
X84450Y152750*
X85250*
X84955Y70250D02*
X78750D01*
X78250Y69750*
X85250Y124750D02*
X66050D01*
X56250Y134550*
X90403Y124844D02*
X85344D01*
X85250Y124750*
X91203Y152844D02*
X90756D01*
X90650Y152950*
X85850*
X85650Y152750*
X85250*
X111156Y112057D02*
X118943D01*
X120250Y110750*
X118250Y162750D02*
X125637D01*
X126344Y162043*
X125234Y128656D02*
Y115766D01*
X130250Y110750*
X130943Y128656D02*
X133850D01*
X130943D02*
Y121443D01*
X130250Y120750*
X133850Y128656D02*
X137368D01*
X137557Y128844*
X143266D02*
Y126734D01*
X145250Y124750*
Y115750*
X140250Y110750*
X160250D02*
X167360D01*
X169344Y112734*
D02*
D25*
X69050Y152950D02*
X77850D01*
X84250Y159350*
X90650*
X99450Y168150*
X127450*
X136250Y151350D02*
Y152150D01*
X134650Y153750*
Y156208*
X134156Y156703*
X136250Y151350D02*
X139908D01*
X140744Y169597D02*
X137697D01*
X134650Y166550*
Y162906*
X134156Y162411*
X142603Y143227D02*
Y146597D01*
X141050Y148150*
Y151008*
X140556Y151503*
X148910Y155629D02*
Y155210D01*
X145050Y151350*
X140708*
X140556Y151503*
X156390Y155629D02*
X161839D01*
X164744Y158534*
Y164243D02*
Y167656D01*
X161450Y170950*
D02*
D26*
X140744Y169597D02*
Y170244D01*
X142650Y172150*
X142603Y178227D02*
Y189227D01*
X142650Y172150D02*
X151450D01*
X142650D02*
Y177380D01*
X142603Y177427*
Y178227*
X161450Y170950D02*
Y174150D01*
X166650Y179350*
X161450Y170950D02*
Y171750D01*
X161050Y172150*
X151450*
X166650Y179350D02*
Y188043D01*
X0Y0D02*
M02*
