%FSLAX23Y23*%
%MOIN*%
G04 EasyPC Gerber Version 16.0.6 Build 3249 *
%ADD10C,0.00500*%
X0Y0D02*
D02*
D10*
X106Y1841D02*
X109Y1838D01*
X115Y1835*
X122Y1838*
X125Y1841*
Y1872*
X131*
X125D02*
X112D01*
X162Y1835D02*
X175D01*
X169D02*
Y1872D01*
X162Y1866*
X209Y1838D02*
X215Y1835D01*
X222*
X228Y1838*
X231Y1844*
Y1863*
X228Y1869*
X222Y1872*
X215*
X209Y1869*
X206Y1863*
Y1844*
X209Y1838*
X228Y1869*
X121Y1041D02*
X199D01*
Y1159*
X121*
Y1041*
X165Y937D02*
X169Y934D01*
X172Y927*
Y918*
X169Y912*
X165Y909*
X159Y905*
X147*
X140Y909*
X137Y912*
X134Y918*
Y927*
X137Y934*
X140Y937*
X169Y959D02*
X172Y965D01*
Y971*
X169Y977*
X162Y980*
X156Y977*
X153Y971*
Y965*
Y971D02*
X150Y977D01*
X144Y980*
X137Y977*
X134Y971*
Y965*
X137Y959*
X153Y1015D02*
Y1021D01*
X150Y1027*
X144Y1030*
X137Y1027*
X134Y1021*
Y1015*
X137Y1009*
X144Y1005*
X150Y1009*
X153Y1015*
X156Y1009*
X162Y1005*
X169Y1009*
X172Y1015*
Y1021*
X169Y1027*
X162Y1030*
X156Y1027*
X153Y1021*
X194Y1186D02*
Y1816D01*
X115*
Y1186*
X194*
X196Y1041D02*
X274D01*
Y1159*
X196*
Y1041*
X180Y685D02*
X184Y689D01*
X187Y695*
X184Y701*
X180Y704*
X149*
Y710*
Y704D02*
Y692D01*
X184Y735D02*
X187Y742D01*
Y751*
X184Y757*
X177Y760*
X174*
X168Y757*
X165Y751*
Y735*
X149*
Y760*
X202Y687D02*
X438D01*
Y766*
X202*
Y687*
X233Y1615D02*
X242D01*
Y1612*
X239Y1606*
X236Y1603*
X230Y1600*
X224*
X217Y1603*
X214Y1606*
X211Y1612*
Y1625*
X214Y1631*
X217Y1634*
X224Y1637*
X230*
X236Y1634*
X239Y1631*
X242Y1625*
X261Y1600D02*
Y1637D01*
X292Y1600*
Y1637*
X311Y1600D02*
Y1637D01*
X330*
X336Y1634*
X339Y1631*
X342Y1625*
Y1612*
X339Y1606*
X336Y1603*
X330Y1600*
X311*
X233Y1750D02*
X242D01*
Y1747*
X239Y1741*
X236Y1738*
X230Y1735*
X224*
X217Y1738*
X214Y1741*
X211Y1747*
Y1760*
X214Y1766*
X217Y1769*
X224Y1772*
X230*
X236Y1769*
X239Y1766*
X242Y1760*
X261Y1735D02*
Y1772D01*
X292Y1735*
Y1772*
X311Y1735D02*
Y1772D01*
X330*
X336Y1769*
X339Y1766*
X342Y1760*
Y1747*
X339Y1741*
X336Y1738*
X330Y1735*
X311*
X238Y1300D02*
X247D01*
Y1297*
X244Y1291*
X241Y1288*
X235Y1285*
X229*
X222Y1288*
X219Y1291*
X216Y1297*
Y1310*
X219Y1316*
X222Y1319*
X229Y1322*
X235*
X241Y1319*
X244Y1316*
X247Y1310*
X266Y1285D02*
Y1322D01*
X297Y1285*
Y1322*
X316Y1285D02*
Y1322D01*
X335*
X341Y1319*
X344Y1316*
X347Y1310*
Y1297*
X344Y1291*
X341Y1288*
X335Y1285*
X316*
X216Y1365D02*
X232Y1402D01*
X247Y1365*
X222Y1380D02*
X241D01*
X291Y1365D02*
X266D01*
X288Y1387*
X291Y1393*
X288Y1399*
X282Y1402*
X272*
X266Y1399*
X238Y1455D02*
X247D01*
Y1452*
X244Y1446*
X241Y1443*
X235Y1440*
X229*
X222Y1443*
X219Y1446*
X216Y1452*
Y1465*
X219Y1471*
X222Y1474*
X229Y1477*
X235*
X241Y1474*
X244Y1471*
X247Y1465*
X266Y1440D02*
Y1477D01*
X297Y1440*
Y1477*
X316Y1440D02*
Y1477D01*
X335*
X341Y1474*
X344Y1471*
X347Y1465*
Y1452*
X344Y1446*
X341Y1443*
X335Y1440*
X316*
X221Y1205D02*
X237Y1242D01*
X252Y1205*
X227Y1220D02*
X246D01*
X277Y1205D02*
X290D01*
X284D02*
Y1242D01*
X277Y1236*
X243Y1694D02*
X249Y1690D01*
X252Y1684*
X249Y1678*
X243Y1675*
X221*
Y1712*
X243*
X249Y1709*
X252Y1703*
X249Y1697*
X243Y1694*
X221*
X277Y1675D02*
X290D01*
X284D02*
Y1712D01*
X277Y1706*
X248Y1539D02*
X254Y1535D01*
X257Y1529*
X254Y1523*
X248Y1520*
X226*
Y1557*
X248*
X254Y1554*
X257Y1548*
X254Y1542*
X248Y1539*
X226*
X301Y1520D02*
X276D01*
X298Y1542*
X301Y1548*
X298Y1554*
X292Y1557*
X282*
X276Y1554*
X250Y937D02*
X254Y934D01*
X257Y927*
Y918*
X254Y912*
X250Y909*
X244Y905*
X232*
X225Y909*
X222Y912*
X219Y918*
Y927*
X222Y934*
X225Y937*
X257Y980D02*
Y955D01*
X235Y977*
X229Y980*
X222Y977*
X219Y971*
Y962*
X222Y955*
X238Y1015D02*
Y1021D01*
X235Y1027*
X229Y1030*
X222Y1027*
X219Y1021*
Y1015*
X222Y1009*
X229Y1005*
X235Y1009*
X238Y1015*
X241Y1009*
X247Y1005*
X254Y1009*
X257Y1015*
Y1021*
X254Y1027*
X247Y1030*
X241Y1027*
X238Y1021*
X281Y1245D02*
Y845D01*
X481*
Y1245*
X281*
X317Y2091D02*
X314Y2088D01*
X308Y2085*
X299*
X292Y2088*
X289Y2091*
X286Y2097*
Y2110*
X289Y2116*
X292Y2119*
X299Y2122*
X308*
X314Y2119*
X317Y2116*
X339Y2088D02*
X345Y2085D01*
X352*
X358Y2088*
X361Y2094*
X358Y2100*
X352Y2104*
X345*
X352D02*
X358Y2107D01*
X361Y2113*
X358Y2119*
X352Y2122*
X345*
X339Y2119*
X386Y2088D02*
X392Y2085D01*
X402*
X408Y2088*
X411Y2094*
Y2097*
X408Y2104*
X402Y2107*
X386*
Y2122*
X411*
X271Y557D02*
Y567D01*
X274*
X280Y564*
X284Y560*
X287Y554*
Y548*
X284Y542*
X280Y539*
X274Y535*
X262*
X255Y539*
X252Y542*
X249Y548*
Y554*
X252Y560*
X255Y564*
X262Y567*
X287Y585D02*
X249D01*
X287Y617*
X249*
X287Y635D02*
X249D01*
Y654*
X252Y660*
X255Y664*
X262Y667*
X274*
X280Y664*
X284Y660*
X287Y654*
Y635*
X327Y1886D02*
X324Y1883D01*
X318Y1880*
X309*
X302Y1883*
X299Y1886*
X296Y1892*
Y1905*
X299Y1911*
X302Y1914*
X309Y1917*
X318*
X324Y1914*
X327Y1911*
X349Y1883D02*
X355Y1880D01*
X362*
X368Y1883*
X371Y1889*
X368Y1895*
X362Y1899*
X355*
X362D02*
X368Y1902D01*
X371Y1908*
X368Y1914*
X362Y1917*
X355*
X349Y1914*
X412Y1880D02*
Y1917D01*
X396Y1892*
X421*
X301Y1861D02*
Y1782D01*
X419*
Y1861*
X301*
X316Y795D02*
Y832D01*
X338*
X344Y829*
X347Y823*
X344Y817*
X338Y814*
X316*
X338D02*
X347Y795D01*
X391D02*
X366D01*
X388Y817*
X391Y823*
X388Y829*
X382Y832*
X372*
X366Y829*
X432Y795D02*
Y832D01*
X416Y807*
X441*
X384Y535D02*
Y560D01*
X397Y548D02*
X372D01*
X394Y585D02*
X397Y592D01*
Y601*
X394Y607*
X387Y610*
X384*
X378Y607*
X375Y601*
Y585*
X359*
Y610*
Y635D02*
X397Y651D01*
X359Y667*
X421Y1990D02*
Y2069D01*
X303*
Y1990*
X421*
X431Y2104D02*
Y1769D01*
X726*
Y2045*
X667Y2104*
X431*
X447Y1305D02*
X427D01*
X408Y1325*
Y1344*
X447Y1640D02*
X408D01*
Y1600*
X489Y622D02*
X883D01*
Y780*
X489*
Y622*
X522Y976D02*
X519Y973D01*
X513Y970*
X504*
X497Y973*
X494Y976*
X491Y982*
Y995*
X494Y1001*
X497Y1004*
X504Y1007*
X513*
X519Y1004*
X522Y1001*
X566Y970D02*
X541D01*
X563Y992*
X566Y998*
X563Y1004*
X557Y1007*
X547*
X541Y1004*
X591Y973D02*
X597Y970D01*
X607*
X613Y973*
X616Y979*
Y982*
X613Y989*
X607Y992*
X591*
Y1007*
X616*
X501Y1026D02*
X579D01*
Y1144*
X501*
Y1026*
X521Y605D02*
X539D01*
Y594*
X538Y591*
X535Y590*
X532Y591*
X530Y594*
Y605*
Y594D02*
X521Y590D01*
X529Y569D02*
Y565D01*
X527*
X524Y566*
X522Y568*
X521Y571*
Y574*
X522Y577*
X524Y579*
X527Y580*
X533*
X536Y579*
X538Y577*
X539Y574*
Y571*
X538Y568*
X536Y566*
X533Y565*
X521Y552D02*
Y546D01*
Y549D02*
X539D01*
X536Y552*
X521Y895D02*
X539D01*
Y884*
X538Y881*
X535Y880*
X532Y881*
X530Y884*
Y895*
Y884D02*
X521Y880D01*
X529Y859D02*
Y855D01*
X527*
X524Y856*
X522Y858*
X521Y861*
Y864*
X522Y867*
X524Y869*
X527Y870*
X533*
X536Y869*
X538Y867*
X539Y864*
Y861*
X538Y858*
X536Y856*
X533Y855*
X522Y844D02*
X521Y841D01*
Y838*
X522Y834*
X525Y833*
X535*
X538Y834*
X539Y838*
Y841*
X538Y844*
X535Y845*
X525*
X522Y844*
X538Y834*
X601Y605D02*
X619D01*
Y594*
X618Y591*
X615Y590*
X612Y591*
X610Y594*
Y605*
Y594D02*
X601Y590D01*
Y580D02*
X619Y573D01*
X601Y565*
X609Y577D02*
Y568D01*
X601Y551D02*
X602Y548D01*
X605Y544*
X610Y543*
X615*
X618Y544*
X619Y548*
Y551*
X618Y554*
X615Y555*
X612Y554*
X610Y551*
Y548*
X612Y544*
X615Y543*
X601Y895D02*
X619D01*
Y884*
X618Y881*
X615Y880*
X612Y881*
X610Y884*
Y895*
Y884D02*
X601Y880D01*
Y870D02*
X619Y863D01*
X601Y855*
X609Y867D02*
Y858D01*
X605Y845D02*
X609Y844D01*
X610Y841*
Y838*
X609Y834*
X605Y833*
X602Y834*
X601Y838*
Y841*
X602Y844*
X605Y845*
X610*
X615Y844*
X618Y841*
X619Y838*
X596Y1018D02*
X734D01*
Y1176*
X596*
Y1018*
X606Y1227D02*
X622Y1190D01*
X637Y1227*
X656Y1190D02*
Y1227D01*
X678*
X684Y1224*
X687Y1218*
X684Y1212*
X678Y1209*
X656*
X678D02*
X687Y1190D01*
X712D02*
X725D01*
X719D02*
Y1227D01*
X712Y1221*
X681Y600D02*
X699D01*
Y589*
X698Y586*
X695Y585*
X692Y586*
X690Y589*
Y600*
Y589D02*
X681Y585D01*
X689Y564D02*
Y560D01*
X687*
X684Y561*
X682Y563*
X681Y566*
Y569*
X682Y572*
X684Y574*
X687Y575*
X693*
X696Y574*
X698Y572*
X699Y569*
Y566*
X698Y563*
X696Y561*
X693Y560*
X681Y547D02*
Y541D01*
Y544D02*
X699D01*
X696Y547*
X682Y525D02*
X681Y522D01*
Y518*
X682Y514*
X685Y513*
X687*
X690Y514*
X692Y518*
Y525*
X699*
Y513*
X681Y890D02*
X699D01*
Y879*
X698Y876*
X695Y875*
X692Y876*
X690Y879*
Y890*
Y879D02*
X681Y875D01*
Y865D02*
X699Y858D01*
X681Y850*
X689Y862D02*
Y853D01*
X681Y840D02*
X699Y828D01*
Y840*
X703Y1305D02*
X742D01*
Y1344*
X703Y1640D02*
X742D01*
Y1600*
X778Y1860D02*
X750D01*
X744Y1857*
X740Y1851*
Y1839*
X744Y1832*
X750Y1829*
X778*
X740Y1795D02*
X778D01*
X753Y1810*
Y1785*
X751Y885D02*
X769D01*
Y874*
X768Y871*
X765Y870*
X762Y871*
X760Y874*
Y885*
Y874D02*
X751Y870D01*
X759Y849D02*
Y845D01*
X757*
X754Y846*
X752Y848*
X751Y851*
Y854*
X752Y857*
X754Y859*
X757Y860*
X763*
X766Y859*
X768Y857*
X769Y854*
Y851*
X768Y848*
X766Y846*
X763Y845*
X751Y832D02*
Y826D01*
Y829D02*
X769D01*
X766Y832*
X751Y803D02*
X769D01*
X757Y810*
Y798*
X761Y600D02*
X779D01*
Y589*
X778Y586*
X775Y585*
X772Y586*
X770Y589*
Y600*
Y589D02*
X761Y585D01*
Y575D02*
X779Y568D01*
X761Y560*
X769Y572D02*
Y563D01*
X761Y547D02*
Y541D01*
Y544D02*
X779D01*
X776Y547*
X762Y524D02*
X761Y521D01*
Y518*
X762Y514*
X765Y513*
X775*
X778Y514*
X779Y518*
Y521*
X778Y524*
X775Y525*
X765*
X762Y524*
X778Y514*
X813Y1455D02*
X785D01*
X779Y1452*
X775Y1446*
Y1434*
X779Y1427*
X785Y1424*
X813*
X779Y1402D02*
X775Y1396D01*
Y1390*
X779Y1384*
X785Y1380*
X791Y1384*
X794Y1390*
Y1396*
Y1390D02*
X797Y1384D01*
X804Y1380*
X810Y1384*
X813Y1390*
Y1396*
X810Y1402*
X775Y2050D02*
X779Y2054D01*
X782Y2060*
X779Y2066*
X775Y2069*
X744*
Y2075*
Y2069D02*
Y2057D01*
X772Y2100D02*
X766Y2104D01*
X763Y2110*
Y2116*
X766Y2122*
X772Y2125*
X779Y2122*
X782Y2116*
Y2110*
X779Y2104*
X772Y2100*
X763*
X754Y2104*
X747Y2110*
X744Y2116*
X794Y1972D02*
X1188D01*
Y2130*
X794*
Y1972*
X806Y2155D02*
Y2174D01*
X817*
X820Y2172*
X822Y2169*
X820Y2166*
X817Y2164*
X806*
X817D02*
X822Y2155D01*
X842Y2163D02*
X847D01*
Y2161*
X845Y2158*
X844Y2157*
X840Y2155*
X837*
X834Y2157*
X833Y2158*
X831Y2161*
Y2168*
X833Y2171*
X834Y2172*
X837Y2174*
X840*
X844Y2172*
X845Y2171*
X847Y2168*
X858Y2157D02*
X861Y2155D01*
X864*
X867Y2157*
X869Y2160*
X867Y2163*
X864Y2164*
X861*
X864D02*
X867Y2166D01*
X869Y2169*
X867Y2172*
X864Y2174*
X861*
X858Y2172*
X826Y1955D02*
X844D01*
Y1944*
X843Y1941*
X840Y1940*
X837Y1941*
X835Y1944*
Y1955*
Y1944D02*
X826Y1940D01*
Y1930D02*
X844Y1923D01*
X826Y1915*
X834Y1927D02*
Y1918D01*
X827Y1904D02*
X826Y1901D01*
Y1898*
X827Y1894*
X830Y1893*
X834Y1894*
X835Y1898*
Y1901*
Y1898D02*
X837Y1894D01*
X840Y1893*
X843Y1894*
X844Y1898*
Y1901*
X843Y1904*
X831Y890D02*
X849D01*
Y879*
X848Y876*
X845Y875*
X842Y876*
X840Y879*
Y890*
Y879D02*
X831Y875D01*
X839Y854D02*
Y850D01*
X837*
X834Y851*
X832Y853*
X831Y856*
Y859*
X832Y862*
X834Y864*
X837Y865*
X843*
X846Y864*
X848Y862*
X849Y859*
Y856*
X848Y853*
X846Y851*
X843Y850*
X831Y837D02*
Y831D01*
Y834D02*
X849D01*
X846Y837*
X831Y803D02*
Y815D01*
X842Y804*
X845Y803*
X848Y804*
X849Y808*
Y812*
X848Y815*
X841Y600D02*
X859D01*
Y589*
X858Y586*
X855Y585*
X852Y586*
X850Y589*
Y600*
Y589D02*
X841Y585D01*
X849Y564D02*
Y560D01*
X847*
X844Y561*
X842Y563*
X841Y566*
Y569*
X842Y572*
X844Y574*
X847Y575*
X853*
X856Y574*
X858Y572*
X859Y569*
Y566*
X858Y563*
X856Y561*
X853Y560*
X841Y547D02*
Y541D01*
Y544D02*
X859D01*
X856Y547*
X842Y524D02*
X841Y521D01*
Y518*
X842Y514*
X845Y513*
X849Y514*
X850Y518*
Y521*
Y518D02*
X852Y514D01*
X855Y513*
X858Y514*
X859Y518*
Y521*
X858Y524*
X891Y2155D02*
Y2174D01*
X902*
X905Y2172*
X907Y2169*
X905Y2166*
X902Y2164*
X891*
X902D02*
X907Y2155D01*
X916D02*
Y2174D01*
X932*
X929Y2164D02*
X916D01*
X946D02*
X949D01*
X952Y2166*
X954Y2169*
X952Y2172*
X949Y2174*
X946*
X943Y2172*
X941Y2169*
X943Y2166*
X946Y2164*
X943Y2163*
X941Y2160*
X943Y2157*
X946Y2155*
X949*
X952Y2157*
X954Y2160*
X952Y2163*
X949Y2164*
X906Y1955D02*
X924D01*
Y1944*
X923Y1941*
X920Y1940*
X917Y1941*
X915Y1944*
Y1955*
Y1944D02*
X906Y1940D01*
Y1930D02*
X924Y1923D01*
X906Y1915*
X914Y1927D02*
Y1918D01*
X907Y1905D02*
X906Y1902D01*
Y1898*
X907Y1894*
X910Y1893*
X912*
X915Y1894*
X917Y1898*
Y1905*
X924*
Y1893*
X986Y1955D02*
X1004D01*
Y1944*
X1003Y1941*
X1000Y1940*
X997Y1941*
X995Y1944*
Y1955*
Y1944D02*
X986Y1940D01*
Y1930D02*
X1004D01*
Y1915*
X995Y1918D02*
Y1930D01*
X986Y1893D02*
Y1905D01*
X997Y1894*
X1000Y1893*
X1003Y1894*
X1004Y1898*
Y1902*
X1003Y1905*
X986Y2155D02*
Y2174D01*
X1002Y2155*
Y2174*
X1027Y2158D02*
X1025Y2157D01*
X1022Y2155*
X1017*
X1014Y2157*
X1013Y2158*
X1011Y2161*
Y2168*
X1013Y2171*
X1014Y2172*
X1017Y2174*
X1022*
X1025Y2172*
X1027Y2171*
X1010Y595D02*
X1016Y592D01*
X1019Y586*
Y580*
X1016Y574*
X1010Y570*
X1004Y574*
X1000Y580*
Y586*
X1004Y592*
X1010Y595*
X1019*
X1029Y592*
X1035Y586*
X1038Y580*
X1051Y2155D02*
Y2174D01*
X1067Y2155*
Y2174*
X1092Y2158D02*
X1090Y2157D01*
X1087Y2155*
X1082*
X1079Y2157*
X1078Y2158*
X1076Y2161*
Y2168*
X1078Y2171*
X1079Y2172*
X1082Y2174*
X1087*
X1090Y2172*
X1092Y2171*
X1061Y1950D02*
X1079D01*
Y1939*
X1078Y1936*
X1075Y1935*
X1072Y1936*
X1070Y1939*
Y1950*
Y1939D02*
X1061Y1935D01*
X1069Y1914D02*
Y1910D01*
X1067*
X1064Y1911*
X1062Y1913*
X1061Y1916*
Y1919*
X1062Y1922*
X1064Y1924*
X1067Y1925*
X1073*
X1076Y1924*
X1078Y1922*
X1079Y1919*
Y1916*
X1078Y1913*
X1076Y1911*
X1073Y1910*
X1061Y1888D02*
Y1900D01*
X1072Y1889*
X1075Y1888*
X1078Y1889*
X1079Y1893*
Y1897*
X1078Y1900*
X1126Y2155D02*
Y2174D01*
X1137*
X1140Y2172*
X1142Y2169*
X1140Y2166*
X1137Y2164*
X1126*
X1137D02*
X1142Y2155D01*
X1151D02*
X1159Y2174D01*
X1167Y2155*
X1154Y2163D02*
X1164D01*
X1184Y2155D02*
Y2174D01*
X1176Y2161*
X1189*
X1140Y565D02*
X1153D01*
X1147D02*
Y602D01*
X1140D02*
X1153D01*
X1212Y571D02*
X1209Y568D01*
X1203Y565*
X1194*
X1187Y568*
X1184Y571*
X1181Y577*
Y590*
X1184Y596*
X1187Y599*
X1194Y602*
X1203*
X1209Y599*
X1212Y596*
X1231Y574D02*
X1234Y568D01*
X1240Y565*
X1253*
X1259Y568*
X1262Y574*
X1259Y580*
X1253Y584*
X1240*
X1234Y587*
X1231Y593*
X1234Y599*
X1240Y602*
X1253*
X1259Y599*
X1262Y593*
X1281Y565D02*
Y602D01*
X1303*
X1309Y599*
X1312Y593*
X1309Y587*
X1303Y584*
X1281*
X1141Y1950D02*
X1159D01*
Y1939*
X1158Y1936*
X1155Y1935*
X1152Y1936*
X1150Y1939*
Y1950*
Y1939D02*
X1141Y1935D01*
Y1925D02*
X1159Y1918D01*
X1141Y1910*
X1149Y1922D02*
Y1913D01*
X1141Y1888D02*
Y1900D01*
X1152Y1889*
X1155Y1888*
X1158Y1889*
X1159Y1893*
Y1897*
X1158Y1900*
X1214Y1033D02*
G75*
G03Y1073J20D01*
G01*
G75*
G03Y1033J-20*
G01*
X1274Y1092D02*
X1234D01*
Y1132*
X1274Y1702D02*
X1234D01*
Y1663*
X1285Y2087D02*
X1289Y2084D01*
X1292Y2077*
Y2068*
X1289Y2062*
X1285Y2059*
X1279Y2055*
X1267*
X1260Y2059*
X1257Y2062*
X1254Y2068*
Y2077*
X1257Y2084*
X1260Y2087*
X1292Y2112D02*
Y2124D01*
Y2118D02*
X1254D01*
X1260Y2112*
X1273Y2165D02*
Y2171D01*
X1270Y2177*
X1264Y2180*
X1257Y2177*
X1254Y2171*
Y2165*
X1257Y2159*
X1264Y2155*
X1270Y2159*
X1273Y2165*
X1276Y2159*
X1282Y2155*
X1289Y2159*
X1292Y2165*
Y2171*
X1289Y2177*
X1282Y2180*
X1276Y2177*
X1273Y2171*
X1311Y2030D02*
X1233D01*
Y1912*
X1311*
Y2030*
X1326Y830D02*
Y867D01*
X1348*
X1354Y864*
X1357Y858*
X1354Y852*
X1348Y849*
X1326*
X1348D02*
X1357Y830D01*
X1401D02*
X1376D01*
X1398Y852*
X1401Y858*
X1398Y864*
X1392Y867*
X1382*
X1376Y864*
X1451Y830D02*
X1426D01*
X1448Y852*
X1451Y858*
X1448Y864*
X1442Y867*
X1432*
X1426Y864*
X1331Y1825D02*
X1362Y1862D01*
X1331D02*
X1362Y1825D01*
X1397D02*
Y1862D01*
X1381D02*
X1412D01*
X1431Y1825D02*
X1447Y1862D01*
X1462Y1825*
X1437Y1840D02*
X1456D01*
X1481Y1862D02*
Y1825D01*
X1512*
X1556D02*
X1531D01*
X1553Y1847*
X1556Y1853*
X1553Y1859*
X1547Y1862*
X1537*
X1531Y1859*
X1410Y594D02*
Y582D01*
Y588D02*
X1448D01*
X1442Y594*
X1441Y730D02*
Y809D01*
X1323*
Y730*
X1441*
X1457Y705D02*
X984D01*
Y626*
X1457*
Y705*
X1477Y705D02*
X1474Y702D01*
X1470Y696*
X1474Y690*
X1477Y687*
X1508*
Y680*
Y687D02*
Y699D01*
X1474Y652D02*
X1470Y646D01*
Y640*
X1474Y634*
X1480Y630*
X1486Y634*
X1489Y640*
Y646*
Y640D02*
X1492Y634D01*
X1499Y630*
X1505Y634*
X1508Y640*
Y646*
X1505Y652*
X1506Y1042D02*
Y1014D01*
X1509Y1008*
X1515Y1005*
X1528*
X1534Y1008*
X1537Y1014*
Y1042*
X1562Y1005D02*
X1575D01*
X1569D02*
Y1042D01*
X1562Y1036*
X1571Y2089D02*
X1315D01*
Y1893*
X1610*
Y2050*
X1571Y2089*
X1575Y627D02*
X1812D01*
Y785*
X1575*
Y627*
X1612Y1766D02*
X1609Y1763D01*
X1603Y1760*
X1594*
X1587Y1763*
X1584Y1766*
X1581Y1772*
Y1785*
X1584Y1791*
X1587Y1794*
X1594Y1797*
X1603*
X1609Y1794*
X1612Y1791*
X1656Y1760D02*
X1631D01*
X1653Y1782*
X1656Y1788*
X1653Y1794*
X1647Y1797*
X1637*
X1631Y1794*
X1684Y1763D02*
X1690Y1760D01*
X1697*
X1703Y1763*
X1706Y1769*
Y1788*
X1703Y1794*
X1697Y1797*
X1690*
X1684Y1794*
X1681Y1788*
Y1769*
X1684Y1763*
X1703Y1794*
X1586Y1891D02*
Y1812D01*
X1704*
Y1891*
X1586*
X1596Y875D02*
X1614D01*
Y864*
X1613Y861*
X1610Y860*
X1607Y861*
X1605Y864*
Y875*
Y864D02*
X1596Y860D01*
X1599Y835D02*
X1597Y836D01*
X1596Y839*
Y844*
X1597Y847*
X1599Y849*
X1602Y850*
X1608*
X1611Y849*
X1613Y847*
X1614Y844*
Y839*
X1613Y836*
X1611Y835*
X1597Y824D02*
X1596Y821D01*
Y818*
X1597Y814*
X1600Y813*
X1604Y814*
X1605Y818*
Y821*
Y818D02*
X1607Y814D01*
X1610Y813*
X1613Y814*
X1614Y818*
Y821*
X1613Y824*
X1606Y615D02*
X1624D01*
Y604*
X1623Y601*
X1620Y600*
X1617Y601*
X1615Y604*
Y615*
Y604D02*
X1606Y600D01*
X1609Y575D02*
X1607Y576D01*
X1606Y579*
Y584*
X1607Y587*
X1609Y589*
X1612Y590*
X1618*
X1621Y589*
X1623Y587*
X1624Y584*
Y579*
X1623Y576*
X1621Y575*
X1606Y553D02*
Y565D01*
X1617Y554*
X1620Y553*
X1623Y554*
X1624Y558*
Y562*
X1623Y565*
X1611Y1946D02*
X1689D01*
Y2064*
X1611*
Y1946*
X1660Y2112D02*
X1664Y2109D01*
X1667Y2102*
Y2093*
X1664Y2087*
X1660Y2084*
X1654Y2080*
X1642*
X1635Y2084*
X1632Y2087*
X1629Y2093*
Y2102*
X1632Y2109*
X1635Y2112*
X1667Y2137D02*
Y2149D01*
Y2143D02*
X1629D01*
X1635Y2137*
X1667Y2190D02*
X1664Y2196D01*
X1657Y2202*
X1648Y2205*
X1639*
X1632Y2202*
X1629Y2196*
Y2190*
X1632Y2184*
X1639Y2180*
X1645Y2184*
X1648Y2190*
Y2196*
X1645Y2202*
X1639Y2205*
X1691Y615D02*
X1709D01*
Y604*
X1708Y601*
X1705Y600*
X1702Y601*
X1700Y604*
Y615*
Y604D02*
X1691Y600D01*
X1694Y575D02*
X1692Y576D01*
X1691Y579*
Y584*
X1692Y587*
X1694Y589*
X1697Y590*
X1703*
X1706Y589*
X1708Y587*
X1709Y584*
Y579*
X1708Y576*
X1706Y575*
X1691Y562D02*
Y556D01*
Y559D02*
X1709D01*
X1706Y562*
X1691Y865D02*
X1709D01*
Y854*
X1708Y851*
X1705Y850*
X1702Y851*
X1700Y854*
Y865*
Y854D02*
X1691Y850D01*
X1694Y825D02*
X1692Y826D01*
X1691Y829*
Y834*
X1692Y837*
X1694Y839*
X1697Y840*
X1703*
X1706Y839*
X1708Y837*
X1709Y834*
Y829*
X1708Y826*
X1706Y825*
X1691Y808D02*
X1709D01*
X1697Y815*
Y803*
X1741Y1755D02*
X1772Y1792D01*
X1741D02*
X1772Y1755D01*
X1807D02*
Y1792D01*
X1791D02*
X1822D01*
X1841Y1755D02*
X1857Y1792D01*
X1872Y1755*
X1847Y1770D02*
X1866D01*
X1891Y1792D02*
Y1755D01*
X1922*
X1944Y1758D02*
X1950Y1755D01*
X1957*
X1963Y1758*
X1966Y1764*
X1963Y1770*
X1957Y1774*
X1950*
X1957D02*
X1963Y1777D01*
X1966Y1783*
X1963Y1789*
X1957Y1792*
X1950*
X1944Y1789*
X1766Y610D02*
X1784D01*
Y599*
X1783Y596*
X1780Y595*
X1777Y596*
X1775Y599*
Y610*
Y599D02*
X1766Y595D01*
X1774Y574D02*
Y570D01*
X1772*
X1769Y571*
X1767Y573*
X1766Y576*
Y579*
X1767Y582*
X1769Y584*
X1772Y585*
X1778*
X1781Y584*
X1783Y582*
X1784Y579*
Y576*
X1783Y573*
X1781Y571*
X1778Y570*
X1766Y560D02*
X1784Y548D01*
Y560*
X1771Y885D02*
X1789D01*
Y874*
X1788Y871*
X1785Y870*
X1782Y871*
X1780Y874*
Y885*
Y874D02*
X1771Y870D01*
X1779Y849D02*
Y845D01*
X1777*
X1774Y846*
X1772Y848*
X1771Y851*
Y854*
X1772Y857*
X1774Y859*
X1777Y860*
X1783*
X1786Y859*
X1788Y857*
X1789Y854*
Y851*
X1788Y848*
X1786Y846*
X1783Y845*
X1775Y835D02*
X1779Y834D01*
X1780Y831*
Y828*
X1779Y824*
X1775Y823*
X1772Y824*
X1771Y828*
Y831*
X1772Y834*
X1775Y835*
X1780*
X1785Y834*
X1788Y831*
X1789Y828*
X1837Y745D02*
X1834Y742D01*
X1830Y736*
X1834Y730*
X1837Y727*
X1868*
Y720*
Y727D02*
Y739D01*
X1830Y680D02*
X1868D01*
X1843Y695*
Y670*
X1844Y1132D02*
Y1092D01*
X1805*
X1844Y1663D02*
Y1702D01*
X1805*
X1927Y905D02*
X1889D01*
Y927*
X1892Y934*
X1899Y937*
X1905Y934*
X1908Y927*
Y905*
Y927D02*
X1927Y937D01*
X1908Y965D02*
Y971D01*
X1905Y977*
X1899Y980*
X1892Y977*
X1889Y971*
Y965*
X1892Y959*
X1899Y955*
X1905Y959*
X1908Y965*
X1911Y959*
X1917Y955*
X1924Y959*
X1927Y965*
Y971*
X1924Y977*
X1917Y980*
X1911Y977*
X1908Y971*
X1951Y886D02*
X2029D01*
Y1004*
X1951*
Y886*
X1996Y1806D02*
X2074D01*
Y1924*
X1996*
Y1806*
X1996Y1870D02*
Y2185D01*
X1701*
Y1811*
X1937*
X1996Y1870*
X2015Y670D02*
X2019Y674D01*
X2022Y680*
X2019Y686*
X2015Y689*
X1984*
Y695*
Y689D02*
Y677D01*
X2022Y745D02*
Y720D01*
X2000Y742*
X1994Y745*
X1987Y742*
X1984Y736*
Y727*
X1987Y720*
X2035Y627D02*
X2272D01*
Y785*
X2035*
Y627*
X2092Y535D02*
X2054D01*
X2073Y551*
X2054Y567*
X2092*
X2089Y589D02*
X2092Y595D01*
Y601*
X2089Y607*
X2082Y610*
X2064*
X2057Y607*
X2054Y601*
Y595*
X2057Y589*
X2064Y585*
X2082*
X2089Y589*
X2057Y607*
X2110Y2055D02*
X2114Y2059D01*
X2117Y2065*
X2114Y2071*
X2110Y2074*
X2079*
Y2080*
Y2074D02*
Y2062D01*
X2117Y2105D02*
X2079Y2130D01*
Y2105*
X2129Y1026D02*
Y956D01*
X2199*
X2129Y1357D02*
Y1428D01*
X2199*
X2125Y1832D02*
X2129Y1829D01*
X2132Y1822*
Y1813*
X2129Y1807*
X2125Y1804*
X2119Y1800*
X2107*
X2100Y1804*
X2097Y1807*
X2094Y1813*
Y1822*
X2097Y1829*
X2100Y1832*
X2132Y1875D02*
Y1850D01*
X2110Y1872*
X2104Y1875*
X2097Y1872*
X2094Y1866*
Y1857*
X2097Y1850*
X2132Y1907D02*
Y1919D01*
Y1913D02*
X2094D01*
X2100Y1907*
X2142Y2047D02*
X2772D01*
Y2126*
X2142*
Y2047*
X2176Y2030D02*
X2194D01*
X2176Y2015*
X2194*
X2179Y1990D02*
X2177Y1991D01*
X2176Y1994*
Y1999*
X2177Y2002*
X2179Y2004*
X2182Y2005*
X2188*
X2191Y2004*
X2193Y2002*
X2194Y1999*
Y1994*
X2193Y1991*
X2191Y1990*
X2177Y535D02*
X2139D01*
X2158Y551*
X2139Y567*
X2177*
Y592D02*
Y604D01*
Y598D02*
X2139D01*
X2145Y592*
X2256Y2030D02*
X2274D01*
Y2019*
X2273Y2016*
X2270Y2015*
X2267Y2016*
X2265Y2019*
Y2030*
Y2019D02*
X2256Y2015D01*
Y2005D02*
X2274Y1998D01*
X2256Y1990*
X2264Y2002D02*
Y1993D01*
X2256Y1977D02*
Y1971D01*
Y1974D02*
X2274D01*
X2271Y1977*
X2256Y1948D02*
X2274D01*
X2262Y1955*
Y1943*
X2257Y530D02*
X2219D01*
X2238Y546*
X2219Y562*
X2257*
Y605D02*
Y580D01*
X2235Y602*
X2229Y605*
X2222Y602*
X2219Y596*
Y587*
X2222Y580*
X2336Y2030D02*
X2354D01*
Y2019*
X2353Y2016*
X2350Y2015*
X2347Y2016*
X2345Y2019*
Y2030*
Y2019D02*
X2336Y2015D01*
Y2005D02*
X2354Y1998D01*
X2336Y1990*
X2344Y2002D02*
Y1993D01*
X2336Y1977D02*
Y1971D01*
Y1974D02*
X2354D01*
X2351Y1977*
X2337Y1955D02*
X2336Y1952D01*
Y1948*
X2337Y1944*
X2340Y1943*
X2342*
X2345Y1944*
X2347Y1948*
Y1955*
X2354*
Y1943*
X2345Y587D02*
X2349Y584D01*
X2352Y577*
Y568*
X2349Y562*
X2345Y559*
X2339Y555*
X2327*
X2320Y559*
X2317Y562*
X2314Y568*
Y577*
X2317Y584*
X2320Y587*
X2352Y630D02*
Y605D01*
X2330Y627*
X2324Y630*
X2317Y627*
X2314Y621*
Y612*
X2317Y605*
X2366Y541D02*
X2444D01*
Y659*
X2366*
Y541*
X2386Y855D02*
X2417Y892D01*
X2386D02*
X2417Y855D01*
X2452D02*
Y892D01*
X2436D02*
X2467D01*
X2486Y855D02*
X2502Y892D01*
X2517Y855*
X2492Y870D02*
X2511D01*
X2536Y892D02*
Y855D01*
X2567*
X2592D02*
X2605D01*
X2599D02*
Y892D01*
X2592Y886*
X2386Y641D02*
X2623D01*
Y838*
X2347*
Y681*
X2386Y641*
X2411Y2035D02*
X2429D01*
Y2024*
X2428Y2021*
X2425Y2020*
X2422Y2021*
X2420Y2024*
Y2035*
Y2024D02*
X2411Y2020D01*
Y2010D02*
X2429Y2003D01*
X2411Y1995*
X2419Y2007D02*
Y1998D01*
X2411Y1982D02*
Y1976D01*
Y1979D02*
X2429D01*
X2426Y1982*
X2509Y2035D02*
X2495D01*
X2492Y2034*
X2491Y2031*
Y2024*
X2492Y2021*
X2495Y2020*
X2509*
X2491Y1998D02*
Y2010D01*
X2502Y1999*
X2505Y1998*
X2508Y1999*
X2509Y2003*
Y2007*
X2508Y2010*
X2491Y1978D02*
X2509D01*
Y1985D02*
Y1970D01*
X2491Y1960D02*
X2509Y1945D01*
Y1960D02*
X2491Y1945D01*
X2530Y1428D02*
X2589D01*
Y1357*
X2546Y571D02*
Y534D01*
X2524*
X2518Y537*
X2515Y543*
X2518Y549*
X2524Y552*
X2546*
X2524D02*
X2515Y571D01*
X2487D02*
X2480Y568D01*
X2474Y562*
X2471Y552*
Y543*
X2474Y537*
X2480Y534*
X2487*
X2493Y537*
X2496Y543*
X2493Y549*
X2487Y552*
X2480*
X2474Y549*
X2471Y543*
X2584Y2035D02*
X2570D01*
X2567Y2034*
X2566Y2031*
Y2024*
X2567Y2021*
X2570Y2020*
X2584*
X2566Y1998D02*
Y2010D01*
X2577Y1999*
X2580Y1998*
X2583Y1999*
X2584Y2003*
Y2007*
X2583Y2010*
X2566Y1985D02*
X2584D01*
Y1974*
X2583Y1971*
X2580Y1970*
X2577Y1971*
X2575Y1974*
Y1985*
Y1974D02*
X2566Y1970D01*
Y1960D02*
X2584Y1945D01*
Y1960D02*
X2566Y1945D01*
X2566Y580D02*
Y659D01*
X2448*
Y580*
X2566*
X2577Y979D02*
G75*
G03X2554I-12D01*
G01*
G75*
G03X2577I12*
G01*
X2589Y1026D02*
Y956D01*
X2530*
X2621Y701D02*
X2699D01*
Y819*
X2621*
Y701*
X2646Y2030D02*
X2658D01*
X2654D02*
X2657Y2029D01*
X2658Y2026*
Y2023*
X2657Y2019*
X2654Y2018*
X2646*
X2664Y2005D02*
X2650D01*
X2647Y2004*
X2646Y2001*
Y1994*
X2647Y1991*
X2650Y1990*
X2664*
X2646Y1968D02*
Y1980D01*
X2657Y1969*
X2660Y1968*
X2663Y1969*
X2664Y1973*
Y1977*
X2663Y1980*
X2649Y1940D02*
X2647Y1941D01*
X2646Y1944*
Y1949*
X2647Y1952*
X2649Y1954*
X2652Y1955*
X2658*
X2661Y1954*
X2663Y1952*
X2664Y1949*
Y1944*
X2663Y1941*
X2661Y1940*
X2646Y1923D02*
X2664D01*
Y1930D02*
Y1915D01*
X2650Y1905D02*
X2647Y1904D01*
X2646Y1901*
Y1894*
X2647Y1891*
X2650Y1890*
X2654Y1891*
X2655Y1894*
Y1901*
X2657Y1904*
X2660Y1905*
X2663Y1904*
X2664Y1901*
Y1894*
X2663Y1891*
X2660Y1890*
X2671Y956D02*
X2749D01*
Y1074*
X2671*
Y956*
X2671Y910D02*
Y947D01*
X2693*
X2699Y944*
X2702Y938*
X2699Y932*
X2693Y929*
X2671*
X2693D02*
X2702Y910D01*
X2724Y913D02*
X2730Y910D01*
X2737*
X2743Y913*
X2746Y919*
X2743Y925*
X2737Y929*
X2730*
X2737D02*
X2743Y932D01*
X2746Y938*
X2743Y944*
X2737Y947*
X2730*
X2724Y944*
X2712Y769D02*
X2709Y772D01*
X2705Y779*
Y788*
X2709Y794*
X2712Y797*
X2718Y800*
X2730*
X2737Y797*
X2740Y794*
X2743Y788*
Y779*
X2740Y772*
X2737Y769*
X2709Y747D02*
X2705Y741D01*
Y735*
X2709Y729*
X2715Y725*
X2721Y729*
X2724Y735*
Y741*
Y735D02*
X2727Y729D01*
X2734Y725*
X2740Y729*
X2743Y735*
Y741*
X2740Y747*
X2731Y2030D02*
X2743D01*
X2739D02*
X2742Y2029D01*
X2743Y2026*
Y2023*
X2742Y2019*
X2739Y2018*
X2731*
X2749Y2005D02*
X2735D01*
X2732Y2004*
X2731Y2001*
Y1994*
X2732Y1991*
X2735Y1990*
X2749*
X2731Y1968D02*
Y1980D01*
X2742Y1969*
X2745Y1968*
X2748Y1969*
X2749Y1973*
Y1977*
X2748Y1980*
X2731Y1955D02*
X2749D01*
Y1944*
X2748Y1941*
X2745Y1940*
X2742Y1941*
X2740Y1944*
Y1955*
Y1944D02*
X2731Y1940D01*
Y1923D02*
X2749D01*
Y1930D02*
Y1915D01*
X2735Y1905D02*
X2732Y1904D01*
X2731Y1901*
Y1894*
X2732Y1891*
X2735Y1890*
X2739Y1891*
X2740Y1894*
Y1901*
X2742Y1904*
X2745Y1905*
X2748Y1904*
X2749Y1901*
Y1894*
X2748Y1891*
X2745Y1890*
X2871Y950D02*
Y1029D01*
X2753*
Y950*
X2871*
X2922Y955D02*
X2884D01*
Y977*
X2887Y984*
X2894Y987*
X2900Y984*
X2903Y977*
Y955*
Y977D02*
X2922Y987D01*
Y1021D02*
X2884D01*
X2909Y1005*
Y1030*
X2936Y686D02*
X3014D01*
Y804*
X2936*
Y686*
X2966Y548D02*
X2984D01*
Y555D02*
Y540D01*
X2966Y530D02*
X2984Y515D01*
Y530D02*
X2966Y515D01*
X3011Y686D02*
X3089D01*
Y804*
X3011*
Y686*
X3016Y685D02*
X2938D01*
Y567*
X3016*
Y685*
X3031Y936D02*
X3109D01*
Y1054*
X3031*
Y936*
X3041Y555D02*
X3059D01*
Y544*
X3058Y541*
X3055Y540*
X3052Y541*
X3050Y544*
Y555*
Y544D02*
X3041Y540D01*
Y530D02*
X3059Y515D01*
Y530D02*
X3041Y515D01*
X3040Y877D02*
X3044Y874D01*
X3047Y867*
Y858*
X3044Y852*
X3040Y849*
X3034Y845*
X3022*
X3015Y849*
X3012Y852*
X3009Y858*
Y867*
X3012Y874*
X3015Y877*
X3044Y895D02*
X3047Y902D01*
Y911*
X3044Y917*
X3037Y920*
X3034*
X3028Y917*
X3025Y911*
Y895*
X3009*
Y920*
X3056Y926D02*
Y847D01*
X3174*
Y926*
X3056*
X3091Y686D02*
X3169D01*
Y804*
X3091*
Y686*
X3091Y685D02*
X3013D01*
Y567*
X3091*
Y685*
X3087Y1075D02*
X3049D01*
Y1097*
X3052Y1104*
X3059Y1107*
X3065Y1104*
X3068Y1097*
Y1075*
Y1097D02*
X3087Y1107D01*
Y1132D02*
Y1144D01*
Y1138D02*
X3049D01*
X3055Y1132*
X3087Y1200D02*
Y1175D01*
X3065Y1197*
X3059Y1200*
X3052Y1197*
X3049Y1191*
Y1182*
X3052Y1175*
X3119Y540D02*
X3117Y541D01*
X3116Y544*
Y549*
X3117Y552*
X3119Y554*
X3122Y555*
X3128*
X3131Y554*
X3133Y552*
X3134Y549*
Y544*
X3133Y541*
X3131Y540*
X3122Y530D02*
X3128D01*
X3131Y529*
X3133Y527*
X3134Y524*
Y521*
X3133Y518*
X3131Y516*
X3128Y515*
X3122*
X3119Y516*
X3117Y518*
X3116Y521*
Y524*
X3117Y527*
X3119Y529*
X3122Y530*
X3134Y505D02*
X3116D01*
Y490*
X3116Y936D02*
X3194D01*
Y1054*
X3116*
Y936*
X3166Y686D02*
X3244D01*
Y804*
X3166*
Y686*
X3166Y685D02*
X3088D01*
Y567*
X3166*
Y685*
X3172Y1070D02*
X3134D01*
Y1092*
X3137Y1099*
X3144Y1102*
X3150Y1099*
X3153Y1092*
Y1070*
Y1092D02*
X3172Y1102D01*
Y1127D02*
Y1139D01*
Y1133D02*
X3134D01*
X3140Y1127*
X3169Y1174D02*
X3172Y1180D01*
Y1186*
X3169Y1192*
X3162Y1195*
X3156Y1192*
X3153Y1186*
Y1180*
Y1186D02*
X3150Y1192D01*
X3144Y1195*
X3137Y1192*
X3134Y1186*
Y1180*
X3137Y1174*
X3181Y926D02*
Y847D01*
X3299*
Y926*
X3181*
X3196Y555D02*
X3214D01*
Y540*
X3205Y543D02*
Y555D01*
Y519D02*
X3204Y516D01*
X3200Y515*
X3197Y516*
X3196Y519*
Y530*
X3214*
Y519*
X3213Y516*
X3210Y515*
X3207Y516*
X3205Y519*
Y530*
X3196Y505D02*
X3214Y490D01*
Y505D02*
X3196Y490D01*
X3241Y686D02*
X3319D01*
Y804*
X3241*
Y686*
X3241Y685D02*
X3163D01*
Y567*
X3241*
Y685*
X3270Y555D02*
X3267Y554D01*
X3266Y551*
Y544*
X3267Y541*
X3270Y540*
X3274Y541*
X3275Y544*
Y551*
X3277Y554*
X3280Y555*
X3283Y554*
X3284Y551*
Y544*
X3283Y541*
X3280Y540*
X3266Y530D02*
X3284D01*
Y519*
X3283Y516*
X3280Y515*
X3277Y516*
X3275Y519*
Y530*
X3266Y505D02*
X3284D01*
Y496*
X3283Y493*
X3281Y491*
X3278Y490*
X3272*
X3269Y491*
X3267Y493*
X3266Y496*
Y505*
X3316Y686D02*
X3394D01*
Y804*
X3316*
Y686*
X3316Y685D02*
X3238D01*
Y567*
X3316*
Y685*
X3369Y560D02*
X3351D01*
Y545*
Y531D02*
Y524D01*
Y528D02*
X3369D01*
Y531D02*
Y524D01*
X3351Y510D02*
X3369D01*
X3351Y495*
X3369*
X3351Y485D02*
X3369D01*
X3360D02*
Y481D01*
X3369Y470*
X3360Y481D02*
X3351Y470D01*
X3340Y882D02*
X3344Y879D01*
X3347Y872*
Y863*
X3344Y857*
X3340Y854*
X3334Y850*
X3322*
X3315Y854*
X3312Y857*
X3309Y863*
Y872*
X3312Y879*
X3315Y882*
X3347Y907D02*
Y919D01*
Y913D02*
X3309D01*
X3315Y907*
X3396Y646D02*
Y567D01*
X3514*
Y646*
X3396*
Y685D02*
X3318D01*
Y567*
X3396*
Y685*
Y726D02*
Y647D01*
X3514*
Y726*
X3396*
X3536Y670D02*
Y707D01*
X3558*
X3564Y704*
X3567Y698*
X3564Y692*
X3558Y689*
X3536*
X3558D02*
X3567Y670D01*
X3592D02*
X3605D01*
X3599D02*
Y707D01*
X3592Y701*
X3541Y585D02*
Y622D01*
X3563*
X3569Y619*
X3572Y613*
X3569Y607*
X3563Y604*
X3541*
X3563D02*
X3572Y585D01*
X3616D02*
X3591D01*
X3613Y607*
X3616Y613*
X3613Y619*
X3607Y622*
X3597*
X3591Y619*
X4044Y934D02*
Y1583D01*
X3198*
Y934*
X4044*
X0Y0D02*
M02*
