%FSLAX23Y23*%
%MOIN*%
G04 EasyPC Gerber Version 16.0.6 Build 3249 *
%ADD72R,0.00984X0.05906*%
%ADD81R,0.01181X0.05118*%
%ADD27R,0.01181X0.05906*%
%ADD85R,0.01378X0.03346*%
%ADD74R,0.03740X0.04331*%
%ADD83R,0.16339X0.16339*%
%ADD80R,0.06000X0.06000*%
%ADD10C,0.00500*%
%ADD87C,0.00800*%
%ADD23C,0.01000*%
%ADD24C,0.01200*%
%ADD89C,0.01500*%
%ADD26C,0.01800*%
%ADD88C,0.02000*%
%ADD25C,0.02400*%
%ADD90C,0.02500*%
%ADD104C,0.02900*%
%ADD86C,0.04921*%
%ADD79C,0.06000*%
%ADD76C,0.06496*%
%ADD73C,0.06890*%
%ADD105C,0.09843*%
%ADD29R,0.05906X0.00984*%
%ADD82R,0.05118X0.01181*%
%ADD28R,0.05906X0.01181*%
%ADD75R,0.04331X0.03740*%
%ADD77R,0.07087X0.04724*%
%ADD78R,0.07480X0.05118*%
%ADD84R,0.07874X0.07087*%
X0Y0D02*
D02*
D10*
X116Y1282D02*
Y590D01*
X211Y495*
X3741*
X3906Y660*
Y1725*
X3461Y2170*
X256*
X116Y2030*
Y1798*
G75*
G02X155Y1821I39J-22*
G01*
G75*
G02X168Y1734J-44*
G01*
G75*
G02X192Y1709I-13J-36*
G01*
X206*
G75*
G02X216Y1705I0J-14*
G01*
X366Y1555*
X368*
Y1568*
G75*
G02X365Y1570I9J12*
G01*
X365Y1570*
G75*
G02X366Y1600I1J15*
G01*
X371*
G75*
G02X382Y1596I0J-15*
G01*
X382Y1595*
X407*
G75*
G02X411Y1595J-15*
G01*
X442*
Y1581*
X448*
Y1501*
X442*
Y1444*
X448*
Y1345*
X471*
Y1345*
G75*
G02X475Y1356I15J0*
G01*
X478Y1358*
G75*
G02X478Y1360I18J2*
G01*
G75*
G02X486Y1376I19*
G01*
X479*
Y1569*
X671*
Y1376*
X506*
G75*
G02X508Y1346I-10J-16*
G01*
G75*
G02X507Y1345I-12J9*
G01*
X625*
Y1339*
X698*
Y1299*
X719Y1278*
G75*
G02X721Y1254I-7J-12*
G01*
X835*
X1006Y1425*
G75*
G02X1016Y1429I10J-10*
G01*
X1196*
Y1462*
G75*
G02X1188Y1465I1J12*
G01*
X1171Y1483*
X941*
X901Y1443*
X959*
G75*
G02X981Y1430I7J-13*
G01*
G75*
G02X959Y1418I-15*
G01*
X958*
G75*
G02X940Y1397I-12J-8*
G01*
G75*
G02X934Y1383I-14J-2*
G01*
X906Y1355*
G75*
G02X896Y1351I-10J10*
G01*
X776*
Y1350*
X708*
Y1422*
X702*
Y1443*
G75*
G02X685Y1475I-6J17*
G01*
G75*
G02X702Y1508I11J15*
G01*
Y1522*
X708*
Y1586*
X673*
G75*
G02X663Y1590J14*
G01*
X653Y1600*
G75*
G02X650Y1606I10J10*
G01*
X585*
Y1600*
X486*
Y1606*
X452*
Y1628*
G75*
G02X428Y1645I-6J17*
G01*
G75*
G02X452Y1663I19*
G01*
Y1674*
X466*
Y1705*
X411Y1760*
X371*
X346Y1785*
X298*
Y1857*
X336*
Y1875*
X386Y1925*
X611*
X656Y1880*
Y1874*
X701*
Y1774*
X595*
X511Y1690*
Y1680*
X585*
Y1674*
X614*
Y1720*
G75*
G02X617Y1729I13*
G01*
X635Y1747*
G75*
G02X644Y1751I9J-9*
G01*
X893*
X663Y1980*
X600*
Y2068*
X695*
Y1984*
X736Y1943*
G75*
G02X734Y1950I10J7*
G01*
Y2095*
G75*
G02X737Y2104I13*
G01*
X797Y2164*
G75*
G02X806Y2168I9J-9*
G01*
X851*
G75*
G02X860Y2164J-13*
G01*
X898Y2126*
G75*
G02X951Y2090I14J-36*
G01*
G75*
G02X874I-39*
G01*
G75*
G02X879Y2110I39J0*
G01*
X872Y2117*
Y2052*
X795*
Y2081*
X792*
X780Y2070*
Y1966*
X932Y1814*
X959*
X827Y1947*
G75*
G02X824Y1955I9J9*
G01*
Y1974*
G75*
G02X795Y2012I10J37*
G01*
G75*
G02X872I39*
G01*
G75*
G02X849Y1976I-39*
G01*
Y1961*
X897Y1912*
G75*
G02X897Y1915I14J4*
G01*
Y1976*
G75*
G02X874Y2012I15J35*
G01*
G75*
G02X951I39*
G01*
G75*
G02X925Y1975I-39*
G01*
Y1921*
X997Y1849*
X1401*
G75*
G02X1411Y1845J-14*
G01*
X1472Y1784*
X1481*
G75*
G02X1491Y1780J-14*
G01*
X1506Y1765*
G75*
G02X1510Y1755I-10J-10*
G01*
Y1737*
X1511*
Y1775*
X1476Y1810*
X1451*
X1376Y1885*
X1256*
X1221Y1920*
Y1960*
X1236Y1975*
Y2034*
X1308*
Y2007*
X1328Y2027*
Y2072*
X1408*
X1436Y2100*
X1681*
X1716Y2065*
Y2030*
X1686Y2001*
Y1942*
X1614*
Y1980*
X1586*
X1584Y1978*
X1601*
Y1902*
X1560*
X1583Y1879*
Y1887*
X1623*
X1651Y1915*
X1676*
X1711Y1950*
Y1985*
X1771Y2045*
X2031*
X2106Y1970*
Y1885*
X2071Y1851*
Y1802*
X1999*
Y1830*
X1901*
X1796Y1725*
Y1715*
X1794*
Y1668*
G75*
G02X1796Y1668I2J-12*
G01*
X2106*
X2324Y1886*
Y2051*
G75*
G02X2300Y2087I15J35*
G01*
G75*
G02X2377I39*
G01*
G75*
G02X2349Y2049I-39*
G01*
Y1880*
G75*
G02X2346Y1873I-13*
G01*
X2479Y2006*
Y2042*
G75*
G02X2482Y2051I13*
G01*
X2482Y2051*
G75*
G02X2457Y2087I14J36*
G01*
G75*
G02X2534I39*
G01*
G75*
G02X2508Y2050I-39*
G01*
Y2047*
G75*
G02X2505Y2038I-13*
G01*
X2504Y2037*
Y2000*
G75*
G02X2503Y1997I-13J0*
G01*
X2547Y2041*
Y2060*
G75*
G02X2536Y2087I28J27*
G01*
G75*
G02X2613I39*
G01*
G75*
G02X2575Y2048I-39*
G01*
Y2035*
G75*
G02X2571Y2025I-14*
G01*
X2146Y1600*
G75*
G02X2136Y1596I-10J10*
G01*
X1878*
Y1554*
X1884*
Y1513*
X1878*
Y1508*
X2228Y1509*
G75*
G02X2238Y1505I0J-14*
G01*
X2253Y1490*
G75*
G02X2257Y1480I-10J-10*
G01*
Y1472*
X2306*
G75*
G02X2310Y1481I15J-2*
G01*
X2320Y1491*
G75*
G02X2331Y1495I11J-11*
G01*
X2340*
G75*
G02X2368Y1472I11J-15*
G01*
X2372*
Y1466*
X2524*
Y1390*
X2523*
Y1350*
X2527Y1354*
G75*
G02X2536Y1358I9J-9*
G01*
X2551*
Y1359*
X2627*
Y1332*
X2646Y1350*
X2646Y1350*
G75*
G02X2686Y1353I21*
G01*
X2712Y1327*
G75*
G02X2717Y1315I-11J-11*
G01*
Y1225*
G75*
G02X2712Y1214I-16J0*
G01*
X2706Y1208*
G75*
G02X2665Y1206I-21J10*
G01*
X2633*
Y1186*
X2656*
G75*
G02X2663Y1184J-14*
G01*
X2813*
G75*
G02X2820Y1157I3J-14*
G01*
G75*
G02X2824Y1139I-9J-11*
G01*
X3115*
X3206Y1230*
G75*
G02X3216Y1234I10J-10*
G01*
X3230*
G75*
G02X3271Y1263I41J-14*
G01*
G75*
G02X3292Y1183J-43*
G01*
X3330*
G75*
G02X3371Y1213I41J-13*
G01*
G75*
G02Y1127J-43*
G01*
G75*
G02X3330Y1158J43*
G01*
X3292*
G75*
G02X3296Y1085I-21J-38*
G01*
X3331*
G75*
G02X3371Y1113I40J-15*
G01*
G75*
G02Y1027J-43*
G01*
G75*
G02X3331Y1055J43*
G01*
X3296*
G75*
G02X3287Y981I-25J-35*
G01*
Y916*
X3295*
Y896*
X3336*
G75*
G02X3347Y892I0J-16*
G01*
X3437Y802*
G75*
G02X3442Y791I-11J-11*
G01*
Y716*
X3453*
Y656*
X3447*
Y636*
X3453*
Y576*
X3399*
Y577*
X3387*
Y571*
X3327*
Y577*
X3307*
Y571*
X3247*
Y577*
X3232*
Y571*
X3172*
Y577*
X3157*
Y571*
X3097*
Y577*
X3082*
Y571*
X3022*
Y577*
X3007*
Y571*
X2947*
Y582*
X2918*
G75*
G02X2907Y587I0J16*
G01*
X2835Y659*
G75*
G02X2830Y670I11J11*
G01*
Y864*
X2799Y895*
G75*
G02X2781Y915I2J20*
G01*
G75*
G02X2821Y918I21*
G01*
X2857Y882*
G75*
G02X2862Y870I-11J-11*
G01*
Y677*
X2925Y614*
X2947*
Y626*
X3007*
Y619*
X3022*
Y626*
X3082*
Y619*
X3097*
Y626*
X3157*
Y619*
X3172*
Y626*
X3232*
Y619*
X3247*
Y626*
X3307*
Y619*
X3327*
Y626*
X3387*
Y619*
X3399*
Y636*
X3405*
Y656*
X3399*
Y716*
X3410*
Y784*
X3329Y864*
X3295*
Y856*
X3244*
Y850*
X3178*
Y922*
X3244*
Y916*
X3255*
Y981*
G75*
G02X3246Y1055I16J40*
G01*
X3182*
X3176Y1050*
X3185*
Y995*
X3125*
Y1050*
X3141*
Y1050*
G75*
G02X3145Y1061I15J0*
G01*
X3161Y1077*
X3092*
X3080Y1065*
Y1050*
X3100*
Y995*
X3040*
Y1050*
X3053*
Y1070*
G75*
G02X3056Y1080I14J0*
G01*
X3073Y1097*
X2633*
Y1089*
G75*
G02X2659Y1060I8J-19*
G01*
X2680*
Y1070*
X2740*
Y1015*
X2680*
Y1032*
X2589*
G75*
G02X2585Y1033J14*
G01*
X2551*
Y1074*
X2545*
Y1113*
X2551*
Y1127*
G75*
G02X2542Y1131I1J13*
G01*
X2531Y1142*
G75*
G02X2528Y1151I10J10*
G01*
Y1154*
X2514Y1141*
G75*
G02X2494Y1127I-18J5*
G01*
G75*
G02X2478Y1106I-13J-7*
G01*
X2471*
G75*
G02X2465Y1081I-10J-11*
G01*
X2457Y1074*
G75*
G02X2455Y1046I-6J-13*
G01*
X2432Y1023*
G75*
G02X2454Y1000I4J-18*
G01*
X2483*
Y994*
X2524*
Y920*
X2536*
Y875*
X2571Y840*
X2696*
X2726Y810*
Y745*
X2706Y725*
X2696*
Y697*
X2624*
Y725*
X2613*
Y658*
X2576*
Y595*
X2546Y565*
X2441*
Y537*
X2369*
Y587*
X2346Y610*
Y750*
X2356Y760*
Y829*
X2406*
Y918*
X2367*
G75*
G02X2363Y910I-14J3*
G01*
X2360Y908*
Y884*
G75*
G02X2361Y880I-14J-3*
G01*
G75*
G02X2332I-15*
G01*
G75*
G02X2332Y884I14*
G01*
Y912*
X2325*
G75*
G02X2325Y910I-14J-1*
G01*
Y904*
G75*
G02X2305Y887I-14J-3*
G01*
Y884*
G75*
G02X2280Y871I-14J-3*
G01*
X2247Y838*
Y784*
G75*
G02X2252Y709I-15J-38*
G01*
G75*
G02X2279Y667I-20J-43*
G01*
G75*
G02X2193Y641I-47*
G01*
G75*
G02X2114I-39J26*
G01*
G75*
G02X2028Y667I-39J26*
G01*
G75*
G02X2055Y709I47*
G01*
G75*
G02X2091Y783I20J36*
G01*
X2225Y918*
X2198*
Y988*
X2071Y861*
G75*
G02X2056Y854I-15J15*
G01*
X1986*
G75*
G02X1966Y870J21*
G01*
G75*
G02X1965Y888I20J10*
G01*
X1960*
Y942*
X2020*
Y896*
X2047*
X2230Y1079*
Y1152*
X2186Y1196*
G75*
G02X2180Y1210I15J15*
G01*
Y1262*
X2172Y1270*
G75*
G02X2167Y1273I9J21*
G01*
Y1171*
X2176*
G75*
G02X2190Y1159J-14*
G01*
G75*
G02X2168Y1143I-14J-4*
G01*
X2167*
Y1033*
X2091*
Y1048*
X2009*
Y1000*
X2020*
Y945*
X1960*
Y1000*
X1984*
Y1048*
X1934*
X1841Y955*
G75*
G02X1831Y951I-10J10*
G01*
X1597*
G75*
G02X1587Y955J14*
G01*
X1577Y965*
Y914*
X1632Y859*
X1751*
G75*
G02X1761Y855J-14*
G01*
X1836Y780*
G75*
G02X1840Y770I-10J-10*
G01*
Y690*
G75*
G02X1836Y680I-14*
G01*
X1821Y665*
G75*
G02X1813Y661I-10J10*
G01*
G75*
G02X1733Y655I-41J5*
G01*
G75*
G02X1700Y626I-39J11*
G01*
Y625*
G75*
G02X1696Y615I-14*
G01*
X1686Y605*
G75*
G02X1676Y601I-10J10*
G01*
X1556*
G75*
G02X1546Y605J14*
G01*
X1520Y632*
G75*
G02X1515Y642I10J10*
G01*
Y756*
X1441Y830*
G75*
G02X1437Y840I10J10*
G01*
Y857*
G75*
G02X1417Y874I-6J13*
G01*
Y887*
G75*
G02X1397Y904I-6J13*
G01*
Y907*
G75*
G02X1379Y913I-6J13*
G01*
X1337Y955*
Y882*
X1362Y857*
G75*
G02X1367Y845I-11J-11*
G01*
Y800*
X1381*
Y739*
X1362*
Y696*
G75*
G02X1377Y665I-24J-30*
G01*
G75*
G02X1302Y652I-39*
G01*
G75*
G02X1217I-43J13*
G01*
G75*
G02X1143Y665I-36J13*
G01*
G75*
G02X1217Y678I39*
G01*
G75*
G02X1302I43J-13*
G01*
G75*
G02X1330Y703I36J-13*
G01*
Y739*
X1327*
Y800*
X1335*
Y839*
X1309Y864*
G75*
G02X1305Y876I11J11*
G01*
Y959*
X1268Y922*
G75*
G02X1259Y918I-9J9*
G01*
X1061*
X959Y815*
Y685*
G75*
G02X955Y677I-13*
G01*
X875Y597*
G75*
G02X866Y593I-9J9*
G01*
X706*
G75*
G02X697Y597J13*
G01*
X667Y627*
G75*
G02X665Y629I9J9*
G01*
G75*
G02X647Y662I21J32*
G01*
G75*
G02X724I39*
G01*
G75*
G02X702Y627I-38*
G01*
X711Y618*
X861*
X886Y643*
X877*
G75*
G02X805Y662I-34J19*
G01*
G75*
G02X881Y668I39*
G01*
X914Y701*
Y830*
G75*
G02X915Y837I12J0*
G01*
X910Y832*
X904Y825*
Y788*
G75*
G02X900Y779I-13*
G01*
X878Y757*
G75*
G02X882Y740I-35J-17*
G01*
G75*
G02X805I-39*
G01*
G75*
G02X860Y775I39*
G01*
X879Y793*
Y830*
G75*
G02X879Y832I12J0*
G01*
G75*
G02X876Y831I-3J14*
G01*
X822*
X780Y790*
Y776*
G75*
G02X803Y740I-15J-35*
G01*
G75*
G02X726I-39*
G01*
G75*
G02X752Y777I39*
G01*
Y795*
G75*
G02X756Y805I14*
G01*
X806Y855*
G75*
G02X807Y856I10J-10*
G01*
X767*
X700Y790*
Y776*
G75*
G02X724Y740I-14J-36*
G01*
G75*
G02X647I-39*
G01*
G75*
G02X672Y776I39*
G01*
Y795*
G75*
G02X676Y805I14*
G01*
X747Y876*
X732*
X628Y773*
G75*
G02X646Y740I-21J-32*
G01*
G75*
G02X569I-39*
G01*
G75*
G02X597Y778I39*
G01*
G75*
G02X601Y785I14J-2*
G01*
X712Y896*
X662*
X544Y779*
X567*
Y702*
X490*
Y774*
X485Y770*
Y691*
X495Y681*
G75*
G02X567Y662I33J-19*
G01*
G75*
G02X491Y651I-39*
G01*
X491*
G75*
G02X481Y655J14*
G01*
X461Y675*
G75*
G02X457Y685I10J10*
G01*
Y775*
G75*
G02X461Y785I14*
G01*
X616Y940*
G75*
G02X626Y944I10J-10*
G01*
X830*
X1012Y1126*
Y1275*
G75*
G02X1016Y1285I14*
G01*
X1113Y1383*
X1026*
X860Y1217*
G75*
G02X851Y1213I-9J9*
G01*
X561*
G75*
G02X552Y1217J13*
G01*
X498Y1271*
X487*
Y1265*
X446*
Y1344*
X368*
Y1390*
X330*
X285Y1345*
Y1265*
G75*
G02X281Y1256I-14J0*
G01*
X241Y1216*
G75*
G02X231Y1212I-10J10*
G01*
X193*
Y1187*
X116*
Y1264*
X136*
G75*
G02X116Y1282I19J40*
G01*
X130Y1103D02*
Y1155D01*
X190*
Y1143*
X205*
Y1155*
X265*
Y1146*
X309*
X320Y1157*
G75*
G02X331Y1161I11J-11*
G01*
X352*
G75*
G02X412Y1156I29J-16*
G01*
X446*
G75*
G02X457Y1152I0J-16*
G01*
X483Y1126*
X510*
Y1140*
X570*
Y1126*
X594*
X616Y1148*
G75*
G02X620Y1151I11J-11*
G01*
Y1162*
X632*
X622Y1171*
G75*
G02X650Y1200I14J14*
G01*
X689Y1162*
X702*
Y1149*
G75*
G02Y1123I-15J-13*
G01*
Y1111*
X671*
Y1123*
X651Y1143*
Y1141*
G75*
G02Y1132I-15J-4*
G01*
Y1111*
X624*
X612Y1099*
G75*
G02X601Y1094I-11J11*
G01*
X570*
Y1085*
X510*
Y1094*
X476*
G75*
G02X465Y1099I0J16*
G01*
X439Y1124*
X407*
G75*
G02X352Y1129I-26J21*
G01*
X338*
X327Y1119*
G75*
G02X316Y1114I-11J11*
G01*
X265*
Y1103*
X271*
Y1037*
X199*
Y1103*
X205*
Y1111*
X190*
Y1103*
X196*
Y1037*
X124*
Y1103*
X130*
X229Y731D02*
G75*
G02X318I44D01*
G01*
G75*
G02X229I-44*
G01*
X335D02*
G75*
G02X412I39D01*
G01*
G75*
G02X335I-39*
G01*
X367Y1999D02*
Y1993D01*
X301*
Y2066*
X367*
Y2060*
X418*
Y2049*
G75*
G02X430Y2046I3J-18*
G01*
X434*
Y2068*
X530*
Y1980*
X434*
Y2014*
X430*
G75*
G02X418Y2012I-9J16*
G01*
Y1999*
X367*
X381Y984D02*
G75*
G02Y906J-39D01*
G01*
G75*
G02Y984J39*
G01*
X407Y1024D02*
G75*
G02X381Y1012I-26J21D01*
G01*
G75*
G02Y1078J33*
G01*
G75*
G02X412Y1056J-33*
G01*
X464*
X475Y1067*
G75*
G02X486Y1071I11J-11*
G01*
X510*
Y1082*
X570*
Y1066*
X620*
Y1075*
X640*
Y1081*
X682*
Y1075*
X702*
Y1024*
X682*
Y1018*
X640*
Y1024*
X620*
Y1034*
X570*
Y1028*
X510*
Y1039*
X492*
X482Y1029*
G75*
G02X471Y1024I-11J11*
G01*
X407*
X569Y662D02*
G75*
G02X646I39D01*
G01*
G75*
G02X569I-39*
G01*
X726D02*
G75*
G02X803I39D01*
G01*
G75*
G02X726I-39*
G01*
X952Y2012D02*
G75*
G02X1029I39D01*
G01*
G75*
G02X952I-39*
G01*
Y2090D02*
G75*
G02X1029I39D01*
G01*
G75*
G02X952I-39*
G01*
X1031Y2012D02*
G75*
G02X1108I39D01*
G01*
G75*
G02X1031I-39*
G01*
Y2090D02*
G75*
G02X1108I39D01*
G01*
G75*
G02X1031I-39*
G01*
X1062Y704D02*
Y627D01*
X985*
Y704*
X1062*
X1110Y2012D02*
G75*
G02X1187I39D01*
G01*
G75*
G02X1110I-39*
G01*
Y2090D02*
G75*
G02X1187I39D01*
G01*
G75*
G02X1110I-39*
G01*
X1141Y665D02*
G75*
G02X1064I-39D01*
G01*
G75*
G02X1141I39*
G01*
X1395Y697D02*
Y739D01*
X1384*
Y800*
X1438*
Y739*
X1427*
Y703*
G75*
G02X1456Y665I-10J-37*
G01*
G75*
G02X1379I-39*
G01*
G75*
G02X1395Y697I39*
G01*
X1732Y525D02*
G75*
G02X1761I15D01*
G01*
G75*
G02X1732I-15*
G01*
X1814Y2073D02*
X1722D01*
Y2141*
X1814*
Y2073*
X1963D02*
X1871D01*
Y2141*
X1963*
Y2073*
X2143Y2048D02*
Y2125D01*
X2220*
Y2048*
X2143*
X2221Y2087D02*
G75*
G02X2298I39D01*
G01*
G75*
G02X2221I-39*
G01*
X2379D02*
G75*
G02X2456I39D01*
G01*
G75*
G02X2379I-39*
G01*
X2615D02*
G75*
G02X2692I39D01*
G01*
G75*
G02X2615I-39*
G01*
X2694D02*
G75*
G02X2771I39D01*
G01*
G75*
G02X2694I-39*
G01*
X2740Y975D02*
Y958D01*
X2680*
Y1012*
X2740*
Y1005*
X2757*
Y1020*
X2808*
Y1026*
X2874*
Y953*
X2808*
Y959*
X2757*
Y975*
X2740*
X2962Y683D02*
Y688D01*
X2945*
Y742*
X3005*
Y688*
X2989*
Y683*
X3007*
Y628*
X2947*
Y683*
X2962*
X3005Y745D02*
X2945D01*
Y800*
X3005*
Y745*
X3037Y683D02*
Y688D01*
X3020*
Y742*
X3080*
Y688*
X3064*
Y683*
X3082*
Y628*
X3022*
Y683*
X3037*
X3057Y938D02*
X3040D01*
Y992*
X3100*
Y975*
X3125*
Y992*
X3185*
Y938*
X3125*
Y945*
X3100*
Y938*
X3084*
Y916*
X3110*
Y922*
X3176*
Y850*
X3110*
Y856*
X3059*
Y895*
G75*
G02X3057Y902I11J7*
G01*
Y938*
X3080Y745D02*
X3020D01*
Y800*
X3080*
Y745*
X3117Y683D02*
Y688D01*
X3100*
Y742*
X3160*
Y688*
X3144*
Y683*
X3157*
Y628*
X3097*
Y683*
X3117*
X3160Y745D02*
X3100D01*
Y800*
X3160*
Y745*
X3186Y683D02*
Y688D01*
X3175*
Y742*
X3235*
Y688*
X3216*
Y683*
X3232*
Y628*
X3172*
Y683*
X3186*
X3235Y745D02*
X3175D01*
Y800*
X3235*
Y745*
X3267Y683D02*
Y688D01*
X3250*
Y742*
X3310*
Y688*
X3294*
Y683*
X3307*
Y628*
X3247*
Y683*
X3267*
X3271Y1271D02*
G75*
G02Y1369J49D01*
G01*
G75*
G02Y1271J-49*
G01*
Y1371D02*
G75*
G02Y1469J49D01*
G01*
G75*
G02Y1371J-49*
G01*
X3310Y745D02*
X3250D01*
Y800*
X3310*
Y745*
X3342Y683D02*
Y688D01*
X3325*
Y742*
X3385*
Y688*
X3369*
Y683*
X3387*
Y628*
X3327*
Y683*
X3342*
X3371Y1221D02*
G75*
G02Y1319J49D01*
G01*
G75*
G02Y1221J-49*
G01*
Y1321D02*
G75*
G02Y1419J49D01*
G01*
G75*
G02Y1321J-49*
G01*
Y1421D02*
G75*
G02Y1519J49D01*
G01*
G75*
G02Y1421J-49*
G01*
X3385Y745D02*
X3325D01*
Y800*
X3385*
Y745*
X3492Y716D02*
X3742Y967D01*
G75*
G02X3781Y1028I39J18*
G01*
G75*
G02Y942J-43*
G01*
G75*
G02X3763Y946J43*
G01*
X3510Y692*
Y656*
X3456*
Y716*
X3492*
X3501Y877D02*
G75*
G02Y1005J64D01*
G01*
G75*
G02Y877J-64*
G01*
Y1512D02*
G75*
G02Y1639J64D01*
G01*
G75*
G02Y1512J-64*
G01*
X3510Y593D02*
Y576D01*
X3456*
Y636*
X3510*
Y620*
X3531*
X3863Y951*
Y1307*
X3801Y1369*
G75*
G02X3781Y1364I-19J38*
G01*
G75*
G02Y1450J43*
G01*
G75*
G02X3820Y1388J-43*
G01*
X3886Y1322*
G75*
G02X3890Y1312I-10J-10*
G01*
Y945*
G75*
G02X3886Y936I-14J0*
G01*
X3547Y597*
G75*
G02X3537Y593I-10J10*
G01*
X3510*
X3621Y943D02*
G75*
G02Y1099J78D01*
G01*
G75*
G02Y943J-78*
G01*
Y1417D02*
G75*
G02Y1574J78D01*
G01*
G75*
G02Y1417J-78*
G01*
X3781Y1042D02*
G75*
G02Y1128J43D01*
G01*
G75*
G02Y1042J-43*
G01*
Y1464D02*
G75*
G02Y1550J43D01*
G01*
G75*
G02Y1464J-43*
G01*
X116Y1121D02*
G36*
Y1047D01*
X124*
Y1103*
X130*
Y1121*
X116*
G37*
X130D02*
G36*
Y1155D01*
X190*
Y1143*
X205*
Y1155*
X265*
Y1146*
X309*
X320Y1157*
G75*
G02X331Y1161I11J-11*
G01*
X352*
G75*
G02X412Y1156I29J-16*
G01*
X446*
G75*
G02X457Y1152I0J-16*
G01*
X483Y1126*
X510*
Y1140*
X570*
Y1126*
X594*
X616Y1148*
G75*
G02X620Y1151I11J-11*
G01*
Y1162*
X632*
X622Y1171*
G75*
G02X650Y1200I14J14*
G01*
X689Y1162*
X702*
Y1149*
G75*
G02Y1123I-15J-13*
G01*
Y1121*
X1007*
X1012Y1126*
Y1275*
G75*
G02X1016Y1285I14*
G01*
X1113Y1383*
X1026*
X860Y1217*
G75*
G02X851Y1213I-9J9*
G01*
X561*
G75*
G02X552Y1217J13*
G01*
X498Y1271*
X487*
Y1265*
X446*
Y1344*
X368*
Y1390*
X330*
X285Y1345*
Y1265*
G75*
G02X281Y1256I-14J0*
G01*
X241Y1216*
G75*
G02X231Y1212I-10J10*
G01*
X193*
Y1187*
X116*
Y1264*
X136*
G75*
G02X116Y1282I19J40*
G01*
Y1121*
X130*
G37*
X702D02*
G36*
Y1111D01*
X671*
Y1123*
X651Y1143*
Y1141*
G75*
G02Y1132I-15J-4*
G01*
Y1111*
X624*
X612Y1099*
G75*
G02X601Y1094I-11J11*
G01*
X570*
Y1085*
X510*
Y1094*
X476*
G75*
G02X465Y1099I0J16*
G01*
X439Y1124*
X407*
G75*
G02X352Y1129I-26J21*
G01*
X338*
X327Y1119*
G75*
G02X316Y1114I-11J11*
G01*
X265*
Y1103*
X271*
Y1047*
X348*
G75*
G02X381Y1078I33J-2*
G01*
G75*
G02X412Y1056J-33*
G01*
X464*
X475Y1067*
G75*
G02X486Y1071I11J-11*
G01*
X510*
Y1082*
X570*
Y1066*
X620*
Y1075*
X640*
Y1081*
X682*
Y1075*
X702*
Y1047*
X933*
X1007Y1121*
X702*
G37*
X3314D02*
G36*
G75*
G02X3296Y1085I-43J-1D01*
G01*
X3331*
G75*
G02X3371Y1113I40J-15*
G01*
G75*
G02X3407Y1047J-43*
G01*
X3547*
G75*
G02X3621Y1099I74J-26*
G01*
G75*
G02X3695Y1047J-78*
G01*
X3760*
G75*
G02X3758Y1121I21J38*
G01*
X3314*
G37*
X3758D02*
G36*
G75*
G02X3781Y1128I23J-36D01*
G01*
G75*
G02X3804Y1121J-43*
G01*
X3863*
Y1270*
X3420*
G75*
G02X3371Y1221I-49*
G01*
G75*
G02X3322Y1270J49*
G01*
X2717*
Y1225*
G75*
G02X2712Y1214I-16J0*
G01*
X2706Y1208*
G75*
G02X2665Y1206I-21J10*
G01*
X2633*
Y1186*
X2656*
G75*
G02X2663Y1184J-14*
G01*
X2813*
G75*
G02X2820Y1157I3J-14*
G01*
G75*
G02X2824Y1139I-9J-11*
G01*
X3115*
X3206Y1230*
G75*
G02X3216Y1234I10J-10*
G01*
X3230*
G75*
G02X3271Y1263I41J-14*
G01*
G75*
G02X3292Y1183J-43*
G01*
X3330*
G75*
G02X3371Y1213I41J-13*
G01*
G75*
G02Y1127J-43*
G01*
G75*
G02X3330Y1158J43*
G01*
X3292*
G75*
G02X3314Y1121I-21J-38*
G01*
X3758*
G37*
X3804D02*
G36*
G75*
G02X3802Y1047I-23J-36D01*
G01*
X3863*
Y1121*
X3804*
G37*
X3890D02*
G36*
Y1047D01*
X3906*
Y1121*
X3890*
G37*
X3906D02*
G36*
Y1270D01*
X3890*
Y1121*
X3906*
G37*
X116Y731D02*
G36*
Y590D01*
X181Y525*
X1732*
G75*
G02X1761I15*
G01*
X3771*
X3906Y660*
Y662*
X3611*
X3547Y597*
G75*
G02X3537Y593I-10J10*
G01*
X3510*
Y576*
X3456*
Y636*
X3510*
Y620*
X3531*
X3573Y662*
X3510*
Y656*
X3456*
Y662*
X3453*
Y656*
X3447*
Y636*
X3453*
Y576*
X3399*
Y577*
X3387*
Y571*
X3327*
Y577*
X3307*
Y571*
X3247*
Y577*
X3232*
Y571*
X3172*
Y577*
X3157*
Y571*
X3097*
Y577*
X3082*
Y571*
X3022*
Y577*
X3007*
Y571*
X2947*
Y582*
X2918*
G75*
G02X2907Y587I0J16*
G01*
X2835Y659*
G75*
G02X2830Y670I11J11*
G01*
Y864*
X2799Y895*
G75*
G02X2781Y915I2J20*
G01*
G75*
G02X2821Y918I21*
G01*
X2857Y882*
G75*
G02X2862Y870I-11J-11*
G01*
Y772*
X2945*
Y800*
X3005*
Y772*
X3020*
Y800*
X3080*
Y772*
X3100*
Y800*
X3160*
Y772*
X3175*
Y800*
X3235*
Y772*
X3250*
Y800*
X3310*
Y772*
X3325*
Y800*
X3385*
Y772*
X3410*
Y784*
X3329Y864*
X3295*
Y856*
X3244*
Y850*
X3178*
Y922*
X3244*
Y916*
X3255*
Y945*
X3185*
Y938*
X3125*
Y945*
X3100*
Y938*
X3084*
Y916*
X3110*
Y922*
X3176*
Y850*
X3110*
Y856*
X3059*
Y895*
G75*
G02X3057Y902I11J7*
G01*
Y938*
X3040*
Y945*
X2524*
Y920*
X2536*
Y875*
X2571Y840*
X2696*
X2726Y810*
Y745*
X2706Y725*
X2696*
Y697*
X2624*
Y725*
X2613*
Y658*
X2576*
Y595*
X2546Y565*
X2441*
Y537*
X2369*
Y587*
X2346Y610*
Y750*
X2356Y760*
Y829*
X2406*
Y918*
X2367*
G75*
G02X2363Y910I-14J3*
G01*
X2360Y908*
Y884*
G75*
G02X2361Y880I-14J-3*
G01*
G75*
G02X2332I-15*
G01*
G75*
G02X2332Y884I14*
G01*
Y912*
X2325*
G75*
G02X2325Y910I-14J-1*
G01*
Y904*
G75*
G02X2305Y887I-14J-3*
G01*
Y884*
G75*
G02X2280Y871I-14J-3*
G01*
X2247Y838*
Y784*
G75*
G02X2252Y709I-15J-38*
G01*
G75*
G02X2279Y667I-20J-43*
G01*
G75*
G02X2193Y641I-47*
G01*
G75*
G02X2114I-39J26*
G01*
G75*
G02X2028Y667I-39J26*
G01*
G75*
G02X2055Y709I47*
G01*
G75*
G02X2091Y783I20J36*
G01*
X2225Y918*
X2198*
Y988*
X2071Y861*
G75*
G02X2056Y854I-15J15*
G01*
X1986*
G75*
G02X1966Y870J21*
G01*
G75*
G02X1965Y888I20J10*
G01*
X1960*
Y942*
X2020*
Y896*
X2047*
X2230Y1079*
Y1152*
X2186Y1196*
G75*
G02X2180Y1210I15J15*
G01*
Y1262*
X2172Y1270*
G75*
G02X2167Y1273I9J21*
G01*
Y1171*
X2176*
G75*
G02X2190Y1159J-14*
G01*
G75*
G02X2168Y1143I-14J-4*
G01*
X2167*
Y1033*
X2091*
Y1048*
X2009*
Y1000*
X2020*
Y945*
X1960*
Y1000*
X1984*
Y1048*
X1934*
X1841Y955*
G75*
G02X1831Y951I-10J10*
G01*
X1597*
G75*
G02X1587Y955J14*
G01*
X1577Y965*
Y914*
X1632Y859*
X1751*
G75*
G02X1761Y855J-14*
G01*
X1836Y780*
G75*
G02X1840Y770I-10J-10*
G01*
Y690*
G75*
G02X1836Y680I-14*
G01*
X1821Y665*
G75*
G02X1813Y661I-10J10*
G01*
G75*
G02X1733Y655I-41J5*
G01*
G75*
G02X1700Y626I-39J11*
G01*
Y625*
G75*
G02X1696Y615I-14*
G01*
X1686Y605*
G75*
G02X1676Y601I-10J10*
G01*
X1556*
G75*
G02X1546Y605J14*
G01*
X1520Y632*
G75*
G02X1515Y642I10J10*
G01*
Y662*
X1456*
G75*
G02X1379I-38J4*
G01*
X1377*
G75*
G02X1302Y652I-38J4*
G01*
G75*
G02X1217I-43J13*
G01*
G75*
G02X1143Y662I-36J13*
G01*
X1141*
G75*
G02X1064I-38J4*
G01*
X1062*
Y627*
X985*
Y662*
X940*
X875Y597*
G75*
G02X866Y593I-9J9*
G01*
X706*
G75*
G02X697Y597J13*
G01*
X667Y627*
G75*
G02X665Y629I9J9*
G01*
G75*
G02X647Y662I21J32*
G01*
X646*
G75*
G02X569I-39*
G01*
X567*
G75*
G02X491Y651I-39*
G01*
X491*
G75*
G02X481Y655J14*
G01*
X461Y675*
G75*
G02X457Y685I10J10*
G01*
Y731*
X412*
G75*
G02X335I-39*
G01*
X318*
G75*
G02X229I-44*
G01*
X116*
G37*
X229D02*
G36*
G75*
G02X258Y772I44D01*
G01*
X116*
Y731*
X229*
G37*
X335D02*
G36*
G75*
G02X412I39D01*
G01*
X457*
Y772*
X289*
G75*
G02X318Y731I-15J-42*
G01*
X335*
G37*
X1362D02*
G36*
Y696D01*
G75*
G02X1377Y665I-24J-30*
G01*
G75*
G02X1377Y662I-39J0*
G01*
X1379*
G75*
G02X1379Y665I38J4*
G01*
G75*
G02X1395Y697I39*
G01*
Y731*
X1362*
G37*
X1395D02*
G36*
Y739D01*
X1384*
Y772*
X1381*
Y739*
X1362*
Y731*
X1395*
G37*
X1427D02*
G36*
Y703D01*
G75*
G02X1456Y665I-10J-37*
G01*
G75*
G02X1456Y662I-39J0*
G01*
X1515*
Y731*
X1427*
G37*
X1515D02*
G36*
Y756D01*
X1499Y772*
X1438*
Y739*
X1427*
Y731*
X1515*
G37*
X2862D02*
G36*
Y677D01*
X2877Y662*
X2947*
Y683*
X2962*
Y688*
X2945*
Y731*
X2862*
G37*
X2945D02*
G36*
Y742D01*
X3005*
Y731*
X3020*
Y742*
X3080*
Y731*
X3100*
Y742*
X3160*
Y731*
X3175*
Y742*
X3235*
Y731*
X3250*
Y742*
X3310*
Y731*
X3325*
Y742*
X3385*
Y731*
X3410*
Y772*
X3385*
Y745*
X3325*
Y772*
X3310*
Y745*
X3250*
Y772*
X3235*
Y745*
X3175*
Y772*
X3160*
Y745*
X3100*
Y772*
X3080*
Y745*
X3020*
Y772*
X3005*
Y745*
X2945*
Y772*
X2862*
Y731*
X2945*
G37*
X3005D02*
G36*
Y688D01*
X2989*
Y683*
X3007*
Y662*
X3022*
Y683*
X3037*
Y688*
X3020*
Y731*
X3005*
G37*
X3080D02*
G36*
Y688D01*
X3064*
Y683*
X3082*
Y662*
X3097*
Y683*
X3117*
Y688*
X3100*
Y731*
X3080*
G37*
X3160D02*
G36*
Y688D01*
X3144*
Y683*
X3157*
Y662*
X3172*
Y683*
X3186*
Y688*
X3175*
Y731*
X3160*
G37*
X3235D02*
G36*
Y688D01*
X3216*
Y683*
X3232*
Y662*
X3247*
Y683*
X3267*
Y688*
X3250*
Y731*
X3235*
G37*
X3310D02*
G36*
Y688D01*
X3294*
Y683*
X3307*
Y662*
X3327*
Y683*
X3342*
Y688*
X3325*
Y731*
X3310*
G37*
X3385D02*
G36*
Y688D01*
X3369*
Y683*
X3387*
Y662*
X3399*
Y716*
X3410*
Y731*
X3385*
G37*
X3442D02*
G36*
Y716D01*
X3453*
Y662*
X3456*
Y716*
X3492*
X3506Y731*
X3442*
G37*
X3506D02*
G36*
X3548Y772D01*
X3442*
Y731*
X3506*
G37*
X3548D02*
G36*
X3510Y692D01*
Y662*
X3573*
X3642Y731*
X3548*
G37*
X3642D02*
G36*
X3684Y772D01*
X3590*
X3548Y731*
X3642*
G37*
X3680D02*
G36*
X3611Y662D01*
X3906*
Y731*
X3680*
G37*
X3906D02*
G36*
Y772D01*
X3722*
X3680Y731*
X3906*
G37*
X116Y2024D02*
G36*
Y1798D01*
G75*
G02X155Y1821I39J-22*
G01*
G75*
G02X168Y1734J-44*
G01*
G75*
G02X192Y1709I-13J-36*
G01*
X206*
G75*
G02X216Y1705I0J-14*
G01*
X366Y1555*
X368*
Y1568*
G75*
G02X365Y1570I9J12*
G01*
X365Y1570*
G75*
G02X366Y1600I1J15*
G01*
X371*
G75*
G02X382Y1596I0J-15*
G01*
X382Y1595*
X407*
G75*
G02X411Y1595J-15*
G01*
X442*
Y1581*
X448*
Y1501*
X442*
Y1444*
X448*
Y1345*
X471*
Y1345*
G75*
G02X475Y1356I15J0*
G01*
X478Y1358*
G75*
G02X478Y1360I18J2*
G01*
G75*
G02X486Y1376I19*
G01*
X479*
Y1569*
X671*
Y1376*
X506*
G75*
G02X508Y1346I-10J-16*
G01*
G75*
G02X507Y1345I-12J9*
G01*
X625*
Y1339*
X698*
Y1299*
X719Y1278*
G75*
G02X721Y1254I-7J-12*
G01*
X835*
X1006Y1425*
G75*
G02X1016Y1429I10J-10*
G01*
X1196*
Y1462*
G75*
G02X1188Y1465I1J12*
G01*
X1171Y1483*
X941*
X901Y1443*
X959*
G75*
G02X981Y1430I7J-13*
G01*
G75*
G02X959Y1418I-15*
G01*
X958*
G75*
G02X940Y1397I-12J-8*
G01*
G75*
G02X934Y1383I-14J-2*
G01*
X906Y1355*
G75*
G02X896Y1351I-10J10*
G01*
X776*
Y1350*
X708*
Y1422*
X702*
Y1443*
G75*
G02X685Y1475I-6J17*
G01*
G75*
G02X702Y1508I11J15*
G01*
Y1522*
X708*
Y1586*
X673*
G75*
G02X663Y1590J14*
G01*
X653Y1600*
G75*
G02X650Y1606I10J10*
G01*
X585*
Y1600*
X486*
Y1606*
X452*
Y1628*
G75*
G02X428Y1645I-6J17*
G01*
G75*
G02X452Y1663I19*
G01*
Y1674*
X466*
Y1705*
X411Y1760*
X371*
X346Y1785*
X298*
Y1857*
X336*
Y1875*
X386Y1925*
X611*
X656Y1880*
Y1874*
X701*
Y1774*
X595*
X511Y1690*
Y1680*
X585*
Y1674*
X614*
Y1720*
G75*
G02X617Y1729I13*
G01*
X635Y1747*
G75*
G02X644Y1751I9J-9*
G01*
X893*
X663Y1980*
X600*
Y2024*
X530*
Y1980*
X434*
Y2014*
X430*
G75*
G02X418Y2012I-9J16*
G01*
Y1999*
X367*
Y1993*
X301*
Y2024*
X116*
G37*
X301D02*
G36*
Y2066D01*
X367*
Y2060*
X418*
Y2049*
G75*
G02X430Y2046I3J-18*
G01*
X434*
Y2068*
X530*
Y2024*
X600*
Y2068*
X695*
Y1984*
X736Y1943*
G75*
G02X734Y1950I10J7*
G01*
Y2095*
G75*
G02X737Y2104I13*
G01*
X797Y2164*
G75*
G02X806Y2168I9J-9*
G01*
X851*
G75*
G02X860Y2164J-13*
G01*
X898Y2126*
G75*
G02X951Y2090I14J-36*
G01*
X952*
G75*
G02X1029I39*
G01*
X1031*
G75*
G02X1108I39*
G01*
X1110*
G75*
G02X1187I39*
G01*
X1426*
X1436Y2100*
X1681*
X1691Y2090*
X1722*
Y2141*
X1814*
Y2090*
X1871*
Y2141*
X1963*
Y2090*
X2143*
Y2125*
X2220*
Y2090*
X2221*
G75*
G02X2298I38J-4*
G01*
X2300*
G75*
G02X2377I38J-4*
G01*
X2379*
G75*
G02X2456I38J-4*
G01*
X2458*
G75*
G02X2534Y2087I38J-4*
G01*
G75*
G02X2508Y2050I-39*
G01*
Y2047*
G75*
G02X2505Y2038I-13*
G01*
X2504Y2037*
Y2000*
G75*
G02X2503Y1997I-13J0*
G01*
X2547Y2041*
Y2060*
G75*
G02X2536Y2087I28J27*
G01*
G75*
G02X2613Y2090I39*
G01*
X2615*
G75*
G02X2692I38J-4*
G01*
X2694*
G75*
G02X2771I38J-4*
G01*
X3541*
X3461Y2170*
X256*
X116Y2030*
Y2024*
X301*
G37*
X949D02*
G36*
G75*
G02X951Y2012I-36J-13D01*
G01*
G75*
G02X925Y1975I-39*
G01*
Y1921*
X997Y1849*
X1401*
G75*
G02X1411Y1845J-14*
G01*
X1472Y1784*
X1481*
G75*
G02X1491Y1780J-14*
G01*
X1506Y1765*
G75*
G02X1510Y1755I-10J-10*
G01*
Y1737*
X1511*
Y1775*
X1476Y1810*
X1451*
X1376Y1885*
X1256*
X1221Y1920*
Y1960*
X1236Y1975*
Y2024*
X1185*
G75*
G02X1187Y2012I-36J-13*
G01*
G75*
G02X1110I-39*
G01*
G75*
G02X1112Y2024I38*
G01*
X1106*
G75*
G02X1108Y2012I-36J-13*
G01*
G75*
G02X1031I-39*
G01*
G75*
G02X1033Y2024I38*
G01*
X1027*
G75*
G02X1029Y2012I-36J-13*
G01*
G75*
G02X952I-39*
G01*
G75*
G02X955Y2024I38*
G01*
X949*
G37*
X955D02*
G36*
G75*
G02X1027I36J-13D01*
G01*
X1033*
G75*
G02X1106I36J-13*
G01*
X1112*
G75*
G02X1185I36J-13*
G01*
X1236*
Y2034*
X1308*
Y2007*
X1328Y2027*
Y2072*
X1408*
X1426Y2090*
X1187*
G75*
G02X1110I-39*
G01*
X1108*
G75*
G02X1031I-39*
G01*
X1029*
G75*
G02X952I-39*
G01*
X951*
G75*
G02X874I-39*
G01*
G75*
G02X879Y2110I39J0*
G01*
X872Y2117*
Y2052*
X795*
Y2081*
X792*
X780Y2070*
Y1966*
X932Y1814*
X959*
X827Y1947*
G75*
G02X824Y1955I9J9*
G01*
Y1974*
G75*
G02X795Y2012I10J37*
G01*
G75*
G02X872I39*
G01*
G75*
G02X849Y1976I-39*
G01*
Y1961*
X897Y1912*
G75*
G02X897Y1915I14J4*
G01*
Y1976*
G75*
G02X874Y2012I15J35*
G01*
G75*
G02X949Y2024I39*
G01*
X955*
G37*
X116Y945D02*
G36*
Y772D01*
X258*
G75*
G02X289I15J-42*
G01*
X457*
Y775*
G75*
G02X461Y785I14*
G01*
X616Y940*
G75*
G02X626Y944I10J-10*
G01*
X830*
X831Y945*
X420*
G75*
G02X381Y906I-39*
G01*
G75*
G02X342Y945J39*
G01*
X116*
G37*
X342D02*
G36*
G75*
G02X381Y984I39D01*
G01*
G75*
G02X420Y945J-39*
G01*
X831*
X933Y1047*
X702*
Y1024*
X682*
Y1018*
X640*
Y1024*
X620*
Y1034*
X570*
Y1028*
X510*
Y1039*
X492*
X482Y1029*
G75*
G02X471Y1024I-11J11*
G01*
X407*
G75*
G02X381Y1012I-26J21*
G01*
G75*
G02X348Y1047J33*
G01*
X271*
Y1037*
X199*
Y1103*
X205*
Y1111*
X190*
Y1103*
X196*
Y1037*
X124*
Y1047*
X116*
Y945*
X342*
G37*
X3040D02*
G36*
Y989D01*
X2874*
Y953*
X2808*
Y959*
X2757*
Y975*
X2740*
Y958*
X2680*
Y989*
X2524*
Y945*
X3040*
G37*
X3255D02*
G36*
Y981D01*
G75*
G02X3241Y989I16J40*
G01*
X3185*
Y945*
X3255*
G37*
X3287D02*
G36*
Y916D01*
X3295*
Y896*
X3336*
G75*
G02X3347Y892I0J-16*
G01*
X3437Y802*
G75*
G02X3442Y791I-11J-11*
G01*
Y772*
X3548*
X3720Y945*
X3642*
G75*
G02X3621Y943I-21J76*
G01*
G75*
G02X3600Y945J78*
G01*
X3565*
G75*
G02X3501Y877I-64J-4*
G01*
G75*
G02X3437Y945J64*
G01*
X3287*
G37*
X3437D02*
G36*
G75*
G02X3459Y989I64J-4D01*
G01*
X3301*
G75*
G02X3287Y981I-30J31*
G01*
Y945*
X3437*
G37*
X3600D02*
G36*
G75*
G02X3549Y989I21J76D01*
G01*
X3542*
G75*
G02X3565Y945I-41J-48*
G01*
X3600*
G37*
X3720D02*
G36*
X3742Y967D01*
G75*
G02X3739Y989I39J18*
G01*
X3693*
G75*
G02X3642Y945I-72J32*
G01*
X3720*
G37*
X3798D02*
G36*
G75*
G02X3781Y942I-17J40D01*
G01*
G75*
G02X3763Y946J43*
G01*
X3590Y772*
X3684*
X3857Y945*
X3798*
G37*
X3857D02*
G36*
X3863Y951D01*
Y989*
X3824*
G75*
G02X3798Y945I-43J-4*
G01*
X3857*
G37*
X3890D02*
G36*
G75*
G02X3886Y936I-14J0D01*
G01*
X3722Y772*
X3906*
Y945*
X3890*
G37*
X3906D02*
G36*
Y989D01*
X3890*
Y945*
X3906*
G37*
X3407Y1047D02*
G36*
G75*
G02X3371Y1027I-36J23D01*
G01*
G75*
G02X3331Y1055J43*
G01*
X3296*
G75*
G02X3301Y989I-25J-35*
G01*
X3459*
G75*
G02X3501Y1005I41J-48*
G01*
G75*
G02X3542Y989J-64*
G01*
X3549*
G75*
G02X3547Y1047I72J32*
G01*
X3407*
G37*
X3695D02*
G36*
G75*
G02X3693Y989I-74J-26D01*
G01*
X3739*
G75*
G02X3781Y1028I43J-4*
G01*
G75*
G02X3824Y989J-43*
G01*
X3863*
Y1047*
X3802*
G75*
G02X3781Y1042I-21J38*
G01*
G75*
G02X3760Y1047J43*
G01*
X3695*
G37*
X3890D02*
G36*
Y989D01*
X3906*
Y1047*
X3890*
G37*
X569Y662D02*
G36*
G75*
G02X646I39D01*
G01*
X647*
G75*
G02X724I39*
G01*
X726*
G75*
G02X803I39*
G01*
X805*
G75*
G02X881Y668I39*
G01*
X914Y701*
Y830*
G75*
G02X915Y837I12J0*
G01*
X910Y832*
X904Y825*
Y788*
G75*
G02X900Y779I-13*
G01*
X878Y757*
G75*
G02X882Y740I-35J-17*
G01*
G75*
G02X805I-39*
G01*
G75*
G02X860Y775I39*
G01*
X879Y793*
Y830*
G75*
G02X879Y832I12J0*
G01*
G75*
G02X876Y831I-3J14*
G01*
X822*
X780Y790*
Y776*
G75*
G02X803Y740I-15J-35*
G01*
G75*
G02X726I-39*
G01*
G75*
G02X752Y777I39*
G01*
Y795*
G75*
G02X756Y805I14*
G01*
X806Y855*
G75*
G02X807Y856I10J-10*
G01*
X767*
X700Y790*
Y776*
G75*
G02X724Y740I-14J-36*
G01*
G75*
G02X647I-39*
G01*
G75*
G02X672Y776I39*
G01*
Y795*
G75*
G02X676Y805I14*
G01*
X747Y876*
X732*
X628Y773*
G75*
G02X646Y740I-21J-32*
G01*
G75*
G02X569I-39*
G01*
G75*
G02X597Y778I39*
G01*
G75*
G02X601Y785I14J-2*
G01*
X712Y896*
X662*
X544Y779*
X567*
Y702*
X490*
Y774*
X485Y770*
Y691*
X495Y681*
G75*
G02X567Y662I33J-19*
G01*
X569*
G37*
X724D02*
G36*
G75*
G02X702Y627I-38D01*
G01*
X711Y618*
X861*
X886Y643*
X877*
G75*
G02X805Y662I-34J19*
G01*
X803*
G75*
G02X726I-39*
G01*
X724*
G37*
X985D02*
G36*
Y704D01*
X1062*
Y662*
X1064*
G75*
G02X1064Y665I38J4*
G01*
G75*
G02X1141I39*
G01*
G75*
G02X1141Y662I-39J0*
G01*
X1143*
G75*
G02X1143Y665I38J4*
G01*
G75*
G02X1217Y678I39*
G01*
G75*
G02X1302I43J-13*
G01*
G75*
G02X1330Y703I36J-13*
G01*
Y739*
X1327*
Y800*
X1335*
Y839*
X1309Y864*
G75*
G02X1305Y876I11J11*
G01*
Y959*
X1268Y922*
G75*
G02X1259Y918I-9J9*
G01*
X1061*
X959Y815*
Y685*
G75*
G02X955Y677I-13*
G01*
X940Y662*
X985*
G37*
X2877D02*
G36*
X2925Y614D01*
X2947*
Y626*
X3007*
Y619*
X3022*
Y626*
X3082*
Y619*
X3097*
Y626*
X3157*
Y619*
X3172*
Y626*
X3232*
Y619*
X3247*
Y626*
X3307*
Y619*
X3327*
Y626*
X3387*
Y619*
X3399*
Y636*
X3405*
Y656*
X3399*
Y662*
X3387*
Y628*
X3327*
Y662*
X3307*
Y628*
X3247*
Y662*
X3232*
Y628*
X3172*
Y662*
X3157*
Y628*
X3097*
Y662*
X3082*
Y628*
X3022*
Y662*
X3007*
Y628*
X2947*
Y662*
X2877*
G37*
X1691Y2090D02*
G36*
X1716Y2065D01*
Y2030*
X1686Y2001*
Y1942*
X1614*
Y1980*
X1586*
X1584Y1978*
X1601*
Y1902*
X1560*
X1583Y1879*
Y1887*
X1623*
X1651Y1915*
X1676*
X1711Y1950*
Y1985*
X1771Y2045*
X2031*
X2106Y1970*
Y1885*
X2071Y1851*
Y1802*
X1999*
Y1830*
X1901*
X1796Y1725*
Y1715*
X1794*
Y1668*
G75*
G02X1796Y1668I2J-12*
G01*
X2106*
X2324Y1886*
Y2051*
G75*
G02X2300Y2087I15J35*
G01*
G75*
G02X2300Y2090I39J0*
G01*
X2298*
G75*
G02X2298Y2087I-38J-4*
G01*
G75*
G02X2221I-39*
G01*
G75*
G02X2221Y2090I39J0*
G01*
X2220*
Y2048*
X2143*
Y2090*
X1963*
Y2073*
X1871*
Y2090*
X1814*
Y2073*
X1722*
Y2090*
X1691*
G37*
X2377D02*
G36*
G75*
G02X2377Y2087I-38J-4D01*
G01*
G75*
G02X2349Y2049I-39*
G01*
Y1880*
G75*
G02X2346Y1873I-13*
G01*
X2479Y2006*
Y2042*
G75*
G02X2482Y2051I13*
G01*
X2482Y2051*
G75*
G02X2457Y2087I14J36*
G01*
G75*
G02X2458Y2090I39J0*
G01*
X2456*
G75*
G02X2456Y2087I-38J-4*
G01*
G75*
G02X2379I-39*
G01*
G75*
G02X2379Y2090I39J0*
G01*
X2377*
G37*
X2613D02*
G36*
G75*
G02X2613Y2087I-38J-4D01*
G01*
G75*
G02X2575Y2048I-39*
G01*
Y2035*
G75*
G02X2571Y2025I-14*
G01*
X2146Y1600*
G75*
G02X2136Y1596I-10J10*
G01*
X1878*
Y1575*
X3437*
G75*
G02X3501Y1639I64*
G01*
G75*
G02X3565Y1575J-64*
G01*
X3906*
Y1725*
X3541Y2090*
X2771*
G75*
G02X2771Y2087I-38J-4*
G01*
G75*
G02X2694I-39*
G01*
G75*
G02X2694Y2090I39J0*
G01*
X2692*
G75*
G02X2692Y2087I-38J-4*
G01*
G75*
G02X2615I-39*
G01*
G75*
G02X2615Y2090I39J0*
G01*
X2613*
G37*
X181Y525D02*
G36*
X211Y495D01*
X3741*
X3771Y525*
X1761*
G75*
G02X1732I-15*
G01*
X181*
G37*
X2680Y989D02*
G36*
Y1012D01*
X2740*
Y1005*
X2757*
Y1020*
X2808*
Y1026*
X2874*
Y989*
X3040*
Y992*
X3100*
Y975*
X3125*
Y992*
X3185*
Y989*
X3241*
G75*
G02X3246Y1055I30J31*
G01*
X3182*
X3176Y1050*
X3185*
Y995*
X3125*
Y1050*
X3141*
Y1050*
G75*
G02X3145Y1061I15J0*
G01*
X3161Y1077*
X3092*
X3080Y1065*
Y1050*
X3100*
Y995*
X3040*
Y1050*
X3053*
Y1070*
G75*
G02X3056Y1080I14J0*
G01*
X3073Y1097*
X2633*
Y1089*
G75*
G02X2659Y1060I8J-19*
G01*
X2680*
Y1070*
X2740*
Y1015*
X2680*
Y1032*
X2589*
G75*
G02X2585Y1033J14*
G01*
X2551*
Y1074*
X2545*
Y1113*
X2551*
Y1127*
G75*
G02X2542Y1131I1J13*
G01*
X2531Y1142*
G75*
G02X2528Y1151I10J10*
G01*
Y1154*
X2514Y1141*
G75*
G02X2494Y1127I-18J5*
G01*
G75*
G02X2478Y1106I-13J-7*
G01*
X2471*
G75*
G02X2465Y1081I-10J-11*
G01*
X2457Y1074*
G75*
G02X2455Y1046I-6J-13*
G01*
X2432Y1023*
G75*
G02X2454Y1000I4J-18*
G01*
X2483*
Y994*
X2524*
Y989*
X2680*
G37*
X1384Y772D02*
G36*
Y800D01*
X1438*
Y772*
X1499*
X1441Y830*
G75*
G02X1437Y840I10J10*
G01*
Y857*
G75*
G02X1417Y874I-6J13*
G01*
Y887*
G75*
G02X1397Y904I-6J13*
G01*
Y907*
G75*
G02X1379Y913I-6J13*
G01*
X1337Y955*
Y882*
X1362Y857*
G75*
G02X1367Y845I-11J-11*
G01*
Y800*
X1381*
Y772*
X1384*
G37*
X2716Y1320D02*
G36*
G75*
G02X2717Y1315I-15J-5D01*
G01*
Y1270*
X3322*
G75*
G02X3371Y1319I49*
G01*
G75*
G02X3420Y1270J-49*
G01*
X3863*
Y1307*
X3849Y1320*
X3320*
G75*
G02X3271Y1271I-49*
G01*
G75*
G02X3222Y1320J49*
G01*
X2716*
G37*
X3222D02*
G36*
G75*
G02X3271Y1369I49D01*
G01*
G75*
G02X3320Y1320J-49*
G01*
X3849*
X3801Y1369*
G75*
G02X3781Y1364I-19J38*
G01*
G75*
G02X3759Y1370J43*
G01*
X3420*
G75*
G02X3371Y1321I-49*
G01*
G75*
G02X3322Y1370J49*
G01*
X2671*
G75*
G02X2686Y1353I-5J-20*
G01*
X2712Y1327*
G75*
G02X2716Y1320I-11J-11*
G01*
X3222*
G37*
X3887D02*
G36*
G75*
G02X3890Y1312I-11J-8D01*
G01*
Y1270*
X3906*
Y1320*
X3887*
G37*
X3906D02*
G36*
Y1370D01*
X3837*
X3886Y1322*
G75*
G02X3887Y1320I-10J-10*
G01*
X3906*
G37*
X2524Y1420D02*
G36*
Y1390D01*
X2523*
Y1350*
X2527Y1354*
G75*
G02X2536Y1358I9J-9*
G01*
X2551*
Y1359*
X2627*
Y1332*
X2646Y1350*
X2646Y1350*
G75*
G02X2671Y1370I21*
G01*
X3322*
G75*
G02X3371Y1419I49*
G01*
G75*
G02X3420Y1370J-49*
G01*
X3759*
G75*
G02X3740Y1420I22J37*
G01*
X3644*
G75*
G02X3621Y1417I-23J75*
G01*
G75*
G02X3598Y1420J78*
G01*
X3320*
G75*
G02X3271Y1371I-49*
G01*
G75*
G02X3222Y1420J49*
G01*
X2524*
G37*
X3222D02*
G36*
G75*
G02X3271Y1469I49D01*
G01*
G75*
G02X3320Y1420J-49*
G01*
X3598*
G75*
G02X3547Y1470I23J75*
G01*
X3420*
G75*
G02X3371Y1421I-49*
G01*
G75*
G02X3322Y1470J49*
G01*
X2372*
Y1466*
X2524*
Y1420*
X3222*
G37*
X3740D02*
G36*
G75*
G02X3781Y1450I41J-13D01*
G01*
G75*
G02X3822Y1420J-43*
G01*
X3906*
Y1470*
X3804*
G75*
G02X3781Y1464I-22J37*
G01*
G75*
G02X3759Y1470J43*
G01*
X3695*
G75*
G02X3644Y1420I-74J25*
G01*
X3740*
G37*
X3822D02*
G36*
G75*
G02X3820Y1388I-41J-13D01*
G01*
X3837Y1370*
X3906*
Y1420*
X3822*
G37*
X3322Y1470D02*
G36*
G75*
G02X3371Y1519I49D01*
G01*
G75*
G02X3420Y1470J-49*
G01*
X3547*
G75*
G02X3621Y1574I74J25*
G01*
G75*
G02X3695Y1470J-78*
G01*
X3759*
G75*
G02X3781Y1550I22J37*
G01*
G75*
G02X3804Y1470J-43*
G01*
X3906*
Y1575*
X3565*
G75*
G02X3501Y1512I-64*
G01*
G75*
G02X3437Y1575J64*
G01*
X1878*
Y1554*
X1884*
Y1513*
X1878*
Y1508*
X2228Y1509*
G75*
G02X2238Y1505I0J-14*
G01*
X2253Y1490*
G75*
G02X2257Y1480I-10J-10*
G01*
Y1472*
X2306*
G75*
G02X2310Y1481I15J-2*
G01*
X2320Y1491*
G75*
G02X2331Y1495I11J-11*
G01*
X2340*
G75*
G02X2368Y1472I11J-15*
G01*
X2372*
Y1470*
X3322*
G37*
X168Y1347D02*
G75*
G02X174Y1264I-13J-43D01*
G01*
X193*
Y1239*
X225*
X258Y1271*
Y1350*
G75*
G02X261Y1360I14J0*
G01*
X315Y1413*
G75*
G02X324Y1417I10J-10*
G01*
X368*
Y1429*
X299*
X241Y1371*
G75*
G02X231Y1367I-10J10*
G01*
X190*
G75*
G02X168Y1347I-35J16*
G01*
G36*
G75*
G02X174Y1264I-13J-43*
G01*
X193*
Y1239*
X225*
X258Y1271*
Y1350*
G75*
G02X261Y1360I14J0*
G01*
X315Y1413*
G75*
G02X324Y1417I10J-10*
G01*
X368*
Y1429*
X299*
X241Y1371*
G75*
G02X231Y1367I-10J10*
G01*
X190*
G75*
G02X168Y1347I-35J16*
G01*
G37*
Y1419D02*
G75*
G02X192Y1394I-13J-36D01*
G01*
X225*
X284Y1452*
G75*
G02X293Y1456I10J-10*
G01*
X355*
G75*
G02X360Y1486I6J14*
G01*
X361Y1487*
X290*
G75*
G02X279Y1491I0J15*
G01*
X245Y1525*
X190*
G75*
G02X168Y1504I-35J15*
G01*
G75*
G02Y1419I-13J-43*
G01*
G36*
G75*
G02X192Y1394I-13J-36*
G01*
X225*
X284Y1452*
G75*
G02X293Y1456I10J-10*
G01*
X355*
G75*
G02X360Y1486I6J14*
G01*
X361Y1487*
X290*
G75*
G02X279Y1491I0J15*
G01*
X245Y1525*
X190*
G75*
G02X168Y1504I-35J15*
G01*
G75*
G02Y1419I-13J-43*
G01*
G37*
Y1577D02*
G75*
G02X190Y1555I-13J-36D01*
G01*
X251*
G75*
G02X262Y1551I0J-15*
G01*
X296Y1517*
X368*
Y1528*
X360*
G75*
G02X351Y1532I0J14*
G01*
X200Y1682*
X190*
G75*
G02X168Y1662I-35J16*
G01*
G75*
G02Y1577I-13J-43*
G01*
G36*
G75*
G02X190Y1555I-13J-36*
G01*
X251*
G75*
G02X262Y1551I0J-15*
G01*
X296Y1517*
X368*
Y1528*
X360*
G75*
G02X351Y1532I0J14*
G01*
X200Y1682*
X190*
G75*
G02X168Y1662I-35J16*
G01*
G75*
G02Y1577I-13J-43*
G01*
G37*
X660Y1674D02*
X698D01*
Y1648*
X811*
G75*
G02X820Y1644J-13*
G01*
X881Y1583*
X1114*
G75*
G02X1107Y1599I7J12*
G01*
Y1610*
G75*
G02X1111Y1620I14*
G01*
X1131Y1640*
G75*
G02X1141Y1644I10J-10*
G01*
X1196*
Y1646*
X1260*
X1202Y1704*
X665*
X660Y1700*
Y1674*
G36*
X698*
Y1648*
X811*
G75*
G02X820Y1644J-13*
G01*
X881Y1583*
X1114*
G75*
G02X1107Y1599I7J12*
G01*
Y1610*
G75*
G02X1111Y1620I14*
G01*
X1131Y1640*
G75*
G02X1141Y1644I10J-10*
G01*
X1196*
Y1646*
X1260*
X1202Y1704*
X665*
X660Y1700*
Y1674*
G37*
X776Y1463D02*
X782D01*
Y1438*
X861*
X927Y1504*
G75*
G02X936Y1508I9J-9*
G01*
X1176*
G75*
G02X1185Y1504J-13*
G01*
X1196Y1493*
Y1515*
G75*
G02X1172Y1525I-10J10*
G01*
G75*
G02X1180Y1539I15*
G01*
X866*
G75*
G02X856Y1543J14*
G01*
X812Y1586*
X799*
G75*
G02Y1574I-13J-6*
G01*
X803*
G75*
G02X819Y1554I3J-14*
G01*
G75*
G02X829Y1536I-4J-14*
G01*
G75*
G02X842Y1521I-2J-14*
G01*
G75*
G02X824Y1507I-15*
G01*
X782*
Y1481*
X776*
Y1463*
G36*
X782*
Y1438*
X861*
X927Y1504*
G75*
G02X936Y1508I9J-9*
G01*
X1176*
G75*
G02X1185Y1504J-13*
G01*
X1196Y1493*
Y1515*
G75*
G02X1172Y1525I-10J10*
G01*
G75*
G02X1180Y1539I15*
G01*
X866*
G75*
G02X856Y1543J14*
G01*
X812Y1586*
X799*
G75*
G02Y1574I-13J-6*
G01*
X803*
G75*
G02X819Y1554I3J-14*
G01*
G75*
G02X829Y1536I-4J-14*
G01*
G75*
G02X842Y1521I-2J-14*
G01*
G75*
G02X824Y1507I-15*
G01*
X782*
Y1481*
X776*
Y1463*
G37*
X1272Y1290D02*
G75*
G02X1293Y1298I14J-4D01*
G01*
X1306*
G75*
G02X1315Y1294J-13*
G01*
X1351Y1258*
X1746*
G75*
G02X1755Y1254J-13*
G01*
X1776Y1233*
X1790*
X1780Y1243*
G75*
G02X1768Y1260I6J18*
G01*
G75*
G02X1796Y1276I19*
G01*
Y1278*
X1802*
Y1336*
X1796*
Y1362*
X1791*
G75*
G02X1790Y1362I0J14*
G01*
G75*
G02X1767Y1380I-4J18*
G01*
G75*
G02X1802Y1389I19*
G01*
X1802*
Y1513*
X1796*
Y1539*
X1780*
G75*
G02X1753Y1558I-9J16*
G01*
X1722*
X1698Y1535*
G75*
G02X1688Y1531I-10J10*
G01*
X1381*
G75*
G02X1371Y1535J14*
G01*
X1272Y1634*
Y1526*
X1273*
G75*
G02X1295Y1508I10J-11*
G01*
X1297*
X1297*
G75*
G02X1312Y1493I0J-15*
G01*
G75*
G02X1292Y1480I-15*
G01*
X1272*
Y1470*
X1278*
G75*
G02X1294Y1450I3J-14*
G01*
G75*
G02X1285Y1440I-14J4*
G01*
X1287Y1439*
G75*
G02X1305Y1420I-1J-18*
G01*
G75*
G02X1272Y1408I-19*
G01*
Y1290*
G36*
G75*
G02X1293Y1298I14J-4*
G01*
X1306*
G75*
G02X1315Y1294J-13*
G01*
X1351Y1258*
X1746*
G75*
G02X1755Y1254J-13*
G01*
X1776Y1233*
X1790*
X1780Y1243*
G75*
G02X1768Y1260I6J18*
G01*
G75*
G02X1796Y1276I19*
G01*
Y1278*
X1802*
Y1336*
X1796*
Y1362*
X1791*
G75*
G02X1790Y1362I0J14*
G01*
G75*
G02X1767Y1380I-4J18*
G01*
G75*
G02X1802Y1389I19*
G01*
X1802*
Y1513*
X1796*
Y1539*
X1780*
G75*
G02X1753Y1558I-9J16*
G01*
X1722*
X1698Y1535*
G75*
G02X1688Y1531I-10J10*
G01*
X1381*
G75*
G02X1371Y1535J14*
G01*
X1272Y1634*
Y1526*
X1273*
G75*
G02X1295Y1508I10J-11*
G01*
X1297*
X1297*
G75*
G02X1312Y1493I0J-15*
G01*
G75*
G02X1292Y1480I-15*
G01*
X1272*
Y1470*
X1278*
G75*
G02X1294Y1450I3J-14*
G01*
G75*
G02X1285Y1440I-14J4*
G01*
X1287Y1439*
G75*
G02X1305Y1420I-1J-18*
G01*
G75*
G02X1272Y1408I-19*
G01*
Y1290*
G37*
X1339Y1164D02*
X1353D01*
G75*
G02X1381Y1148I9J-16*
G01*
G75*
G02X1366Y1130I-19*
G01*
X1556*
Y1136*
X1570*
G75*
G02X1583Y1167I21J9*
G01*
X1342*
X1339Y1164*
G36*
X1353*
G75*
G02X1381Y1148I9J-16*
G01*
G75*
G02X1366Y1130I-19*
G01*
X1556*
Y1136*
X1570*
G75*
G02X1583Y1167I21J9*
G01*
X1342*
X1339Y1164*
G37*
X1588Y1743D02*
X1597D01*
Y1737*
X1716*
Y1760*
X1681Y1795*
X1651*
X1631Y1815*
X1611*
Y1765*
X1588Y1743*
G36*
X1597*
Y1737*
X1716*
Y1760*
X1681Y1795*
X1651*
X1631Y1815*
X1611*
Y1765*
X1588Y1743*
G37*
X1878Y1376D02*
X1884D01*
Y1349*
X1980*
X1986Y1355*
G75*
G02X1996Y1359I10J-10*
G01*
X2129*
G75*
G02X2133Y1359J-14*
G01*
X2167*
Y1333*
X2173*
Y1312*
X2173*
G75*
G02X2202Y1299I8J-21*
G01*
X2216Y1285*
G75*
G02X2222Y1270I-15J-15*
G01*
Y1219*
X2266Y1175*
G75*
G02X2272Y1160I-15J-15*
G01*
Y1070*
G75*
G02X2266Y1056I-21*
G01*
X2204Y994*
X2302*
Y1000*
X2323*
G75*
G02X2323Y1001I14J-4*
G01*
G75*
G02X2307Y1017I-2J14*
G01*
G75*
G02X2287Y1030I-6J13*
G01*
G75*
G02X2297Y1044I15*
G01*
X2514Y1261*
Y1270*
X2365Y1122*
G75*
G02X2337Y1125I-14J4*
G01*
G75*
G02X2339Y1133I15*
G01*
G75*
G02X2319Y1153I-8J12*
G01*
G75*
G02X2298Y1171I-8J12*
G01*
G75*
G02X2284Y1193I-2J14*
G01*
G75*
G02X2262Y1207I-8J12*
G01*
G75*
G02X2242Y1220I-6J13*
G01*
G75*
G02X2252Y1234I15*
G01*
X2408Y1390*
X2372*
Y1384*
X2239*
Y1390*
X2198*
Y1424*
X2180Y1442*
X1970*
G75*
G02X1974Y1423I-9J-12*
G01*
Y1410*
G75*
G02X1970Y1402I-13*
G01*
X1955Y1387*
G75*
G02X1946Y1383I-9J9*
G01*
X1878*
Y1376*
G36*
X1884*
Y1349*
X1980*
X1986Y1355*
G75*
G02X1996Y1359I10J-10*
G01*
X2129*
G75*
G02X2133Y1359J-14*
G01*
X2167*
Y1333*
X2173*
Y1312*
X2173*
G75*
G02X2202Y1299I8J-21*
G01*
X2216Y1285*
G75*
G02X2222Y1270I-15J-15*
G01*
Y1219*
X2266Y1175*
G75*
G02X2272Y1160I-15J-15*
G01*
Y1070*
G75*
G02X2266Y1056I-21*
G01*
X2204Y994*
X2302*
Y1000*
X2323*
G75*
G02X2323Y1001I14J-4*
G01*
G75*
G02X2307Y1017I-2J14*
G01*
G75*
G02X2287Y1030I-6J13*
G01*
G75*
G02X2297Y1044I15*
G01*
X2514Y1261*
Y1270*
X2365Y1122*
G75*
G02X2337Y1125I-14J4*
G01*
G75*
G02X2339Y1133I15*
G01*
G75*
G02X2319Y1153I-8J12*
G01*
G75*
G02X2298Y1171I-8J12*
G01*
G75*
G02X2284Y1193I-2J14*
G01*
G75*
G02X2262Y1207I-8J12*
G01*
G75*
G02X2242Y1220I-6J13*
G01*
G75*
G02X2252Y1234I15*
G01*
X2408Y1390*
X2372*
Y1384*
X2239*
Y1390*
X2198*
Y1424*
X2180Y1442*
X1970*
G75*
G02X1974Y1423I-9J-12*
G01*
Y1410*
G75*
G02X1970Y1402I-13*
G01*
X1955Y1387*
G75*
G02X1946Y1383I-9J9*
G01*
X1878*
Y1376*
G37*
X2633Y1233D02*
X2668D01*
G75*
G02X2685Y1240I17J-16*
G01*
Y1309*
X2666Y1328*
X2642Y1303*
G75*
G02X2633Y1299I-11J11*
G01*
Y1296*
X2648*
G75*
G02X2674Y1280I8J-16*
G01*
G75*
G02X2643Y1269I-18*
G01*
X2633*
Y1233*
G36*
X2668*
G75*
G02X2685Y1240I17J-16*
G01*
Y1309*
X2666Y1328*
X2642Y1303*
G75*
G02X2633Y1299I-11J11*
G01*
Y1296*
X2648*
G75*
G02X2674Y1280I8J-16*
G01*
G75*
G02X2643Y1269I-18*
G01*
X2633*
Y1233*
G37*
D02*
D23*
X137Y1286D02*
X122Y1271D01*
X137Y1794D02*
X122Y1810D01*
X145Y1055D02*
X124Y1035D01*
X145Y1085D02*
X124Y1106D01*
X172Y1286D02*
X188Y1271D01*
X172Y1322D02*
X188Y1337D01*
X172Y1444D02*
X188Y1428D01*
X172Y1479D02*
X188Y1495D01*
X172Y1601D02*
X188Y1586D01*
X172Y1637D02*
X188Y1652D01*
X172Y1759D02*
X188Y1743D01*
X172Y1794D02*
X188Y1810D01*
X175Y1055D02*
X196Y1035D01*
X175Y1085D02*
X196Y1106D01*
X220Y1055D02*
X199Y1035D01*
X220Y1085D02*
X199Y1106D01*
X248Y731D02*
X226D01*
X250Y1055D02*
X271Y1035D01*
X250Y1085D02*
X271Y1106D01*
X273Y706D02*
Y684D01*
Y756D02*
Y778D01*
X298Y731D02*
X320D01*
X317Y1821D02*
X295D01*
X319Y2014D02*
X298Y1994D01*
X319Y2045D02*
X298Y2065D01*
X331Y1805D02*
Y1783D01*
Y1838D02*
Y1860D01*
X349Y2014D02*
X370Y1994D01*
X349Y2045D02*
X370Y2065D01*
X361Y1470D02*
X371D01*
X376Y1465*
X405*
X408Y1463*
X361Y1470D02*
X366D01*
X376Y1480*
X404*
X406Y1482*
X408*
X361Y945D02*
X339D01*
X366Y1585D02*
X371D01*
X376Y1580*
X407*
X408Y1581*
X381Y926D02*
Y904D01*
Y965D02*
Y987D01*
X387Y1364D02*
X365D01*
X387Y1384D02*
X365D01*
X387Y1423D02*
X365D01*
X387Y1522D02*
X365D01*
X387Y1561D02*
X365D01*
X401Y945D02*
X423D01*
X408Y1363D02*
Y1341D01*
Y1403D02*
X324D01*
X271Y1350*
Y1265*
X231Y1225*
X155*
X408Y1443D02*
X293D01*
X231Y1380*
X157*
X155Y1383*
X408Y1463D02*
Y1482D01*
Y1502D02*
X290D01*
X251Y1540*
X155*
X155Y1540*
X408Y1541D02*
X360D01*
X206Y1695*
X157*
X155Y1698*
X428Y1364D02*
X450D01*
X428Y1384D02*
X450D01*
X428Y1423D02*
X450D01*
X428Y1522D02*
X450D01*
X428Y1561D02*
X450D01*
X446Y1645D02*
X461D01*
X467Y1640*
X466Y1305D02*
X444D01*
X467Y1284D02*
Y1262D01*
Y1326D02*
Y1348D01*
X496Y1360D02*
Y1355D01*
X486Y1345*
Y1305*
X486Y1305*
X498Y1472D02*
X476D01*
X506Y1619D02*
Y1597D01*
X526Y1326D02*
Y1348D01*
Y1619D02*
Y1597D01*
Y1660D02*
Y1682D01*
X545Y1619D02*
Y1597D01*
Y1660D02*
Y1682D01*
X565Y1326D02*
Y1348D01*
Y1619D02*
Y1597D01*
Y1660D02*
Y1682D01*
X575Y1396D02*
Y1374D01*
Y1549D02*
Y1571D01*
X604Y1326D02*
Y1348D01*
X648Y1794D02*
Y1772D01*
X652Y1472D02*
X674D01*
X661Y1038D02*
Y1016D01*
Y1061D02*
Y1083D01*
X682Y1824D02*
X704D01*
X696Y1490D02*
X698D01*
X706Y1482*
X740*
X741Y1482*
X742*
Y1443D02*
X723D01*
X721Y1440*
X711*
X701Y1430*
Y1400*
X696Y1395*
X742Y1463D02*
X746D01*
Y1464*
X744Y1462*
X741*
X740Y1461*
X712*
X711Y1460*
X696*
X742Y1502D02*
X725D01*
X723Y1500*
X716*
X686Y1530*
Y1545*
X763Y1443D02*
X785D01*
X763Y1502D02*
X785D01*
X1234Y1435D02*
X1272D01*
X1286Y1420*
X1234Y1454D02*
X1280D01*
X1281Y1455*
X1242Y648D02*
X1227Y632D01*
X1242Y683D02*
X1227Y699D01*
X1255Y2001D02*
X1233D01*
X1256Y1070D02*
Y970D01*
X1272Y2014D02*
Y2036D01*
X1277Y648D02*
X1293Y632D01*
X1277Y683D02*
X1293Y699D01*
X1347Y2034D02*
X1325D01*
X1378Y1940D02*
X1276D01*
X1272Y1943*
X1378Y1940D02*
Y1941D01*
X1387Y1950*
X1431*
X1451Y1930*
Y1850*
X1466Y1835*
X1501*
X1536Y1800*
Y1699*
X1537*
X1378Y2053D02*
Y2075D01*
X1518Y1699D02*
Y1675D01*
X1518Y1674*
Y1589*
X1551Y2034D02*
X1648D01*
X1650Y2032*
X1557Y1699D02*
X1556D01*
Y1815*
X1501Y1870*
Y1975*
X1551Y2030*
Y2034*
X1571Y1015D02*
X1537Y1049D01*
Y1092*
X1577D02*
X1577D01*
Y1124*
X1556Y1145*
X1531*
X1531Y1145*
X1577Y1674D02*
Y1652D01*
X1581Y1940D02*
X1603D01*
X1591Y1145D02*
Y1135D01*
X1596Y1130*
Y1093*
X1596Y1092*
X1616Y1835D02*
Y1813D01*
Y1868D02*
Y1890D01*
X1633Y1975D02*
X1611D01*
X1650Y1962D02*
Y1940D01*
X1667Y1975D02*
X1689D01*
X1673Y1851D02*
Y1862D01*
X1701Y1890*
X1767*
X1768Y1890*
X1734Y1699D02*
X1733D01*
Y1770*
X1786Y1823*
Y1840*
X1781Y1845*
X1761*
X1751Y1855*
Y1890*
X1753Y1875*
X1768Y1890*
X1754Y1699D02*
Y1753D01*
X1891Y1890*
X1917*
X1917Y1890*
X1774Y1699D02*
X1796D01*
X1786Y1260D02*
Y1258D01*
X1806Y1238*
X1838*
X1838Y1238*
X1840*
X1816Y1356D02*
X1794D01*
X1816Y1533D02*
X1794D01*
X1840Y1159D02*
X1657D01*
X1636Y1180*
X1336*
X1276Y1120*
Y1000*
X1840Y1179D02*
X1668D01*
X1646Y1200*
X1331*
X1256Y1125*
Y1070*
X1840Y1258D02*
X1869D01*
X1871Y1255*
X1906*
X1911Y1250*
X1840Y1356D02*
X1817D01*
X1816Y1355*
X1791*
X1781Y1345*
X1840Y1376D02*
X1791D01*
X1786Y1380*
X1840Y1533D02*
X1809D01*
X1791Y1515*
Y1505*
X1761Y1475*
X1840Y1553D02*
X1774D01*
X1771Y1555*
X1865Y1356D02*
X1887D01*
X1865Y1533D02*
X1887D01*
X1917Y1890D02*
X1936D01*
X1936Y1890*
X2033*
X2035Y1892*
Y1822D02*
Y1800D01*
X2052Y1835D02*
X2074D01*
X2055Y647D02*
X2040Y632D01*
X2055Y686D02*
X2040Y702D01*
X2094Y647D02*
X2110Y632D01*
X2129Y1298D02*
X2173D01*
X2181Y1290*
X2134Y647D02*
X2119Y632D01*
X2173Y647D02*
X2189Y632D01*
X2213Y647D02*
X2197Y632D01*
X2252Y647D02*
X2267Y632D01*
X2252Y686D02*
X2267Y702D01*
X2274Y1404D02*
Y1382D01*
Y1453D02*
Y1475D01*
X2290Y1404D02*
Y1382D01*
Y1453D02*
Y1475D01*
X2344Y1428D02*
Y1381D01*
X2343Y1380*
X2346Y1005D02*
Y1004D01*
X2337Y995*
Y957*
X2337Y957*
Y956*
X2351Y1480D02*
X2331D01*
X2321Y1470*
Y1429*
X2321Y1428*
X2376Y791D02*
X2354D01*
X2388Y570D02*
X2366D01*
X2405Y557D02*
Y535D01*
X2416Y956D02*
Y980D01*
X2416Y980*
Y995*
X2421Y1000*
X2431*
X2436Y1005*
X2589Y1141D02*
X2552D01*
X2541Y1151*
Y1205*
X2589Y1204D02*
X2543D01*
X2541Y1205*
X2589Y1219D02*
X2683D01*
X2685Y1217*
X2589Y1267D02*
Y1282D01*
X2654*
X2656Y1280*
X2589Y1314D02*
X2611D01*
X2611Y1314*
X2631*
X2666Y1349*
Y1350*
X2594Y696D02*
X2616D01*
X2641Y1070D02*
X2634D01*
X2626Y1062*
X2591*
X2590Y1062*
X2589*
X2645Y715D02*
X2624Y695D01*
X2675Y715D02*
X2696Y695D01*
X2710Y985D02*
X2716D01*
X2721Y990*
X2783*
X2784Y989*
X2826Y974D02*
X2805Y954D01*
X2826Y1005D02*
X2805Y1025D01*
X2856Y974D02*
X2877Y954D01*
X2856Y1005D02*
X2877Y1025D01*
X2975Y715D02*
Y657D01*
X2977Y656*
X3050Y715D02*
Y657D01*
X3052Y656*
X3070Y965D02*
Y902D01*
X3086Y886*
X3070Y965D02*
Y964D01*
X3066Y960*
X3150*
X3155Y965*
X3130Y715D02*
Y659D01*
X3127Y656*
X3143Y870D02*
Y848D01*
Y903D02*
Y925D01*
X3205Y715D02*
Y699D01*
X3201Y695*
Y656*
X3202Y656*
X3205Y772D02*
X3211Y870*
Y848D01*
Y903D02*
Y925D01*
X3250Y1300D02*
X3235Y1284D01*
X3250Y1341D02*
X3235Y1357D01*
X3250Y1400D02*
X3235Y1384D01*
X3250Y1441D02*
X3235Y1457D01*
X3271Y1120D02*
X3266D01*
X3236Y1090*
X3086*
X3066Y1070*
Y1026*
X3070Y1022*
X3280Y715D02*
Y659D01*
X3277Y656*
X3292Y1300D02*
X3307Y1284D01*
X3292Y1341D02*
X3307Y1357D01*
X3292Y1400D02*
X3307Y1384D01*
X3292Y1441D02*
X3307Y1457D01*
X3350Y1250D02*
X3335Y1234D01*
X3350Y1291D02*
X3335Y1307D01*
X3350Y1350D02*
X3335Y1334D01*
X3350Y1391D02*
X3335Y1407D01*
X3350Y1450D02*
X3335Y1434D01*
X3350Y1491D02*
X3335Y1507D01*
X3355Y715D02*
Y657D01*
X3357Y656*
X3371Y1070D02*
X3176D01*
X3156Y1050*
Y1023*
X3155Y1022*
X3392Y1250D02*
X3407Y1234D01*
X3392Y1291D02*
X3407Y1307D01*
X3392Y1350D02*
X3407Y1334D01*
X3392Y1391D02*
X3407Y1407D01*
X3392Y1450D02*
X3407Y1434D01*
X3392Y1491D02*
X3407Y1507D01*
X3457Y941D02*
X3435D01*
X3457Y1575D02*
X3435D01*
X3483Y606D02*
X3537D01*
X3876Y945*
Y1312*
X3781Y1407*
X3483Y686D02*
Y687D01*
X3781Y985*
X3501Y897D02*
Y875D01*
Y985D02*
Y1007D01*
Y1531D02*
Y1509D01*
Y1620D02*
Y1642D01*
X3545Y941D02*
X3567D01*
X3545Y1575D02*
X3567D01*
X3562Y1021D02*
X3540D01*
X3562Y1495D02*
X3540D01*
X3621Y962D02*
Y940D01*
Y1080D02*
Y1102D01*
Y1436D02*
Y1414D01*
Y1554D02*
Y1576D01*
X3680Y1021D02*
X3702D01*
X3680Y1495D02*
X3702D01*
D02*
D24*
X211Y930D03*
X226Y1315D03*
X251Y1590D03*
X256Y1465D03*
X261Y1890D03*
X301Y1295D03*
X361Y1470D03*
X366Y1585D03*
X476Y2115D03*
X616Y545D03*
X622Y1262D03*
X648Y1261D03*
X677D03*
X711Y1265D03*
X786Y1580D03*
X796Y1675D03*
Y1800D03*
X806Y1560D03*
X815Y1540D03*
X827Y1521D03*
X926Y1395D03*
X946Y1410D03*
X966Y1430D03*
X991Y1885D03*
X1041Y1945D03*
X1106Y1940D03*
X1121Y1595D03*
X1146Y1590D03*
X1171Y1455D03*
Y1590D03*
X1172Y1279D03*
X1181Y1880D03*
X1185Y1174D03*
X1186Y1151D03*
Y1197D03*
Y1295D03*
Y1525D03*
X1256Y970D03*
X1266Y2060D03*
X1276Y1000D03*
X1281Y1455D03*
X1283Y1515D03*
X1286Y1285D03*
Y1745D03*
X1297Y1493D03*
X1301Y1235D03*
Y1570D03*
X1356Y1795D03*
X1361Y1770D03*
X1371Y1320D03*
X1391Y920D03*
X1411Y900D03*
X1431Y870D03*
X1456Y2130D03*
X1461Y785D03*
Y1510D03*
X1476Y1745D03*
X1531Y1315D03*
X1571Y1015D03*
X1581Y1585D03*
X1606Y540D03*
X1626Y1485D03*
X1631Y1925D03*
X1636Y1615D03*
Y1770D03*
X1656Y1625D03*
X1669Y1138D03*
X1676Y1635D03*
X1692Y1138D03*
X1696Y1645D03*
X1706Y1325D03*
X1716Y1140D03*
Y1655D03*
X1741Y1140D03*
X1746Y525D03*
X1767Y1139D03*
X1801Y1113D03*
X1891Y835D03*
X1911Y1435D03*
X1936D03*
X1961Y1430D03*
X2001Y1153D03*
Y1175D03*
Y1197D03*
Y1220D03*
X2061Y1150D03*
X2121Y2000D03*
X2176Y1155D03*
X2241Y565D03*
X2256Y1220D03*
Y1265D03*
X2276Y1205D03*
X2291Y880D03*
X2296Y1185D03*
X2301Y1030D03*
X2306Y1910D03*
X2311Y900D03*
Y1165D03*
Y2000D03*
X2321Y1015D03*
X2331Y1145D03*
X2346Y880D03*
X2351Y1125D03*
X2371Y1925D03*
X2451Y1060D03*
X2461Y1095D03*
Y2015D03*
X2481Y1120D03*
X2496Y1925D03*
X2506Y1010D03*
X2546Y1690D03*
X2631Y890D03*
X2636Y625D03*
X2663Y1313D03*
X2686Y2000D03*
X2726Y1810D03*
X2811Y1145D03*
X2816Y1170D03*
X2906Y710D03*
X2911Y1280D03*
X2961Y990D03*
X2976Y770D03*
X3031Y1155D03*
X3051Y765D03*
X3121D03*
X3131Y1230D03*
X3205Y772D03*
X3206Y770D03*
X3281Y765D03*
X3356Y770D03*
X3486Y825D03*
X3641Y775D03*
X3741Y675D03*
D02*
D25*
X1986Y880D03*
X2641Y1070D03*
X2666Y1350D03*
X2801Y915D03*
D02*
D26*
X2541Y1205D03*
X2656Y1280D03*
D02*
D27*
X1301Y1092D03*
Y1699D03*
X1321Y1092D03*
Y1699D03*
X1340Y1092D03*
Y1699D03*
X1360Y1092D03*
Y1699D03*
X1380Y1092D03*
Y1699D03*
X1400Y1092D03*
Y1699D03*
X1419Y1092D03*
Y1699D03*
X1439Y1092D03*
Y1699D03*
X1459Y1092D03*
Y1699D03*
X1478Y1092D03*
Y1699D03*
X1498Y1092D03*
Y1699D03*
X1518Y1092D03*
Y1699D03*
X1537Y1092D03*
Y1699D03*
X1557Y1092D03*
Y1699D03*
X1577Y1092D03*
Y1699D03*
X1596Y1092D03*
Y1699D03*
X1616Y1092D03*
Y1699D03*
X1636Y1092D03*
Y1699D03*
X1655Y1092D03*
Y1699D03*
X1675Y1092D03*
Y1699D03*
X1695Y1092D03*
Y1699D03*
X1714Y1092D03*
Y1699D03*
X1734Y1092D03*
Y1699D03*
X1754Y1092D03*
Y1699D03*
X1774Y1092D03*
Y1699D03*
D02*
D28*
X1234Y1159D03*
Y1179D03*
Y1199D03*
Y1218D03*
Y1238D03*
Y1258D03*
Y1277D03*
Y1297D03*
Y1317D03*
Y1336D03*
Y1356D03*
Y1376D03*
Y1395D03*
Y1415D03*
Y1435D03*
Y1454D03*
Y1474D03*
Y1494D03*
Y1514D03*
Y1533D03*
Y1553D03*
Y1573D03*
Y1592D03*
Y1612D03*
Y1632D03*
X1840Y1159D03*
Y1179D03*
Y1199D03*
Y1218D03*
Y1238D03*
Y1258D03*
Y1277D03*
Y1297D03*
Y1317D03*
Y1336D03*
Y1356D03*
Y1376D03*
Y1395D03*
Y1415D03*
Y1435D03*
Y1454D03*
Y1474D03*
Y1494D03*
Y1514D03*
Y1533D03*
Y1553D03*
Y1573D03*
Y1592D03*
Y1612D03*
Y1632D03*
D02*
D29*
X2129Y1046D03*
Y1062D03*
Y1078D03*
Y1093D03*
Y1109D03*
Y1125D03*
Y1141D03*
Y1156D03*
Y1172D03*
Y1188D03*
Y1204D03*
Y1219D03*
Y1235D03*
Y1251D03*
Y1267D03*
Y1282D03*
Y1298D03*
Y1314D03*
Y1330D03*
Y1345D03*
X2589Y1046D03*
Y1062D03*
Y1078D03*
Y1093D03*
Y1109D03*
Y1125D03*
Y1141D03*
Y1156D03*
Y1172D03*
Y1188D03*
Y1204D03*
Y1219D03*
Y1235D03*
Y1251D03*
Y1267D03*
Y1282D03*
Y1298D03*
Y1314D03*
Y1330D03*
Y1345D03*
D02*
D72*
X2211Y956D03*
Y1428D03*
X2227Y956D03*
Y1428D03*
X2243Y956D03*
Y1428D03*
X2259Y956D03*
Y1428D03*
X2274Y956D03*
Y1428D03*
X2290Y956D03*
Y1428D03*
X2306Y956D03*
Y1428D03*
X2321Y956D03*
Y1428D03*
X2337Y956D03*
Y1428D03*
X2353Y956D03*
Y1428D03*
X2369Y956D03*
Y1428D03*
X2384Y956D03*
Y1428D03*
X2400Y956D03*
Y1428D03*
X2416Y956D03*
Y1428D03*
X2432Y956D03*
Y1428D03*
X2447Y956D03*
Y1428D03*
X2463Y956D03*
Y1428D03*
X2479Y956D03*
Y1428D03*
X2495Y956D03*
Y1428D03*
X2510Y956D03*
Y1428D03*
D02*
D73*
X3271Y1020D03*
Y1120D03*
Y1220D03*
Y1320D03*
Y1420D03*
X3371Y1070D03*
Y1170D03*
Y1270D03*
Y1370D03*
Y1470D03*
X3781Y985D03*
Y1085D03*
Y1407D03*
Y1507D03*
D02*
D74*
X331Y1821D03*
X334Y2029D03*
X388Y1821D03*
X391Y2029D03*
X1354Y769D03*
X1411D03*
X1616Y1851D03*
X1673D03*
X2479Y619D03*
X2536D03*
X2784Y989D03*
X2841D03*
X3086Y886D03*
X3143D03*
X3211D03*
X3268D03*
X3426Y606D03*
Y686D03*
X3483Y606D03*
Y686D03*
D02*
D75*
X160Y1070D03*
Y1127D03*
X235Y1070D03*
Y1127D03*
X540Y1055D03*
Y1112D03*
X1272Y1943D03*
Y2001D03*
X1650Y1975D03*
Y2032D03*
X1990Y915D03*
Y972D03*
X2035Y1835D03*
Y1892D03*
X2405Y570D03*
Y627D03*
X2660Y730D03*
Y787D03*
X2710Y985D03*
Y1042D03*
X2975Y715D03*
Y772D03*
X2977Y598D03*
Y656D03*
X3050Y715D03*
Y772D03*
X3052Y598D03*
Y656D03*
X3070Y965D03*
Y1022D03*
X3127Y598D03*
Y656D03*
X3130Y715D03*
Y772D03*
X3155Y965D03*
Y1022D03*
X3202Y598D03*
Y656D03*
X3205Y715D03*
Y772D03*
X3277Y598D03*
Y656D03*
X3280Y715D03*
Y772D03*
X3355Y715D03*
Y772D03*
X3357Y598D03*
Y656D03*
D02*
D76*
X1615Y667D03*
Y745D03*
X1694Y667D03*
Y745D03*
X1772Y667D03*
Y745D03*
X2075Y667D03*
Y745D03*
X2154Y667D03*
Y745D03*
X2232Y667D03*
Y745D03*
D02*
D77*
X1378Y1940D03*
Y2034D03*
X1551Y1940D03*
Y2034D03*
X2406Y696D03*
Y791D03*
X2563Y696D03*
Y791D03*
D02*
D78*
X1768Y1890D03*
Y2107D03*
X1917Y1890D03*
Y2107D03*
D02*
D79*
X155Y1304D03*
Y1383D03*
Y1462D03*
Y1540D03*
Y1619D03*
Y1698D03*
Y1777D03*
X273Y731D03*
X373D03*
X529Y662D03*
X607D03*
Y740D03*
X686Y662D03*
Y740D03*
X765Y662D03*
Y740D03*
X834Y2012D03*
X843Y662D03*
Y740D03*
X912Y2012D03*
Y2090D03*
X991Y2012D03*
Y2090D03*
X1070Y2012D03*
Y2090D03*
X1102Y665D03*
X1148Y2012D03*
Y2090D03*
X1181Y665D03*
X1260D03*
X1339D03*
X1417D03*
X2260Y2087D03*
X2338D03*
X2417D03*
X2496D03*
X2575D03*
X2653D03*
X2732D03*
D02*
D80*
X155Y1225D03*
X529Y740D03*
X834Y2090D03*
X1024Y665D03*
X2181Y2087D03*
D02*
D81*
X467Y1305D03*
Y1640D03*
X486Y1305D03*
Y1640D03*
X506Y1305D03*
Y1640D03*
X526Y1305D03*
Y1640D03*
X545Y1305D03*
Y1640D03*
X565Y1305D03*
Y1640D03*
X585Y1305D03*
Y1640D03*
X604Y1305D03*
Y1640D03*
X624Y1305D03*
Y1640D03*
X644Y1305D03*
Y1640D03*
X664Y1305D03*
Y1640D03*
X683Y1305D03*
Y1640D03*
D02*
D82*
X408Y1364D03*
Y1384D03*
Y1403D03*
Y1423D03*
Y1443D03*
Y1463D03*
Y1482D03*
Y1502D03*
Y1522D03*
Y1541D03*
Y1561D03*
Y1581D03*
X742Y1364D03*
Y1384D03*
Y1403D03*
Y1423D03*
Y1443D03*
Y1463D03*
Y1482D03*
Y1502D03*
Y1522D03*
Y1541D03*
Y1561D03*
Y1581D03*
D02*
D83*
X575Y1472D03*
D02*
D84*
X482Y1824D03*
Y2024D03*
X648Y1824D03*
Y2024D03*
D02*
D85*
X635Y1050D03*
Y1136D03*
X661Y1050D03*
X687D03*
Y1136D03*
D02*
D86*
X381Y945D03*
Y1045D03*
Y1145D03*
D02*
D87*
X408Y1384D02*
X458D01*
X461Y1380*
X408Y1423D02*
X358D01*
X356Y1425*
X408Y1423D02*
X454D01*
X466Y1435*
X408Y1522D02*
X345D01*
X336Y1530*
X331*
X311Y1550*
X408Y1522D02*
X452D01*
X456Y1525*
X408Y1561D02*
X452D01*
X461Y1570*
X482Y1824D02*
X391D01*
X388Y1821*
X486Y1640D02*
Y1820D01*
X482Y1824*
X506Y1305D02*
Y1280D01*
X561Y1225*
X851*
X1021Y1395*
X1234*
X506Y1640D02*
X565D01*
X506D02*
Y1595D01*
X526Y1305D02*
Y1315D01*
X526Y1315*
Y1350*
X536Y1360*
X545Y1305D02*
Y1271D01*
X576Y1240*
X841*
X1016Y1415*
X1234*
X1234Y1415*
X565Y1305D02*
Y1349D01*
X576Y1360*
X604Y1305D02*
Y1359D01*
X606Y1360*
X622Y1262D02*
Y1275D01*
X624Y1277*
Y1297*
X626Y1299*
X624Y1301*
X624Y1301*
Y1305*
X648Y1261D02*
Y1271D01*
X643Y1276*
Y1302*
X644Y1303*
Y1305*
X677Y1261D02*
X663Y1275D01*
Y1303*
X664Y1303*
Y1305*
X711Y1265D02*
X683Y1293D01*
Y1303*
X683Y1303*
Y1305*
X786Y1580D02*
X742D01*
X742Y1581*
X806Y1560D02*
X743D01*
X742Y1561*
X815Y1540D02*
X743D01*
X742Y1541*
X827Y1521D02*
X744D01*
X744Y1522*
X742*
X843Y740D02*
X891Y788D01*
Y830*
X901Y840*
X1126Y1063*
Y1205*
X1156Y1238*
X1234*
X926Y1395D02*
X896Y1365D01*
X749*
X747Y1364*
X742*
X946Y1410D02*
X911D01*
X886Y1385*
X744*
X742Y1384*
X966Y1430D02*
X901D01*
X876Y1405*
X744*
X742Y1403*
X1234Y1159D02*
Y1159D01*
X1205*
X1197Y1151*
X1186*
X1234Y1179D02*
X1204D01*
Y1178*
X1200Y1174*
X1185*
Y1174*
X1234Y1199D02*
X1213D01*
X1212Y1197*
X1186*
X1234Y1218D02*
X1169D01*
X1146Y1195*
Y1050*
X926Y830*
Y695*
X886Y655*
X850*
X843Y662*
X1234Y1258D02*
X1148D01*
X1106Y1215*
Y1075*
X876Y845*
X816*
X766Y795*
Y742*
X765Y740*
X1234Y1277D02*
X1174D01*
X1172Y1279*
X1234Y1297D02*
X1188D01*
X1186Y1295*
X1234Y1317D02*
X1157D01*
X1086Y1245*
Y1090*
X866Y870*
X761*
X686Y795*
Y740*
X686Y740*
X1234Y1336D02*
Y1335D01*
X1146*
X1066Y1255*
Y1100*
X856Y890*
X726*
X611Y775*
Y744*
X607Y740*
X1234Y1356D02*
Y1355D01*
X1136*
X1046Y1265*
Y1110*
X846Y910*
X656*
X526Y780*
Y743*
X529Y740*
X1234Y1376D02*
Y1375D01*
X1126*
X1026Y1275*
Y1120*
X836Y930*
X626*
X471Y775*
Y685*
X491Y665*
X525*
X529Y662*
X1234Y1474D02*
X1197D01*
X1176Y1495*
X936*
X866Y1425*
X744*
X742Y1423*
X1234Y1494D02*
X1297D01*
X1297Y1493*
X1234Y1514D02*
X1281D01*
X1283Y1515*
X1234Y1533D02*
X1194D01*
X1186Y1525*
X1234Y1553D02*
Y1552D01*
X866*
X818Y1600*
X673*
X663Y1610*
Y1637*
X664Y1638*
Y1640*
X1234Y1573D02*
X1213D01*
X1211Y1570*
X876*
X811Y1635*
X687*
X683Y1640*
X1234Y1592D02*
X1173D01*
X1171Y1590*
X1234Y1612D02*
X1153D01*
X1146Y1605*
Y1590*
X1234Y1632D02*
X1212D01*
X1211Y1630*
X1141*
X1121Y1610*
Y1595*
X1301Y1092D02*
X1299D01*
Y970*
X1259Y930*
X1056*
X946Y820*
Y685*
X866Y605*
X706*
X676Y635*
Y652*
X686Y662*
X1301Y1699D02*
Y1700D01*
X1281*
X1224Y1757*
X904*
X648Y2014*
Y2024*
X1321Y1699D02*
Y1730D01*
X1306Y1745*
X1286*
X1340Y1699D02*
X1341D01*
Y1730*
X1291Y1780*
X916*
X746Y1950*
Y2095*
X806Y2155*
X851*
X918Y2088*
X912*
Y2090*
X1380Y1092D02*
X1381Y1091D01*
Y990*
X1420Y951*
Y950*
X1421*
X1431Y940*
Y870*
X1391Y920D02*
X1341Y970D01*
Y1092*
X1340Y1092*
X1400D02*
X1401D01*
Y1000*
X1451Y950*
Y840*
X1530Y762*
Y642*
X1556Y615*
X1676*
X1686Y625*
Y659*
X1694Y667*
X1400Y1699D02*
X1401D01*
Y1730*
X1391Y1740*
X1356*
X1296Y1800*
X926*
X766Y1960*
Y2075*
X786Y2095*
X826*
X831Y2090*
X834*
X1411Y900D02*
Y930D01*
X1361Y980*
Y1086*
X1360Y1087*
Y1092*
X1419D02*
X1421D01*
Y1010*
X1473Y959*
Y854*
X1556Y770*
Y690*
X1576Y670*
X1611*
X1615Y667*
X1419Y1699D02*
Y1737D01*
X1401Y1755*
X1376*
X1361Y1770*
X1439Y1092D02*
X1439D01*
Y1020*
X1493Y966*
Y868*
X1570Y792*
Y790*
X1615Y745*
X1439Y1699D02*
Y1743D01*
X1386Y1795*
X1356*
X1459Y1092D02*
X1459D01*
Y1030*
X1511Y978*
Y885*
X1599Y798*
X1674*
X1691Y780*
Y748*
X1694Y745*
X1459Y1699D02*
Y1748D01*
X1391Y1815*
X976*
X836Y1955*
Y2009*
X834Y2012*
X1478Y1092D02*
X1479D01*
Y1038*
X1536Y981*
Y895*
X1611Y820*
X1726*
X1771Y775*
Y747*
X1772Y745*
X1478Y1699D02*
Y1723D01*
X1476Y1725*
Y1745*
X1498Y1092D02*
X1498D01*
Y1041*
X1563Y978*
Y908*
X1626Y845*
X1751*
X1826Y770*
Y690*
X1811Y675*
X1781*
X1772Y667*
X1498Y1699D02*
X1496D01*
Y1755*
X1481Y1770*
X1466*
X1401Y1835*
X991*
X911Y1915*
Y2010*
X912Y2012*
X1577Y1699D02*
X1576D01*
Y1730*
X1595Y1750*
X1636*
Y1770*
X1596Y1699D02*
Y1676D01*
X1596Y1675*
Y1600*
X1581Y1585*
X1616Y1699D02*
Y1600D01*
X1631Y1585*
X1661*
X1686Y1610*
X1706*
X1731Y1635*
X1776*
X1796Y1655*
X2111*
X2336Y1880*
Y2084*
X2338Y2087*
X1636Y1699D02*
Y1616D01*
X1636Y1615*
X1655Y1699D02*
Y1681D01*
X1656Y1680*
Y1625*
X1675Y1092D02*
Y1132D01*
X1669Y1138*
X1675Y1699D02*
Y1636D01*
X1676Y1635*
X1692Y1138D02*
Y1127D01*
X1695Y1124*
Y1075*
X1692Y1074*
X1695Y1072*
Y1092*
Y1699D02*
Y1682D01*
X1696Y1680*
Y1645*
X1714Y1092D02*
Y1072D01*
X1716Y1073*
Y1140*
X1714Y1699D02*
Y1657D01*
X1716Y1655*
X1734Y1092D02*
X1735D01*
Y1128*
X1741Y1134*
Y1140*
X1767Y1139D02*
Y1137D01*
X1756Y1126*
Y1094*
X1754Y1092*
X1801Y1113D02*
X1795D01*
X1774Y1092*
X1840Y1199D02*
X1758D01*
X1736Y1220*
X1341*
X1326Y1235*
X1301*
X1840Y1218D02*
Y1220D01*
X1771*
X1746Y1245*
X1346*
X1306Y1285*
X1286*
X1840Y1356D02*
X1912D01*
X1916Y1360*
X1840Y1395D02*
X1946D01*
X1961Y1410*
Y1430*
X1840Y1415D02*
X1866D01*
X1866Y1415*
X1928*
X1936Y1423*
Y1435*
X1840Y1435D02*
X1910D01*
X1911Y1435*
X1840Y1454D02*
X2185D01*
X2211Y1428*
X1840Y1474D02*
Y1475D01*
X2217*
X2227Y1465*
Y1429*
X2227Y1429*
Y1428*
X1840Y1494D02*
Y1495D01*
X2228*
X2243Y1480*
Y1430*
X2243Y1430*
Y1428*
X1840Y1573D02*
Y1573D01*
X1716*
X1688Y1545*
X1381*
X1208Y1718*
X659*
X646Y1705*
Y1642*
X644Y1640*
X1840Y1592D02*
Y1590D01*
X1706*
X1681Y1565*
X1386*
X1213Y1739*
X644*
X626Y1720*
Y1642*
X624Y1640*
X1840Y1632D02*
X2122D01*
X2491Y2000*
Y2042*
X2496Y2047*
Y2087*
X1996Y1062D02*
Y979D01*
X1990Y972*
X1996Y1062D02*
X1928D01*
X1831Y965*
X1597*
X1517Y1045*
Y1089*
X1518Y1089*
Y1092*
X2001Y1153D02*
X2028D01*
X2047Y1172*
X2129*
Y1172*
X2061Y1150D02*
X2076D01*
X2086Y1140*
X2128*
X2129Y1141*
Y1062D02*
X2129D01*
Y1062*
X1996*
X2129Y1078D02*
Y1078D01*
X1911*
X1818Y985*
X1631*
X1556Y1060*
Y1091*
X1557Y1092*
X2129Y1093D02*
Y1094D01*
X1901*
X1812Y1005*
X1646*
X1616Y1035*
Y1092*
X1616Y1092*
X2129Y1109D02*
X2112D01*
X2111Y1110*
X1886*
X1801Y1025*
X1656*
X1636Y1045*
Y1092*
X1636Y1092*
X2129Y1125D02*
X2111D01*
X2111Y1125*
X1876*
X1796Y1045*
X1666*
X1656Y1055*
Y1092*
X1655Y1092*
X2129Y1188D02*
Y1187D01*
X2026*
X2022Y1183*
Y1182*
X2015Y1175*
X2001*
X2129Y1204D02*
Y1203D01*
X2017*
X2011Y1197*
X2001*
X2129Y1219D02*
X2002D01*
X2001Y1220*
X2129Y1235D02*
X2021D01*
X2016Y1240*
X1981*
X1901Y1160*
X1842*
X1840Y1159*
X2129Y1251D02*
X2036D01*
X2026Y1260*
X1966*
X1886Y1180*
X1842*
X1840Y1179*
X2129Y1267D02*
X2066D01*
X2056Y1276*
X1831*
X1832Y1277*
X1840*
X2129Y1282D02*
Y1282D01*
X2077*
X2063Y1296*
X1831*
X1832Y1297*
X1840*
X2129Y1314D02*
X2170D01*
X2191Y1335*
X2129Y1330D02*
X2102D01*
X2101Y1330*
X2016*
X2001Y1315*
X1826*
X1827Y1317*
X1840*
X2129Y1345D02*
X1996D01*
X1986Y1335*
X1831*
X1832Y1336*
X1840*
X2176Y1155D02*
Y1157D01*
X2130*
X2129Y1156*
X2129*
X2243Y956D02*
X2241D01*
Y913*
X2075Y747*
X2075*
Y745*
X2259Y956D02*
X2259D01*
Y900*
X2154Y795*
Y745*
X2259Y1428D02*
X2274D01*
Y956D02*
X2274D01*
Y885*
X2233Y844*
Y746*
X2232Y745*
X2290Y1428D02*
X2306D01*
X2291Y880D02*
Y955D01*
X2290Y956*
X2311Y900D02*
Y910D01*
X2306Y915*
Y955*
X2306Y956*
X2321D02*
Y918D01*
X2329Y910*
Y829*
X2330Y828*
X2337Y1428D02*
X2344D01*
X2353*
Y956D02*
Y930D01*
X2353Y930*
Y920*
X2346Y913*
Y880*
X2400Y956D02*
Y1010D01*
X2451Y1060*
X2405Y627D02*
X2414D01*
X2416Y625*
X2473*
X2479Y619*
X2406Y696D02*
Y628D01*
X2405Y627*
X2432Y956D02*
Y900D01*
X2456Y875*
Y751*
X2406Y701*
Y696*
X2432Y1428D02*
Y1396D01*
X2256Y1220*
X2447Y956D02*
X2446D01*
Y920*
X2506Y860*
Y845*
X2486Y825*
Y795*
X2506Y775*
X2559*
X2563Y780*
Y791*
X2447Y1428D02*
Y1377D01*
X2276Y1205*
X2461Y1095D02*
X2459D01*
X2384Y1020*
Y956*
X2384*
X2463D02*
Y1008D01*
X2481Y1025*
X2463Y1428D02*
Y1353D01*
X2296Y1185*
X2479Y1428D02*
Y1333D01*
X2311Y1165*
X2481Y1120D02*
X2453D01*
X2368Y1035*
Y956*
X2369*
X2495Y1428D02*
Y1309D01*
X2331Y1145*
X2510Y1428D02*
Y1285D01*
X2351Y1125*
X2536Y619D02*
Y635D01*
X2501Y670*
Y720*
X2541Y760*
Y785*
X2563Y791*
X2656*
X2660Y787*
X2575Y2087D02*
X2561Y2073D01*
Y2035*
X2136Y1610*
X1871*
X1869Y1612*
X1840*
X2589Y1046D02*
X2615D01*
X2616Y1045*
X2707*
X2710Y1042*
X2589Y1093D02*
X2534D01*
X2526Y1085*
X2589Y1109D02*
X3135D01*
X3196Y1170*
X3371*
X2589Y1125D02*
X2861Y1125D01*
X3121*
X3216Y1220*
X3271*
X2589Y1172D02*
Y1172D01*
X2656*
X2658Y1170*
X2816*
X2589Y1188D02*
X2666D01*
X2668Y1185*
X2696*
X2708Y1197*
X2746*
X2794Y1245*
X2589Y1251D02*
Y1235D01*
Y1330D02*
X2545D01*
X2541Y1325*
Y1235*
X2321Y1015*
X2589Y1345D02*
X2536D01*
X2526Y1335*
Y1255*
X2301Y1030*
X2663Y1313D02*
X2657D01*
X2642Y1298*
X2589*
X2811Y1145D02*
X2642D01*
X2631Y1156*
X2590*
X2590Y1156*
X2589*
D02*
D88*
X421Y2030D03*
X446Y1645D03*
X496Y1360D03*
X636Y1185D03*
X686Y1545D03*
X687Y1136D02*
X685D01*
X636Y1185*
X696Y1395D03*
Y1460D03*
Y1490D03*
X1046Y760D03*
X1136Y765D03*
X1271Y755D03*
X1286Y1420D03*
X1362Y1148D03*
X1518Y1589D03*
X1761Y1475D03*
X1771Y1555D03*
X1781Y1345D03*
X1786Y1260D03*
Y1380D03*
X1911Y1250D03*
X2181Y1290D03*
X2346Y1005D03*
X2351Y1480D03*
X2436Y1005D03*
X2496Y1145D03*
X2587Y1242D03*
D02*
D89*
X235Y1127D02*
X160D01*
X381Y1145D02*
X331D01*
X316Y1130*
X247*
X244Y1127*
X235*
X421Y2030D02*
X392D01*
X391Y2029*
X421Y2030D02*
X476D01*
X482Y2024*
X540Y1055D02*
X486D01*
X471Y1040*
X386*
X381Y1045*
X540Y1112D02*
X528D01*
X526Y1110*
X476*
X446Y1140*
X386*
X381Y1145*
X635Y1050D02*
X546D01*
X540Y1055*
X635Y1136D02*
X627D01*
X601Y1110*
X542*
X540Y1112*
X1321Y1092D02*
Y1130D01*
X1339Y1148*
X1362*
X1321Y1092D02*
Y876D01*
X1351Y845*
Y769*
X1354*
X1350*
X1346Y765*
Y673*
X1339Y665*
X1411Y769D02*
Y671D01*
X1417Y665*
X2541Y1205D02*
Y1190D01*
X2496Y1145*
X2685Y1217D02*
X2693D01*
X2701Y1225*
Y1315*
X2666Y1350*
X2977Y598D02*
X2918D01*
X2846Y670*
Y870*
X2801Y915*
X3271Y1020D02*
Y889D01*
X3268Y886*
X3426Y686D02*
Y791D01*
X3336Y880*
X3274*
X3268Y886*
D02*
D90*
X1986Y880D02*
Y875D01*
X2056*
X2251Y1070*
Y1160*
X2201Y1210*
Y1270*
X2181Y1290*
X1986Y880D02*
Y911D01*
X1990Y915*
X2977Y598D02*
X3052D01*
X3127*
X3202*
X3277*
X3357*
X3418*
X3426Y606*
Y686*
D02*
D104*
X1531Y1145D03*
X1591D03*
X2685Y1217D03*
D02*
D105*
X3501Y941D03*
Y1575D03*
X0Y0D02*
M02*
