%FSLAX25Y25*%
%MOIN*%
G04 EasyPC Gerber Version 18.0.8 Build 3632 *
%ADD151R,0.01958X0.04340*%
%ADD149R,0.04340X0.01958*%
%ADD72R,0.04340X0.04931*%
%ADD152R,0.04734X0.05718*%
%ADD153R,0.06387X0.02923*%
%ADD88R,0.09065X0.13395*%
%ADD27R,0.06600X0.06600*%
%ADD28C,0.06600*%
%ADD154C,0.08474*%
%ADD29R,0.04931X0.04340*%
%ADD87R,0.09065X0.04340*%
%ADD73R,0.05718X0.04734*%
%ADD86R,0.07687X0.05324*%
%ADD155R,0.20600X0.09616*%
%ADD156R,0.20600X0.10246*%
X0Y0D02*
D02*
D27*
X13187Y151467D03*
X14833Y188907D03*
X108250Y162750D03*
X120250Y110750D03*
D02*
D28*
X13187Y102254D03*
Y112096D03*
Y121939D03*
Y131781D03*
Y141624D03*
X14833Y198907D03*
X24833Y188907D03*
Y198907D03*
X34833Y188907D03*
Y198907D03*
X44833Y188907D03*
Y198907D03*
X54833Y188907D03*
Y198907D03*
X64833Y188907D03*
Y198907D03*
X74833Y188907D03*
Y198907D03*
X84833Y188907D03*
Y198907D03*
X94833Y188907D03*
Y198907D03*
X104833Y188907D03*
Y198907D03*
X108250Y132750D03*
Y142750D03*
Y152750D03*
X114833Y188907D03*
Y198907D03*
X118250Y132750D03*
Y142750D03*
Y152750D03*
Y162750D03*
X120250Y120750D03*
X124833Y188907D03*
Y198907D03*
X130250Y110750D03*
Y120750D03*
X140250Y110750D03*
Y120750D03*
X150250Y110750D03*
Y120750D03*
X160250Y110750D03*
Y120750D03*
X167037Y188430D03*
X177037D03*
D02*
D29*
X24156Y67734D03*
Y73443D03*
X24344Y80057D03*
Y85766D03*
X134344Y159903D03*
Y165611D03*
X142144Y153703D03*
Y159411D03*
X142556Y165889D03*
Y171597D03*
D02*
D72*
X20234Y101844D03*
X25943D03*
X68557Y95656D03*
X74266D03*
X169189Y180644D03*
X174897D03*
D02*
D73*
X104573Y80545D03*
Y89797D03*
X104927Y57703D03*
Y66955D03*
X144573Y80545D03*
Y89797D03*
D02*
D86*
X34250Y64852D03*
Y74301D03*
X49998Y64852D03*
Y74301D03*
D02*
D87*
X152650Y154495D03*
Y163550D03*
Y172605D03*
D02*
D88*
X175485Y163550D03*
D02*
D149*
X33033Y115128D03*
Y117096D03*
Y119065D03*
Y121033D03*
Y123002D03*
Y124970D03*
Y126939D03*
Y128907D03*
Y130876D03*
Y132844D03*
Y134813D03*
Y136781D03*
Y138750D03*
Y140719D03*
Y142687D03*
Y144656D03*
Y146624D03*
Y148593D03*
Y150561D03*
Y152530D03*
Y154498D03*
Y156467D03*
Y158435D03*
Y160404D03*
Y162372D03*
X93467Y115128D03*
Y117096D03*
Y119065D03*
Y121033D03*
Y123002D03*
Y124970D03*
Y126939D03*
Y128907D03*
Y130876D03*
Y132844D03*
Y134813D03*
Y136781D03*
Y138750D03*
Y140719D03*
Y142687D03*
Y144656D03*
Y146624D03*
Y148593D03*
Y150561D03*
Y152530D03*
Y154498D03*
Y156467D03*
Y158435D03*
Y160404D03*
Y162372D03*
D02*
D151*
X39628Y108533D03*
Y168967D03*
X41596Y108533D03*
Y168967D03*
X43565Y108533D03*
Y168967D03*
X45533Y108533D03*
Y168967D03*
X47502Y108533D03*
Y168967D03*
X49470Y108533D03*
Y168967D03*
X51439Y108533D03*
Y168967D03*
X53407Y108533D03*
Y168967D03*
X55376Y108533D03*
Y168967D03*
X57344Y108533D03*
Y168967D03*
X59313Y108533D03*
Y168967D03*
X61281Y108533D03*
Y168967D03*
X63250Y108533D03*
Y168967D03*
X65219Y108533D03*
Y168967D03*
X67187Y108533D03*
Y168967D03*
X69156Y108533D03*
Y168967D03*
X71124Y108533D03*
Y168967D03*
X73093Y108533D03*
Y168967D03*
X75061Y108533D03*
Y168967D03*
X77030Y108533D03*
Y168967D03*
X78998Y108533D03*
Y168967D03*
X80967Y108533D03*
Y168967D03*
X82935Y108533D03*
Y168967D03*
X84904Y108533D03*
Y168967D03*
X86872Y108533D03*
Y168967D03*
D02*
D152*
X142445Y143227D03*
Y182227D03*
Y193227D03*
X151045Y73427D03*
X151697Y143227D03*
Y182227D03*
Y193227D03*
X160297Y73427D03*
D02*
D153*
X61348Y74250D03*
Y79250D03*
Y84250D03*
Y89250D03*
X81152Y74250D03*
Y79250D03*
Y84250D03*
Y89250D03*
D02*
D154*
X104191Y73750D03*
X144309D03*
D02*
D155*
X179644Y73561D03*
D02*
D156*
Y56553D03*
Y90569D03*
X0Y0D02*
M02*
