%FSLAX25Y25*%
%MOIN*%
G04 EasyPC Gerber Version 18.0.8 Build 3632 *
%ADD77R,0.01358X0.03740*%
%ADD76R,0.03740X0.01358*%
%ADD16R,0.03740X0.04331*%
%ADD19R,0.04134X0.05118*%
%ADD78R,0.05787X0.02323*%
%ADD81R,0.08465X0.12795*%
%ADD13R,0.06000X0.06000*%
%ADD12C,0.00100*%
%ADD10C,0.00500*%
%ADD85C,0.00600*%
%ADD11C,0.01000*%
%ADD84C,0.01200*%
%ADD24C,0.01500*%
%ADD22C,0.02000*%
%ADD23C,0.02500*%
%ADD25C,0.03000*%
%ADD26C,0.04000*%
%ADD21C,0.04800*%
%ADD83C,0.05000*%
%ADD14C,0.06000*%
%ADD70C,0.07874*%
%ADD15R,0.04331X0.03740*%
%ADD80R,0.08465X0.03740*%
%ADD17R,0.05118X0.04134*%
%ADD79R,0.07087X0.04724*%
%ADD82R,0.20000X0.09016*%
%ADD71R,0.20000X0.09646*%
X0Y0D02*
D02*
D10*
X120250Y51250D02*
X168394D01*
Y62626*
X184750*
Y67803*
X172062*
G75*
G02X171450Y67650I-612J1147*
G01*
X164650*
G75*
G02X163731Y68031J1300*
G01*
X162143Y69618*
X156980*
Y72287*
G75*
G02Y74567I3316J1140*
G01*
Y77236*
X162098*
X163831Y78969*
G75*
G02X164750Y79350I919J-919*
G01*
X171450*
G75*
G02X171733Y79319J-1300*
G01*
X184750*
Y84496*
X168394*
Y96642*
X184750*
Y102550*
X125850*
X120250Y96950*
Y51250*
X140764Y77536D02*
Y83862D01*
X144103*
G75*
G02X145043I470J-3318*
G01*
X148382*
Y77236*
X154362*
Y73896*
G75*
G02Y72958I-3317J-469*
G01*
Y69618*
X147728*
Y69850*
G75*
G02X140764Y77536I-3419J3900*
G01*
Y93114D02*
X148382D01*
Y86480*
X140764*
Y93114*
X120250Y76229D02*
G36*
Y51250D01*
X168394*
Y62626*
X184750*
Y67803*
X172062*
G75*
G02X171450Y67650I-612J1147*
G01*
X164650*
G75*
G02X163731Y68031J1300*
G01*
X162143Y69618*
X156980*
Y72287*
G75*
G02Y74567I3316J1140*
G01*
Y76229*
X154362*
Y73896*
G75*
G02Y72958I-3317J-469*
G01*
Y69618*
X147728*
Y69850*
G75*
G02X139753Y76229I-3419J3900*
G01*
X120250*
G37*
X139753D02*
G36*
G75*
G02X140764Y77536I4556J-2480D01*
G01*
Y83862*
X144103*
G75*
G02X145043I470J-3318*
G01*
X148382*
Y77236*
X154362*
Y76229*
X156980*
Y77236*
X162098*
X163831Y78969*
G75*
G02X164750Y79350I919J-919*
G01*
X171450*
G75*
G02X171733Y79319J-1300*
G01*
X184750*
Y84496*
X168394*
Y89797*
X148382*
Y86480*
X140764*
Y89797*
X120250*
Y76229*
X139753*
G37*
X140764Y89797D02*
G36*
Y93114D01*
X148382*
Y89797*
X168394*
Y96642*
X184750*
Y102550*
X125850*
X120250Y96950*
Y89797*
X140764*
G37*
D02*
D11*
X10350Y64750D02*
X8350D01*
X10350Y76750D02*
X8350D01*
X10350Y92750D02*
X8350D01*
X10687Y151467D02*
X8687D01*
X12250Y62850D02*
Y60850D01*
Y66650D02*
Y68650D01*
Y74850D02*
Y72850D01*
Y78650D02*
Y80650D01*
Y90850D02*
Y88850D01*
Y94650D02*
Y96650D01*
X12333Y188907D02*
X10333D01*
X12350Y166750D02*
X10350D01*
X12350Y178750D02*
X10350D01*
X13187Y148967D02*
Y146967D01*
Y153967D02*
Y155967D01*
X14150Y64750D02*
X16150D01*
X14150Y76750D02*
X16150D01*
X14150Y92750D02*
X16150D01*
X14250Y164850D02*
Y162850D01*
Y168650D02*
Y170650D01*
Y176850D02*
Y174850D01*
Y180650D02*
Y182650D01*
X14833Y186407D02*
Y184407D01*
Y191407D02*
Y193407D01*
X15687Y151467D02*
X17687D01*
X16150Y166750D02*
X18150D01*
X16150Y178750D02*
X18150D01*
X17333Y188907D02*
X19333D01*
X20234Y100179D02*
Y98179D01*
Y103510D02*
Y105510D01*
X21350Y91750D02*
X19350D01*
X21350Y163750D02*
X19350D01*
X22679Y85766D02*
X20679D01*
X22906Y53406D02*
X21492Y51992D01*
X22906Y56094D02*
X21492Y57508D01*
X23250Y93650D02*
Y95650D01*
Y161850D02*
Y159850D01*
Y165650D02*
Y167650D01*
X24344Y87136D02*
Y89136D01*
X25150Y91750D02*
X27150D01*
X25150Y163750D02*
X27150D01*
X25350Y138750D02*
X23350D01*
X25594Y53406D02*
X27008Y51992D01*
X25594Y56094D02*
X27008Y57508D01*
X25943Y101844D02*
Y113943D01*
X29250Y117250*
X32687*
X32841Y117096*
X33033*
X26010Y85766D02*
X28010D01*
X26350Y173750D02*
X24350D01*
X27250Y136850D02*
Y134850D01*
Y140650D02*
Y142650D01*
X28250Y171850D02*
Y169850D01*
Y175650D02*
Y177650D01*
X29750Y156450D02*
X31750D01*
X30150Y173750D02*
X32150D01*
X30250Y128950D02*
X32250D01*
X33033Y115128D02*
Y101767D01*
X38650Y96150*
X33033Y119065D02*
X24565D01*
X17250Y111750*
X13533*
X13187Y112096*
X33033Y121033D02*
X32267D01*
X32250Y121050*
X19250*
X18550Y121750*
X13376*
X13187Y121939*
X33033Y123002D02*
X21967D01*
X13187Y131781*
X33033Y124970D02*
X29841D01*
X13187Y141624*
X36350Y128850D02*
X34350D01*
X36550Y156450D02*
X34550D01*
X36906Y112406D02*
X35492Y110992D01*
X38906Y138406D02*
X37492Y136992D01*
X38906Y141094D02*
X37492Y142508D01*
X38906Y161406D02*
X37492Y159992D01*
X38906Y164094D02*
X37492Y165508D01*
X39302Y108208D02*
X37449Y106354D01*
X39302Y108859D02*
X37449Y110713D01*
X39594Y115094D02*
X41008Y116508D01*
X40906Y53406D02*
X39492Y51992D01*
X40906Y56094D02*
X39492Y57508D01*
X40906Y116406D02*
X39492Y114992D01*
X41594Y138406D02*
X43008Y136992D01*
X41594Y141094D02*
X43008Y142508D01*
X41594Y161406D02*
X43008Y159992D01*
X41594Y164094D02*
X43008Y165508D01*
X41596Y168967D02*
Y172144D01*
X24833Y188907*
X43565Y168967D02*
Y173435D01*
X30250Y186750*
Y193490*
X24833Y198907*
X43594Y53406D02*
X45008Y51992D01*
X43594Y56094D02*
X45008Y57508D01*
X43594Y116406D02*
X45008Y114992D01*
X43594Y119094D02*
X45008Y120508D01*
X43906Y161406D02*
X42492Y159992D01*
X43906Y164094D02*
X42492Y165508D01*
X44350Y99750D02*
X42350D01*
X45533Y168967D02*
Y176467D01*
X34250Y187750*
Y188325*
X34833Y188907*
X46250Y97850D02*
Y95850D01*
Y101650D02*
Y103650D01*
X46594Y161406D02*
X48008Y159992D01*
X46594Y164094D02*
X48008Y165508D01*
X47350Y136750D02*
X45350D01*
X47350Y144750D02*
X45350D01*
X47502Y168967D02*
Y178498D01*
X40250Y185750*
Y192490*
X34833Y197907*
Y198907*
X48150Y99750D02*
X50150D01*
X49250Y134850D02*
Y132850D01*
Y138650D02*
Y140650D01*
Y142850D02*
Y140850D01*
Y146650D02*
Y148650D01*
X49470Y168967D02*
Y180750D01*
X45250Y184970*
Y188490*
X44833Y188907*
X49998Y62990D02*
Y60990D01*
X51150Y136750D02*
X53150D01*
X51150Y144750D02*
X53150D01*
X51439Y168967D02*
Y182561D01*
X49250Y184750*
Y194490*
X44833Y198907*
X53041Y64852D02*
X55041D01*
X53407Y168967D02*
Y187482D01*
X54833Y188907*
X55376Y168967D02*
Y181876D01*
X59250Y185750*
Y194490*
X54833Y198907*
X57344Y108533D02*
Y106656D01*
X58250Y105750*
X57344Y108533D02*
Y110844D01*
X58250Y111750*
X57344Y168967D02*
Y180844D01*
X64250Y187750*
Y188325*
X64833Y188907*
X58250Y105750D02*
X56250Y103750D01*
X58250Y111750D02*
X59250Y112750D01*
Y144750D02*
X58250Y143750D01*
Y138150*
X42850Y122750*
X41850*
X36250Y117150*
X33380*
X33326Y117096*
X33033*
X59313Y108533D02*
Y110687D01*
X58250Y111750*
X59313Y108533D02*
X57344D01*
X59313D02*
Y106813D01*
X58250Y105750*
X59350Y167650D02*
Y165650D01*
X61281Y168967D02*
Y178781D01*
X69250Y186750*
Y194490*
X64833Y198907*
X61906Y138406D02*
X60492Y136992D01*
X61906Y141094D02*
X60492Y142508D01*
X62350Y57750D02*
X60350D01*
X64250Y55850D02*
Y53850D01*
Y59650D02*
Y61650D01*
X66150Y57750D02*
X68150D01*
X67187Y168967D02*
Y171813D01*
X65250Y173750*
Y179325*
X74833Y188907*
X68557Y95656D02*
Y92057D01*
X66250Y89750*
X61848*
X61348Y89250*
X69350Y129750D02*
X67350D01*
X71250Y127850D02*
Y125850D01*
Y131650D02*
Y133650D01*
X73093Y168967D02*
Y180593D01*
X80250Y187750*
Y193490*
X74833Y198907*
X73150Y129750D02*
X75150D01*
X73250Y144850D02*
Y142850D01*
Y148650D02*
Y150650D01*
X73350Y57750D02*
X71350D01*
X75061Y168967D02*
Y179136D01*
X84833Y188907*
X75150Y146750D02*
X77150D01*
X75250Y55850D02*
Y53850D01*
Y59650D02*
Y61650D01*
X75350Y117750D02*
X73350D01*
X77030Y168967D02*
Y174530D01*
X89250Y186750*
Y194490*
X84833Y198907*
X77150Y57750D02*
X79150D01*
X77250Y115850D02*
Y113850D01*
Y119650D02*
Y121650D01*
X78906Y132406D02*
X77492Y130992D01*
X78906Y135094D02*
X77492Y136508D01*
X78906Y145406D02*
X77492Y143992D01*
X78906Y148094D02*
X77492Y149508D01*
X78998Y168967D02*
Y172498D01*
X94833Y188333*
Y188907*
X79150Y117750D02*
X81150D01*
X80967Y168967D02*
Y171467D01*
X87250Y177750*
X96250*
X100250Y181750*
Y189750*
X94833Y195167*
Y198907*
X81152Y84250D02*
X76750D01*
X74250Y86750*
Y95640*
X74266Y95656*
X81594Y132406D02*
X83008Y130992D01*
X81594Y135094D02*
X83008Y136508D01*
X81594Y145406D02*
X83008Y143992D01*
X81594Y148094D02*
X83008Y149508D01*
X82350Y57750D02*
X80350D01*
X82906Y116406D02*
X81492Y114992D01*
X82906Y119094D02*
X81492Y120508D01*
X84250Y55850D02*
Y53850D01*
Y59650D02*
Y61650D01*
X84904Y168967D02*
Y171404D01*
X88250Y174750*
X105250*
X110250Y179750*
Y189750*
X104833Y195167*
Y198907*
X85594Y116406D02*
X87008Y114992D01*
X85594Y119094D02*
X87008Y120508D01*
X86150Y57750D02*
X88150D01*
X86872Y168967D02*
Y170372D01*
X87250Y170750*
X106250*
X114250Y178750*
Y188325*
X114833Y188907*
X90650Y167350D02*
X87450Y164150D01*
X79450*
X75450Y160150*
Y156950*
X73050Y154550*
X69050*
X67450Y156150*
Y161750*
X65219Y163981*
Y168967*
X91950Y154550D02*
X89950D01*
X92050Y126950D02*
X90050D01*
X92350Y98750D02*
X90350D01*
X93467Y160404D02*
X78904D01*
X77250Y158750*
Y155750*
X74250Y152750*
X72250*
X67250Y147750*
X94250Y96850D02*
Y94850D01*
Y100650D02*
Y102650D01*
X94350Y85750D02*
X92350D01*
X96150Y98750D02*
X98150D01*
X96250Y83850D02*
Y81850D01*
Y87650D02*
Y89650D01*
X96750Y154550D02*
X94750D01*
X98150Y85750D02*
X100150D01*
X98350Y57750D02*
X96350D01*
X98906Y158806D02*
X97492Y157392D01*
X98906Y161494D02*
X97492Y162908D01*
X99350Y111750D02*
X97350D01*
X100250Y55850D02*
Y53850D01*
Y59650D02*
Y61650D01*
X101594Y161494D02*
X103008Y162908D01*
X102514Y89797D02*
X100514D01*
X102868Y57703D02*
X100868D01*
X103150Y111750D02*
X105150D01*
X104573Y88230D02*
Y86230D01*
Y91364D02*
Y93364D01*
X104927Y56136D02*
Y54136D01*
Y59270D02*
Y61270D01*
X105750Y162750D02*
X103750D01*
X106632Y89797D02*
X108632D01*
X106986Y57703D02*
X108986D01*
X110750Y162750D02*
X112750D01*
X112350Y98750D02*
X110350D01*
X112906Y56406D02*
X111492Y54992D01*
X112906Y59094D02*
X111492Y60508D01*
X112906Y63406D02*
X111492Y61992D01*
X112906Y66094D02*
X111492Y67508D01*
X112906Y70406D02*
X111492Y68992D01*
X112906Y73094D02*
X111492Y74508D01*
X112906Y76406D02*
X111492Y74992D01*
X112906Y79094D02*
X111492Y80508D01*
X112906Y82406D02*
X111492Y80992D01*
X112906Y85094D02*
X111492Y86508D01*
X112906Y88406D02*
X111492Y86992D01*
X112906Y91094D02*
X111492Y92508D01*
X114250Y96850D02*
Y94850D01*
Y100650D02*
Y102650D01*
X114833Y198907D02*
Y196167D01*
X120250Y190750*
Y178750*
X109250Y167750*
X98250*
X93467Y162967*
Y162372*
X115594Y56406D02*
X117008Y54992D01*
X115594Y59094D02*
X117008Y60508D01*
X115594Y63406D02*
X117008Y61992D01*
X115594Y66094D02*
X117008Y67508D01*
X115594Y70406D02*
X117008Y68992D01*
X115594Y73094D02*
X117008Y74508D01*
X115594Y76406D02*
X117008Y74992D01*
X115594Y79094D02*
X117008Y80508D01*
X115594Y82406D02*
X117008Y80992D01*
X115594Y85094D02*
X117008Y86508D01*
X115594Y88406D02*
X117008Y86992D01*
X115594Y91094D02*
X117008Y92508D01*
X116150Y98750D02*
X118150D01*
X118482Y118982D02*
X117068Y117568D01*
X122018Y118982D02*
X123432Y117568D01*
X122018Y122518D02*
X123432Y123932D01*
X123906Y141406D02*
X122492Y139992D01*
X123906Y144094D02*
X122492Y145508D01*
X124833Y186407D02*
Y184407D01*
Y191407D02*
Y193407D01*
X126594Y141406D02*
X128008Y139992D01*
X126594Y144094D02*
X128008Y145508D01*
X127333Y188907D02*
X129333D01*
X133906Y142406D02*
X132492Y140992D01*
X133906Y145094D02*
X132492Y146508D01*
X133906Y179406D02*
X132492Y177992D01*
X133906Y182094D02*
X132492Y183508D01*
X134906Y194406D02*
X133492Y192992D01*
X134906Y197094D02*
X133492Y198508D01*
X136594Y142406D02*
X138008Y140992D01*
X136594Y145094D02*
X138008Y146508D01*
X136594Y179406D02*
X138008Y177992D01*
X136594Y182094D02*
X138008Y183508D01*
X137594Y197094D02*
X139008Y198508D01*
X140878Y143227D02*
X138878D01*
X140878Y182227D02*
X138878D01*
X140878Y193227D02*
X138878D01*
X142445Y141168D02*
Y139168D01*
Y145286D02*
Y147286D01*
Y180168D02*
Y178168D01*
Y184286D02*
Y186286D01*
Y191168D02*
Y189168D01*
Y195286D02*
Y197286D01*
X142514Y89797D02*
X140514D01*
X144012Y143227D02*
X146012D01*
X144012Y182227D02*
X146012D01*
X144012Y193227D02*
X146012D01*
X144573Y88230D02*
Y86230D01*
Y91364D02*
Y93364D01*
X146632Y89797D02*
X148632D01*
X148918Y163550D02*
X146918D01*
X151150Y160150D02*
X149050D01*
X152650Y162180D02*
Y160180D01*
Y164920D02*
Y166920D01*
X154950Y160150D02*
X157050D01*
X156382Y163550D02*
X158382D01*
X157350Y183750D02*
X155350D01*
X157750Y120750D02*
X155750D01*
X158350Y148750D02*
X156350D01*
X159250Y181850D02*
Y179850D01*
Y185650D02*
Y187650D01*
X160250Y118250D02*
Y116250D01*
Y123250D02*
Y125250D01*
Y146850D02*
Y144850D01*
Y150650D02*
Y152650D01*
X161150Y183750D02*
X163150D01*
X162150Y148750D02*
X164150D01*
X162750Y120750D02*
X164750D01*
X167350Y153750D02*
X165350D01*
X167350Y168750D02*
X165350D01*
X169250Y151850D02*
Y149850D01*
Y155650D02*
Y157650D01*
Y166850D02*
Y164850D01*
Y170650D02*
Y172650D01*
X170144Y56553D02*
X168144D01*
X170144Y90569D02*
X168144D01*
X171150Y153750D02*
X173150D01*
X171350Y137750D02*
X169350D01*
X171752Y163550D02*
X169752D01*
X173250Y135850D02*
Y133850D01*
Y139650D02*
Y141650D01*
X174897Y178979D02*
Y176644D01*
X175150Y137750D02*
X177150D01*
X175270Y186663D02*
X173856Y185248D01*
X175270Y190198D02*
X173856Y191612D01*
X175485Y157652D02*
Y155652D01*
Y169448D02*
Y171448D01*
X176267Y180644D02*
X178897D01*
X178805Y186663D02*
X180219Y185248D01*
X178805Y190198D02*
X180219Y191612D01*
X179217Y163550D02*
X181217D01*
X179644Y60876D02*
Y62876D01*
Y86246D02*
Y84246D01*
Y94892D02*
Y96892D01*
X179906Y113406D02*
X178492Y111992D01*
X179906Y116094D02*
X178492Y117508D01*
X180350Y129750D02*
X178350D01*
X180350Y145750D02*
X178350D01*
X180350Y176750D02*
X178350D01*
X182250Y127850D02*
Y125850D01*
Y131650D02*
Y133650D01*
Y143850D02*
Y141850D01*
Y147650D02*
Y149650D01*
Y161850D02*
Y159850D01*
Y165650D02*
Y167650D01*
Y174850D02*
Y172850D01*
Y178650D02*
Y180650D01*
X182594Y113406D02*
X184008Y111992D01*
X182594Y116094D02*
X184008Y117508D01*
D02*
D12*
X5550Y55650D02*
X10150Y51050D01*
X117850*
Y97750*
X123200Y103100*
X84050*
G75*
G02X83095Y103495I0J1350*
G01*
X81795Y104795*
G75*
G02X81407Y105612I955J954*
G01*
X78788*
X89850Y94550*
Y81548*
G75*
G02X91376Y80876I-100J-2298*
G01*
X96203Y76050*
X99766*
G75*
G02X100963Y77551I4425J-2300*
G01*
Y83663*
X102876*
G75*
G02X106270I1697J-3118*
G01*
X108183*
Y77427*
X108123*
Y76818*
G75*
G02X108477Y71201I-3932J-3068*
G01*
Y70073*
X108537*
Y63837*
X106624*
G75*
G02X103230I-1697J3118*
G01*
X101317*
Y69674*
G75*
G02X99766Y71450I2874J4075*
G01*
X95250*
G75*
G02X93624Y72124J2300*
G01*
X89850Y75897*
Y73750*
X81850Y65750*
X54593*
Y61439*
X45404*
Y62104*
X42650Y59350*
X21850*
X20250Y60950*
Y82550*
X21128Y83428*
Y88687*
X27561*
Y84950*
X38650*
X59312Y105612*
X37900*
Y111455*
X53569*
Y114737*
G75*
G02X51800Y117750I1681J3013*
G01*
G75*
G02X58700I3450*
G01*
G75*
G02X57183Y114893I-3450*
G01*
Y111455*
X61600*
Y114720*
G75*
G02X61450Y120693I1650J3030*
G01*
Y132750*
G75*
G02X61977Y134023I1800*
G01*
X67704Y139750*
X61977Y145477*
G75*
G02X61450Y146750I1273J1273*
G01*
Y155807*
G75*
G02X61600Y161780I1800J2943*
G01*
Y166045*
X37900*
Y171888*
X39660*
X26382Y185166*
G75*
G02X24833Y184857I-1550J3741*
G01*
G75*
G02Y192957J4050*
G01*
G75*
G02X28700Y190110J-4050*
G01*
Y192848*
X26382Y195166*
G75*
G02X20807Y199350I-1550J3742*
G01*
X18858*
G75*
G02X14833Y194857I-4026J-443*
G01*
G75*
G02X10807Y199350J4050*
G01*
X9850*
X5550Y195050*
Y55650*
X13187Y98204D02*
G75*
G02Y106304J4050D01*
G01*
G75*
G02Y98204J-4050*
G01*
X14737Y128040D02*
G75*
G02X13187Y127731I-1550J3741D01*
G01*
G75*
G02Y135831J4050*
G01*
G75*
G02X16929Y130232J-4050*
G01*
X22609Y124552*
X28067*
X14737Y137882*
G75*
G02X13187Y137574I-1550J3741*
G01*
G75*
G02Y145674J4050*
G01*
G75*
G02X16929Y140074J-4050*
G01*
X30112Y126891*
Y164100*
X35955*
Y156306*
X39280*
G75*
G02X45700Y154550I2970J-1756*
G01*
G75*
G02X39344Y152691I-3450*
G01*
X35955*
Y128589*
X38331*
G75*
G02X44691Y127005I2919J-1839*
G01*
X56543Y138857*
Y143750*
G75*
G02X57043Y144957I1707*
G01*
X57241Y145155*
G75*
G02X61300Y144750I2009J-405*
G01*
G75*
G02X59957Y142826I-2050*
G01*
Y138150*
G75*
G02X59457Y136943I-1707*
G01*
X44057Y121543*
G75*
G02X42850Y121043I-1207J1207*
G01*
X42557*
X37457Y115943*
G75*
G02X36250Y115443I-1207J1207*
G01*
X35955*
Y113400*
X34583*
Y102409*
X38797Y98195*
G75*
G02X40700Y96150I-147J-2045*
G01*
G75*
G02X36605Y96003I-2050*
G01*
X31937Y100670*
G75*
G02X31483Y101767I1096J1096*
G01*
Y113400*
X30112*
Y115543*
X29957*
X27650Y113236*
Y105061*
X28864*
Y98628*
X17313*
Y105061*
X24235*
Y113943*
G75*
G02X24735Y115150I1707*
G01*
X27100Y117515*
X25207*
X18346Y110654*
G75*
G02X17250Y110200I-1096J1096*
G01*
X16765*
G75*
G02X13187Y108046I-3578J1896*
G01*
G75*
G02Y116146J4050*
G01*
G75*
G02X16936Y113628J-4050*
G01*
X22634Y119326*
X19250*
G75*
G02X18029Y119840J1707*
G01*
X17831Y120043*
X16765*
G75*
G02X13187Y117889I-3578J1896*
G01*
G75*
G02Y125989J4050*
G01*
G75*
G02X16942Y123457J-4050*
G01*
X18550*
G75*
G02X19771Y122943J-1707*
G01*
X19969Y122741*
X20035*
X14737Y128040*
X17238Y147415D02*
X9136D01*
Y155518*
X17238*
Y147415*
X18884Y184856D02*
X10781D01*
Y192959*
X18884*
Y184856*
X100963Y92915D02*
X108183D01*
Y86679*
X100963*
Y92915*
X108537Y54585D02*
X101317D01*
Y60821*
X108537*
Y54585*
X5550Y102254D02*
G36*
Y57703D01*
X101317*
Y60821*
X108537*
Y57703*
X117850*
Y89797*
X108183*
Y86679*
X100963*
Y89797*
X89850*
Y81548*
G75*
G02X91376Y80876I-100J-2298*
G01*
X96203Y76050*
X99766*
G75*
G02X100963Y77551I4425J-2300*
G01*
Y83663*
X102876*
G75*
G02X106270I1697J-3118*
G01*
X108183*
Y77427*
X108123*
Y76818*
G75*
G02X108477Y71201I-3932J-3068*
G01*
Y70073*
X108537*
Y63837*
X106624*
G75*
G02X103230I-1697J3118*
G01*
X101317*
Y69674*
G75*
G02X99766Y71450I2874J4075*
G01*
X95250*
G75*
G02X93624Y72124J2300*
G01*
X89850Y75897*
Y73750*
X81850Y65750*
X54593*
Y61439*
X45404*
Y62104*
X42650Y59350*
X21850*
X20250Y60950*
Y82550*
X21128Y83428*
Y88687*
X27561*
Y84950*
X38650*
X55954Y102254*
X34738*
X38797Y98195*
G75*
G02X40700Y96150I-147J-2045*
G01*
G75*
G02X36605Y96003I-2050*
G01*
X31937Y100670*
G75*
G02X31483Y101767I1096J1096*
G01*
Y113400*
X30112*
Y115543*
X29957*
X27650Y113236*
Y105061*
X28864*
Y98628*
X17313*
Y102254*
X17237*
G75*
G02X13187Y98204I-4050*
G01*
G75*
G02X9137Y102254J4050*
G01*
X5550*
G37*
X9137D02*
G36*
G75*
G02X13187Y106304I4050D01*
G01*
G75*
G02X17237Y102254J-4050*
G01*
X17313*
Y105061*
X24235*
Y113943*
G75*
G02X24735Y115150I1707*
G01*
X27100Y117515*
X25207*
X18346Y110654*
G75*
G02X17250Y110200I-1096J1096*
G01*
X16765*
G75*
G02X13187Y108046I-3578J1896*
G01*
G75*
G02Y116146J4050*
G01*
G75*
G02X16936Y113628J-4050*
G01*
X22634Y119326*
X19250*
G75*
G02X18029Y119840J1707*
G01*
X17831Y120043*
X16765*
G75*
G02X13187Y117889I-3578J1896*
G01*
G75*
G02Y125989J4050*
G01*
G75*
G02X16942Y123457J-4050*
G01*
X18550*
G75*
G02X19771Y122943J-1707*
G01*
X19969Y122741*
X20035*
X14737Y128040*
G75*
G02X13187Y127731I-1550J3741*
G01*
G75*
G02Y135831J4050*
G01*
G75*
G02X16929Y130232J-4050*
G01*
X22609Y124552*
X28067*
X14737Y137882*
G75*
G02X13187Y137574I-1550J3741*
G01*
G75*
G02Y145674J4050*
G01*
G75*
G02X16929Y140074J-4050*
G01*
X30112Y126891*
Y151467*
X17238*
Y147415*
X9136*
Y151467*
X5550*
Y102254*
X9137*
G37*
X55954D02*
G36*
X59312Y105612D01*
X37900*
Y111455*
X53569*
Y114737*
G75*
G02X51800Y117750I1681J3013*
G01*
G75*
G02X58700I3450*
G01*
G75*
G02X57183Y114893I-3450*
G01*
Y111455*
X61600*
Y114720*
G75*
G02X61450Y120693I1650J3030*
G01*
Y132750*
G75*
G02X61977Y134023I1800*
G01*
X67704Y139750*
X61977Y145477*
G75*
G02X61450Y146750I1273J1273*
G01*
Y151467*
X43797*
G75*
G02X39344Y152691I-1547J3083*
G01*
X35955*
Y128589*
X38331*
G75*
G02X44691Y127005I2919J-1839*
G01*
X56543Y138857*
Y143750*
G75*
G02X57043Y144957I1707*
G01*
X57241Y145155*
G75*
G02X61300Y144750I2009J-405*
G01*
G75*
G02X59957Y142826I-2050*
G01*
Y138150*
G75*
G02X59457Y136943I-1707*
G01*
X44057Y121543*
G75*
G02X42850Y121043I-1207J1207*
G01*
X42557*
X37457Y115943*
G75*
G02X36250Y115443I-1207J1207*
G01*
X35955*
Y113400*
X34583*
Y102409*
X34738Y102254*
X55954*
G37*
X9136Y151467D02*
G36*
Y155518D01*
X17238*
Y151467*
X30112*
Y164100*
X35955*
Y156306*
X39280*
G75*
G02X45700Y154550I2970J-1756*
G01*
G75*
G02X43797Y151467I-3450*
G01*
X61450*
Y155807*
G75*
G02X61600Y161780I1800J2943*
G01*
Y166045*
X37900*
Y171888*
X39660*
X26382Y185166*
G75*
G02X24833Y184857I-1550J3741*
G01*
G75*
G02X20783Y188907J4050*
G01*
X18884*
Y184856*
X10781*
Y188907*
X5550*
Y151467*
X9136*
G37*
X10781Y188907D02*
G36*
Y192959D01*
X18884*
Y188907*
X20783*
G75*
G02X24833Y192957I4050*
G01*
G75*
G02X28700Y190110J-4050*
G01*
Y192848*
X26382Y195166*
G75*
G02X20807Y199350I-1550J3742*
G01*
X18858*
G75*
G02X14833Y194857I-4026J-443*
G01*
G75*
G02X10807Y199350J4050*
G01*
X9850*
X5550Y195050*
Y188907*
X10781*
G37*
X100963Y89797D02*
G36*
Y92915D01*
X108183*
Y89797*
X117850*
Y97750*
X123200Y103100*
X84050*
G75*
G02X83095Y103495I0J1350*
G01*
X81795Y104795*
G75*
G02X81407Y105612I955J954*
G01*
X78788*
X89850Y94550*
Y89797*
X100963*
G37*
X5550Y57703D02*
G36*
Y55650D01*
X10150Y51050*
X117850*
Y57703*
X108537*
Y54585*
X101317*
Y57703*
X5550*
G37*
X64900Y111455D02*
X79617D01*
Y111750*
G75*
G02X80012Y112705I1350J0*
G01*
X81012Y113705*
G75*
G02X81967Y114100I954J-955*
G01*
X89650*
G75*
G02X90545Y113761I0J-1350*
G01*
Y123320*
X88390*
G75*
G02X81800Y124750I-3140J1430*
G01*
G75*
G02X88149Y126620I3450*
G01*
X90545*
Y150880*
X88149*
G75*
G02X81800Y152750I-2899J1870*
G01*
G75*
G02X88390Y154180I3450*
G01*
X90545*
Y158854*
X79546*
X78800Y158108*
Y155750*
G75*
G02X78346Y154654I-1550*
G01*
X75346Y151654*
G75*
G02X74250Y151200I-1096J1096*
G01*
X72892*
X69295Y147603*
G75*
G02X66794Y145751I-2045J147*
G01*
X70746Y141800*
X82475*
G75*
G02X88700Y139750I2775J-2050*
G01*
G75*
G02X82475Y137700I-3450*
G01*
X70746*
X65050Y132004*
Y120693*
G75*
G02X64900Y114720I-1800J-2943*
G01*
Y111455*
G36*
X79617*
Y111750*
G75*
G02X80012Y112705I1350J0*
G01*
X81012Y113705*
G75*
G02X81967Y114100I954J-955*
G01*
X89650*
G75*
G02X90545Y113761I0J-1350*
G01*
Y123320*
X88390*
G75*
G02X81800Y124750I-3140J1430*
G01*
G75*
G02X88149Y126620I3450*
G01*
X90545*
Y150880*
X88149*
G75*
G02X81800Y152750I-2899J1870*
G01*
G75*
G02X88390Y154180I3450*
G01*
X90545*
Y158854*
X79546*
X78800Y158108*
Y155750*
G75*
G02X78346Y154654I-1550*
G01*
X75346Y151654*
G75*
G02X74250Y151200I-1096J1096*
G01*
X72892*
X69295Y147603*
G75*
G02X66794Y145751I-2045J147*
G01*
X70746Y141800*
X82475*
G75*
G02X88700Y139750I2775J-2050*
G01*
G75*
G02X82475Y137700I-3450*
G01*
X70746*
X65050Y132004*
Y120693*
G75*
G02X64900Y114720I-1800J-2943*
G01*
Y111455*
G37*
X90909Y113400D02*
X94709Y109600D01*
X109391*
X116495Y116705*
G75*
G02X117450Y117100I954J-955*
G01*
X118495*
G75*
G02X116392Y121983I1755J3650*
G01*
X108583Y114173*
G75*
G02X107628Y113778I-954J955*
G01*
X96388*
Y113400*
X90909*
G36*
X94709Y109600*
X109391*
X116495Y116705*
G75*
G02X117450Y117100I954J-955*
G01*
X118495*
G75*
G02X116392Y121983I1755J3650*
G01*
X108583Y114173*
G75*
G02X107628Y113778I-954J955*
G01*
X96388*
Y113400*
X90909*
G37*
X96388Y150997D02*
X104095Y158705D01*
G75*
G02X104199Y158798I955J-956*
G01*
Y166200*
X98892*
X96388Y163696*
Y150997*
G36*
X104095Y158705*
G75*
G02X104199Y158798I955J-956*
G01*
Y166200*
X98892*
X96388Y163696*
Y150997*
G37*
X118858Y199350D02*
G75*
G02X117409Y195783I-4026J-443D01*
G01*
X121346Y191846*
G75*
G02X121651Y191413I-1096J-1095*
G01*
G75*
G02X124833Y192957I3182J-2506*
G01*
G75*
G02Y184857J-4050*
G01*
G75*
G02X121800Y186223J4050*
G01*
Y178750*
G75*
G02X121346Y177654I-1550*
G01*
X110493Y166801*
X112301*
Y159100*
X112691*
X114595Y161005*
G75*
G02X119580Y166575I3655J1745*
G01*
G75*
G02X124974Y170700I3070J1575*
G01*
X125126*
G75*
G02X130000Y165826I2324J-2550*
G01*
Y162806*
X130106Y162700*
X131128*
Y168531*
X131294*
Y168644*
G75*
G02X132189Y170802I3050*
G01*
X134894Y173506*
G75*
G02X137050Y174398I2156J-2157*
G01*
X139341*
Y174518*
X139941*
G75*
G02X142557Y176001I2617J-1567*
G01*
X148401*
Y181274*
G75*
G02X148557Y182239I3049*
G01*
G75*
G02X148581Y182608I3140J-13*
G01*
Y185837*
X148647*
Y189618*
X148581*
Y192846*
G75*
G02Y193608I3115J381*
G01*
Y196837*
X154813*
Y196277*
X162241*
G75*
G02X164397Y195384J-3050*
G01*
X167310Y192471*
G75*
G02X171078Y188703I-272J-4041*
G01*
X171345Y188436*
G75*
G02X172239Y186279I-2157J-2157*
G01*
Y182997*
G75*
G02X178447Y180644I2659J-2352*
G01*
G75*
G02X172108Y178448I-3550*
G01*
Y177429*
X166270*
Y179760*
G75*
G02X166139Y180644I2919J885*
G01*
Y184481*
G75*
G02X162996Y188158I899J3949*
G01*
X160977Y190177*
X154813*
Y189618*
X154747*
Y185837*
X154813*
Y182615*
G75*
G02Y181840I-3114J-387*
G01*
Y178618*
X154501*
Y175526*
X157931*
Y169685*
X153804*
G75*
G02X151908Y169554I-1154J2920*
G01*
X151451*
G75*
G02X150567Y169685J3051*
G01*
X147368*
Y169901*
X145770*
Y168677*
X144752*
G75*
G02X143787Y162559I-2197J-2789*
G01*
G75*
G02X144343Y156624I-1642J-3147*
G01*
X145360*
Y156253*
X147368*
Y157415*
X157931*
Y151575*
X154247*
Y146837*
X154813*
Y144599*
X157050*
G75*
G02X158500Y143999J-2050*
G01*
X170499Y132000*
G75*
G02X171099Y130550I-1450J-1450*
G01*
Y129326*
G75*
G02X172500Y126550I-2049J-2776*
G01*
G75*
G02X165600I-3450*
G01*
G75*
G02X166999Y129324I3450*
G01*
Y129701*
X156201Y140499*
X154813*
Y139618*
X153751*
Y138550*
G75*
G02X153077Y136923I-2300*
G01*
X147476Y131324*
G75*
G02X145850Y130651I-1626J1626*
G01*
X136422*
G75*
G02X130400Y132950I-2572J2299*
G01*
G75*
G02X136421Y135251I3450*
G01*
X144898*
X149151Y139503*
Y139618*
X148581*
Y146837*
X149147*
Y151153*
X145360*
Y150781*
X138929*
Y151043*
X137050*
G75*
G02X135135Y151835J2707*
G01*
X132430Y154541*
G75*
G02X131637Y156456I1915J1915*
G01*
Y156982*
X131128*
Y157600*
X129050*
G75*
G02X127247Y158347J2550*
G01*
X125647Y159947*
G75*
G02X124900Y161750I1803J1803*
G01*
Y165535*
G75*
G02X121728Y164826I-2250J2615*
G01*
G75*
G02X116505Y159095I-3478J-2076*
G01*
X114205Y156795*
G75*
G02X113250Y156400I-954J955*
G01*
X110005*
G75*
G02Y149100I-1755J-3650*
G01*
X112691*
X114595Y151005*
G75*
G02X114200Y152750I3654J1745*
G01*
G75*
G02X122300I4050*
G01*
G75*
G02X116505Y149095I-4050*
G01*
X114205Y146795*
G75*
G02X113250Y146400I-954J955*
G01*
X110005*
G75*
G02Y139100I-1755J-3650*
G01*
X112691*
X114595Y141005*
G75*
G02X114200Y142750I3654J1745*
G01*
G75*
G02X122300I4050*
G01*
G75*
G02X116505Y139095I-4050*
G01*
X114205Y136795*
G75*
G02X113250Y136400I-954J955*
G01*
X110005*
G75*
G02X111600Y130474I-1755J-3650*
G01*
Y121009*
X116900Y126309*
Y128931*
G75*
G02X114200Y132750I1350J3819*
G01*
G75*
G02X122300I4050*
G01*
G75*
G02X119600Y128931I-4050*
G01*
Y125750*
G75*
G02X119205Y124795I-1350J0*
G01*
X119017Y124608*
G75*
G02X122005Y117100I1233J-3858*
G01*
X128495*
G75*
G02X130250Y124800I1755J3650*
G01*
G75*
G02X132005Y117100J-4050*
G01*
X137250*
G75*
G02X138205Y116705I0J-1350*
G01*
X140111Y114798*
G75*
G02X140250Y114800I138J-4052*
G01*
G75*
G02Y106700J-4050*
G01*
G75*
G02X137432Y113659J4050*
G01*
X136691Y114400*
X132005*
G75*
G02X129238Y106829I-1754J-3650*
G01*
X128209Y105800*
X152691*
X156396Y109505*
G75*
G02X160250Y114800I3854J1245*
G01*
G75*
G02Y106700J-4050*
G01*
G75*
G02X158056Y107346J4050*
G01*
X155659Y104950*
X184950*
Y197050*
X182650Y199350*
X128858*
G75*
G02X124833Y194857I-4026J-443*
G01*
G75*
G02X120807Y199350J4050*
G01*
X118858*
X140250Y116700D02*
G75*
G02Y124800J4050D01*
G01*
G75*
G02Y116700J-4050*
G01*
X145561Y146837D02*
Y139618D01*
X139329*
Y146837*
X145561*
Y185837D02*
Y178618D01*
X139329*
Y185837*
X145561*
Y196837D02*
Y189618D01*
X139329*
Y196837*
X145561*
X147368Y166470D02*
X157931D01*
Y160630*
X147368*
Y166470*
X150250Y106700D02*
G75*
G02Y114800J4050D01*
G01*
G75*
G02Y106700J-4050*
G01*
Y116700D02*
G75*
G02Y124800J4050D01*
G01*
G75*
G02Y116700J-4050*
G01*
X160250D02*
G75*
G02Y124800J4050D01*
G01*
G75*
G02Y116700J-4050*
G01*
X170203Y156102D02*
Y170998D01*
X180766*
Y156102*
X170203*
X181087Y188430D02*
G75*
G02X172987I-4050D01*
G01*
G75*
G02X181087I4050*
G01*
X134300Y120750D02*
G36*
G75*
G02X132005Y117100I-4050D01*
G01*
X137250*
G75*
G02X138205Y116705I0J-1350*
G01*
X140111Y114798*
G75*
G02X140250Y114800I138J-4052*
G01*
G75*
G02X144300Y110750J-4050*
G01*
X146200*
G75*
G02X150250Y114800I4050*
G01*
G75*
G02X154300Y110750J-4050*
G01*
X156200*
G75*
G02X160250Y114800I4050*
G01*
G75*
G02Y106700J-4050*
G01*
G75*
G02X158056Y107346J4050*
G01*
X155659Y104950*
X184950*
Y120750*
X164300*
G75*
G02X160250Y116700I-4050*
G01*
G75*
G02X156200Y120750J4050*
G01*
X154300*
G75*
G02X150250Y116700I-4050*
G01*
G75*
G02X146200Y120750J4050*
G01*
X144300*
G75*
G02X140250Y116700I-4050*
G01*
G75*
G02X136200Y120750J4050*
G01*
X134300*
G37*
X136200D02*
G36*
G75*
G02X140250Y124800I4050D01*
G01*
G75*
G02X144300Y120750J-4050*
G01*
X146200*
G75*
G02X150250Y124800I4050*
G01*
G75*
G02X154300Y120750J-4050*
G01*
X156200*
G75*
G02X160250Y124800I4050*
G01*
G75*
G02X164300Y120750J-4050*
G01*
X184950*
Y163550*
X180766*
Y156102*
X170203*
Y163550*
X157931*
Y160630*
X147368*
Y163550*
X145227*
G75*
G02X143787Y162559I-2671J2339*
G01*
G75*
G02X144343Y156624I-1642J-3147*
G01*
X145360*
Y156253*
X147368*
Y157415*
X157931*
Y151575*
X154247*
Y146837*
X154813*
Y144599*
X157050*
G75*
G02X158500Y143999J-2050*
G01*
X170499Y132000*
G75*
G02X171099Y130550I-1450J-1450*
G01*
Y129326*
G75*
G02X172500Y126550I-2049J-2776*
G01*
G75*
G02X165600I-3450*
G01*
G75*
G02X166999Y129324I3450*
G01*
Y129701*
X156201Y140499*
X154813*
Y139618*
X153751*
Y138550*
G75*
G02X153077Y136923I-2300*
G01*
X147476Y131324*
G75*
G02X145850Y130651I-1626J1626*
G01*
X136422*
G75*
G02X130400Y132950I-2572J2299*
G01*
G75*
G02X136421Y135251I3450*
G01*
X144898*
X149151Y139503*
Y139618*
X148581*
Y143227*
X145561*
Y139618*
X139329*
Y143227*
X122272*
G75*
G02X122300Y142750I-4022J-478*
G01*
G75*
G02X116505Y139095I-4050*
G01*
X114205Y136795*
G75*
G02X113250Y136400I-954J955*
G01*
X110005*
G75*
G02X111600Y130474I-1755J-3650*
G01*
Y121009*
X116900Y126309*
Y128931*
G75*
G02X114200Y132750I1350J3819*
G01*
G75*
G02X122300I4050*
G01*
G75*
G02X119600Y128931I-4050*
G01*
Y125750*
G75*
G02X119205Y124795I-1350J0*
G01*
X119017Y124608*
G75*
G02X122005Y117100I1233J-3858*
G01*
X128495*
G75*
G02X130250Y124800I1755J3650*
G01*
G75*
G02X134300Y120750J-4050*
G01*
X136200*
G37*
X139329Y143227D02*
G36*
Y146837D01*
X145561*
Y143227*
X148581*
Y146837*
X149147*
Y151153*
X145360*
Y150781*
X138929*
Y151043*
X137050*
G75*
G02X135135Y151835J2707*
G01*
X132430Y154541*
G75*
G02X131637Y156456I1915J1915*
G01*
Y156982*
X131128*
Y157600*
X129050*
G75*
G02X127247Y158347J2550*
G01*
X125647Y159947*
G75*
G02X124900Y161750I1803J1803*
G01*
Y165535*
G75*
G02X121728Y164826I-2250J2615*
G01*
G75*
G02X116505Y159095I-3478J-2076*
G01*
X114205Y156795*
G75*
G02X113250Y156400I-954J955*
G01*
X110005*
G75*
G02Y149100I-1755J-3650*
G01*
X112691*
X114595Y151005*
G75*
G02X114200Y152750I3654J1745*
G01*
G75*
G02X122300I4050*
G01*
G75*
G02X116505Y149095I-4050*
G01*
X114205Y146795*
G75*
G02X113250Y146400I-954J955*
G01*
X110005*
G75*
G02Y139100I-1755J-3650*
G01*
X112691*
X114595Y141005*
G75*
G02X114200Y142750I3654J1745*
G01*
G75*
G02X122272Y143227I4050*
G01*
X139329*
G37*
X121800Y182227D02*
G36*
Y178750D01*
G75*
G02X121346Y177654I-1550*
G01*
X110493Y166801*
X112301*
Y159100*
X112691*
X114595Y161005*
G75*
G02X119580Y166575I3655J1745*
G01*
G75*
G02X124974Y170700I3070J1575*
G01*
X125126*
G75*
G02X130000Y165826I2324J-2550*
G01*
Y162806*
X130106Y162700*
X131128*
Y168531*
X131294*
Y168644*
G75*
G02X132189Y170802I3050*
G01*
X134894Y173506*
G75*
G02X137050Y174398I2156J-2157*
G01*
X139341*
Y174518*
X139941*
G75*
G02X142557Y176001I2617J-1567*
G01*
X148401*
Y181274*
G75*
G02X148554Y182227I3049J0*
G01*
X145561*
Y178618*
X139329*
Y182227*
X121800*
G37*
X139329D02*
G36*
Y185837D01*
X145561*
Y182227*
X148554*
G75*
G02X148557Y182239I2916J-934*
G01*
G75*
G02X148581Y182608I3140J-13*
G01*
Y185837*
X148647*
Y189618*
X148581*
Y192846*
G75*
G02X148557Y193227I3115J381*
G01*
X145561*
Y189618*
X139329*
Y193227*
X119965*
X121346Y191846*
G75*
G02X121651Y191413I-1096J-1095*
G01*
G75*
G02X124833Y192957I3182J-2506*
G01*
G75*
G02Y184857J-4050*
G01*
G75*
G02X121800Y186223J4050*
G01*
Y182227*
X139329*
G37*
Y193227D02*
G36*
Y196837D01*
X145561*
Y193227*
X148557*
G75*
G02X148581Y193608I3138*
G01*
Y196837*
X154813*
Y196277*
X162241*
G75*
G02X164397Y195384J-3050*
G01*
X167310Y192471*
G75*
G02X171078Y188703I-272J-4041*
G01*
X171345Y188436*
G75*
G02X171351Y188430I-2146J-2151*
G01*
X172987*
G75*
G02X181087I4050*
G01*
X184950*
Y197050*
X182650Y199350*
X128858*
G75*
G02X124833Y194857I-4026J-443*
G01*
G75*
G02X120807Y199350J4050*
G01*
X118858*
G75*
G02X117409Y195783I-4026J-443*
G01*
X119965Y193227*
X139329*
G37*
X147368Y163550D02*
G36*
Y166470D01*
X157931*
Y163550*
X170203*
Y170998*
X180766*
Y163550*
X184950*
Y188430*
X181087*
G75*
G02X172987I-4050*
G01*
X171351*
G75*
G02X172239Y186279I-2162J-2151*
G01*
Y182997*
G75*
G02X178447Y180644I2659J-2352*
G01*
G75*
G02X172108Y178448I-3550*
G01*
Y177429*
X166270*
Y179760*
G75*
G02X166139Y180644I2919J885*
G01*
Y184481*
G75*
G02X162996Y188158I899J3949*
G01*
X160977Y190177*
X154813*
Y189618*
X154747*
Y185837*
X154813*
Y182615*
G75*
G02Y181840I-3114J-387*
G01*
Y178618*
X154501*
Y175526*
X157931*
Y169685*
X153804*
G75*
G02X151908Y169554I-1154J2920*
G01*
X151451*
G75*
G02X150567Y169685J3051*
G01*
X147368*
Y169901*
X145770*
Y168677*
X144752*
G75*
G02X145227Y163550I-2197J-2789*
G01*
X147368*
G37*
X144300Y110750D02*
G36*
G75*
G02X140250Y106700I-4050D01*
G01*
G75*
G02X137432Y113659J4050*
G01*
X136691Y114400*
X132005*
G75*
G02X129238Y106829I-1754J-3650*
G01*
X128209Y105800*
X152691*
X156396Y109505*
G75*
G02X156200Y110750I3854J1245*
G01*
X154300*
G75*
G02X150250Y106700I-4050*
G01*
G75*
G02X146200Y110750J4050*
G01*
X144300*
G37*
X171450Y78050D02*
Y68950D01*
X164650*
X162650Y70950*
Y75950*
X164750Y78050*
X171450*
G36*
Y68950*
X164650*
X162650Y70950*
Y75950*
X164750Y78050*
X171450*
G37*
D02*
D13*
X13187Y151467D03*
X14833Y188907D03*
X108250Y162750D03*
X120250Y110750D03*
D02*
D14*
X13187Y102254D03*
Y112096D03*
Y121939D03*
Y131781D03*
Y141624D03*
X14833Y198907D03*
X24833Y188907D03*
Y198907D03*
X34833Y188907D03*
Y198907D03*
X44833Y188907D03*
Y198907D03*
X54833Y188907D03*
Y198907D03*
X64833Y188907D03*
Y198907D03*
X74833Y188907D03*
Y198907D03*
X84833Y188907D03*
Y198907D03*
X94833Y188907D03*
Y198907D03*
X104833Y188907D03*
Y198907D03*
X108250Y132750D03*
Y142750D03*
Y152750D03*
X114833Y188907D03*
Y198907D03*
X118250Y132750D03*
Y142750D03*
Y152750D03*
Y162750D03*
X120250Y120750D03*
X124833Y188907D03*
Y198907D03*
X130250Y110750D03*
Y120750D03*
X140250Y110750D03*
Y120750D03*
X150250Y110750D03*
Y120750D03*
X160250Y110750D03*
Y120750D03*
X167037Y188430D03*
X177037D03*
D02*
D15*
X24156Y67734D03*
Y73443D03*
X24344Y80057D03*
Y85766D03*
X134344Y159903D03*
Y165611D03*
X142144Y153703D03*
Y159411D03*
X142556Y165889D03*
Y171597D03*
D02*
D16*
X20234Y101844D03*
X25943D03*
X68557Y95656D03*
X74266D03*
X169189Y180644D03*
X174897D03*
D02*
D17*
X104573Y80545D03*
Y89797D03*
X104927Y57703D03*
Y66955D03*
X144573Y80545D03*
Y89797D03*
D02*
D19*
X142445Y143227D03*
Y182227D03*
Y193227D03*
X151045Y73427D03*
X151697Y143227D03*
Y182227D03*
Y193227D03*
X160297Y73427D03*
D02*
D70*
X104191Y73750D03*
X144309D03*
D02*
D71*
X179644Y56553D03*
Y90569D03*
D02*
D21*
X12250Y64750D03*
Y76750D03*
Y92750D03*
X14250Y166750D03*
Y178750D03*
X23250Y91750D03*
Y163750D03*
X24250Y54750D03*
X27250Y138750D03*
X28250Y173750D03*
X31450Y80150D03*
X38250Y113750D03*
X40250Y139750D03*
Y162750D03*
X41250Y126750D03*
X42250Y54750D03*
Y117750D03*
Y154550D03*
X45250Y162750D03*
X46250Y99750D03*
X49250Y136750D03*
Y144750D03*
X55250Y117750D03*
X57050Y84150D03*
X62650Y92950D03*
X63250Y117750D03*
Y139750D03*
Y158750D03*
X64250Y57750D03*
X69250Y175750D03*
X71250Y129750D03*
Y158750D03*
X73250Y146750D03*
X75250Y57750D03*
X77250Y117750D03*
X78250Y69750D03*
X80250Y133750D03*
Y146750D03*
X84250Y57750D03*
Y117750D03*
X85250Y124750D03*
Y139750D03*
Y152750D03*
X100250Y160150D03*
X101250Y111750D03*
X114250Y57750D03*
Y64750D03*
Y71750D03*
Y77750D03*
Y83750D03*
Y89750D03*
Y98750D03*
X122650Y168150D03*
X125250Y142750D03*
X127450Y168150D03*
X133850Y132950D03*
X135250Y143750D03*
Y180750D03*
X136250Y195750D03*
X153050Y160150D03*
X159250Y183750D03*
X160250Y148750D03*
X169050Y126550D03*
X169250Y153750D03*
Y168750D03*
X173250Y137750D03*
X181250Y114750D03*
X182250Y129750D03*
Y145750D03*
Y163750D03*
Y176750D03*
D02*
D22*
X38650Y96150D03*
X59250Y144750D03*
X67250Y147750D03*
X70250Y139750D02*
X85250D01*
X90650Y167350D03*
X121250Y53750D03*
Y61750D03*
Y69750D03*
Y77750D03*
Y85750D03*
Y93750D03*
X128250Y53750D03*
Y61750D03*
Y69750D03*
Y77750D03*
Y85750D03*
Y93750D03*
Y101750D03*
X136250Y53750D03*
Y61750D03*
Y65750D03*
Y69750D03*
Y73750D03*
Y77750D03*
Y81750D03*
Y85750D03*
Y93750D03*
Y101750D03*
X139250Y68750D03*
Y78750D03*
Y81750D03*
X140250Y65750D03*
Y85750D03*
X144250Y53750D03*
Y61750D03*
Y65750D03*
Y85750D03*
Y93750D03*
Y101750D03*
X148250Y65750D03*
Y68750D03*
Y85750D03*
X149250Y78750D03*
Y81750D03*
X152250Y53750D03*
Y61750D03*
Y65750D03*
Y68750D03*
Y78750D03*
Y81750D03*
Y85750D03*
Y93750D03*
Y101750D03*
X156250Y65750D03*
Y68750D03*
Y71750D03*
Y75750D03*
Y78750D03*
Y81750D03*
X160250Y53750D03*
Y61750D03*
Y65750D03*
Y68750D03*
Y78750D03*
Y81750D03*
Y85750D03*
Y93750D03*
Y101750D03*
X164250Y65750D03*
Y81750D03*
X168250Y53750D03*
Y61750D03*
Y65750D03*
Y81750D03*
Y85750D03*
Y93750D03*
Y101750D03*
X169050Y126550D02*
Y130550D01*
X157050Y142550*
X152374*
X151697Y143227*
X172250Y65750D03*
Y81750D03*
X176250Y53750D03*
Y61750D03*
Y65750D03*
Y81750D03*
Y85750D03*
Y93750D03*
Y101750D03*
X180250Y65750D03*
Y81750D03*
X184250Y53750D03*
Y61750D03*
Y65750D03*
Y81750D03*
Y85750D03*
Y93750D03*
Y101750D03*
D02*
D23*
X81152Y79250D02*
X89750D01*
X95250Y73750*
X104191*
X133850Y132950D02*
X145850D01*
X151450Y138550*
Y142980*
X151697Y143227*
D02*
D24*
X24156Y67734D02*
X31368D01*
X34250Y64852*
X24156Y73443D02*
Y79868D01*
X24344Y80057*
X24156Y73443D02*
X33392D01*
X34250Y74301*
X24344Y80057D02*
X31357D01*
X31450Y80150*
X49998Y74301D02*
X61297D01*
X61348Y74250*
Y89250D02*
Y91648D01*
X62650Y92950*
X70250Y139750D02*
X63250Y132750D01*
Y117750*
X70250Y139750D02*
X63250Y146750D01*
Y158750*
X81152Y74250D02*
Y72652D01*
X78250Y69750*
D02*
D25*
X122650Y168150D02*
X127450D01*
Y161750*
X129050Y160150*
X133792*
X134039Y159903*
X134344*
Y156456*
X137050Y153750*
X142097*
X142144Y153703*
X151858*
X152650Y154495*
X151697Y143227D02*
Y153542D01*
X152650Y154495*
D02*
D26*
X134344Y165611D02*
Y168644D01*
X137050Y171350*
X142308*
X142556Y171597*
Y172950*
X151642*
X151987Y172605*
X152650*
X151697Y182227D02*
Y193227D01*
X162241*
X167037Y188430*
X152650Y172605D02*
X151450D01*
Y181274*
X151697Y181522*
Y182227*
X169189Y180644D02*
Y186279D01*
X167037Y188430*
D02*
D76*
X33033Y115128D03*
Y117096D03*
Y119065D03*
Y121033D03*
Y123002D03*
Y124970D03*
Y126939D03*
Y128907D03*
Y130876D03*
Y132844D03*
Y134813D03*
Y136781D03*
Y138750D03*
Y140719D03*
Y142687D03*
Y144656D03*
Y146624D03*
Y148593D03*
Y150561D03*
Y152530D03*
Y154498D03*
Y156467D03*
Y158435D03*
Y160404D03*
Y162372D03*
X93467Y115128D03*
Y117096D03*
Y119065D03*
Y121033D03*
Y123002D03*
Y124970D03*
Y126939D03*
Y128907D03*
Y130876D03*
Y132844D03*
Y134813D03*
Y136781D03*
Y138750D03*
Y140719D03*
Y142687D03*
Y144656D03*
Y146624D03*
Y148593D03*
Y150561D03*
Y152530D03*
Y154498D03*
Y156467D03*
Y158435D03*
Y160404D03*
Y162372D03*
D02*
D77*
X39628Y108533D03*
Y168967D03*
X41596Y108533D03*
Y168967D03*
X43565Y108533D03*
Y168967D03*
X45533Y108533D03*
Y168967D03*
X47502Y108533D03*
Y168967D03*
X49470Y108533D03*
Y168967D03*
X51439Y108533D03*
Y168967D03*
X53407Y108533D03*
Y168967D03*
X55376Y108533D03*
Y168967D03*
X57344Y108533D03*
Y168967D03*
X59313Y108533D03*
Y168967D03*
X61281Y108533D03*
Y168967D03*
X63250Y108533D03*
Y168967D03*
X65219Y108533D03*
Y168967D03*
X67187Y108533D03*
Y168967D03*
X69156Y108533D03*
Y168967D03*
X71124Y108533D03*
Y168967D03*
X73093Y108533D03*
Y168967D03*
X75061Y108533D03*
Y168967D03*
X77030Y108533D03*
Y168967D03*
X78998Y108533D03*
Y168967D03*
X80967Y108533D03*
Y168967D03*
X82935Y108533D03*
Y168967D03*
X84904Y108533D03*
Y168967D03*
X86872Y108533D03*
Y168967D03*
D02*
D78*
X61348Y74250D03*
Y79250D03*
Y84250D03*
Y89250D03*
X81152Y74250D03*
Y79250D03*
Y84250D03*
Y89250D03*
D02*
D79*
X34250Y64852D03*
Y74301D03*
X49998Y64852D03*
Y74301D03*
D02*
D80*
X152650Y154495D03*
Y163550D03*
Y172605D03*
D02*
D81*
X175485Y163550D03*
D02*
D82*
X179644Y73561D03*
D02*
D83*
X104573Y80545D02*
Y74132D01*
X104191Y73750*
X104927Y66955D02*
Y73014D01*
X104191Y73750*
X124833Y188907D02*
X141688D01*
X142445Y188150*
X142144Y159411D02*
Y162550D01*
X151650*
X152650Y163550*
X142144Y162550D02*
Y165478D01*
X142556Y165889*
X142445Y182227D02*
Y188150D01*
Y193227*
X144309Y73750D02*
X150722D01*
X151045Y73427*
X144573Y80545D02*
Y74014D01*
X144309Y73750*
X152650Y163550D02*
Y160550D01*
X153050Y160150*
X160297Y73427D02*
X179510D01*
X179644Y73561*
X174897Y180644D02*
X175450D01*
Y186290*
X177037Y187878*
Y188430*
X175485Y163550D02*
Y180057D01*
X174897Y180644*
D02*
D84*
X33033Y126939D02*
X41061D01*
X41250Y126750*
X33033Y154498D02*
X42198D01*
X42250Y154550*
X49998Y74301D02*
Y88498D01*
X61250Y99750*
Y108502*
X61281Y108533*
X55376D02*
Y117624D01*
X55250Y117750*
X63250Y108533D02*
Y117750D01*
Y168967D02*
Y158750D01*
X69156Y168967D02*
Y175656D01*
X69250Y175750*
X71124Y168967D02*
Y158876D01*
X71250Y158750*
X81152Y89250D02*
X85750D01*
X87250Y90750*
Y92750*
X79250Y100750*
X70250*
X65250Y105750*
Y108502*
X65219Y108533*
X93467Y124970D02*
X85470D01*
X85250Y124750*
X93467Y152530D02*
X85470D01*
X85250Y152750*
D02*
D85*
X80967Y108533D02*
Y111750D01*
X81967Y112750*
X89650*
X94150Y108250*
X109950*
X117450Y115750*
X137250*
X140250Y112750*
Y110750*
X82935Y108533D02*
X82750D01*
Y105750*
X84050Y104450*
X153250*
X159550Y110750*
X160250*
X84904Y108533D02*
Y110450D01*
X85904Y111450*
X88450*
X92950Y106950*
X117250*
X120250Y109950*
Y110750*
X86872Y108533D02*
Y107128D01*
X88250Y105750*
X126250*
X130250Y109750*
Y110750*
X93467Y115128D02*
X107628D01*
X118250Y125750*
Y132750*
X93467Y117096D02*
X106596D01*
X110250Y120750*
Y131750*
X109250Y132750*
X108250*
X93467Y119065D02*
X98565D01*
X102250Y122750*
Y134750*
X105250Y137750*
X113250*
X118250Y142750*
X93467Y121033D02*
X98533D01*
X101050Y123550*
Y135350*
X108250Y142550*
Y142750*
X93467Y123002D02*
X97502D01*
X99450Y124950*
Y141750*
X105450Y147750*
X113250*
X118250Y152750*
X93467Y128907D02*
X97007D01*
X97850Y129750*
Y142350*
X108250Y152750*
X93467Y130876D02*
X95776D01*
X96250Y131350*
Y148950*
X105050Y157750*
X113250*
X118250Y162750*
X0Y0D02*
M02*
